ISO-10303-21;
HEADER;
/* Generated by software containing ST-Developer
 * from STEP Tools, Inc. (www.steptools.com) 
 */
/* OPTION: using custom renumber hook */

FILE_DESCRIPTION(
/* description */ ('STEP AP242 Edition 2',
'CAx-IF Rec.Pracs.---Representation and Presentation of Product Manufa
cturing Information (PMI)---4.0---2014-10-13',
'CAx-IF Rec.Pracs.---3D Tessellated Geometry---0.4---2014-09-14','2;1',
'CAx-IF Rec.Pracs.---User Defined Attributes---1.5---2016-08-15'),
/* implementation_level */ '2;1');

FILE_NAME(
/* name */ 'Cubby Unit - Cubby vslot attachment',
/* time_stamp */ '2026-10-06T19:11:59Z',
/* author */ (''),
/* organization */ (''),
/* preprocessor_version */ 'ST-DEVELOPER v20',
/* originating_system */ 'ONSHAPE BY PTC INC, 1.221',
/* authorisation */ '  ');

FILE_SCHEMA (('AP242_MANAGED_MODEL_BASED_3D_ENGINEERING_MIM_LF { 1 0 10303 442 3 1 4 }'));
ENDSEC;

DATA;
#10=SHAPE_REPRESENTATION_RELATIONSHIP('','',#1125,#11);
#11=ADVANCED_BREP_SHAPE_REPRESENTATION('',(#1123),#1878);
#12=SPHERICAL_SURFACE('',#1211,0.001);
#13=SPHERICAL_SURFACE('',#1213,0.001);
#14=SPHERICAL_SURFACE('',#1223,0.001);
#15=SPHERICAL_SURFACE('',#1225,0.001);
#16=CYLINDRICAL_SURFACE('',#1135,0.0025);
#17=CYLINDRICAL_SURFACE('',#1140,0.0025);
#18=CYLINDRICAL_SURFACE('',#1143,0.0025);
#19=CYLINDRICAL_SURFACE('',#1168,0.00210000000000007);
#20=CYLINDRICAL_SURFACE('',#1184,0.005);
#21=CYLINDRICAL_SURFACE('',#1192,0.005);
#22=CYLINDRICAL_SURFACE('',#1195,0.005);
#23=CYLINDRICAL_SURFACE('',#1200,0.001);
#24=CYLINDRICAL_SURFACE('',#1202,0.001);
#25=CYLINDRICAL_SURFACE('',#1204,0.001);
#26=CYLINDRICAL_SURFACE('',#1207,0.001);
#27=CYLINDRICAL_SURFACE('',#1209,0.001);
#28=CYLINDRICAL_SURFACE('',#1215,0.001);
#29=CYLINDRICAL_SURFACE('',#1217,0.001);
#30=CYLINDRICAL_SURFACE('',#1219,0.001);
#31=CYLINDRICAL_SURFACE('',#1221,0.001);
#32=CYLINDRICAL_SURFACE('',#1227,0.001);
#33=CYLINDRICAL_SURFACE('',#1228,0.001);
#34=CYLINDRICAL_SURFACE('',#1229,0.001);
#35=CYLINDRICAL_SURFACE('',#1230,0.001);
#36=CYLINDRICAL_SURFACE('',#1231,0.001);
#37=CYLINDRICAL_SURFACE('',#1232,0.001);
#38=ELLIPSE('',#1131,0.00168002976164114,0.001);
#39=ELLIPSE('',#1132,0.00168002976164114,0.001);
#40=ELLIPSE('',#1154,0.00141421356237309,0.001);
#41=ELLIPSE('',#1156,0.00141421356237309,0.001);
#42=ELLIPSE('',#1163,0.00124446649010455,0.001);
#43=ELLIPSE('',#1164,0.00124446649010455,0.001);
#44=ELLIPSE('',#1171,0.00168002976164114,0.001);
#45=ELLIPSE('',#1172,0.00168002976164114,0.001);
#46=ELLIPSE('',#1174,0.00622233245052275,0.005);
#47=ELLIPSE('',#1178,0.00141421356237309,0.001);
#48=ELLIPSE('',#1179,0.0017599413882247,0.001);
#49=ELLIPSE('',#1181,0.00141421356237309,0.001);
#50=ELLIPSE('',#1182,0.0017599413882247,0.001);
#51=ELLIPSE('',#1201,0.00108239220029239,0.001);
#52=ELLIPSE('',#1210,0.00108239220029239,0.001);
#53=CIRCLE('',#1128,0.005);
#54=CIRCLE('',#1129,0.005);
#55=CIRCLE('',#1130,0.005);
#56=CIRCLE('',#1136,0.0025);
#57=CIRCLE('',#1137,0.0025);
#58=CIRCLE('',#1141,0.0025);
#59=CIRCLE('',#1142,0.0025);
#60=CIRCLE('',#1144,0.0025);
#61=CIRCLE('',#1145,0.0025);
#62=CIRCLE('',#1150,0.00210000000000007);
#63=CIRCLE('',#1152,0.00210000000000007);
#64=CIRCLE('',#1159,0.001);
#65=CIRCLE('',#1160,0.001);
#66=CIRCLE('',#1185,0.005);
#67=CIRCLE('',#1193,0.005);
#68=CIRCLE('',#1196,0.005);
#69=CIRCLE('',#1203,0.001);
#70=CIRCLE('',#1205,0.001);
#71=CIRCLE('',#1206,0.001);
#72=CIRCLE('',#1208,0.001);
#73=CIRCLE('',#1212,0.001);
#74=CIRCLE('',#1214,0.001);
#75=CIRCLE('',#1216,0.001);
#76=CIRCLE('',#1218,0.001);
#77=CIRCLE('',#1220,0.001);
#78=CIRCLE('',#1222,0.001);
#79=CIRCLE('',#1224,0.001);
#80=CIRCLE('',#1226,0.001);
#81=ORIENTED_EDGE('',*,*,#393,.F.);
#82=ORIENTED_EDGE('',*,*,#394,.T.);
#83=ORIENTED_EDGE('',*,*,#395,.F.);
#84=ORIENTED_EDGE('',*,*,#396,.F.);
#85=ORIENTED_EDGE('',*,*,#397,.F.);
#86=ORIENTED_EDGE('',*,*,#398,.T.);
#87=ORIENTED_EDGE('',*,*,#399,.F.);
#88=ORIENTED_EDGE('',*,*,#400,.T.);
#89=ORIENTED_EDGE('',*,*,#401,.T.);
#90=ORIENTED_EDGE('',*,*,#402,.F.);
#91=ORIENTED_EDGE('',*,*,#403,.T.);
#92=ORIENTED_EDGE('',*,*,#404,.T.);
#93=ORIENTED_EDGE('',*,*,#405,.T.);
#94=ORIENTED_EDGE('',*,*,#406,.T.);
#95=ORIENTED_EDGE('',*,*,#407,.T.);
#96=ORIENTED_EDGE('',*,*,#408,.T.);
#97=ORIENTED_EDGE('',*,*,#409,.T.);
#98=ORIENTED_EDGE('',*,*,#410,.F.);
#99=ORIENTED_EDGE('',*,*,#411,.T.);
#100=ORIENTED_EDGE('',*,*,#412,.F.);
#101=ORIENTED_EDGE('',*,*,#413,.T.);
#102=ORIENTED_EDGE('',*,*,#414,.T.);
#103=ORIENTED_EDGE('',*,*,#415,.F.);
#104=ORIENTED_EDGE('',*,*,#413,.F.);
#105=ORIENTED_EDGE('',*,*,#416,.T.);
#106=ORIENTED_EDGE('',*,*,#417,.T.);
#107=ORIENTED_EDGE('',*,*,#418,.F.);
#108=ORIENTED_EDGE('',*,*,#419,.F.);
#109=ORIENTED_EDGE('',*,*,#415,.T.);
#110=ORIENTED_EDGE('',*,*,#420,.T.);
#111=ORIENTED_EDGE('',*,*,#417,.F.);
#112=ORIENTED_EDGE('',*,*,#421,.F.);
#113=ORIENTED_EDGE('',*,*,#422,.T.);
#114=ORIENTED_EDGE('',*,*,#423,.T.);
#115=ORIENTED_EDGE('',*,*,#424,.F.);
#116=ORIENTED_EDGE('',*,*,#422,.F.);
#117=ORIENTED_EDGE('',*,*,#425,.T.);
#118=ORIENTED_EDGE('',*,*,#426,.T.);
#119=ORIENTED_EDGE('',*,*,#427,.F.);
#120=ORIENTED_EDGE('',*,*,#428,.F.);
#121=ORIENTED_EDGE('',*,*,#424,.T.);
#122=ORIENTED_EDGE('',*,*,#429,.T.);
#123=ORIENTED_EDGE('',*,*,#426,.F.);
#124=ORIENTED_EDGE('',*,*,#430,.F.);
#125=ORIENTED_EDGE('',*,*,#431,.T.);
#126=ORIENTED_EDGE('',*,*,#432,.T.);
#127=ORIENTED_EDGE('',*,*,#433,.F.);
#128=ORIENTED_EDGE('',*,*,#434,.F.);
#129=ORIENTED_EDGE('',*,*,#435,.T.);
#130=ORIENTED_EDGE('',*,*,#433,.T.);
#131=ORIENTED_EDGE('',*,*,#436,.F.);
#132=ORIENTED_EDGE('',*,*,#437,.F.);
#133=ORIENTED_EDGE('',*,*,#434,.T.);
#134=ORIENTED_EDGE('',*,*,#438,.T.);
#135=ORIENTED_EDGE('',*,*,#431,.F.);
#136=ORIENTED_EDGE('',*,*,#432,.F.);
#137=ORIENTED_EDGE('',*,*,#438,.F.);
#138=ORIENTED_EDGE('',*,*,#436,.T.);
#139=ORIENTED_EDGE('',*,*,#414,.F.);
#140=ORIENTED_EDGE('',*,*,#418,.T.);
#141=ORIENTED_EDGE('',*,*,#420,.F.);
#142=ORIENTED_EDGE('',*,*,#423,.F.);
#143=ORIENTED_EDGE('',*,*,#427,.T.);
#144=ORIENTED_EDGE('',*,*,#429,.F.);
#145=ORIENTED_EDGE('',*,*,#439,.T.);
#146=ORIENTED_EDGE('',*,*,#440,.T.);
#147=ORIENTED_EDGE('',*,*,#441,.F.);
#148=ORIENTED_EDGE('',*,*,#442,.T.);
#149=ORIENTED_EDGE('',*,*,#443,.F.);
#150=ORIENTED_EDGE('',*,*,#444,.T.);
#151=ORIENTED_EDGE('',*,*,#445,.T.);
#152=ORIENTED_EDGE('',*,*,#446,.T.);
#153=ORIENTED_EDGE('',*,*,#447,.F.);
#154=ORIENTED_EDGE('',*,*,#448,.T.);
#155=ORIENTED_EDGE('',*,*,#449,.T.);
#156=ORIENTED_EDGE('',*,*,#450,.T.);
#157=ORIENTED_EDGE('',*,*,#451,.T.);
#158=ORIENTED_EDGE('',*,*,#452,.T.);
#159=ORIENTED_EDGE('',*,*,#453,.F.);
#160=ORIENTED_EDGE('',*,*,#454,.F.);
#161=ORIENTED_EDGE('',*,*,#455,.F.);
#162=ORIENTED_EDGE('',*,*,#456,.T.);
#163=ORIENTED_EDGE('',*,*,#457,.T.);
#164=ORIENTED_EDGE('',*,*,#458,.T.);
#165=ORIENTED_EDGE('',*,*,#408,.F.);
#166=ORIENTED_EDGE('',*,*,#459,.T.);
#167=ORIENTED_EDGE('',*,*,#402,.T.);
#168=ORIENTED_EDGE('',*,*,#460,.T.);
#169=ORIENTED_EDGE('',*,*,#461,.F.);
#170=ORIENTED_EDGE('',*,*,#462,.T.);
#171=ORIENTED_EDGE('',*,*,#463,.T.);
#172=ORIENTED_EDGE('',*,*,#464,.T.);
#173=ORIENTED_EDGE('',*,*,#465,.T.);
#174=ORIENTED_EDGE('',*,*,#466,.F.);
#175=ORIENTED_EDGE('',*,*,#467,.F.);
#176=ORIENTED_EDGE('',*,*,#468,.T.);
#177=ORIENTED_EDGE('',*,*,#469,.T.);
#178=ORIENTED_EDGE('',*,*,#470,.T.);
#179=ORIENTED_EDGE('',*,*,#441,.T.);
#180=ORIENTED_EDGE('',*,*,#471,.T.);
#181=ORIENTED_EDGE('',*,*,#472,.T.);
#182=ORIENTED_EDGE('',*,*,#473,.T.);
#183=ORIENTED_EDGE('',*,*,#474,.T.);
#184=ORIENTED_EDGE('',*,*,#475,.T.);
#185=ORIENTED_EDGE('',*,*,#476,.F.);
#186=ORIENTED_EDGE('',*,*,#477,.T.);
#187=ORIENTED_EDGE('',*,*,#457,.F.);
#188=ORIENTED_EDGE('',*,*,#478,.F.);
#189=ORIENTED_EDGE('',*,*,#479,.T.);
#190=ORIENTED_EDGE('',*,*,#480,.T.);
#191=ORIENTED_EDGE('',*,*,#461,.T.);
#192=ORIENTED_EDGE('',*,*,#481,.T.);
#193=ORIENTED_EDGE('',*,*,#482,.F.);
#194=ORIENTED_EDGE('',*,*,#483,.T.);
#195=ORIENTED_EDGE('',*,*,#484,.T.);
#196=ORIENTED_EDGE('',*,*,#466,.T.);
#197=ORIENTED_EDGE('',*,*,#485,.T.);
#198=ORIENTED_EDGE('',*,*,#486,.T.);
#199=ORIENTED_EDGE('',*,*,#453,.T.);
#200=ORIENTED_EDGE('',*,*,#479,.F.);
#201=ORIENTED_EDGE('',*,*,#449,.F.);
#202=ORIENTED_EDGE('',*,*,#487,.T.);
#203=ORIENTED_EDGE('',*,*,#454,.T.);
#204=ORIENTED_EDGE('',*,*,#487,.F.);
#205=ORIENTED_EDGE('',*,*,#448,.F.);
#206=ORIENTED_EDGE('',*,*,#488,.T.);
#207=ORIENTED_EDGE('',*,*,#455,.T.);
#208=ORIENTED_EDGE('',*,*,#488,.F.);
#209=ORIENTED_EDGE('',*,*,#447,.T.);
#210=ORIENTED_EDGE('',*,*,#489,.T.);
#211=ORIENTED_EDGE('',*,*,#456,.F.);
#212=ORIENTED_EDGE('',*,*,#489,.F.);
#213=ORIENTED_EDGE('',*,*,#446,.F.);
#214=ORIENTED_EDGE('',*,*,#490,.T.);
#215=ORIENTED_EDGE('',*,*,#445,.F.);
#216=ORIENTED_EDGE('',*,*,#491,.T.);
#217=ORIENTED_EDGE('',*,*,#482,.T.);
#218=ORIENTED_EDGE('',*,*,#492,.T.);
#219=ORIENTED_EDGE('',*,*,#450,.F.);
#220=ORIENTED_EDGE('',*,*,#490,.F.);
#221=ORIENTED_EDGE('',*,*,#476,.T.);
#222=ORIENTED_EDGE('',*,*,#493,.T.);
#223=ORIENTED_EDGE('',*,*,#400,.F.);
#224=ORIENTED_EDGE('',*,*,#494,.F.);
#225=ORIENTED_EDGE('',*,*,#495,.F.);
#226=ORIENTED_EDGE('',*,*,#496,.T.);
#227=ORIENTED_EDGE('',*,*,#497,.T.);
#228=ORIENTED_EDGE('',*,*,#410,.T.);
#229=ORIENTED_EDGE('',*,*,#498,.T.);
#230=ORIENTED_EDGE('',*,*,#496,.F.);
#231=ORIENTED_EDGE('',*,*,#499,.F.);
#232=ORIENTED_EDGE('',*,*,#500,.F.);
#233=ORIENTED_EDGE('',*,*,#501,.T.);
#234=ORIENTED_EDGE('',*,*,#502,.T.);
#235=ORIENTED_EDGE('',*,*,#503,.T.);
#236=ORIENTED_EDGE('',*,*,#504,.T.);
#237=ORIENTED_EDGE('',*,*,#505,.T.);
#238=ORIENTED_EDGE('',*,*,#465,.F.);
#239=ORIENTED_EDGE('',*,*,#506,.T.);
#240=ORIENTED_EDGE('',*,*,#467,.T.);
#241=ORIENTED_EDGE('',*,*,#502,.F.);
#242=ORIENTED_EDGE('',*,*,#507,.T.);
#243=ORIENTED_EDGE('',*,*,#480,.F.);
#244=ORIENTED_EDGE('',*,*,#452,.F.);
#245=ORIENTED_EDGE('',*,*,#508,.T.);
#246=ORIENTED_EDGE('',*,*,#485,.F.);
#247=ORIENTED_EDGE('',*,*,#469,.F.);
#248=ORIENTED_EDGE('',*,*,#509,.T.);
#249=ORIENTED_EDGE('',*,*,#463,.F.);
#250=ORIENTED_EDGE('',*,*,#484,.F.);
#251=ORIENTED_EDGE('',*,*,#510,.T.);
#252=ORIENTED_EDGE('',*,*,#443,.T.);
#253=ORIENTED_EDGE('',*,*,#478,.T.);
#254=ORIENTED_EDGE('',*,*,#511,.T.);
#255=ORIENTED_EDGE('',*,*,#512,.T.);
#256=ORIENTED_EDGE('',*,*,#513,.T.);
#257=ORIENTED_EDGE('',*,*,#514,.T.);
#258=ORIENTED_EDGE('',*,*,#512,.F.);
#259=ORIENTED_EDGE('',*,*,#515,.T.);
#260=ORIENTED_EDGE('',*,*,#516,.T.);
#261=ORIENTED_EDGE('',*,*,#494,.T.);
#262=ORIENTED_EDGE('',*,*,#399,.T.);
#263=ORIENTED_EDGE('',*,*,#517,.F.);
#264=ORIENTED_EDGE('',*,*,#518,.F.);
#265=ORIENTED_EDGE('',*,*,#411,.F.);
#266=ORIENTED_EDGE('',*,*,#519,.F.);
#267=ORIENTED_EDGE('',*,*,#520,.T.);
#268=ORIENTED_EDGE('',*,*,#517,.T.);
#269=ORIENTED_EDGE('',*,*,#497,.F.);
#270=ORIENTED_EDGE('',*,*,#501,.F.);
#271=ORIENTED_EDGE('',*,*,#521,.T.);
#272=ORIENTED_EDGE('',*,*,#519,.T.);
#273=ORIENTED_EDGE('',*,*,#499,.T.);
#274=ORIENTED_EDGE('',*,*,#495,.T.);
#275=ORIENTED_EDGE('',*,*,#516,.F.);
#276=ORIENTED_EDGE('',*,*,#522,.F.);
#277=ORIENTED_EDGE('',*,*,#437,.T.);
#278=ORIENTED_EDGE('',*,*,#430,.T.);
#279=ORIENTED_EDGE('',*,*,#435,.F.);
#280=ORIENTED_EDGE('',*,*,#518,.T.);
#281=ORIENTED_EDGE('',*,*,#520,.F.);
#282=ORIENTED_EDGE('',*,*,#521,.F.);
#283=ORIENTED_EDGE('',*,*,#500,.T.);
#284=ORIENTED_EDGE('',*,*,#522,.T.);
#285=ORIENTED_EDGE('',*,*,#394,.F.);
#286=ORIENTED_EDGE('',*,*,#523,.F.);
#287=ORIENTED_EDGE('',*,*,#524,.T.);
#288=ORIENTED_EDGE('',*,*,#525,.T.);
#289=ORIENTED_EDGE('',*,*,#393,.T.);
#290=ORIENTED_EDGE('',*,*,#526,.F.);
#291=ORIENTED_EDGE('',*,*,#527,.F.);
#292=ORIENTED_EDGE('',*,*,#523,.T.);
#293=ORIENTED_EDGE('',*,*,#395,.T.);
#294=ORIENTED_EDGE('',*,*,#525,.F.);
#295=ORIENTED_EDGE('',*,*,#528,.F.);
#296=ORIENTED_EDGE('',*,*,#526,.T.);
#297=ORIENTED_EDGE('',*,*,#524,.F.);
#298=ORIENTED_EDGE('',*,*,#527,.T.);
#299=ORIENTED_EDGE('',*,*,#528,.T.);
#300=ORIENTED_EDGE('',*,*,#425,.F.);
#301=ORIENTED_EDGE('',*,*,#421,.T.);
#302=ORIENTED_EDGE('',*,*,#428,.T.);
#303=ORIENTED_EDGE('',*,*,#396,.T.);
#304=ORIENTED_EDGE('',*,*,#529,.F.);
#305=ORIENTED_EDGE('',*,*,#530,.F.);
#306=ORIENTED_EDGE('',*,*,#531,.T.);
#307=ORIENTED_EDGE('',*,*,#398,.F.);
#308=ORIENTED_EDGE('',*,*,#532,.F.);
#309=ORIENTED_EDGE('',*,*,#533,.T.);
#310=ORIENTED_EDGE('',*,*,#529,.T.);
#311=ORIENTED_EDGE('',*,*,#397,.T.);
#312=ORIENTED_EDGE('',*,*,#531,.F.);
#313=ORIENTED_EDGE('',*,*,#534,.F.);
#314=ORIENTED_EDGE('',*,*,#532,.T.);
#315=ORIENTED_EDGE('',*,*,#416,.F.);
#316=ORIENTED_EDGE('',*,*,#412,.T.);
#317=ORIENTED_EDGE('',*,*,#419,.T.);
#318=ORIENTED_EDGE('',*,*,#530,.T.);
#319=ORIENTED_EDGE('',*,*,#533,.F.);
#320=ORIENTED_EDGE('',*,*,#534,.T.);
#321=ORIENTED_EDGE('',*,*,#459,.F.);
#322=ORIENTED_EDGE('',*,*,#407,.F.);
#323=ORIENTED_EDGE('',*,*,#535,.F.);
#324=ORIENTED_EDGE('',*,*,#511,.F.);
#325=ORIENTED_EDGE('',*,*,#535,.T.);
#326=ORIENTED_EDGE('',*,*,#406,.F.);
#327=ORIENTED_EDGE('',*,*,#536,.F.);
#328=ORIENTED_EDGE('',*,*,#515,.F.);
#329=ORIENTED_EDGE('',*,*,#537,.F.);
#330=ORIENTED_EDGE('',*,*,#513,.F.);
#331=ORIENTED_EDGE('',*,*,#538,.F.);
#332=ORIENTED_EDGE('',*,*,#472,.F.);
#333=ORIENTED_EDGE('',*,*,#470,.F.);
#334=ORIENTED_EDGE('',*,*,#514,.F.);
#335=ORIENTED_EDGE('',*,*,#539,.F.);
#336=ORIENTED_EDGE('',*,*,#442,.F.);
#337=ORIENTED_EDGE('',*,*,#462,.F.);
#338=ORIENTED_EDGE('',*,*,#507,.F.);
#339=ORIENTED_EDGE('',*,*,#540,.F.);
#340=ORIENTED_EDGE('',*,*,#403,.F.);
#341=ORIENTED_EDGE('',*,*,#538,.T.);
#342=ORIENTED_EDGE('',*,*,#536,.T.);
#343=ORIENTED_EDGE('',*,*,#541,.F.);
#344=ORIENTED_EDGE('',*,*,#539,.T.);
#345=ORIENTED_EDGE('',*,*,#537,.T.);
#346=ORIENTED_EDGE('',*,*,#542,.F.);
#347=ORIENTED_EDGE('',*,*,#540,.T.);
#348=ORIENTED_EDGE('',*,*,#505,.F.);
#349=ORIENTED_EDGE('',*,*,#543,.F.);
#350=ORIENTED_EDGE('',*,*,#404,.F.);
#351=ORIENTED_EDGE('',*,*,#541,.T.);
#352=ORIENTED_EDGE('',*,*,#405,.F.);
#353=ORIENTED_EDGE('',*,*,#544,.F.);
#354=ORIENTED_EDGE('',*,*,#473,.F.);
#355=ORIENTED_EDGE('',*,*,#542,.T.);
#356=ORIENTED_EDGE('',*,*,#475,.F.);
#357=ORIENTED_EDGE('',*,*,#545,.F.);
#358=ORIENTED_EDGE('',*,*,#439,.F.);
#359=ORIENTED_EDGE('',*,*,#471,.F.);
#360=ORIENTED_EDGE('',*,*,#440,.F.);
#361=ORIENTED_EDGE('',*,*,#546,.F.);
#362=ORIENTED_EDGE('',*,*,#503,.F.);
#363=ORIENTED_EDGE('',*,*,#544,.T.);
#364=ORIENTED_EDGE('',*,*,#543,.T.);
#365=ORIENTED_EDGE('',*,*,#547,.F.);
#366=ORIENTED_EDGE('',*,*,#546,.T.);
#367=ORIENTED_EDGE('',*,*,#545,.T.);
#368=ORIENTED_EDGE('',*,*,#548,.F.);
#369=ORIENTED_EDGE('',*,*,#547,.T.);
#370=ORIENTED_EDGE('',*,*,#504,.F.);
#371=ORIENTED_EDGE('',*,*,#548,.T.);
#372=ORIENTED_EDGE('',*,*,#474,.F.);
#373=ORIENTED_EDGE('',*,*,#509,.F.);
#374=ORIENTED_EDGE('',*,*,#468,.F.);
#375=ORIENTED_EDGE('',*,*,#506,.F.);
#376=ORIENTED_EDGE('',*,*,#464,.F.);
#377=ORIENTED_EDGE('',*,*,#510,.F.);
#378=ORIENTED_EDGE('',*,*,#483,.F.);
#379=ORIENTED_EDGE('',*,*,#491,.F.);
#380=ORIENTED_EDGE('',*,*,#444,.F.);
#381=ORIENTED_EDGE('',*,*,#508,.F.);
#382=ORIENTED_EDGE('',*,*,#451,.F.);
#383=ORIENTED_EDGE('',*,*,#492,.F.);
#384=ORIENTED_EDGE('',*,*,#486,.F.);
#385=ORIENTED_EDGE('',*,*,#401,.F.);
#386=ORIENTED_EDGE('',*,*,#493,.F.);
#387=ORIENTED_EDGE('',*,*,#481,.F.);
#388=ORIENTED_EDGE('',*,*,#460,.F.);
#389=ORIENTED_EDGE('',*,*,#477,.F.);
#390=ORIENTED_EDGE('',*,*,#498,.F.);
#391=ORIENTED_EDGE('',*,*,#409,.F.);
#392=ORIENTED_EDGE('',*,*,#458,.F.);
#393=EDGE_CURVE('',#549,#550,#646,.T.);
#394=EDGE_CURVE('',#549,#551,#647,.T.);
#395=EDGE_CURVE('',#550,#551,#53,.T.);
#396=EDGE_CURVE('',#552,#553,#54,.T.);
#397=EDGE_CURVE('',#554,#552,#648,.T.);
#398=EDGE_CURVE('',#554,#553,#649,.T.);
#399=EDGE_CURVE('',#555,#556,#55,.T.);
#400=EDGE_CURVE('',#555,#557,#650,.T.);
#401=EDGE_CURVE('',#557,#558,#38,.F.);
#402=EDGE_CURVE('',#559,#558,#651,.T.);
#403=EDGE_CURVE('',#559,#560,#652,.T.);
#404=EDGE_CURVE('',#560,#561,#653,.F.);
#405=EDGE_CURVE('',#561,#562,#654,.F.);
#406=EDGE_CURVE('',#562,#563,#655,.F.);
#407=EDGE_CURVE('',#563,#564,#656,.T.);
#408=EDGE_CURVE('',#564,#565,#657,.T.);
#409=EDGE_CURVE('',#565,#566,#39,.F.);
#410=EDGE_CURVE('',#567,#566,#658,.T.);
#411=EDGE_CURVE('',#567,#556,#659,.T.);
#412=EDGE_CURVE('',#568,#569,#660,.T.);
#413=EDGE_CURVE('',#568,#570,#661,.T.);
#414=EDGE_CURVE('',#570,#571,#662,.T.);
#415=EDGE_CURVE('',#569,#571,#663,.T.);
#416=EDGE_CURVE('',#568,#572,#664,.T.);
#417=EDGE_CURVE('',#572,#573,#665,.T.);
#418=EDGE_CURVE('',#570,#573,#666,.T.);
#419=EDGE_CURVE('',#569,#572,#56,.F.);
#420=EDGE_CURVE('',#571,#573,#57,.T.);
#421=EDGE_CURVE('',#574,#575,#667,.T.);
#422=EDGE_CURVE('',#574,#576,#668,.T.);
#423=EDGE_CURVE('',#576,#577,#669,.T.);
#424=EDGE_CURVE('',#575,#577,#670,.T.);
#425=EDGE_CURVE('',#574,#578,#671,.T.);
#426=EDGE_CURVE('',#578,#579,#672,.T.);
#427=EDGE_CURVE('',#576,#579,#673,.T.);
#428=EDGE_CURVE('',#575,#578,#58,.F.);
#429=EDGE_CURVE('',#577,#579,#59,.T.);
#430=EDGE_CURVE('',#580,#581,#60,.F.);
#431=EDGE_CURVE('',#580,#582,#674,.T.);
#432=EDGE_CURVE('',#582,#583,#61,.T.);
#433=EDGE_CURVE('',#581,#583,#675,.T.);
#434=EDGE_CURVE('',#584,#585,#676,.T.);
#435=EDGE_CURVE('',#584,#581,#677,.T.);
#436=EDGE_CURVE('',#585,#583,#678,.T.);
#437=EDGE_CURVE('',#584,#580,#679,.T.);
#438=EDGE_CURVE('',#585,#582,#680,.T.);
#439=EDGE_CURVE('',#586,#587,#681,.T.);
#440=EDGE_CURVE('',#587,#588,#682,.T.);
#441=EDGE_CURVE('',#589,#588,#683,.T.);
#442=EDGE_CURVE('',#589,#586,#684,.T.);
#443=EDGE_CURVE('',#590,#591,#685,.T.);
#444=EDGE_CURVE('',#590,#592,#686,.T.);
#445=EDGE_CURVE('',#592,#593,#687,.T.);
#446=EDGE_CURVE('',#593,#594,#688,.T.);
#447=EDGE_CURVE('',#595,#594,#62,.T.);
#448=EDGE_CURVE('',#595,#596,#689,.T.);
#449=EDGE_CURVE('',#596,#591,#690,.T.);
#450=EDGE_CURVE('',#597,#598,#691,.T.);
#451=EDGE_CURVE('',#598,#599,#692,.F.);
#452=EDGE_CURVE('',#599,#600,#693,.T.);
#453=EDGE_CURVE('',#601,#600,#694,.T.);
#454=EDGE_CURVE('',#602,#601,#695,.T.);
#455=EDGE_CURVE('',#603,#602,#63,.T.);
#456=EDGE_CURVE('',#603,#597,#696,.T.);
#457=EDGE_CURVE('',#604,#605,#697,.T.);
#458=EDGE_CURVE('',#605,#565,#698,.T.);
#459=EDGE_CURVE('',#564,#604,#40,.T.);
#460=EDGE_CURVE('',#558,#606,#699,.T.);
#461=EDGE_CURVE('',#607,#606,#700,.T.);
#462=EDGE_CURVE('',#607,#559,#41,.F.);
#463=EDGE_CURVE('',#608,#609,#701,.T.);
#464=EDGE_CURVE('',#609,#610,#702,.T.);
#465=EDGE_CURVE('',#610,#611,#703,.T.);
#466=EDGE_CURVE('',#608,#611,#704,.T.);
#467=EDGE_CURVE('',#612,#613,#705,.T.);
#468=EDGE_CURVE('',#612,#614,#706,.F.);
#469=EDGE_CURVE('',#614,#615,#707,.T.);
#470=EDGE_CURVE('',#615,#589,#64,.F.);
#471=EDGE_CURVE('',#588,#613,#65,.F.);
#472=EDGE_CURVE('',#616,#617,#708,.F.);
#473=EDGE_CURVE('',#617,#618,#709,.T.);
#474=EDGE_CURVE('',#618,#619,#710,.T.);
#475=EDGE_CURVE('',#619,#616,#711,.F.);
#476=EDGE_CURVE('',#620,#621,#712,.T.);
#477=EDGE_CURVE('',#620,#605,#42,.F.);
#478=EDGE_CURVE('',#591,#604,#713,.T.);
#479=EDGE_CURVE('',#591,#600,#714,.T.);
#480=EDGE_CURVE('',#600,#607,#715,.T.);
#481=EDGE_CURVE('',#606,#621,#43,.F.);
#482=EDGE_CURVE('',#622,#623,#716,.T.);
#483=EDGE_CURVE('',#622,#624,#717,.F.);
#484=EDGE_CURVE('',#624,#608,#718,.T.);
#485=EDGE_CURVE('',#611,#625,#719,.T.);
#486=EDGE_CURVE('',#625,#623,#720,.T.);
#487=EDGE_CURVE('',#596,#601,#721,.T.);
#488=EDGE_CURVE('',#595,#602,#722,.T.);
#489=EDGE_CURVE('',#594,#603,#723,.T.);
#490=EDGE_CURVE('',#593,#597,#724,.T.);
#491=EDGE_CURVE('',#592,#622,#44,.T.);
#492=EDGE_CURVE('',#623,#598,#45,.T.);
#493=EDGE_CURVE('',#621,#557,#725,.F.);
#494=EDGE_CURVE('',#626,#555,#46,.T.);
#495=EDGE_CURVE('',#627,#626,#726,.T.);
#496=EDGE_CURVE('',#627,#628,#727,.T.);
#497=EDGE_CURVE('',#628,#567,#728,.T.);
#498=EDGE_CURVE('',#566,#620,#729,.F.);
#499=EDGE_CURVE('',#629,#627,#730,.T.);
#500=EDGE_CURVE('',#630,#629,#731,.T.);
#501=EDGE_CURVE('',#630,#628,#732,.T.);
#502=EDGE_CURVE('',#631,#613,#733,.T.);
#503=EDGE_CURVE('',#613,#632,#734,.F.);
#504=EDGE_CURVE('',#632,#633,#735,.F.);
#505=EDGE_CURVE('',#633,#631,#736,.T.);
#506=EDGE_CURVE('',#610,#612,#47,.F.);
#507=EDGE_CURVE('',#631,#607,#737,.F.);
#508=EDGE_CURVE('',#599,#625,#48,.T.);
#509=EDGE_CURVE('',#614,#609,#49,.F.);
#510=EDGE_CURVE('',#624,#590,#50,.T.);
#511=EDGE_CURVE('',#604,#634,#738,.F.);
#512=EDGE_CURVE('',#634,#615,#739,.T.);
#513=EDGE_CURVE('',#635,#636,#740,.T.);
#514=EDGE_CURVE('',#636,#615,#741,.F.);
#515=EDGE_CURVE('',#634,#635,#742,.T.);
#516=EDGE_CURVE('',#637,#626,#743,.T.);
#517=EDGE_CURVE('',#638,#556,#744,.T.);
#518=EDGE_CURVE('',#637,#638,#66,.T.);
#519=EDGE_CURVE('',#639,#567,#745,.T.);
#520=EDGE_CURVE('',#639,#638,#746,.T.);
#521=EDGE_CURVE('',#630,#639,#747,.T.);
#522=EDGE_CURVE('',#629,#637,#748,.T.);
#523=EDGE_CURVE('',#640,#549,#749,.T.);
#524=EDGE_CURVE('',#640,#641,#750,.T.);
#525=EDGE_CURVE('',#641,#551,#751,.T.);
#526=EDGE_CURVE('',#642,#550,#752,.T.);
#527=EDGE_CURVE('',#640,#642,#753,.T.);
#528=EDGE_CURVE('',#642,#641,#67,.T.);
#529=EDGE_CURVE('',#643,#553,#754,.T.);
#530=EDGE_CURVE('',#644,#643,#68,.T.);
#531=EDGE_CURVE('',#644,#552,#755,.T.);
#532=EDGE_CURVE('',#645,#554,#756,.T.);
#533=EDGE_CURVE('',#645,#643,#757,.T.);
#534=EDGE_CURVE('',#645,#644,#758,.T.);
#535=EDGE_CURVE('',#634,#563,#51,.T.);
#536=EDGE_CURVE('',#635,#562,#69,.T.);
#537=EDGE_CURVE('',#636,#616,#70,.T.);
#538=EDGE_CURVE('',#617,#635,#71,.T.);
#539=EDGE_CURVE('',#586,#636,#72,.T.);
#540=EDGE_CURVE('',#560,#631,#52,.F.);
#541=EDGE_CURVE('',#617,#562,#73,.F.);
#542=EDGE_CURVE('',#586,#616,#74,.F.);
#543=EDGE_CURVE('',#561,#633,#75,.T.);
#544=EDGE_CURVE('',#618,#561,#76,.T.);
#545=EDGE_CURVE('',#587,#619,#77,.T.);
#546=EDGE_CURVE('',#632,#587,#78,.T.);
#547=EDGE_CURVE('',#618,#633,#79,.F.);
#548=EDGE_CURVE('',#632,#619,#80,.F.);
#549=VERTEX_POINT('',#1563);
#550=VERTEX_POINT('',#1564);
#551=VERTEX_POINT('',#1566);
#552=VERTEX_POINT('',#1569);
#553=VERTEX_POINT('',#1570);
#554=VERTEX_POINT('',#1572);
#555=VERTEX_POINT('',#1575);
#556=VERTEX_POINT('',#1576);
#557=VERTEX_POINT('',#1578);
#558=VERTEX_POINT('',#1580);
#559=VERTEX_POINT('',#1582);
#560=VERTEX_POINT('',#1584);
#561=VERTEX_POINT('',#1586);
#562=VERTEX_POINT('',#1588);
#563=VERTEX_POINT('',#1590);
#564=VERTEX_POINT('',#1592);
#565=VERTEX_POINT('',#1594);
#566=VERTEX_POINT('',#1596);
#567=VERTEX_POINT('',#1598);
#568=VERTEX_POINT('',#1602);
#569=VERTEX_POINT('',#1603);
#570=VERTEX_POINT('',#1605);
#571=VERTEX_POINT('',#1607);
#572=VERTEX_POINT('',#1611);
#573=VERTEX_POINT('',#1613);
#574=VERTEX_POINT('',#1620);
#575=VERTEX_POINT('',#1621);
#576=VERTEX_POINT('',#1623);
#577=VERTEX_POINT('',#1625);
#578=VERTEX_POINT('',#1629);
#579=VERTEX_POINT('',#1631);
#580=VERTEX_POINT('',#1638);
#581=VERTEX_POINT('',#1639);
#582=VERTEX_POINT('',#1641);
#583=VERTEX_POINT('',#1643);
#584=VERTEX_POINT('',#1647);
#585=VERTEX_POINT('',#1648);
#586=VERTEX_POINT('',#1656);
#587=VERTEX_POINT('',#1657);
#588=VERTEX_POINT('',#1659);
#589=VERTEX_POINT('',#1661);
#590=VERTEX_POINT('',#1665);
#591=VERTEX_POINT('',#1666);
#592=VERTEX_POINT('',#1668);
#593=VERTEX_POINT('',#1670);
#594=VERTEX_POINT('',#1672);
#595=VERTEX_POINT('',#1674);
#596=VERTEX_POINT('',#1676);
#597=VERTEX_POINT('',#1680);
#598=VERTEX_POINT('',#1681);
#599=VERTEX_POINT('',#1683);
#600=VERTEX_POINT('',#1685);
#601=VERTEX_POINT('',#1687);
#602=VERTEX_POINT('',#1689);
#603=VERTEX_POINT('',#1691);
#604=VERTEX_POINT('',#1695);
#605=VERTEX_POINT('',#1696);
#606=VERTEX_POINT('',#1701);
#607=VERTEX_POINT('',#1703);
#608=VERTEX_POINT('',#1707);
#609=VERTEX_POINT('',#1708);
#610=VERTEX_POINT('',#1710);
#611=VERTEX_POINT('',#1712);
#612=VERTEX_POINT('',#1716);
#613=VERTEX_POINT('',#1717);
#614=VERTEX_POINT('',#1719);
#615=VERTEX_POINT('',#1721);
#616=VERTEX_POINT('',#1726);
#617=VERTEX_POINT('',#1727);
#618=VERTEX_POINT('',#1729);
#619=VERTEX_POINT('',#1731);
#620=VERTEX_POINT('',#1735);
#621=VERTEX_POINT('',#1736);
#622=VERTEX_POINT('',#1744);
#623=VERTEX_POINT('',#1745);
#624=VERTEX_POINT('',#1747);
#625=VERTEX_POINT('',#1750);
#626=VERTEX_POINT('',#1766);
#627=VERTEX_POINT('',#1768);
#628=VERTEX_POINT('',#1770);
#629=VERTEX_POINT('',#1775);
#630=VERTEX_POINT('',#1777);
#631=VERTEX_POINT('',#1781);
#632=VERTEX_POINT('',#1783);
#633=VERTEX_POINT('',#1785);
#634=VERTEX_POINT('',#1795);
#635=VERTEX_POINT('',#1799);
#636=VERTEX_POINT('',#1800);
#637=VERTEX_POINT('',#1805);
#638=VERTEX_POINT('',#1807);
#639=VERTEX_POINT('',#1811);
#640=VERTEX_POINT('',#1820);
#641=VERTEX_POINT('',#1822);
#642=VERTEX_POINT('',#1826);
#643=VERTEX_POINT('',#1833);
#644=VERTEX_POINT('',#1835);
#645=VERTEX_POINT('',#1839);
#646=LINE('',#1562,#759);
#647=LINE('',#1565,#760);
#648=LINE('',#1571,#761);
#649=LINE('',#1573,#762);
#650=LINE('',#1577,#763);
#651=LINE('',#1581,#764);
#652=LINE('',#1583,#765);
#653=LINE('',#1585,#766);
#654=LINE('',#1587,#767);
#655=LINE('',#1589,#768);
#656=LINE('',#1591,#769);
#657=LINE('',#1593,#770);
#658=LINE('',#1597,#771);
#659=LINE('',#1599,#772);
#660=LINE('',#1601,#773);
#661=LINE('',#1604,#774);
#662=LINE('',#1606,#775);
#663=LINE('',#1608,#776);
#664=LINE('',#1610,#777);
#665=LINE('',#1612,#778);
#666=LINE('',#1614,#779);
#667=LINE('',#1619,#780);
#668=LINE('',#1622,#781);
#669=LINE('',#1624,#782);
#670=LINE('',#1626,#783);
#671=LINE('',#1628,#784);
#672=LINE('',#1630,#785);
#673=LINE('',#1632,#786);
#674=LINE('',#1640,#787);
#675=LINE('',#1644,#788);
#676=LINE('',#1646,#789);
#677=LINE('',#1649,#790);
#678=LINE('',#1650,#791);
#679=LINE('',#1652,#792);
#680=LINE('',#1653,#793);
#681=LINE('',#1655,#794);
#682=LINE('',#1658,#795);
#683=LINE('',#1660,#796);
#684=LINE('',#1662,#797);
#685=LINE('',#1664,#798);
#686=LINE('',#1667,#799);
#687=LINE('',#1669,#800);
#688=LINE('',#1671,#801);
#689=LINE('',#1675,#802);
#690=LINE('',#1677,#803);
#691=LINE('',#1679,#804);
#692=LINE('',#1682,#805);
#693=LINE('',#1684,#806);
#694=LINE('',#1686,#807);
#695=LINE('',#1688,#808);
#696=LINE('',#1692,#809);
#697=LINE('',#1694,#810);
#698=LINE('',#1697,#811);
#699=LINE('',#1700,#812);
#700=LINE('',#1702,#813);
#701=LINE('',#1706,#814);
#702=LINE('',#1709,#815);
#703=LINE('',#1711,#816);
#704=LINE('',#1713,#817);
#705=LINE('',#1715,#818);
#706=LINE('',#1718,#819);
#707=LINE('',#1720,#820);
#708=LINE('',#1725,#821);
#709=LINE('',#1728,#822);
#710=LINE('',#1730,#823);
#711=LINE('',#1732,#824);
#712=LINE('',#1734,#825);
#713=LINE('',#1738,#826);
#714=LINE('',#1739,#827);
#715=LINE('',#1740,#828);
#716=LINE('',#1743,#829);
#717=LINE('',#1746,#830);
#718=LINE('',#1748,#831);
#719=LINE('',#1749,#832);
#720=LINE('',#1751,#833);
#721=LINE('',#1753,#834);
#722=LINE('',#1755,#835);
#723=LINE('',#1757,#836);
#724=LINE('',#1759,#837);
#725=LINE('',#1764,#838);
#726=LINE('',#1767,#839);
#727=LINE('',#1769,#840);
#728=LINE('',#1771,#841);
#729=LINE('',#1772,#842);
#730=LINE('',#1774,#843);
#731=LINE('',#1776,#844);
#732=LINE('',#1778,#845);
#733=LINE('',#1780,#846);
#734=LINE('',#1782,#847);
#735=LINE('',#1784,#848);
#736=LINE('',#1786,#849);
#737=LINE('',#1789,#850);
#738=LINE('',#1794,#851);
#739=LINE('',#1796,#852);
#740=LINE('',#1798,#853);
#741=LINE('',#1801,#854);
#742=LINE('',#1802,#855);
#743=LINE('',#1804,#856);
#744=LINE('',#1806,#857);
#745=LINE('',#1810,#858);
#746=LINE('',#1812,#859);
#747=LINE('',#1814,#860);
#748=LINE('',#1816,#861);
#749=LINE('',#1819,#862);
#750=LINE('',#1821,#863);
#751=LINE('',#1823,#864);
#752=LINE('',#1825,#865);
#753=LINE('',#1827,#866);
#754=LINE('',#1832,#867);
#755=LINE('',#1836,#868);
#756=LINE('',#1838,#869);
#757=LINE('',#1840,#870);
#758=LINE('',#1842,#871);
#759=VECTOR('',#1237,1.);
#760=VECTOR('',#1238,1.);
#761=VECTOR('',#1243,1.);
#762=VECTOR('',#1244,1.);
#763=VECTOR('',#1247,1.);
#764=VECTOR('',#1250,1.);
#765=VECTOR('',#1251,1.);
#766=VECTOR('',#1252,1.);
#767=VECTOR('',#1253,1.);
#768=VECTOR('',#1254,1.);
#769=VECTOR('',#1255,1.);
#770=VECTOR('',#1256,1.);
#771=VECTOR('',#1259,1.);
#772=VECTOR('',#1260,1.);
#773=VECTOR('',#1263,1.);
#774=VECTOR('',#1264,1.);
#775=VECTOR('',#1265,1.);
#776=VECTOR('',#1266,1.);
#777=VECTOR('',#1269,1.);
#778=VECTOR('',#1270,1.);
#779=VECTOR('',#1271,1.);
#780=VECTOR('',#1280,1.);
#781=VECTOR('',#1281,1.);
#782=VECTOR('',#1282,1.);
#783=VECTOR('',#1283,1.);
#784=VECTOR('',#1286,1.);
#785=VECTOR('',#1287,1.);
#786=VECTOR('',#1288,1.);
#787=VECTOR('',#1299,1.);
#788=VECTOR('',#1302,1.);
#789=VECTOR('',#1305,1.);
#790=VECTOR('',#1306,1.);
#791=VECTOR('',#1307,1.);
#792=VECTOR('',#1310,1.);
#793=VECTOR('',#1311,1.);
#794=VECTOR('',#1314,1.);
#795=VECTOR('',#1315,1.);
#796=VECTOR('',#1316,1.);
#797=VECTOR('',#1317,1.);
#798=VECTOR('',#1320,1.);
#799=VECTOR('',#1321,1.);
#800=VECTOR('',#1322,1.);
#801=VECTOR('',#1323,1.);
#802=VECTOR('',#1326,1.);
#803=VECTOR('',#1327,1.);
#804=VECTOR('',#1330,1.);
#805=VECTOR('',#1331,1.);
#806=VECTOR('',#1332,1.);
#807=VECTOR('',#1333,1.);
#808=VECTOR('',#1334,1.);
#809=VECTOR('',#1337,1.);
#810=VECTOR('',#1340,1.);
#811=VECTOR('',#1341,1.);
#812=VECTOR('',#1346,1.);
#813=VECTOR('',#1347,1.);
#814=VECTOR('',#1352,1.);
#815=VECTOR('',#1353,1.);
#816=VECTOR('',#1354,1.);
#817=VECTOR('',#1355,1.);
#818=VECTOR('',#1358,1.);
#819=VECTOR('',#1359,1.);
#820=VECTOR('',#1360,1.);
#821=VECTOR('',#1367,1.);
#822=VECTOR('',#1368,1.);
#823=VECTOR('',#1369,1.);
#824=VECTOR('',#1370,1.);
#825=VECTOR('',#1373,1.);
#826=VECTOR('',#1376,1.);
#827=VECTOR('',#1377,1.);
#828=VECTOR('',#1378,1.);
#829=VECTOR('',#1383,1.);
#830=VECTOR('',#1384,1.);
#831=VECTOR('',#1385,1.);
#832=VECTOR('',#1386,1.);
#833=VECTOR('',#1387,1.);
#834=VECTOR('',#1390,1.);
#835=VECTOR('',#1393,1.);
#836=VECTOR('',#1396,1.);
#837=VECTOR('',#1399,1.);
#838=VECTOR('',#1408,1.);
#839=VECTOR('',#1411,1.);
#840=VECTOR('',#1412,1.);
#841=VECTOR('',#1413,1.);
#842=VECTOR('',#1414,1.);
#843=VECTOR('',#1417,1.);
#844=VECTOR('',#1418,1.);
#845=VECTOR('',#1419,1.);
#846=VECTOR('',#1422,1.);
#847=VECTOR('',#1423,1.);
#848=VECTOR('',#1424,1.);
#849=VECTOR('',#1425,1.);
#850=VECTOR('',#1430,1.);
#851=VECTOR('',#1439,1.);
#852=VECTOR('',#1440,1.);
#853=VECTOR('',#1443,1.);
#854=VECTOR('',#1444,1.);
#855=VECTOR('',#1445,1.);
#856=VECTOR('',#1448,1.);
#857=VECTOR('',#1449,1.);
#858=VECTOR('',#1454,1.);
#859=VECTOR('',#1455,1.);
#860=VECTOR('',#1458,1.);
#861=VECTOR('',#1461,1.);
#862=VECTOR('',#1466,1.);
#863=VECTOR('',#1467,1.);
#864=VECTOR('',#1468,1.);
#865=VECTOR('',#1471,1.);
#866=VECTOR('',#1472,1.);
#867=VECTOR('',#1481,1.);
#868=VECTOR('',#1484,1.);
#869=VECTOR('',#1487,1.);
#870=VECTOR('',#1488,1.);
#871=VECTOR('',#1491,1.);
#872=EDGE_LOOP('',(#81,#82,#83));
#873=EDGE_LOOP('',(#84,#85,#86));
#874=EDGE_LOOP('',(#87,#88,#89,#90,#91,#92,#93,#94,#95,#96,#97,#98,#99));
#875=EDGE_LOOP('',(#100,#101,#102,#103));
#876=EDGE_LOOP('',(#104,#105,#106,#107));
#877=EDGE_LOOP('',(#108,#109,#110,#111));
#878=EDGE_LOOP('',(#112,#113,#114,#115));
#879=EDGE_LOOP('',(#116,#117,#118,#119));
#880=EDGE_LOOP('',(#120,#121,#122,#123));
#881=EDGE_LOOP('',(#124,#125,#126,#127));
#882=EDGE_LOOP('',(#128,#129,#130,#131));
#883=EDGE_LOOP('',(#132,#133,#134,#135));
#884=EDGE_LOOP('',(#136,#137,#138));
#885=EDGE_LOOP('',(#139,#140,#141));
#886=EDGE_LOOP('',(#142,#143,#144));
#887=EDGE_LOOP('',(#145,#146,#147,#148));
#888=EDGE_LOOP('',(#149,#150,#151,#152,#153,#154,#155));
#889=EDGE_LOOP('',(#156,#157,#158,#159,#160,#161,#162));
#890=EDGE_LOOP('',(#163,#164,#165,#166));
#891=EDGE_LOOP('',(#167,#168,#169,#170));
#892=EDGE_LOOP('',(#171,#172,#173,#174));
#893=EDGE_LOOP('',(#175,#176,#177,#178,#179,#180));
#894=EDGE_LOOP('',(#181,#182,#183,#184));
#895=EDGE_LOOP('',(#185,#186,#187,#188,#189,#190,#191,#192));
#896=EDGE_LOOP('',(#193,#194,#195,#196,#197,#198));
#897=EDGE_LOOP('',(#199,#200,#201,#202));
#898=EDGE_LOOP('',(#203,#204,#205,#206));
#899=EDGE_LOOP('',(#207,#208,#209,#210));
#900=EDGE_LOOP('',(#211,#212,#213,#214));
#901=EDGE_LOOP('',(#215,#216,#217,#218,#219,#220));
#902=EDGE_LOOP('',(#221,#222,#223,#224,#225,#226,#227,#228,#229));
#903=EDGE_LOOP('',(#230,#231,#232,#233));
#904=EDGE_LOOP('',(#234,#235,#236,#237));
#905=EDGE_LOOP('',(#238,#239,#240,#241,#242,#243,#244,#245,#246));
#906=EDGE_LOOP('',(#247,#248,#249,#250,#251,#252,#253,#254,#255));
#907=EDGE_LOOP('',(#256,#257,#258,#259));
#908=EDGE_LOOP('',(#260,#261,#262,#263,#264));
#909=EDGE_LOOP('',(#265,#266,#267,#268));
#910=EDGE_LOOP('',(#269,#270,#271,#272));
#911=EDGE_LOOP('',(#273,#274,#275,#276));
#912=EDGE_LOOP('',(#277,#278,#279));
#913=EDGE_LOOP('',(#280,#281,#282,#283,#284));
#914=EDGE_LOOP('',(#285,#286,#287,#288));
#915=EDGE_LOOP('',(#289,#290,#291,#292));
#916=EDGE_LOOP('',(#293,#294,#295,#296));
#917=EDGE_LOOP('',(#297,#298,#299));
#918=EDGE_LOOP('',(#300,#301,#302));
#919=EDGE_LOOP('',(#303,#304,#305,#306));
#920=EDGE_LOOP('',(#307,#308,#309,#310));
#921=EDGE_LOOP('',(#311,#312,#313,#314));
#922=EDGE_LOOP('',(#315,#316,#317));
#923=EDGE_LOOP('',(#318,#319,#320));
#924=EDGE_LOOP('',(#321,#322,#323,#324));
#925=EDGE_LOOP('',(#325,#326,#327,#328));
#926=EDGE_LOOP('',(#329,#330,#331,#332));
#927=EDGE_LOOP('',(#333,#334,#335,#336));
#928=EDGE_LOOP('',(#337,#338,#339,#340));
#929=EDGE_LOOP('',(#341,#342,#343));
#930=EDGE_LOOP('',(#344,#345,#346));
#931=EDGE_LOOP('',(#347,#348,#349,#350));
#932=EDGE_LOOP('',(#351,#352,#353,#354));
#933=EDGE_LOOP('',(#355,#356,#357,#358));
#934=EDGE_LOOP('',(#359,#360,#361,#362));
#935=EDGE_LOOP('',(#363,#364,#365));
#936=EDGE_LOOP('',(#366,#367,#368));
#937=EDGE_LOOP('',(#369,#370,#371,#372));
#938=EDGE_LOOP('',(#373,#374,#375,#376));
#939=EDGE_LOOP('',(#377,#378,#379,#380));
#940=EDGE_LOOP('',(#381,#382,#383,#384));
#941=EDGE_LOOP('',(#385,#386,#387,#388));
#942=EDGE_LOOP('',(#389,#390,#391,#392));
#943=FACE_BOUND('',#872,.T.);
#944=FACE_BOUND('',#873,.T.);
#945=FACE_BOUND('',#874,.T.);
#946=FACE_BOUND('',#875,.T.);
#947=FACE_BOUND('',#876,.T.);
#948=FACE_BOUND('',#877,.T.);
#949=FACE_BOUND('',#878,.T.);
#950=FACE_BOUND('',#879,.T.);
#951=FACE_BOUND('',#880,.T.);
#952=FACE_BOUND('',#881,.T.);
#953=FACE_BOUND('',#882,.T.);
#954=FACE_BOUND('',#883,.T.);
#955=FACE_BOUND('',#884,.T.);
#956=FACE_BOUND('',#885,.T.);
#957=FACE_BOUND('',#886,.T.);
#958=FACE_BOUND('',#887,.T.);
#959=FACE_BOUND('',#888,.T.);
#960=FACE_BOUND('',#889,.T.);
#961=FACE_BOUND('',#890,.T.);
#962=FACE_BOUND('',#891,.T.);
#963=FACE_BOUND('',#892,.T.);
#964=FACE_BOUND('',#893,.T.);
#965=FACE_BOUND('',#894,.T.);
#966=FACE_BOUND('',#895,.T.);
#967=FACE_BOUND('',#896,.T.);
#968=FACE_BOUND('',#897,.T.);
#969=FACE_BOUND('',#898,.T.);
#970=FACE_BOUND('',#899,.T.);
#971=FACE_BOUND('',#900,.T.);
#972=FACE_BOUND('',#901,.T.);
#973=FACE_BOUND('',#902,.T.);
#974=FACE_BOUND('',#903,.T.);
#975=FACE_BOUND('',#904,.T.);
#976=FACE_BOUND('',#905,.T.);
#977=FACE_BOUND('',#906,.T.);
#978=FACE_BOUND('',#907,.T.);
#979=FACE_BOUND('',#908,.T.);
#980=FACE_BOUND('',#909,.T.);
#981=FACE_BOUND('',#910,.T.);
#982=FACE_BOUND('',#911,.T.);
#983=FACE_BOUND('',#912,.T.);
#984=FACE_BOUND('',#913,.T.);
#985=FACE_BOUND('',#914,.T.);
#986=FACE_BOUND('',#915,.T.);
#987=FACE_BOUND('',#916,.T.);
#988=FACE_BOUND('',#917,.T.);
#989=FACE_BOUND('',#918,.T.);
#990=FACE_BOUND('',#919,.T.);
#991=FACE_BOUND('',#920,.T.);
#992=FACE_BOUND('',#921,.T.);
#993=FACE_BOUND('',#922,.T.);
#994=FACE_BOUND('',#923,.T.);
#995=FACE_BOUND('',#924,.T.);
#996=FACE_BOUND('',#925,.T.);
#997=FACE_BOUND('',#926,.T.);
#998=FACE_BOUND('',#927,.T.);
#999=FACE_BOUND('',#928,.T.);
#1000=FACE_BOUND('',#929,.T.);
#1001=FACE_BOUND('',#930,.T.);
#1002=FACE_BOUND('',#931,.T.);
#1003=FACE_BOUND('',#932,.T.);
#1004=FACE_BOUND('',#933,.T.);
#1005=FACE_BOUND('',#934,.T.);
#1006=FACE_BOUND('',#935,.T.);
#1007=FACE_BOUND('',#936,.T.);
#1008=FACE_BOUND('',#937,.T.);
#1009=FACE_BOUND('',#938,.T.);
#1010=FACE_BOUND('',#939,.T.);
#1011=FACE_BOUND('',#940,.T.);
#1012=FACE_BOUND('',#941,.T.);
#1013=FACE_BOUND('',#942,.T.);
#1014=PLANE('',#1127);
#1015=PLANE('',#1133);
#1016=PLANE('',#1134);
#1017=PLANE('',#1138);
#1018=PLANE('',#1139);
#1019=PLANE('',#1146);
#1020=PLANE('',#1147);
#1021=PLANE('',#1148);
#1022=PLANE('',#1149);
#1023=PLANE('',#1151);
#1024=PLANE('',#1153);
#1025=PLANE('',#1155);
#1026=PLANE('',#1157);
#1027=PLANE('',#1158);
#1028=PLANE('',#1161);
#1029=PLANE('',#1162);
#1030=PLANE('',#1165);
#1031=PLANE('',#1166);
#1032=PLANE('',#1167);
#1033=PLANE('',#1169);
#1034=PLANE('',#1170);
#1035=PLANE('',#1173);
#1036=PLANE('',#1175);
#1037=PLANE('',#1176);
#1038=PLANE('',#1177);
#1039=PLANE('',#1180);
#1040=PLANE('',#1183);
#1041=PLANE('',#1186);
#1042=PLANE('',#1187);
#1043=PLANE('',#1188);
#1044=PLANE('',#1189);
#1045=PLANE('',#1190);
#1046=PLANE('',#1191);
#1047=PLANE('',#1194);
#1048=PLANE('',#1197);
#1049=PLANE('',#1198);
#1050=PLANE('',#1199);
#1051=ADVANCED_FACE('',(#943,#944,#945),#1014,.T.);
#1052=ADVANCED_FACE('',(#946),#1015,.F.);
#1053=ADVANCED_FACE('',(#947),#1016,.T.);
#1054=ADVANCED_FACE('',(#948),#16,.F.);
#1055=ADVANCED_FACE('',(#949),#1017,.F.);
#1056=ADVANCED_FACE('',(#950),#1018,.T.);
#1057=ADVANCED_FACE('',(#951),#17,.F.);
#1058=ADVANCED_FACE('',(#952),#18,.F.);
#1059=ADVANCED_FACE('',(#953),#1019,.T.);
#1060=ADVANCED_FACE('',(#954),#1020,.F.);
#1061=ADVANCED_FACE('',(#955,#956,#957,#958),#1021,.T.);
#1062=ADVANCED_FACE('',(#959),#1022,.F.);
#1063=ADVANCED_FACE('',(#960),#1023,.T.);
#1064=ADVANCED_FACE('',(#961),#1024,.F.);
#1065=ADVANCED_FACE('',(#962),#1025,.T.);
#1066=ADVANCED_FACE('',(#963),#1026,.F.);
#1067=ADVANCED_FACE('',(#964),#1027,.T.);
#1068=ADVANCED_FACE('',(#965),#1028,.T.);
#1069=ADVANCED_FACE('',(#966),#1029,.F.);
#1070=ADVANCED_FACE('',(#967),#1030,.F.);
#1071=ADVANCED_FACE('',(#968),#1031,.F.);
#1072=ADVANCED_FACE('',(#969),#1032,.F.);
#1073=ADVANCED_FACE('',(#970),#19,.F.);
#1074=ADVANCED_FACE('',(#971),#1033,.T.);
#1075=ADVANCED_FACE('',(#972),#1034,.T.);
#1076=ADVANCED_FACE('',(#973),#1035,.T.);
#1077=ADVANCED_FACE('',(#974),#1036,.F.);
#1078=ADVANCED_FACE('',(#975),#1037,.T.);
#1079=ADVANCED_FACE('',(#976),#1038,.F.);
#1080=ADVANCED_FACE('',(#977),#1039,.F.);
#1081=ADVANCED_FACE('',(#978),#1040,.T.);
#1082=ADVANCED_FACE('',(#979),#20,.F.);
#1083=ADVANCED_FACE('',(#980),#1041,.T.);
#1084=ADVANCED_FACE('',(#981),#1042,.T.);
#1085=ADVANCED_FACE('',(#982),#1043,.F.);
#1086=ADVANCED_FACE('',(#983,#984),#1044,.T.);
#1087=ADVANCED_FACE('',(#985),#1045,.T.);
#1088=ADVANCED_FACE('',(#986),#1046,.F.);
#1089=ADVANCED_FACE('',(#987),#21,.F.);
#1090=ADVANCED_FACE('',(#988,#989),#1047,.T.);
#1091=ADVANCED_FACE('',(#990),#22,.F.);
#1092=ADVANCED_FACE('',(#991),#1048,.T.);
#1093=ADVANCED_FACE('',(#992),#1049,.F.);
#1094=ADVANCED_FACE('',(#993,#994),#1050,.T.);
#1095=ADVANCED_FACE('',(#995),#23,.T.);
#1096=ADVANCED_FACE('',(#996),#24,.T.);
#1097=ADVANCED_FACE('',(#997),#25,.T.);
#1098=ADVANCED_FACE('',(#998),#26,.T.);
#1099=ADVANCED_FACE('',(#999),#27,.T.);
#1100=ADVANCED_FACE('',(#1000),#12,.T.);
#1101=ADVANCED_FACE('',(#1001),#13,.T.);
#1102=ADVANCED_FACE('',(#1002),#28,.T.);
#1103=ADVANCED_FACE('',(#1003),#29,.T.);
#1104=ADVANCED_FACE('',(#1004),#30,.T.);
#1105=ADVANCED_FACE('',(#1005),#31,.T.);
#1106=ADVANCED_FACE('',(#1006),#14,.T.);
#1107=ADVANCED_FACE('',(#1007),#15,.T.);
#1108=ADVANCED_FACE('',(#1008),#32,.T.);
#1109=ADVANCED_FACE('',(#1009),#33,.T.);
#1110=ADVANCED_FACE('',(#1010),#34,.T.);
#1111=ADVANCED_FACE('',(#1011),#35,.T.);
#1112=ADVANCED_FACE('',(#1012),#36,.T.);
#1113=ADVANCED_FACE('',(#1013),#37,.T.);
#1114=CLOSED_SHELL('',(#1051,#1052,#1053,#1054,#1055,#1056,#1057,#1058,
#1059,#1060,#1061,#1062,#1063,#1064,#1065,#1066,#1067,#1068,#1069,#1070,
#1071,#1072,#1073,#1074,#1075,#1076,#1077,#1078,#1079,#1080,#1081,#1082,
#1083,#1084,#1085,#1086,#1087,#1088,#1089,#1090,#1091,#1092,#1093,#1094,
#1095,#1096,#1097,#1098,#1099,#1100,#1101,#1102,#1103,#1104,#1105,#1106,
#1107,#1108,#1109,#1110,#1111,#1112,#1113));
#1115=STYLED_ITEM('',(#1116),#1123);
#1116=PRESENTATION_STYLE_ASSIGNMENT((#1117));
#1117=SURFACE_STYLE_USAGE(.BOTH.,#1118);
#1118=SURFACE_SIDE_STYLE('',(#1119));
#1119=SURFACE_STYLE_FILL_AREA(#1120);
#1120=FILL_AREA_STYLE('',(#1121));
#1121=FILL_AREA_STYLE_COLOUR('',#1122);
#1122=COLOUR_RGB('',0.647058823529412,0.647058823529412,0.647058823529412);
#1123=MANIFOLD_SOLID_BREP('Cubby vslot attachment',#1114);
#1124=SHAPE_DEFINITION_REPRESENTATION(#1883,#1125);
#1125=SHAPE_REPRESENTATION('Cubby vslot attachment',(#1126),#1878);
#1126=AXIS2_PLACEMENT_3D('',#1560,#1233,#1234);
#1127=AXIS2_PLACEMENT_3D('',#1561,#1235,#1236);
#1128=AXIS2_PLACEMENT_3D('',#1567,#1239,#1240);
#1129=AXIS2_PLACEMENT_3D('',#1568,#1241,#1242);
#1130=AXIS2_PLACEMENT_3D('',#1574,#1245,#1246);
#1131=AXIS2_PLACEMENT_3D('',#1579,#1248,#1249);
#1132=AXIS2_PLACEMENT_3D('',#1595,#1257,#1258);
#1133=AXIS2_PLACEMENT_3D('',#1600,#1261,#1262);
#1134=AXIS2_PLACEMENT_3D('',#1609,#1267,#1268);
#1135=AXIS2_PLACEMENT_3D('',#1615,#1272,#1273);
#1136=AXIS2_PLACEMENT_3D('',#1616,#1274,#1275);
#1137=AXIS2_PLACEMENT_3D('',#1617,#1276,#1277);
#1138=AXIS2_PLACEMENT_3D('',#1618,#1278,#1279);
#1139=AXIS2_PLACEMENT_3D('',#1627,#1284,#1285);
#1140=AXIS2_PLACEMENT_3D('',#1633,#1289,#1290);
#1141=AXIS2_PLACEMENT_3D('',#1634,#1291,#1292);
#1142=AXIS2_PLACEMENT_3D('',#1635,#1293,#1294);
#1143=AXIS2_PLACEMENT_3D('',#1636,#1295,#1296);
#1144=AXIS2_PLACEMENT_3D('',#1637,#1297,#1298);
#1145=AXIS2_PLACEMENT_3D('',#1642,#1300,#1301);
#1146=AXIS2_PLACEMENT_3D('',#1645,#1303,#1304);
#1147=AXIS2_PLACEMENT_3D('',#1651,#1308,#1309);
#1148=AXIS2_PLACEMENT_3D('',#1654,#1312,#1313);
#1149=AXIS2_PLACEMENT_3D('',#1663,#1318,#1319);
#1150=AXIS2_PLACEMENT_3D('',#1673,#1324,#1325);
#1151=AXIS2_PLACEMENT_3D('',#1678,#1328,#1329);
#1152=AXIS2_PLACEMENT_3D('',#1690,#1335,#1336);
#1153=AXIS2_PLACEMENT_3D('',#1693,#1338,#1339);
#1154=AXIS2_PLACEMENT_3D('',#1698,#1342,#1343);
#1155=AXIS2_PLACEMENT_3D('',#1699,#1344,#1345);
#1156=AXIS2_PLACEMENT_3D('',#1704,#1348,#1349);
#1157=AXIS2_PLACEMENT_3D('',#1705,#1350,#1351);
#1158=AXIS2_PLACEMENT_3D('',#1714,#1356,#1357);
#1159=AXIS2_PLACEMENT_3D('',#1722,#1361,#1362);
#1160=AXIS2_PLACEMENT_3D('',#1723,#1363,#1364);
#1161=AXIS2_PLACEMENT_3D('',#1724,#1365,#1366);
#1162=AXIS2_PLACEMENT_3D('',#1733,#1371,#1372);
#1163=AXIS2_PLACEMENT_3D('',#1737,#1374,#1375);
#1164=AXIS2_PLACEMENT_3D('',#1741,#1379,#1380);
#1165=AXIS2_PLACEMENT_3D('',#1742,#1381,#1382);
#1166=AXIS2_PLACEMENT_3D('',#1752,#1388,#1389);
#1167=AXIS2_PLACEMENT_3D('',#1754,#1391,#1392);
#1168=AXIS2_PLACEMENT_3D('',#1756,#1394,#1395);
#1169=AXIS2_PLACEMENT_3D('',#1758,#1397,#1398);
#1170=AXIS2_PLACEMENT_3D('',#1760,#1400,#1401);
#1171=AXIS2_PLACEMENT_3D('',#1761,#1402,#1403);
#1172=AXIS2_PLACEMENT_3D('',#1762,#1404,#1405);
#1173=AXIS2_PLACEMENT_3D('',#1763,#1406,#1407);
#1174=AXIS2_PLACEMENT_3D('',#1765,#1409,#1410);
#1175=AXIS2_PLACEMENT_3D('',#1773,#1415,#1416);
#1176=AXIS2_PLACEMENT_3D('',#1779,#1420,#1421);
#1177=AXIS2_PLACEMENT_3D('',#1787,#1426,#1427);
#1178=AXIS2_PLACEMENT_3D('',#1788,#1428,#1429);
#1179=AXIS2_PLACEMENT_3D('',#1790,#1431,#1432);
#1180=AXIS2_PLACEMENT_3D('',#1791,#1433,#1434);
#1181=AXIS2_PLACEMENT_3D('',#1792,#1435,#1436);
#1182=AXIS2_PLACEMENT_3D('',#1793,#1437,#1438);
#1183=AXIS2_PLACEMENT_3D('',#1797,#1441,#1442);
#1184=AXIS2_PLACEMENT_3D('',#1803,#1446,#1447);
#1185=AXIS2_PLACEMENT_3D('',#1808,#1450,#1451);
#1186=AXIS2_PLACEMENT_3D('',#1809,#1452,#1453);
#1187=AXIS2_PLACEMENT_3D('',#1813,#1456,#1457);
#1188=AXIS2_PLACEMENT_3D('',#1815,#1459,#1460);
#1189=AXIS2_PLACEMENT_3D('',#1817,#1462,#1463);
#1190=AXIS2_PLACEMENT_3D('',#1818,#1464,#1465);
#1191=AXIS2_PLACEMENT_3D('',#1824,#1469,#1470);
#1192=AXIS2_PLACEMENT_3D('',#1828,#1473,#1474);
#1193=AXIS2_PLACEMENT_3D('',#1829,#1475,#1476);
#1194=AXIS2_PLACEMENT_3D('',#1830,#1477,#1478);
#1195=AXIS2_PLACEMENT_3D('',#1831,#1479,#1480);
#1196=AXIS2_PLACEMENT_3D('',#1834,#1482,#1483);
#1197=AXIS2_PLACEMENT_3D('',#1837,#1485,#1486);
#1198=AXIS2_PLACEMENT_3D('',#1841,#1489,#1490);
#1199=AXIS2_PLACEMENT_3D('',#1843,#1492,#1493);
#1200=AXIS2_PLACEMENT_3D('',#1844,#1494,#1495);
#1201=AXIS2_PLACEMENT_3D('',#1845,#1496,#1497);
#1202=AXIS2_PLACEMENT_3D('',#1846,#1498,#1499);
#1203=AXIS2_PLACEMENT_3D('',#1847,#1500,#1501);
#1204=AXIS2_PLACEMENT_3D('',#1848,#1502,#1503);
#1205=AXIS2_PLACEMENT_3D('',#1849,#1504,#1505);
#1206=AXIS2_PLACEMENT_3D('',#1850,#1506,#1507);
#1207=AXIS2_PLACEMENT_3D('',#1851,#1508,#1509);
#1208=AXIS2_PLACEMENT_3D('',#1852,#1510,#1511);
#1209=AXIS2_PLACEMENT_3D('',#1853,#1512,#1513);
#1210=AXIS2_PLACEMENT_3D('',#1854,#1514,#1515);
#1211=AXIS2_PLACEMENT_3D('',#1855,#1516,#1517);
#1212=AXIS2_PLACEMENT_3D('',#1856,#1518,#1519);
#1213=AXIS2_PLACEMENT_3D('',#1857,#1520,#1521);
#1214=AXIS2_PLACEMENT_3D('',#1858,#1522,#1523);
#1215=AXIS2_PLACEMENT_3D('',#1859,#1524,#1525);
#1216=AXIS2_PLACEMENT_3D('',#1860,#1526,#1527);
#1217=AXIS2_PLACEMENT_3D('',#1861,#1528,#1529);
#1218=AXIS2_PLACEMENT_3D('',#1862,#1530,#1531);
#1219=AXIS2_PLACEMENT_3D('',#1863,#1532,#1533);
#1220=AXIS2_PLACEMENT_3D('',#1864,#1534,#1535);
#1221=AXIS2_PLACEMENT_3D('',#1865,#1536,#1537);
#1222=AXIS2_PLACEMENT_3D('',#1866,#1538,#1539);
#1223=AXIS2_PLACEMENT_3D('',#1867,#1540,#1541);
#1224=AXIS2_PLACEMENT_3D('',#1868,#1542,#1543);
#1225=AXIS2_PLACEMENT_3D('',#1869,#1544,#1545);
#1226=AXIS2_PLACEMENT_3D('',#1870,#1546,#1547);
#1227=AXIS2_PLACEMENT_3D('',#1871,#1548,#1549);
#1228=AXIS2_PLACEMENT_3D('',#1872,#1550,#1551);
#1229=AXIS2_PLACEMENT_3D('',#1873,#1552,#1553);
#1230=AXIS2_PLACEMENT_3D('',#1874,#1554,#1555);
#1231=AXIS2_PLACEMENT_3D('',#1875,#1556,#1557);
#1232=AXIS2_PLACEMENT_3D('',#1876,#1558,#1559);
#1233=DIRECTION('',(0.,0.,1.));
#1234=DIRECTION('',(1.,0.,0.));
#1235=DIRECTION('',(0.,-1.,0.));
#1236=DIRECTION('',(0.,0.,-1.));
#1237=DIRECTION('',(-0.707106781186548,0.,-0.707106781186547));
#1238=DIRECTION('',(0.707106781186546,0.,-0.707106781186549));
#1239=DIRECTION('',(0.,-1.,0.));
#1240=DIRECTION('',(-0.707106781186547,0.,0.707106781186548));
#1241=DIRECTION('',(0.,-1.,0.));
#1242=DIRECTION('',(-0.707106781186548,0.,0.707106781186548));
#1243=DIRECTION('',(-0.707106781186548,0.,-0.707106781186548));
#1244=DIRECTION('',(0.707106781186548,0.,-0.707106781186548));
#1245=DIRECTION('',(0.,-1.,0.));
#1246=DIRECTION('',(-0.707106781186548,0.,0.707106781186547));
#1247=DIRECTION('',(0.,0.,-1.));
#1248=DIRECTION('',(0.,-1.,0.));
#1249=DIRECTION('',(-1.,0.,0.));
#1250=DIRECTION('',(1.,0.,0.));
#1251=DIRECTION('',(0.707106781186548,0.,-0.707106781186548));
#1252=DIRECTION('',(-1.,0.,0.));
#1253=DIRECTION('',(0.,0.,-1.));
#1254=DIRECTION('',(1.,0.,0.));
#1255=DIRECTION('',(-0.707106781186548,0.,-0.707106781186548));
#1256=DIRECTION('',(1.,0.,0.));
#1257=DIRECTION('',(0.,-1.,0.));
#1258=DIRECTION('',(-1.,0.,0.));
#1259=DIRECTION('',(0.,0.,1.));
#1260=DIRECTION('',(0.707106781186548,0.,-0.707106781186547));
#1261=DIRECTION('',(0.707106781186548,0.,0.707106781186547));
#1262=DIRECTION('',(0.707106781186547,0.,-0.707106781186548));
#1263=DIRECTION('',(0.707106781186547,0.,-0.707106781186548));
#1264=DIRECTION('',(0.,1.,0.));
#1265=DIRECTION('',(0.707106781186547,0.,-0.707106781186548));
#1266=DIRECTION('',(0.,1.,0.));
#1267=DIRECTION('',(0.707106781186547,0.,-0.707106781186548));
#1268=DIRECTION('',(-0.707106781186548,0.,-0.707106781186547));
#1269=DIRECTION('',(-0.707106781186548,0.,-0.707106781186547));
#1270=DIRECTION('',(0.,1.,0.));
#1271=DIRECTION('',(-0.707106781186548,0.,-0.707106781186547));
#1272=DIRECTION('',(0.,1.,0.));
#1273=DIRECTION('',(0.,0.,1.));
#1274=DIRECTION('',(0.,-1.,0.));
#1275=DIRECTION('',(0.,0.,-1.));
#1276=DIRECTION('',(0.,1.,0.));
#1277=DIRECTION('',(0.707106781186549,0.,0.707106781186546));
#1278=DIRECTION('',(0.707106781186549,0.,0.707106781186546));
#1279=DIRECTION('',(0.707106781186546,0.,-0.707106781186549));
#1280=DIRECTION('',(0.707106781186546,0.,-0.707106781186549));
#1281=DIRECTION('',(0.,1.,0.));
#1282=DIRECTION('',(0.707106781186546,0.,-0.707106781186549));
#1283=DIRECTION('',(0.,1.,0.));
#1284=DIRECTION('',(0.707106781186546,0.,-0.707106781186549));
#1285=DIRECTION('',(-0.707106781186549,0.,-0.707106781186546));
#1286=DIRECTION('',(-0.707106781186549,0.,-0.707106781186546));
#1287=DIRECTION('',(0.,1.,0.));
#1288=DIRECTION('',(-0.707106781186549,0.,-0.707106781186546));
#1289=DIRECTION('',(0.,1.,0.));
#1290=DIRECTION('',(0.,0.,1.));
#1291=DIRECTION('',(0.,-1.,0.));
#1292=DIRECTION('',(0.,0.,-1.));
#1293=DIRECTION('',(0.,1.,0.));
#1294=DIRECTION('',(0.707106781186546,0.,0.70710678118655));
#1295=DIRECTION('',(0.,1.,0.));
#1296=DIRECTION('',(0.,0.,1.));
#1297=DIRECTION('',(0.,-1.,0.));
#1298=DIRECTION('',(0.,0.,-1.));
#1299=DIRECTION('',(0.,1.,0.));
#1300=DIRECTION('',(0.,1.,0.));
#1301=DIRECTION('',(0.707106781186546,0.,0.707106781186549));
#1302=DIRECTION('',(0.,1.,0.));
#1303=DIRECTION('',(0.707106781186549,0.,-0.707106781186547));
#1304=DIRECTION('',(-0.707106781186547,0.,-0.707106781186549));
#1305=DIRECTION('',(0.,1.,0.));
#1306=DIRECTION('',(-0.707106781186547,0.,-0.707106781186549));
#1307=DIRECTION('',(-0.707106781186547,0.,-0.707106781186549));
#1308=DIRECTION('',(0.707106781186547,0.,0.707106781186549));
#1309=DIRECTION('',(0.707106781186549,0.,-0.707106781186547));
#1310=DIRECTION('',(0.707106781186549,0.,-0.707106781186547));
#1311=DIRECTION('',(0.707106781186549,0.,-0.707106781186547));
#1312=DIRECTION('',(0.,1.,0.));
#1313=DIRECTION('',(0.,0.,1.));
#1314=DIRECTION('',(0.,0.,-1.));
#1315=DIRECTION('',(-1.,0.,0.));
#1316=DIRECTION('',(0.,0.,-1.));
#1317=DIRECTION('',(1.,0.,0.));
#1318=DIRECTION('',(0.,0.,-1.));
#1319=DIRECTION('',(1.,0.,0.));
#1320=DIRECTION('',(0.,-1.,0.));
#1321=DIRECTION('',(-0.803557193344746,-0.595227550625737,0.));
#1322=DIRECTION('',(1.,0.,0.));
#1323=DIRECTION('',(0.,1.,0.));
#1324=DIRECTION('',(0.,0.,1.));
#1325=DIRECTION('',(0.76190476190474,-0.64768907184457,0.));
#1326=DIRECTION('',(0.,-1.,0.));
#1327=DIRECTION('',(1.,0.,0.));
#1328=DIRECTION('',(0.,0.,-1.));
#1329=DIRECTION('',(1.,0.,0.));
#1330=DIRECTION('',(-1.,0.,0.));
#1331=DIRECTION('',(-0.803557193344746,-0.595227550625737,0.));
#1332=DIRECTION('',(0.,-1.,0.));
#1333=DIRECTION('',(1.,0.,0.));
#1334=DIRECTION('',(0.,-1.,0.));
#1335=DIRECTION('',(0.,0.,-1.));
#1336=DIRECTION('',(-0.761904761904733,-0.647689071844579,0.));
#1337=DIRECTION('',(0.,-1.,0.));
#1338=DIRECTION('',(0.,0.,-1.));
#1339=DIRECTION('',(1.,0.,0.));
#1340=DIRECTION('',(0.,-1.,0.));
#1341=DIRECTION('',(0.803557193344746,0.595227550625737,0.));
#1342=DIRECTION('',(0.,0.,-1.));
#1343=DIRECTION('',(1.,0.,0.));
#1344=DIRECTION('',(0.,0.,-1.));
#1345=DIRECTION('',(1.,0.,0.));
#1346=DIRECTION('',(-0.803557193344746,-0.595227550625737,0.));
#1347=DIRECTION('',(0.,-1.,0.));
#1348=DIRECTION('',(0.,0.,-1.));
#1349=DIRECTION('',(-1.,0.,0.));
#1350=DIRECTION('',(0.,-1.,0.));
#1351=DIRECTION('',(0.,0.,-1.));
#1352=DIRECTION('',(0.707106781186548,0.,0.707106781186548));
#1353=DIRECTION('',(0.,0.,-1.));
#1354=DIRECTION('',(-0.707106781186548,0.,0.707106781186548));
#1355=DIRECTION('',(0.,0.,-1.));
#1356=DIRECTION('',(1.,0.,0.));
#1357=DIRECTION('',(0.,0.,-1.));
#1358=DIRECTION('',(0.,-1.,0.));
#1359=DIRECTION('',(0.,0.,-1.));
#1360=DIRECTION('',(0.,-1.,0.));
#1361=DIRECTION('',(1.,0.,0.));
#1362=DIRECTION('',(0.,0.,-1.));
#1363=DIRECTION('',(1.,0.,0.));
#1364=DIRECTION('',(0.,0.,-1.));
#1365=DIRECTION('',(1.,0.,0.));
#1366=DIRECTION('',(0.,0.,-1.));
#1367=DIRECTION('',(0.,1.,0.));
#1368=DIRECTION('',(0.,0.,-1.));
#1369=DIRECTION('',(0.,1.,0.));
#1370=DIRECTION('',(0.,0.,-1.));
#1371=DIRECTION('',(1.,0.,0.));
#1372=DIRECTION('',(0.,0.,-1.));
#1373=DIRECTION('',(0.,0.,-1.));
#1374=DIRECTION('',(1.,0.,0.));
#1375=DIRECTION('',(0.,-1.,0.));
#1376=DIRECTION('',(0.,-1.,0.));
#1377=DIRECTION('',(0.,0.,-1.));
#1378=DIRECTION('',(0.,-1.,0.));
#1379=DIRECTION('',(1.,0.,0.));
#1380=DIRECTION('',(0.,-1.,0.));
#1381=DIRECTION('',(0.595227550625737,-0.803557193344746,0.));
#1382=DIRECTION('',(0.803557193344746,0.595227550625737,0.));
#1383=DIRECTION('',(0.,0.,-1.));
#1384=DIRECTION('',(-0.803557193344746,-0.595227550625737,0.));
#1385=DIRECTION('',(0.626384365641348,0.463988418993591,0.626384365641348));
#1386=DIRECTION('',(-0.626384365641348,-0.463988418993591,0.626384365641348));
#1387=DIRECTION('',(-0.803557193344746,-0.595227550625737,0.));
#1388=DIRECTION('',(0.,1.,0.));
#1389=DIRECTION('',(0.,0.,1.));
#1390=DIRECTION('',(0.,0.,-1.));
#1391=DIRECTION('',(1.,0.,0.));
#1392=DIRECTION('',(0.,0.,-1.));
#1393=DIRECTION('',(0.,0.,-1.));
#1394=DIRECTION('',(0.,0.,-1.));
#1395=DIRECTION('',(-1.,0.,0.));
#1396=DIRECTION('',(0.,0.,-1.));
#1397=DIRECTION('',(1.,0.,0.));
#1398=DIRECTION('',(0.,0.,-1.));
#1399=DIRECTION('',(0.,0.,-1.));
#1400=DIRECTION('',(0.,-1.,0.));
#1401=DIRECTION('',(0.,0.,-1.));
#1402=DIRECTION('',(0.,-1.,0.));
#1403=DIRECTION('',(-1.,0.,0.));
#1404=DIRECTION('',(0.,-1.,0.));
#1405=DIRECTION('',(1.,0.,0.));
#1406=DIRECTION('',(0.595227550625737,-0.803557193344746,0.));
#1407=DIRECTION('',(0.803557193344746,0.595227550625737,0.));
#1408=DIRECTION('',(-0.803557193344746,-0.595227550625737,0.));
#1409=DIRECTION('',(0.595227550625737,-0.803557193344746,0.));
#1410=DIRECTION('',(0.803557193344746,0.595227550625737,0.));
#1411=DIRECTION('',(-0.626384365641348,-0.46398841899359,-0.626384365641349));
#1412=DIRECTION('',(0.803557193344746,0.595227550625737,0.));
#1413=DIRECTION('',(0.,0.,1.));
#1414=DIRECTION('',(0.803557193344746,0.595227550625737,0.));
#1415=DIRECTION('',(0.,0.,1.));
#1416=DIRECTION('',(1.,0.,0.));
#1417=DIRECTION('',(0.,-1.,0.));
#1418=DIRECTION('',(-1.,0.,0.));
#1419=DIRECTION('',(0.,-1.,0.));
#1420=DIRECTION('',(0.,0.,-1.));
#1421=DIRECTION('',(-1.,0.,0.));
#1422=DIRECTION('',(0.,1.,0.));
#1423=DIRECTION('',(-1.,0.,0.));
#1424=DIRECTION('',(0.,1.,0.));
#1425=DIRECTION('',(-1.,0.,0.));
#1426=DIRECTION('',(0.707106781186548,0.,0.707106781186548));
#1427=DIRECTION('',(0.707106781186548,0.,-0.707106781186548));
#1428=DIRECTION('',(0.707106781186548,0.,0.707106781186548));
#1429=DIRECTION('',(-0.707106781186548,0.,0.707106781186548));
#1430=DIRECTION('',(0.707106781186548,0.,-0.707106781186548));
#1431=DIRECTION('',(0.707106781186548,0.,0.707106781186548));
#1432=DIRECTION('',(0.488253116014205,0.723337949650673,-0.488253116014205));
#1433=DIRECTION('',(0.707106781186548,0.,-0.707106781186548));
#1434=DIRECTION('',(-0.707106781186548,0.,-0.707106781186548));
#1435=DIRECTION('',(0.707106781186548,0.,-0.707106781186548));
#1436=DIRECTION('',(0.707106781186548,0.,0.707106781186548));
#1437=DIRECTION('',(0.707106781186548,0.,-0.707106781186548));
#1438=DIRECTION('',(-0.488253116014205,-0.723337949650673,-0.488253116014205));
#1439=DIRECTION('',(-0.707106781186548,0.,-0.707106781186548));
#1440=DIRECTION('',(0.,1.,0.));
#1441=DIRECTION('',(0.,0.,1.));
#1442=DIRECTION('',(1.,0.,0.));
#1443=DIRECTION('',(0.,1.,0.));
#1444=DIRECTION('',(1.,0.,0.));
#1445=DIRECTION('',(1.,0.,0.));
#1446=DIRECTION('',(0.,-1.,0.));
#1447=DIRECTION('',(0.,0.,-1.));
#1448=DIRECTION('',(0.,-1.,0.));
#1449=DIRECTION('',(0.,-1.,0.));
#1450=DIRECTION('',(0.,-1.,0.));
#1451=DIRECTION('',(-0.707106781186548,0.,0.707106781186547));
#1452=DIRECTION('',(-0.707106781186547,0.,-0.707106781186548));
#1453=DIRECTION('',(-0.707106781186548,0.,0.707106781186547));
#1454=DIRECTION('',(0.,-1.,0.));
#1455=DIRECTION('',(0.707106781186548,0.,-0.707106781186547));
#1456=DIRECTION('',(1.,0.,0.));
#1457=DIRECTION('',(0.,0.,-1.));
#1458=DIRECTION('',(0.,0.,1.));
#1459=DIRECTION('',(-0.707106781186549,0.,0.707106781186547));
#1460=DIRECTION('',(0.707106781186547,0.,0.707106781186549));
#1461=DIRECTION('',(-0.707106781186547,0.,-0.707106781186549));
#1462=DIRECTION('',(0.,-1.,0.));
#1463=DIRECTION('',(1.,0.,0.));
#1464=DIRECTION('',(-0.707106781186549,0.,-0.707106781186546));
#1465=DIRECTION('',(-0.707106781186546,0.,0.707106781186549));
#1466=DIRECTION('',(0.,-1.,0.));
#1467=DIRECTION('',(0.707106781186546,0.,-0.707106781186549));
#1468=DIRECTION('',(0.,-1.,0.));
#1469=DIRECTION('',(-0.707106781186547,0.,0.707106781186548));
#1470=DIRECTION('',(0.707106781186548,0.,0.707106781186547));
#1471=DIRECTION('',(0.,-1.,0.));
#1472=DIRECTION('',(-0.707106781186548,0.,-0.707106781186547));
#1473=DIRECTION('',(0.,-1.,0.));
#1474=DIRECTION('',(0.,0.,-1.));
#1475=DIRECTION('',(0.,-1.,0.));
#1476=DIRECTION('',(-0.707106781186547,0.,0.707106781186548));
#1477=DIRECTION('',(0.,-1.,0.));
#1478=DIRECTION('',(1.,0.,0.));
#1479=DIRECTION('',(0.,-1.,0.));
#1480=DIRECTION('',(0.,0.,-1.));
#1481=DIRECTION('',(0.,-1.,0.));
#1482=DIRECTION('',(0.,-1.,0.));
#1483=DIRECTION('',(-0.707106781186548,0.,0.707106781186548));
#1484=DIRECTION('',(0.,-1.,0.));
#1485=DIRECTION('',(-0.707106781186548,0.,-0.707106781186548));
#1486=DIRECTION('',(-0.707106781186548,0.,0.707106781186548));
#1487=DIRECTION('',(0.,-1.,0.));
#1488=DIRECTION('',(0.707106781186548,0.,-0.707106781186548));
#1489=DIRECTION('',(-0.707106781186548,0.,0.707106781186548));
#1490=DIRECTION('',(0.707106781186548,0.,0.707106781186548));
#1491=DIRECTION('',(-0.707106781186548,0.,-0.707106781186548));
#1492=DIRECTION('',(0.,-1.,0.));
#1493=DIRECTION('',(1.,0.,0.));
#1494=DIRECTION('',(0.707106781186548,0.,0.707106781186548));
#1495=DIRECTION('',(0.707106781186548,0.,-0.707106781186548));
#1496=DIRECTION('',(0.923879532511287,0.,0.38268343236509));
#1497=DIRECTION('',(0.38268343236509,0.,-0.923879532511287));
#1498=DIRECTION('',(1.,0.,0.));
#1499=DIRECTION('',(0.,0.,-1.));
#1500=DIRECTION('',(1.,0.,0.));
#1501=DIRECTION('',(0.,0.,-1.));
#1502=DIRECTION('',(0.,1.,0.));
#1503=DIRECTION('',(0.,0.,1.));
#1504=DIRECTION('',(0.,1.,0.));
#1505=DIRECTION('',(0.,0.,1.));
#1506=DIRECTION('',(0.,-1.,0.));
#1507=DIRECTION('',(0.,0.,-1.));
#1508=DIRECTION('',(1.,0.,0.));
#1509=DIRECTION('',(0.,0.,-1.));
#1510=DIRECTION('',(1.,0.,0.));
#1511=DIRECTION('',(0.,0.,-1.));
#1512=DIRECTION('',(-0.707106781186548,0.,0.707106781186548));
#1513=DIRECTION('',(0.707106781186548,0.,0.707106781186548));
#1514=DIRECTION('',(-0.923879532511287,0.,0.38268343236509));
#1515=DIRECTION('',(-0.38268343236509,0.,-0.923879532511287));
#1516=DIRECTION('',(0.,0.,1.));
#1517=DIRECTION('',(1.,0.,0.));
#1518=DIRECTION('',(0.,0.,1.));
#1519=DIRECTION('',(1.,0.,0.));
#1520=DIRECTION('',(0.,0.,1.));
#1521=DIRECTION('',(1.,0.,0.));
#1522=DIRECTION('',(0.,0.,1.));
#1523=DIRECTION('',(1.,0.,0.));
#1524=DIRECTION('',(-1.,0.,0.));
#1525=DIRECTION('',(0.,0.,1.));
#1526=DIRECTION('',(1.,0.,0.));
#1527=DIRECTION('',(0.,0.,-1.));
#1528=DIRECTION('',(0.,0.,-1.));
#1529=DIRECTION('',(-1.,0.,0.));
#1530=DIRECTION('',(0.,0.,-1.));
#1531=DIRECTION('',(-1.,0.,0.));
#1532=DIRECTION('',(0.,0.,-1.));
#1533=DIRECTION('',(-1.,0.,0.));
#1534=DIRECTION('',(0.,0.,-1.));
#1535=DIRECTION('',(-1.,0.,0.));
#1536=DIRECTION('',(-1.,0.,0.));
#1537=DIRECTION('',(0.,0.,1.));
#1538=DIRECTION('',(1.,0.,0.));
#1539=DIRECTION('',(0.,0.,-1.));
#1540=DIRECTION('',(0.,-1.,0.));
#1541=DIRECTION('',(0.,0.,-1.));
#1542=DIRECTION('',(0.,-1.,0.));
#1543=DIRECTION('',(0.,0.,-1.));
#1544=DIRECTION('',(0.,1.,0.));
#1545=DIRECTION('',(0.,0.,1.));
#1546=DIRECTION('',(0.,1.,0.));
#1547=DIRECTION('',(0.,0.,1.));
#1548=DIRECTION('',(0.,1.,0.));
#1549=DIRECTION('',(0.,0.,1.));
#1550=DIRECTION('',(0.,0.,1.));
#1551=DIRECTION('',(1.,0.,0.));
#1552=DIRECTION('',(-0.803557193344746,-0.595227550625737,0.));
#1553=DIRECTION('',(0.595227550625737,-0.803557193344746,0.));
#1554=DIRECTION('',(0.803557193344746,0.595227550625737,0.));
#1555=DIRECTION('',(-0.595227550625737,0.803557193344746,0.));
#1556=DIRECTION('',(-0.803557193344746,-0.595227550625737,0.));
#1557=DIRECTION('',(0.595227550625737,-0.803557193344746,0.));
#1558=DIRECTION('',(-0.803557193344746,-0.595227550625737,0.));
#1559=DIRECTION('',(0.595227550625737,-0.803557193344746,0.));
#1560=CARTESIAN_POINT('',(0.,0.,0.));
#1561=CARTESIAN_POINT('',(0.055,0.0825,0.02));
#1562=CARTESIAN_POINT('',(0.0732322330470336,0.0825,0.0353033008588991));
#1563=CARTESIAN_POINT('',(0.075,0.0825,0.0370710678118655));
#1564=CARTESIAN_POINT('',(0.0714644660940673,0.0825,0.0335355339059327));
#1565=CARTESIAN_POINT('',(0.0767677669529664,0.0825,0.0353033008588991));
#1566=CARTESIAN_POINT('',(0.0785355339059328,0.0825,0.0335355339059327));
#1567=CARTESIAN_POINT('',(0.075,0.0825,0.03));
#1568=CARTESIAN_POINT('',(0.075,0.0825,-0.01));
#1569=CARTESIAN_POINT('',(0.0714644660940673,0.0825,-0.00646446609406727));
#1570=CARTESIAN_POINT('',(0.0785355339059328,0.0825,-0.00646446609406727));
#1571=CARTESIAN_POINT('',(0.0732322330470336,0.0825,-0.00469669914110091));
#1572=CARTESIAN_POINT('',(0.075,0.0825,-0.00292893218813453));
#1573=CARTESIAN_POINT('',(0.0767677669529664,0.0825,-0.0046966991411009));
#1574=CARTESIAN_POINT('',(0.075,0.0825,0.01));
#1575=CARTESIAN_POINT('',(0.075,0.0825,0.005));
#1576=CARTESIAN_POINT('',(0.0785355339059328,0.0825,0.0135355339059327));
#1577=CARTESIAN_POINT('',(0.075,0.0825,0.003));
#1578=CARTESIAN_POINT('',(0.075,0.0825,0.001));
#1579=CARTESIAN_POINT('',(0.0733199702383589,0.0825,0.001));
#1580=CARTESIAN_POINT('',(0.0733199702383589,0.0825,0.));
#1581=CARTESIAN_POINT('',(0.075,0.0825,0.));
#1582=CARTESIAN_POINT('',(0.0464142135623731,0.0825,0.));
#1583=CARTESIAN_POINT('',(0.0657071067811866,0.0825,-0.0192928932188134));
#1584=CARTESIAN_POINT('',(0.0654142135623731,0.0825,-0.019));
#1585=CARTESIAN_POINT('',(0.055,0.0825,-0.019));
#1586=CARTESIAN_POINT('',(0.084,0.0825,-0.019));
#1587=CARTESIAN_POINT('',(0.084,0.0825,0.02));
#1588=CARTESIAN_POINT('',(0.084,0.0825,0.039));
#1589=CARTESIAN_POINT('',(0.055,0.0825,0.039));
#1590=CARTESIAN_POINT('',(0.0654142135623731,0.0825,0.039));
#1591=CARTESIAN_POINT('',(0.0457071067811866,0.0825,0.0192928932188134));
#1592=CARTESIAN_POINT('',(0.0464142135623731,0.0825,0.02));
#1593=CARTESIAN_POINT('',(0.055,0.0825,0.02));
#1594=CARTESIAN_POINT('',(0.0733199702383589,0.0825,0.02));
#1595=CARTESIAN_POINT('',(0.0733199702383589,0.0825,0.019));
#1596=CARTESIAN_POINT('',(0.075,0.0825,0.019));
#1597=CARTESIAN_POINT('',(0.075,0.0825,0.017));
#1598=CARTESIAN_POINT('',(0.075,0.0825,0.0170710678118655));
#1599=CARTESIAN_POINT('',(0.0767677669529664,0.0825,0.0153033008588991));
#1600=CARTESIAN_POINT('',(0.0758838834764832,0.082498,-0.00734834957055046));
#1601=CARTESIAN_POINT('',(0.0758838834764832,0.0835,-0.00734834957055046));
#1602=CARTESIAN_POINT('',(0.075,0.0835,-0.00646446609406726));
#1603=CARTESIAN_POINT('',(0.0767677669529664,0.0835,-0.00823223304703364));
#1604=CARTESIAN_POINT('',(0.075,0.082498,-0.00646446609406726));
#1605=CARTESIAN_POINT('',(0.075,0.0875,-0.00646446609406726));
#1606=CARTESIAN_POINT('',(0.0758838834764832,0.0875,-0.00734834957055046));
#1607=CARTESIAN_POINT('',(0.0767677669529664,0.0875,-0.00823223304703364));
#1608=CARTESIAN_POINT('',(0.0767677669529664,0.082498,-0.00823223304703364));
#1609=CARTESIAN_POINT('',(0.0741161165235168,0.082498,-0.00734834957055044));
#1610=CARTESIAN_POINT('',(0.0741161165235168,0.0835,-0.00734834957055044));
#1611=CARTESIAN_POINT('',(0.0732322330470337,0.0835,-0.00823223304703362));
#1612=CARTESIAN_POINT('',(0.0732322330470337,0.082498,-0.00823223304703362));
#1613=CARTESIAN_POINT('',(0.0732322330470337,0.0875,-0.00823223304703362));
#1614=CARTESIAN_POINT('',(0.0741161165235168,0.0875,-0.00734834957055044));
#1615=CARTESIAN_POINT('',(0.075,0.082498,-0.01));
#1616=CARTESIAN_POINT('',(0.075,0.0835,-0.01));
#1617=CARTESIAN_POINT('',(0.075,0.0875,-0.01));
#1618=CARTESIAN_POINT('',(0.0758838834764832,0.082498,0.0326516504294495));
#1619=CARTESIAN_POINT('',(0.0758838834764832,0.0835,0.0326516504294495));
#1620=CARTESIAN_POINT('',(0.075,0.0835,0.0335355339059327));
#1621=CARTESIAN_POINT('',(0.0767677669529664,0.0835,0.0317677669529663));
#1622=CARTESIAN_POINT('',(0.075,0.082498,0.0335355339059327));
#1623=CARTESIAN_POINT('',(0.075,0.0875,0.0335355339059327));
#1624=CARTESIAN_POINT('',(0.0758838834764832,0.0875,0.0326516504294495));
#1625=CARTESIAN_POINT('',(0.0767677669529664,0.0875,0.0317677669529663));
#1626=CARTESIAN_POINT('',(0.0767677669529664,0.082498,0.0317677669529663));
#1627=CARTESIAN_POINT('',(0.0741161165235168,0.082498,0.0326516504294495));
#1628=CARTESIAN_POINT('',(0.0741161165235168,0.0835,0.0326516504294495));
#1629=CARTESIAN_POINT('',(0.0732322330470337,0.0835,0.0317677669529663));
#1630=CARTESIAN_POINT('',(0.0732322330470337,0.082498,0.0317677669529663));
#1631=CARTESIAN_POINT('',(0.0732322330470337,0.0875,0.0317677669529663));
#1632=CARTESIAN_POINT('',(0.0741161165235168,0.0875,0.0326516504294495));
#1633=CARTESIAN_POINT('',(0.075,0.082498,0.03));
#1634=CARTESIAN_POINT('',(0.075,0.0835,0.03));
#1635=CARTESIAN_POINT('',(0.075,0.0875,0.03));
#1636=CARTESIAN_POINT('',(0.075,0.082498,0.01));
#1637=CARTESIAN_POINT('',(0.075,0.0835,0.01));
#1638=CARTESIAN_POINT('',(0.0767677669529664,0.0835,0.0117677669529664));
#1639=CARTESIAN_POINT('',(0.0732322330470336,0.0835,0.0117677669529664));
#1640=CARTESIAN_POINT('',(0.0767677669529664,0.082498,0.0117677669529664));
#1641=CARTESIAN_POINT('',(0.0767677669529664,0.0875,0.0117677669529664));
#1642=CARTESIAN_POINT('',(0.075,0.0875,0.01));
#1643=CARTESIAN_POINT('',(0.0732322330470336,0.0875,0.0117677669529664));
#1644=CARTESIAN_POINT('',(0.0732322330470336,0.082498,0.0117677669529664));
#1645=CARTESIAN_POINT('',(0.0741161165235168,0.082498,0.0126516504294495));
#1646=CARTESIAN_POINT('',(0.075,0.082498,0.0135355339059327));
#1647=CARTESIAN_POINT('',(0.075,0.0835,0.0135355339059327));
#1648=CARTESIAN_POINT('',(0.075,0.0875,0.0135355339059327));
#1649=CARTESIAN_POINT('',(0.0741161165235168,0.0835,0.0126516504294495));
#1650=CARTESIAN_POINT('',(0.0741161165235168,0.0875,0.0126516504294495));
#1651=CARTESIAN_POINT('',(0.0758838834764832,0.082498,0.0126516504294496));
#1652=CARTESIAN_POINT('',(0.0758838834764832,0.0835,0.0126516504294496));
#1653=CARTESIAN_POINT('',(0.0758838834764832,0.0875,0.0126516504294496));
#1654=CARTESIAN_POINT('',(0.075,0.0875,0.02));
#1655=CARTESIAN_POINT('',(0.084,0.0875,0.02));
#1656=CARTESIAN_POINT('',(0.084,0.0875,0.039));
#1657=CARTESIAN_POINT('',(0.084,0.0875,-0.019));
#1658=CARTESIAN_POINT('',(0.075,0.0875,-0.019));
#1659=CARTESIAN_POINT('',(0.065,0.0875,-0.019));
#1660=CARTESIAN_POINT('',(0.065,0.0875,0.02));
#1661=CARTESIAN_POINT('',(0.065,0.0875,0.039));
#1662=CARTESIAN_POINT('',(0.075,0.0875,0.039));
#1663=CARTESIAN_POINT('',(0.049,0.075,0.02));
#1664=CARTESIAN_POINT('',(0.045,0.107502,0.02));
#1665=CARTESIAN_POINT('',(0.045,0.106255533509895,0.02));
#1666=CARTESIAN_POINT('',(0.045,0.0875,0.02));
#1667=CARTESIAN_POINT('',(0.0326333143531058,0.0970950256233072,0.02));
#1668=CARTESIAN_POINT('',(0.0196800297616411,0.0875,0.02));
#1669=CARTESIAN_POINT('',(0.0215,0.0875,0.02));
#1670=CARTESIAN_POINT('',(0.0384,0.0875,0.02));
#1671=CARTESIAN_POINT('',(0.0384,0.0878199264745632,0.02));
#1672=CARTESIAN_POINT('',(0.0384,0.0881398529491264,0.02));
#1673=CARTESIAN_POINT('',(0.04,0.0895,0.02));
#1674=CARTESIAN_POINT('',(0.0416,0.0881398529491264,0.02));
#1675=CARTESIAN_POINT('',(0.0416,0.0878199264745632,0.02));
#1676=CARTESIAN_POINT('',(0.0416,0.0875,0.02));
#1677=CARTESIAN_POINT('',(0.0433,0.0875,0.02));
#1678=CARTESIAN_POINT('',(0.049,0.075,0.));
#1679=CARTESIAN_POINT('',(0.0317,0.0875,0.));
#1680=CARTESIAN_POINT('',(0.0384,0.0875,0.));
#1681=CARTESIAN_POINT('',(0.0196800297616411,0.0875,0.));
#1682=CARTESIAN_POINT('',(0.0455952275506257,0.106696442806655,0.));
#1683=CARTESIAN_POINT('',(0.045,0.106255533509895,1.73472347597681E-18));
#1684=CARTESIAN_POINT('',(0.045,0.107502,1.73472347597681E-18));
#1685=CARTESIAN_POINT('',(0.045,0.0875,0.));
#1686=CARTESIAN_POINT('',(0.0525,0.0875,0.));
#1687=CARTESIAN_POINT('',(0.0416,0.0875,0.));
#1688=CARTESIAN_POINT('',(0.0416,0.0878199264745632,0.));
#1689=CARTESIAN_POINT('',(0.0416,0.0881398529491264,0.));
#1690=CARTESIAN_POINT('',(0.04,0.0895,0.));
#1691=CARTESIAN_POINT('',(0.0384,0.0881398529491264,0.));
#1692=CARTESIAN_POINT('',(0.0384,0.0878199264745632,0.));
#1693=CARTESIAN_POINT('',(0.049,0.075,0.02));
#1694=CARTESIAN_POINT('',(0.045,0.085,0.02));
#1695=CARTESIAN_POINT('',(0.045,0.0835,0.02));
#1696=CARTESIAN_POINT('',(0.045,0.0615222442678823,0.02));
#1697=CARTESIAN_POINT('',(0.0744047724493743,0.0833035571933447,0.02));
#1698=CARTESIAN_POINT('',(0.0464142135623731,0.0835,0.02));
#1699=CARTESIAN_POINT('',(0.049,0.075,0.));
#1700=CARTESIAN_POINT('',(0.0540292188621289,0.068210554536126,0.));
#1701=CARTESIAN_POINT('',(0.045,0.0615222442678824,0.));
#1702=CARTESIAN_POINT('',(0.045,0.085,0.));
#1703=CARTESIAN_POINT('',(0.045,0.0835,0.));
#1704=CARTESIAN_POINT('',(0.0464142135623731,0.0835,-8.67361737988404E-19));
#1705=CARTESIAN_POINT('',(0.0625,0.1075,0.02));
#1706=CARTESIAN_POINT('',(0.055,0.1075,0.03));
#1707=CARTESIAN_POINT('',(0.045,0.1075,0.02));
#1708=CARTESIAN_POINT('',(0.064,0.1075,0.039));
#1709=CARTESIAN_POINT('',(0.064,0.1075,-0.02));
#1710=CARTESIAN_POINT('',(0.064,0.1075,-0.019));
#1711=CARTESIAN_POINT('',(0.055,0.1075,-0.01));
#1712=CARTESIAN_POINT('',(0.045,0.1075,1.73472347597681E-18));
#1713=CARTESIAN_POINT('',(0.045,0.1075,0.003));
#1714=CARTESIAN_POINT('',(0.065,0.0975,0.02));
#1715=CARTESIAN_POINT('',(0.065,0.107502,-0.02));
#1716=CARTESIAN_POINT('',(0.065,0.1065,-0.02));
#1717=CARTESIAN_POINT('',(0.065,0.0865,-0.02));
#1718=CARTESIAN_POINT('',(0.065,0.1065,0.04));
#1719=CARTESIAN_POINT('',(0.065,0.1065,0.04));
#1720=CARTESIAN_POINT('',(0.065,0.107502,0.04));
#1721=CARTESIAN_POINT('',(0.065,0.0865,0.04));
#1722=CARTESIAN_POINT('',(0.065,0.0865,0.039));
#1723=CARTESIAN_POINT('',(0.065,0.0865,-0.019));
#1724=CARTESIAN_POINT('',(0.085,0.085,0.02));
#1725=CARTESIAN_POINT('',(0.085,0.085,0.039));
#1726=CARTESIAN_POINT('',(0.085,0.0865,0.039));
#1727=CARTESIAN_POINT('',(0.085,0.0835,0.039));
#1728=CARTESIAN_POINT('',(0.085,0.0835,0.02));
#1729=CARTESIAN_POINT('',(0.085,0.0835,-0.019));
#1730=CARTESIAN_POINT('',(0.085,0.085,-0.019));
#1731=CARTESIAN_POINT('',(0.085,0.0865,-0.019));
#1732=CARTESIAN_POINT('',(0.085,0.0865,0.02));
#1733=CARTESIAN_POINT('',(0.045,0.085,0.02));
#1734=CARTESIAN_POINT('',(0.045,0.0602777777777778,0.003));
#1735=CARTESIAN_POINT('',(0.045,0.0602777777777778,0.019));
#1736=CARTESIAN_POINT('',(0.045,0.0602777777777778,0.001));
#1737=CARTESIAN_POINT('',(0.045,0.0615222442678824,0.019));
#1738=CARTESIAN_POINT('',(0.045,0.085,0.02));
#1739=CARTESIAN_POINT('',(0.045,0.0875,0.02));
#1740=CARTESIAN_POINT('',(0.045,0.085,0.));
#1741=CARTESIAN_POINT('',(0.045,0.0615222442678824,0.001));
#1742=CARTESIAN_POINT('',(0.0315,0.0975,0.003));
#1743=CARTESIAN_POINT('',(0.018,0.0875,0.003));
#1744=CARTESIAN_POINT('',(0.018,0.0875,0.019));
#1745=CARTESIAN_POINT('',(0.018,0.0875,0.001));
#1746=CARTESIAN_POINT('',(0.0315,0.0975,0.019));
#1747=CARTESIAN_POINT('',(0.044,0.106759259259259,0.019));
#1748=CARTESIAN_POINT('',(0.0301267491926803,0.0964827771797632,0.00512674919268029));
#1749=CARTESIAN_POINT('',(0.0356197524219591,0.10055166846071,0.00938024757804092));
#1750=CARTESIAN_POINT('',(0.044,0.106759259259259,0.001));
#1751=CARTESIAN_POINT('',(0.018,0.0875,0.001));
#1752=CARTESIAN_POINT('',(0.0525,0.0875,0.003));
#1753=CARTESIAN_POINT('',(0.0416,0.0875,0.003));
#1754=CARTESIAN_POINT('',(0.0416,0.0878199264745632,0.003));
#1755=CARTESIAN_POINT('',(0.0416,0.0881398529491264,0.003));
#1756=CARTESIAN_POINT('',(0.04,0.0895,0.003));
#1757=CARTESIAN_POINT('',(0.0384,0.0881398529491264,0.003));
#1758=CARTESIAN_POINT('',(0.0384,0.0878199264745632,0.003));
#1759=CARTESIAN_POINT('',(0.0384,0.0875,0.003));
#1760=CARTESIAN_POINT('',(0.0317,0.0875,0.003));
#1761=CARTESIAN_POINT('',(0.0196800297616411,0.0875,0.019));
#1762=CARTESIAN_POINT('',(0.0196800297616411,0.0875,0.001));
#1763=CARTESIAN_POINT('',(0.06,0.0713888888888889,0.003));
#1764=CARTESIAN_POINT('',(0.06,0.0713888888888889,0.001));
#1765=CARTESIAN_POINT('',(0.075,0.0825,0.01));
#1766=CARTESIAN_POINT('',(0.0714644660940673,0.0798810859956054,0.0135355339059327));
#1767=CARTESIAN_POINT('',(0.0671536683436895,0.076687902476807,0.00922473615555496));
#1768=CARTESIAN_POINT('',(0.0749289321881345,0.0824473571763959,0.017));
#1769=CARTESIAN_POINT('',(0.06,0.0713888888888889,0.017));
#1770=CARTESIAN_POINT('',(0.075,0.0825,0.017));
#1771=CARTESIAN_POINT('',(0.075,0.0825,0.017));
#1772=CARTESIAN_POINT('',(0.045,0.0602777777777778,0.019));
#1773=CARTESIAN_POINT('',(0.0515,0.0838888888888889,0.017));
#1774=CARTESIAN_POINT('',(0.0749289321881345,0.0835,0.017));
#1775=CARTESIAN_POINT('',(0.0749289321881345,0.0835,0.017));
#1776=CARTESIAN_POINT('',(0.055,0.0835,0.017));
#1777=CARTESIAN_POINT('',(0.075,0.0835,0.017));
#1778=CARTESIAN_POINT('',(0.075,0.0835,0.017));
#1779=CARTESIAN_POINT('',(0.075,0.082498,-0.02));
#1780=CARTESIAN_POINT('',(0.065,0.082498,-0.02));
#1781=CARTESIAN_POINT('',(0.065,0.0835,-0.02));
#1782=CARTESIAN_POINT('',(0.075,0.0865,-0.02));
#1783=CARTESIAN_POINT('',(0.084,0.0865,-0.02));
#1784=CARTESIAN_POINT('',(0.084,0.082498,-0.02));
#1785=CARTESIAN_POINT('',(0.084,0.0835,-0.02));
#1786=CARTESIAN_POINT('',(0.075,0.0835,-0.02));
#1787=CARTESIAN_POINT('',(0.055,0.082498,-0.01));
#1788=CARTESIAN_POINT('',(0.064,0.1065,-0.019));
#1789=CARTESIAN_POINT('',(0.045,0.0835,4.66526093489298E-18));
#1790=CARTESIAN_POINT('',(0.044,0.105514792769155,0.001));
#1791=CARTESIAN_POINT('',(0.055,0.082498,0.03));
#1792=CARTESIAN_POINT('',(0.064,0.1065,0.039));
#1793=CARTESIAN_POINT('',(0.044,0.105514792769155,0.019));
#1794=CARTESIAN_POINT('',(0.065,0.0835,0.04));
#1795=CARTESIAN_POINT('',(0.065,0.0835,0.04));
#1796=CARTESIAN_POINT('',(0.065,0.082498,0.04));
#1797=CARTESIAN_POINT('',(0.075,0.082498,0.04));
#1798=CARTESIAN_POINT('',(0.084,0.082498,0.04));
#1799=CARTESIAN_POINT('',(0.084,0.0835,0.04));
#1800=CARTESIAN_POINT('',(0.084,0.0865,0.04));
#1801=CARTESIAN_POINT('',(0.075,0.0865,0.04));
#1802=CARTESIAN_POINT('',(0.075,0.0835,0.04));
#1803=CARTESIAN_POINT('',(0.075,0.0835,0.01));
#1804=CARTESIAN_POINT('',(0.0714644660940673,0.0835,0.0135355339059327));
#1805=CARTESIAN_POINT('',(0.0714644660940673,0.0835,0.0135355339059327));
#1806=CARTESIAN_POINT('',(0.0785355339059328,0.0835,0.0135355339059327));
#1807=CARTESIAN_POINT('',(0.0785355339059328,0.0835,0.0135355339059327));
#1808=CARTESIAN_POINT('',(0.075,0.0835,0.01));
#1809=CARTESIAN_POINT('',(0.0767677669529664,0.0835,0.0153033008588991));
#1810=CARTESIAN_POINT('',(0.075,0.0835,0.0170710678118655));
#1811=CARTESIAN_POINT('',(0.075,0.0835,0.0170710678118655));
#1812=CARTESIAN_POINT('',(0.0767677669529664,0.0835,0.0153033008588991));
#1813=CARTESIAN_POINT('',(0.075,0.0835,0.017));
#1814=CARTESIAN_POINT('',(0.075,0.0835,0.017));
#1815=CARTESIAN_POINT('',(0.0732322330470336,0.0835,0.0153033008588991));
#1816=CARTESIAN_POINT('',(0.0732322330470336,0.0835,0.0153033008588991));
#1817=CARTESIAN_POINT('',(0.065,0.0835,0.01));
#1818=CARTESIAN_POINT('',(0.0767677669529664,0.0835,0.0353033008588991));
#1819=CARTESIAN_POINT('',(0.075,0.0835,0.0370710678118655));
#1820=CARTESIAN_POINT('',(0.075,0.0835,0.0370710678118655));
#1821=CARTESIAN_POINT('',(0.0767677669529664,0.0835,0.0353033008588991));
#1822=CARTESIAN_POINT('',(0.0785355339059328,0.0835,0.0335355339059327));
#1823=CARTESIAN_POINT('',(0.0785355339059328,0.0835,0.0335355339059327));
#1824=CARTESIAN_POINT('',(0.0732322330470336,0.0835,0.0353033008588991));
#1825=CARTESIAN_POINT('',(0.0714644660940673,0.0835,0.0335355339059327));
#1826=CARTESIAN_POINT('',(0.0714644660940673,0.0835,0.0335355339059327));
#1827=CARTESIAN_POINT('',(0.0732322330470336,0.0835,0.0353033008588991));
#1828=CARTESIAN_POINT('',(0.075,0.0835,0.03));
#1829=CARTESIAN_POINT('',(0.075,0.0835,0.03));
#1830=CARTESIAN_POINT('',(0.065,0.0835,0.01));
#1831=CARTESIAN_POINT('',(0.075,0.0835,-0.01));
#1832=CARTESIAN_POINT('',(0.0785355339059328,0.0835,-0.00646446609406727));
#1833=CARTESIAN_POINT('',(0.0785355339059328,0.0835,-0.00646446609406727));
#1834=CARTESIAN_POINT('',(0.075,0.0835,-0.01));
#1835=CARTESIAN_POINT('',(0.0714644660940673,0.0835,-0.00646446609406727));
#1836=CARTESIAN_POINT('',(0.0714644660940673,0.0835,-0.00646446609406727));
#1837=CARTESIAN_POINT('',(0.0767677669529664,0.0835,-0.0046966991411009));
#1838=CARTESIAN_POINT('',(0.075,0.0835,-0.00292893218813453));
#1839=CARTESIAN_POINT('',(0.075,0.0835,-0.00292893218813453));
#1840=CARTESIAN_POINT('',(0.0767677669529664,0.0835,-0.0046966991411009));
#1841=CARTESIAN_POINT('',(0.0732322330470336,0.0835,-0.00469669914110091));
#1842=CARTESIAN_POINT('',(0.0732322330470336,0.0835,-0.00469669914110091));
#1843=CARTESIAN_POINT('',(0.065,0.0835,0.01));
#1844=CARTESIAN_POINT('',(0.0507071067811866,0.0835,0.0242928932188134));
#1845=CARTESIAN_POINT('',(0.0654142135623731,0.0835,0.039));
#1846=CARTESIAN_POINT('',(0.075,0.0835,0.039));
#1847=CARTESIAN_POINT('',(0.084,0.0835,0.039));
#1848=CARTESIAN_POINT('',(0.084,0.082498,0.039));
#1849=CARTESIAN_POINT('',(0.084,0.0865,0.039));
#1850=CARTESIAN_POINT('',(0.084,0.0835,0.039));
#1851=CARTESIAN_POINT('',(0.075,0.0865,0.039));
#1852=CARTESIAN_POINT('',(0.084,0.0865,0.039));
#1853=CARTESIAN_POINT('',(0.0407071067811866,0.0835,0.00570710678118655));
#1854=CARTESIAN_POINT('',(0.0654142135623731,0.0835,-0.019));
#1855=CARTESIAN_POINT('',(0.084,0.0835,0.039));
#1856=CARTESIAN_POINT('',(0.084,0.0835,0.039));
#1857=CARTESIAN_POINT('',(0.084,0.0865,0.039));
#1858=CARTESIAN_POINT('',(0.084,0.0865,0.039));
#1859=CARTESIAN_POINT('',(0.075,0.0835,-0.019));
#1860=CARTESIAN_POINT('',(0.084,0.0835,-0.019));
#1861=CARTESIAN_POINT('',(0.084,0.0835,0.02));
#1862=CARTESIAN_POINT('',(0.084,0.0835,-0.019));
#1863=CARTESIAN_POINT('',(0.084,0.0865,0.02));
#1864=CARTESIAN_POINT('',(0.084,0.0865,-0.019));
#1865=CARTESIAN_POINT('',(0.075,0.0865,-0.019));
#1866=CARTESIAN_POINT('',(0.084,0.0865,-0.019));
#1867=CARTESIAN_POINT('',(0.084,0.0835,-0.019));
#1868=CARTESIAN_POINT('',(0.084,0.0835,-0.019));
#1869=CARTESIAN_POINT('',(0.084,0.0865,-0.019));
#1870=CARTESIAN_POINT('',(0.084,0.0865,-0.019));
#1871=CARTESIAN_POINT('',(0.084,0.085,-0.019));
#1872=CARTESIAN_POINT('',(0.064,0.1065,0.02));
#1873=CARTESIAN_POINT('',(0.0326333143531058,0.0970950256233072,0.019));
#1874=CARTESIAN_POINT('',(0.0320952275506257,0.0966964428066553,0.001));
#1875=CARTESIAN_POINT('',(0.0540292188621289,0.068210554536126,0.001));
#1876=CARTESIAN_POINT('',(0.0540292188621289,0.068210554536126,0.019));
#1877=MECHANICAL_DESIGN_GEOMETRIC_PRESENTATION_REPRESENTATION('',(#1115),
#1878);
#1878=(
GEOMETRIC_REPRESENTATION_CONTEXT(3)
GLOBAL_UNCERTAINTY_ASSIGNED_CONTEXT((#1879))
GLOBAL_UNIT_ASSIGNED_CONTEXT((#1882,#1881,#1880))
REPRESENTATION_CONTEXT('Cubby vslot attachment',
'TOP_LEVEL_ASSEMBLY_PART')
);
#1879=UNCERTAINTY_MEASURE_WITH_UNIT(LENGTH_MEASURE(1.E-8),#1882,
'DISTANCE_ACCURACY_VALUE','Maximum Tolerance applied to model');
#1880=(
NAMED_UNIT(*)
SI_UNIT($,.STERADIAN.)
SOLID_ANGLE_UNIT()
);
#1881=(
NAMED_UNIT(*)
PLANE_ANGLE_UNIT()
SI_UNIT($,.RADIAN.)
);
#1882=(
LENGTH_UNIT()
NAMED_UNIT(*)
SI_UNIT($,.METRE.)
);
#1883=PRODUCT_DEFINITION_SHAPE('','',#1884);
#1884=PRODUCT_DEFINITION('','',#1886,#1885);
#1885=PRODUCT_DEFINITION_CONTEXT('',#1892,'design');
#1886=PRODUCT_DEFINITION_FORMATION_WITH_SPECIFIED_SOURCE('','',#1888,
 .NOT_KNOWN.);
#1887=PRODUCT_RELATED_PRODUCT_CATEGORY('','',(#1888));
#1888=PRODUCT('Cubby vslot attachment','Cubby vslot attachment',
'Cubby vslot attachment',(#1890));
#1889=PRODUCT_CATEGORY('','');
#1890=PRODUCT_CONTEXT('',#1892,'mechanical');
#1891=APPLICATION_PROTOCOL_DEFINITION('international standard',
'ap242_managed_model_based_3d_engineering',2020,#1892);
#1892=APPLICATION_CONTEXT('managed model based 3d engineering');
ENDSEC;
END-ISO-10303-21;
