ISO-10303-21;
HEADER;
/* Generated by software containing ST-Developer
 * from STEP Tools, Inc. (www.steptools.com) 
 */
/* OPTION: using custom renumber hook */

FILE_DESCRIPTION(
/* description */ ('STEP AP242 Edition 2',
'CAx-IF Rec.Pracs.---Representation and Presentation of Product Manufa
cturing Information (PMI)---4.0---2014-10-13',
'CAx-IF Rec.Pracs.---3D Tessellated Geometry---0.4---2014-09-14','2;1',
'CAx-IF Rec.Pracs.---User Defined Attributes---1.5---2016-08-15'),
/* implementation_level */ '2;1');

FILE_NAME(
/* name */ 'Cubby Legs - Cubby Legs Slide Attach',
/* time_stamp */ '2026-10-06T16:53:15Z',
/* author */ (''),
/* organization */ (''),
/* preprocessor_version */ 'ST-DEVELOPER v20',
/* originating_system */ 'ONSHAPE BY PTC INC, 1.221',
/* authorisation */ '  ');

FILE_SCHEMA (('AP242_MANAGED_MODEL_BASED_3D_ENGINEERING_MIM_LF { 1 0 10303 442 3 1 4 }'));
ENDSEC;

DATA;
#10=SHAPE_REPRESENTATION_RELATIONSHIP('','',#817,#11);
#11=ADVANCED_BREP_SHAPE_REPRESENTATION('',(#815),#1376);
#12=SPHERICAL_SURFACE('',#878,0.001);
#13=SPHERICAL_SURFACE('',#897,0.001);
#14=SPHERICAL_SURFACE('',#899,0.001);
#15=ELLIPSE('',#834,0.00141421356237309,0.001);
#16=ELLIPSE('',#836,0.00141421356237309,0.001);
#17=ELLIPSE('',#852,0.00115470053837925,0.001);
#18=ELLIPSE('',#853,0.00115470053837925,0.001);
#19=ELLIPSE('',#855,0.00115470053837925,0.001);
#20=ELLIPSE('',#857,0.00115470053837925,0.001);
#21=ELLIPSE('',#859,0.002,0.001);
#22=ELLIPSE('',#861,0.002,0.001);
#23=ELLIPSE('',#863,0.00108239220029239,0.001);
#24=ELLIPSE('',#865,0.00108239220029239,0.001);
#25=ELLIPSE('',#867,0.00108239220029239,0.001);
#26=ELLIPSE('',#869,0.00108239220029239,0.001);
#27=ELLIPSE('',#871,0.00108239220029239,0.001);
#28=ELLIPSE('',#873,0.00108239220029239,0.001);
#29=ELLIPSE('',#882,0.00108495598955609,0.001);
#30=ELLIPSE('',#884,0.0010798750869266,0.001);
#31=ELLIPSE('',#886,0.0010798750869266,0.001);
#32=ELLIPSE('',#888,0.00108495598955609,0.001);
#33=LINE('',#1154,#110);
#34=LINE('',#1157,#111);
#35=LINE('',#1159,#112);
#36=LINE('',#1161,#113);
#37=LINE('',#1163,#114);
#38=LINE('',#1165,#115);
#39=LINE('',#1167,#116);
#40=LINE('',#1169,#117);
#41=LINE('',#1171,#118);
#42=LINE('',#1174,#119);
#43=LINE('',#1175,#120);
#44=LINE('',#1177,#121);
#45=LINE('',#1180,#122);
#46=LINE('',#1181,#123);
#47=LINE('',#1183,#124);
#48=LINE('',#1186,#125);
#49=LINE('',#1187,#126);
#50=LINE('',#1189,#127);
#51=LINE('',#1192,#128);
#52=LINE('',#1193,#129);
#53=LINE('',#1195,#130);
#54=LINE('',#1198,#131);
#55=LINE('',#1199,#132);
#56=LINE('',#1201,#133);
#57=LINE('',#1204,#134);
#58=LINE('',#1205,#135);
#59=LINE('',#1207,#136);
#60=LINE('',#1210,#137);
#61=LINE('',#1211,#138);
#62=LINE('',#1213,#139);
#63=LINE('',#1216,#140);
#64=LINE('',#1217,#141);
#65=LINE('',#1219,#142);
#66=LINE('',#1222,#143);
#67=LINE('',#1223,#144);
#68=LINE('',#1225,#145);
#69=LINE('',#1228,#146);
#70=LINE('',#1230,#147);
#71=LINE('',#1232,#148);
#72=LINE('',#1234,#149);
#73=LINE('',#1236,#150);
#74=LINE('',#1237,#151);
#75=LINE('',#1239,#152);
#76=LINE('',#1242,#153);
#77=LINE('',#1244,#154);
#78=LINE('',#1247,#155);
#79=LINE('',#1249,#156);
#80=LINE('',#1251,#157);
#81=LINE('',#1255,#158);
#82=LINE('',#1258,#159);
#83=LINE('',#1260,#160);
#84=LINE('',#1262,#161);
#85=LINE('',#1264,#162);
#86=LINE('',#1266,#163);
#87=LINE('',#1268,#164);
#88=LINE('',#1270,#165);
#89=LINE('',#1272,#166);
#90=LINE('',#1274,#167);
#91=LINE('',#1276,#168);
#92=LINE('',#1278,#169);
#93=LINE('',#1280,#170);
#94=LINE('',#1282,#171);
#95=LINE('',#1286,#172);
#96=LINE('',#1290,#173);
#97=LINE('',#1293,#174);
#98=LINE('',#1295,#175);
#99=LINE('',#1297,#176);
#100=LINE('',#1299,#177);
#101=LINE('',#1301,#178);
#102=LINE('',#1303,#179);
#103=LINE('',#1305,#180);
#104=LINE('',#1308,#181);
#105=LINE('',#1309,#182);
#106=LINE('',#1313,#183);
#107=LINE('',#1315,#184);
#108=LINE('',#1317,#185);
#109=LINE('',#1319,#186);
#110=VECTOR('',#912,1.);
#111=VECTOR('',#913,1.);
#112=VECTOR('',#914,1.);
#113=VECTOR('',#915,1.);
#114=VECTOR('',#916,1.);
#115=VECTOR('',#917,1.);
#116=VECTOR('',#918,1.);
#117=VECTOR('',#919,1.);
#118=VECTOR('',#922,1.);
#119=VECTOR('',#923,1.);
#120=VECTOR('',#924,1.);
#121=VECTOR('',#927,1.);
#122=VECTOR('',#928,1.);
#123=VECTOR('',#929,1.);
#124=VECTOR('',#932,1.);
#125=VECTOR('',#933,1.);
#126=VECTOR('',#934,1.);
#127=VECTOR('',#937,1.);
#128=VECTOR('',#938,1.);
#129=VECTOR('',#939,1.);
#130=VECTOR('',#942,1.);
#131=VECTOR('',#943,1.);
#132=VECTOR('',#944,1.);
#133=VECTOR('',#947,1.);
#134=VECTOR('',#948,1.);
#135=VECTOR('',#949,1.);
#136=VECTOR('',#952,1.);
#137=VECTOR('',#953,1.);
#138=VECTOR('',#954,1.);
#139=VECTOR('',#957,1.);
#140=VECTOR('',#958,1.);
#141=VECTOR('',#959,1.);
#142=VECTOR('',#962,1.);
#143=VECTOR('',#963,1.);
#144=VECTOR('',#964,1.);
#145=VECTOR('',#967,1.);
#146=VECTOR('',#968,1.);
#147=VECTOR('',#969,1.);
#148=VECTOR('',#970,1.);
#149=VECTOR('',#971,1.);
#150=VECTOR('',#972,1.);
#151=VECTOR('',#973,1.);
#152=VECTOR('',#976,1.);
#153=VECTOR('',#977,1.);
#154=VECTOR('',#978,1.);
#155=VECTOR('',#983,1.);
#156=VECTOR('',#984,1.);
#157=VECTOR('',#985,1.);
#158=VECTOR('',#990,1.);
#159=VECTOR('',#991,1.);
#160=VECTOR('',#992,1.);
#161=VECTOR('',#993,1.);
#162=VECTOR('',#994,1.);
#163=VECTOR('',#995,1.);
#164=VECTOR('',#996,1.);
#165=VECTOR('',#997,1.);
#166=VECTOR('',#998,1.);
#167=VECTOR('',#999,1.);
#168=VECTOR('',#1000,1.);
#169=VECTOR('',#1001,1.);
#170=VECTOR('',#1002,1.);
#171=VECTOR('',#1005,1.);
#172=VECTOR('',#1010,1.);
#173=VECTOR('',#1015,1.);
#174=VECTOR('',#1016,1.);
#175=VECTOR('',#1019,1.);
#176=VECTOR('',#1020,1.);
#177=VECTOR('',#1023,1.);
#178=VECTOR('',#1024,1.);
#179=VECTOR('',#1025,1.);
#180=VECTOR('',#1028,1.);
#181=VECTOR('',#1029,1.);
#182=VECTOR('',#1030,1.);
#183=VECTOR('',#1035,1.);
#184=VECTOR('',#1036,1.);
#185=VECTOR('',#1037,1.);
#186=VECTOR('',#1038,1.);
#187=PLANE('',#822);
#188=PLANE('',#823);
#189=PLANE('',#824);
#190=PLANE('',#825);
#191=PLANE('',#826);
#192=PLANE('',#827);
#193=PLANE('',#828);
#194=PLANE('',#829);
#195=PLANE('',#830);
#196=PLANE('',#831);
#197=PLANE('',#832);
#198=PLANE('',#833);
#199=PLANE('',#835);
#200=PLANE('',#837);
#201=PLANE('',#838);
#202=PLANE('',#839);
#203=PLANE('',#842);
#204=PLANE('',#844);
#205=PLANE('',#845);
#206=PLANE('',#846);
#207=PLANE('',#850);
#208=ORIENTED_EDGE('',*,*,#430,.T.);
#209=ORIENTED_EDGE('',*,*,#431,.F.);
#210=ORIENTED_EDGE('',*,*,#432,.F.);
#211=ORIENTED_EDGE('',*,*,#433,.T.);
#212=ORIENTED_EDGE('',*,*,#434,.T.);
#213=ORIENTED_EDGE('',*,*,#435,.F.);
#214=ORIENTED_EDGE('',*,*,#436,.F.);
#215=ORIENTED_EDGE('',*,*,#437,.T.);
#216=ORIENTED_EDGE('',*,*,#438,.T.);
#217=ORIENTED_EDGE('',*,*,#439,.T.);
#218=ORIENTED_EDGE('',*,*,#440,.F.);
#219=ORIENTED_EDGE('',*,*,#441,.T.);
#220=ORIENTED_EDGE('',*,*,#436,.T.);
#221=ORIENTED_EDGE('',*,*,#442,.F.);
#222=ORIENTED_EDGE('',*,*,#443,.F.);
#223=ORIENTED_EDGE('',*,*,#444,.T.);
#224=ORIENTED_EDGE('',*,*,#440,.T.);
#225=ORIENTED_EDGE('',*,*,#445,.F.);
#226=ORIENTED_EDGE('',*,*,#446,.F.);
#227=ORIENTED_EDGE('',*,*,#447,.T.);
#228=ORIENTED_EDGE('',*,*,#443,.T.);
#229=ORIENTED_EDGE('',*,*,#448,.F.);
#230=ORIENTED_EDGE('',*,*,#449,.F.);
#231=ORIENTED_EDGE('',*,*,#450,.T.);
#232=ORIENTED_EDGE('',*,*,#446,.T.);
#233=ORIENTED_EDGE('',*,*,#451,.F.);
#234=ORIENTED_EDGE('',*,*,#452,.F.);
#235=ORIENTED_EDGE('',*,*,#453,.T.);
#236=ORIENTED_EDGE('',*,*,#449,.T.);
#237=ORIENTED_EDGE('',*,*,#454,.F.);
#238=ORIENTED_EDGE('',*,*,#455,.F.);
#239=ORIENTED_EDGE('',*,*,#456,.T.);
#240=ORIENTED_EDGE('',*,*,#452,.T.);
#241=ORIENTED_EDGE('',*,*,#457,.F.);
#242=ORIENTED_EDGE('',*,*,#458,.F.);
#243=ORIENTED_EDGE('',*,*,#459,.T.);
#244=ORIENTED_EDGE('',*,*,#455,.T.);
#245=ORIENTED_EDGE('',*,*,#460,.F.);
#246=ORIENTED_EDGE('',*,*,#461,.F.);
#247=ORIENTED_EDGE('',*,*,#462,.T.);
#248=ORIENTED_EDGE('',*,*,#458,.T.);
#249=ORIENTED_EDGE('',*,*,#463,.F.);
#250=ORIENTED_EDGE('',*,*,#464,.F.);
#251=ORIENTED_EDGE('',*,*,#465,.T.);
#252=ORIENTED_EDGE('',*,*,#461,.T.);
#253=ORIENTED_EDGE('',*,*,#466,.F.);
#254=ORIENTED_EDGE('',*,*,#467,.F.);
#255=ORIENTED_EDGE('',*,*,#468,.T.);
#256=ORIENTED_EDGE('',*,*,#469,.T.);
#257=ORIENTED_EDGE('',*,*,#470,.T.);
#258=ORIENTED_EDGE('',*,*,#471,.F.);
#259=ORIENTED_EDGE('',*,*,#472,.T.);
#260=ORIENTED_EDGE('',*,*,#464,.T.);
#261=ORIENTED_EDGE('',*,*,#473,.F.);
#262=ORIENTED_EDGE('',*,*,#474,.F.);
#263=ORIENTED_EDGE('',*,*,#475,.T.);
#264=ORIENTED_EDGE('',*,*,#476,.T.);
#265=ORIENTED_EDGE('',*,*,#471,.T.);
#266=ORIENTED_EDGE('',*,*,#477,.T.);
#267=ORIENTED_EDGE('',*,*,#478,.T.);
#268=ORIENTED_EDGE('',*,*,#479,.T.);
#269=ORIENTED_EDGE('',*,*,#480,.F.);
#270=ORIENTED_EDGE('',*,*,#481,.T.);
#271=ORIENTED_EDGE('',*,*,#438,.F.);
#272=ORIENTED_EDGE('',*,*,#482,.T.);
#273=ORIENTED_EDGE('',*,*,#483,.T.);
#274=ORIENTED_EDGE('',*,*,#484,.T.);
#275=ORIENTED_EDGE('',*,*,#485,.T.);
#276=ORIENTED_EDGE('',*,*,#486,.T.);
#277=ORIENTED_EDGE('',*,*,#487,.T.);
#278=ORIENTED_EDGE('',*,*,#488,.T.);
#279=ORIENTED_EDGE('',*,*,#489,.T.);
#280=ORIENTED_EDGE('',*,*,#490,.T.);
#281=ORIENTED_EDGE('',*,*,#491,.T.);
#282=ORIENTED_EDGE('',*,*,#492,.T.);
#283=ORIENTED_EDGE('',*,*,#493,.T.);
#284=ORIENTED_EDGE('',*,*,#494,.T.);
#285=ORIENTED_EDGE('',*,*,#435,.T.);
#286=ORIENTED_EDGE('',*,*,#495,.T.);
#287=ORIENTED_EDGE('',*,*,#473,.T.);
#288=ORIENTED_EDGE('',*,*,#466,.T.);
#289=ORIENTED_EDGE('',*,*,#463,.T.);
#290=ORIENTED_EDGE('',*,*,#460,.T.);
#291=ORIENTED_EDGE('',*,*,#457,.T.);
#292=ORIENTED_EDGE('',*,*,#454,.T.);
#293=ORIENTED_EDGE('',*,*,#451,.T.);
#294=ORIENTED_EDGE('',*,*,#448,.T.);
#295=ORIENTED_EDGE('',*,*,#445,.T.);
#296=ORIENTED_EDGE('',*,*,#442,.T.);
#297=ORIENTED_EDGE('',*,*,#434,.F.);
#298=ORIENTED_EDGE('',*,*,#496,.T.);
#299=ORIENTED_EDGE('',*,*,#497,.T.);
#300=ORIENTED_EDGE('',*,*,#498,.T.);
#301=ORIENTED_EDGE('',*,*,#467,.T.);
#302=ORIENTED_EDGE('',*,*,#495,.F.);
#303=ORIENTED_EDGE('',*,*,#430,.F.);
#304=ORIENTED_EDGE('',*,*,#499,.T.);
#305=ORIENTED_EDGE('',*,*,#500,.T.);
#306=ORIENTED_EDGE('',*,*,#480,.T.);
#307=ORIENTED_EDGE('',*,*,#501,.T.);
#308=ORIENTED_EDGE('',*,*,#474,.T.);
#309=ORIENTED_EDGE('',*,*,#502,.T.);
#310=ORIENTED_EDGE('',*,*,#503,.T.);
#311=ORIENTED_EDGE('',*,*,#469,.F.);
#312=ORIENTED_EDGE('',*,*,#504,.T.);
#313=ORIENTED_EDGE('',*,*,#505,.T.);
#314=ORIENTED_EDGE('',*,*,#506,.T.);
#315=ORIENTED_EDGE('',*,*,#507,.T.);
#316=ORIENTED_EDGE('',*,*,#508,.T.);
#317=ORIENTED_EDGE('',*,*,#432,.T.);
#318=ORIENTED_EDGE('',*,*,#509,.T.);
#319=ORIENTED_EDGE('',*,*,#510,.F.);
#320=ORIENTED_EDGE('',*,*,#497,.F.);
#321=ORIENTED_EDGE('',*,*,#511,.T.);
#322=ORIENTED_EDGE('',*,*,#512,.T.);
#323=ORIENTED_EDGE('',*,*,#513,.T.);
#324=ORIENTED_EDGE('',*,*,#514,.T.);
#325=ORIENTED_EDGE('',*,*,#515,.F.);
#326=ORIENTED_EDGE('',*,*,#510,.T.);
#327=ORIENTED_EDGE('',*,*,#431,.T.);
#328=ORIENTED_EDGE('',*,*,#515,.T.);
#329=ORIENTED_EDGE('',*,*,#516,.F.);
#330=ORIENTED_EDGE('',*,*,#453,.F.);
#331=ORIENTED_EDGE('',*,*,#517,.F.);
#332=ORIENTED_EDGE('',*,*,#485,.F.);
#333=ORIENTED_EDGE('',*,*,#517,.T.);
#334=ORIENTED_EDGE('',*,*,#456,.F.);
#335=ORIENTED_EDGE('',*,*,#518,.F.);
#336=ORIENTED_EDGE('',*,*,#486,.F.);
#337=ORIENTED_EDGE('',*,*,#516,.T.);
#338=ORIENTED_EDGE('',*,*,#484,.F.);
#339=ORIENTED_EDGE('',*,*,#519,.F.);
#340=ORIENTED_EDGE('',*,*,#450,.F.);
#341=ORIENTED_EDGE('',*,*,#518,.T.);
#342=ORIENTED_EDGE('',*,*,#459,.F.);
#343=ORIENTED_EDGE('',*,*,#520,.F.);
#344=ORIENTED_EDGE('',*,*,#487,.F.);
#345=ORIENTED_EDGE('',*,*,#519,.T.);
#346=ORIENTED_EDGE('',*,*,#483,.F.);
#347=ORIENTED_EDGE('',*,*,#521,.F.);
#348=ORIENTED_EDGE('',*,*,#447,.F.);
#349=ORIENTED_EDGE('',*,*,#520,.T.);
#350=ORIENTED_EDGE('',*,*,#462,.F.);
#351=ORIENTED_EDGE('',*,*,#522,.F.);
#352=ORIENTED_EDGE('',*,*,#488,.F.);
#353=ORIENTED_EDGE('',*,*,#521,.T.);
#354=ORIENTED_EDGE('',*,*,#482,.F.);
#355=ORIENTED_EDGE('',*,*,#523,.F.);
#356=ORIENTED_EDGE('',*,*,#444,.F.);
#357=ORIENTED_EDGE('',*,*,#522,.T.);
#358=ORIENTED_EDGE('',*,*,#465,.F.);
#359=ORIENTED_EDGE('',*,*,#524,.F.);
#360=ORIENTED_EDGE('',*,*,#489,.F.);
#361=ORIENTED_EDGE('',*,*,#523,.T.);
#362=ORIENTED_EDGE('',*,*,#494,.F.);
#363=ORIENTED_EDGE('',*,*,#525,.F.);
#364=ORIENTED_EDGE('',*,*,#441,.F.);
#365=ORIENTED_EDGE('',*,*,#524,.T.);
#366=ORIENTED_EDGE('',*,*,#472,.F.);
#367=ORIENTED_EDGE('',*,*,#526,.F.);
#368=ORIENTED_EDGE('',*,*,#490,.F.);
#369=ORIENTED_EDGE('',*,*,#525,.T.);
#370=ORIENTED_EDGE('',*,*,#493,.F.);
#371=ORIENTED_EDGE('',*,*,#527,.F.);
#372=ORIENTED_EDGE('',*,*,#437,.F.);
#373=ORIENTED_EDGE('',*,*,#526,.T.);
#374=ORIENTED_EDGE('',*,*,#476,.F.);
#375=ORIENTED_EDGE('',*,*,#528,.F.);
#376=ORIENTED_EDGE('',*,*,#491,.F.);
#377=ORIENTED_EDGE('',*,*,#527,.T.);
#378=ORIENTED_EDGE('',*,*,#492,.F.);
#379=ORIENTED_EDGE('',*,*,#529,.F.);
#380=ORIENTED_EDGE('',*,*,#478,.F.);
#381=ORIENTED_EDGE('',*,*,#529,.T.);
#382=ORIENTED_EDGE('',*,*,#528,.T.);
#383=ORIENTED_EDGE('',*,*,#530,.F.);
#384=ORIENTED_EDGE('',*,*,#530,.T.);
#385=ORIENTED_EDGE('',*,*,#475,.F.);
#386=ORIENTED_EDGE('',*,*,#501,.F.);
#387=ORIENTED_EDGE('',*,*,#479,.F.);
#388=ORIENTED_EDGE('',*,*,#496,.F.);
#389=ORIENTED_EDGE('',*,*,#433,.F.);
#390=ORIENTED_EDGE('',*,*,#531,.F.);
#391=ORIENTED_EDGE('',*,*,#511,.F.);
#392=ORIENTED_EDGE('',*,*,#498,.F.);
#393=ORIENTED_EDGE('',*,*,#514,.F.);
#394=ORIENTED_EDGE('',*,*,#532,.F.);
#395=ORIENTED_EDGE('',*,*,#468,.F.);
#396=ORIENTED_EDGE('',*,*,#477,.F.);
#397=ORIENTED_EDGE('',*,*,#470,.F.);
#398=ORIENTED_EDGE('',*,*,#533,.F.);
#399=ORIENTED_EDGE('',*,*,#502,.F.);
#400=ORIENTED_EDGE('',*,*,#481,.F.);
#401=ORIENTED_EDGE('',*,*,#500,.F.);
#402=ORIENTED_EDGE('',*,*,#534,.F.);
#403=ORIENTED_EDGE('',*,*,#439,.F.);
#404=ORIENTED_EDGE('',*,*,#531,.T.);
#405=ORIENTED_EDGE('',*,*,#508,.F.);
#406=ORIENTED_EDGE('',*,*,#535,.F.);
#407=ORIENTED_EDGE('',*,*,#512,.F.);
#408=ORIENTED_EDGE('',*,*,#532,.T.);
#409=ORIENTED_EDGE('',*,*,#513,.F.);
#410=ORIENTED_EDGE('',*,*,#536,.F.);
#411=ORIENTED_EDGE('',*,*,#504,.F.);
#412=ORIENTED_EDGE('',*,*,#533,.T.);
#413=ORIENTED_EDGE('',*,*,#506,.F.);
#414=ORIENTED_EDGE('',*,*,#537,.F.);
#415=ORIENTED_EDGE('',*,*,#503,.F.);
#416=ORIENTED_EDGE('',*,*,#534,.T.);
#417=ORIENTED_EDGE('',*,*,#499,.F.);
#418=ORIENTED_EDGE('',*,*,#538,.F.);
#419=ORIENTED_EDGE('',*,*,#509,.F.);
#420=ORIENTED_EDGE('',*,*,#536,.T.);
#421=ORIENTED_EDGE('',*,*,#535,.T.);
#422=ORIENTED_EDGE('',*,*,#539,.F.);
#423=ORIENTED_EDGE('',*,*,#538,.T.);
#424=ORIENTED_EDGE('',*,*,#537,.T.);
#425=ORIENTED_EDGE('',*,*,#540,.F.);
#426=ORIENTED_EDGE('',*,*,#539,.T.);
#427=ORIENTED_EDGE('',*,*,#507,.F.);
#428=ORIENTED_EDGE('',*,*,#540,.T.);
#429=ORIENTED_EDGE('',*,*,#505,.F.);
#430=EDGE_CURVE('',#541,#541,#608,.T.);
#431=EDGE_CURVE('',#542,#542,#609,.F.);
#432=EDGE_CURVE('',#543,#544,#33,.T.);
#433=EDGE_CURVE('',#543,#545,#34,.F.);
#434=EDGE_CURVE('',#545,#546,#35,.T.);
#435=EDGE_CURVE('',#547,#546,#36,.T.);
#436=EDGE_CURVE('',#548,#547,#37,.T.);
#437=EDGE_CURVE('',#548,#549,#38,.T.);
#438=EDGE_CURVE('',#549,#550,#39,.T.);
#439=EDGE_CURVE('',#550,#544,#40,.T.);
#440=EDGE_CURVE('',#551,#552,#41,.T.);
#441=EDGE_CURVE('',#551,#548,#42,.T.);
#442=EDGE_CURVE('',#552,#547,#43,.T.);
#443=EDGE_CURVE('',#553,#554,#44,.T.);
#444=EDGE_CURVE('',#553,#551,#45,.T.);
#445=EDGE_CURVE('',#554,#552,#46,.T.);
#446=EDGE_CURVE('',#555,#556,#47,.T.);
#447=EDGE_CURVE('',#555,#553,#48,.T.);
#448=EDGE_CURVE('',#556,#554,#49,.T.);
#449=EDGE_CURVE('',#557,#558,#50,.T.);
#450=EDGE_CURVE('',#557,#555,#51,.T.);
#451=EDGE_CURVE('',#558,#556,#52,.T.);
#452=EDGE_CURVE('',#559,#560,#53,.T.);
#453=EDGE_CURVE('',#559,#557,#54,.T.);
#454=EDGE_CURVE('',#560,#558,#55,.T.);
#455=EDGE_CURVE('',#561,#562,#56,.T.);
#456=EDGE_CURVE('',#561,#559,#57,.T.);
#457=EDGE_CURVE('',#562,#560,#58,.T.);
#458=EDGE_CURVE('',#563,#564,#59,.T.);
#459=EDGE_CURVE('',#563,#561,#60,.T.);
#460=EDGE_CURVE('',#564,#562,#61,.T.);
#461=EDGE_CURVE('',#565,#566,#62,.T.);
#462=EDGE_CURVE('',#565,#563,#63,.T.);
#463=EDGE_CURVE('',#566,#564,#64,.T.);
#464=EDGE_CURVE('',#567,#568,#65,.T.);
#465=EDGE_CURVE('',#567,#565,#66,.T.);
#466=EDGE_CURVE('',#568,#566,#67,.T.);
#467=EDGE_CURVE('',#569,#570,#68,.T.);
#468=EDGE_CURVE('',#569,#571,#69,.T.);
#469=EDGE_CURVE('',#571,#572,#70,.T.);
#470=EDGE_CURVE('',#572,#573,#71,.F.);
#471=EDGE_CURVE('',#574,#573,#72,.T.);
#472=EDGE_CURVE('',#574,#567,#73,.T.);
#473=EDGE_CURVE('',#570,#568,#74,.T.);
#474=EDGE_CURVE('',#575,#576,#75,.T.);
#475=EDGE_CURVE('',#575,#577,#76,.F.);
#476=EDGE_CURVE('',#577,#574,#77,.T.);
#477=EDGE_CURVE('',#573,#576,#15,.F.);
#478=EDGE_CURVE('',#549,#578,#78,.T.);
#479=EDGE_CURVE('',#578,#579,#79,.T.);
#480=EDGE_CURVE('',#580,#579,#80,.T.);
#481=EDGE_CURVE('',#580,#550,#16,.F.);
#482=EDGE_CURVE('',#581,#582,#81,.F.);
#483=EDGE_CURVE('',#582,#583,#82,.F.);
#484=EDGE_CURVE('',#583,#584,#83,.F.);
#485=EDGE_CURVE('',#584,#585,#84,.F.);
#486=EDGE_CURVE('',#585,#586,#85,.F.);
#487=EDGE_CURVE('',#586,#587,#86,.F.);
#488=EDGE_CURVE('',#587,#588,#87,.F.);
#489=EDGE_CURVE('',#588,#589,#88,.F.);
#490=EDGE_CURVE('',#589,#590,#89,.F.);
#491=EDGE_CURVE('',#590,#591,#90,.F.);
#492=EDGE_CURVE('',#591,#592,#91,.F.);
#493=EDGE_CURVE('',#592,#593,#92,.F.);
#494=EDGE_CURVE('',#593,#581,#93,.F.);
#495=EDGE_CURVE('',#546,#570,#94,.T.);
#496=EDGE_CURVE('',#545,#594,#610,.T.);
#497=EDGE_CURVE('',#594,#595,#95,.T.);
#498=EDGE_CURVE('',#595,#569,#611,.T.);
#499=EDGE_CURVE('',#596,#597,#96,.T.);
#500=EDGE_CURVE('',#597,#580,#97,.F.);
#501=EDGE_CURVE('',#579,#575,#612,.F.);
#502=EDGE_CURVE('',#576,#598,#98,.T.);
#503=EDGE_CURVE('',#598,#596,#99,.F.);
#504=EDGE_CURVE('',#571,#599,#100,.F.);
#505=EDGE_CURVE('',#599,#600,#101,.T.);
#506=EDGE_CURVE('',#600,#572,#102,.T.);
#507=EDGE_CURVE('',#601,#602,#103,.F.);
#508=EDGE_CURVE('',#602,#543,#104,.T.);
#509=EDGE_CURVE('',#544,#601,#105,.F.);
#510=EDGE_CURVE('',#603,#603,#613,.T.);
#511=EDGE_CURVE('',#594,#604,#106,.T.);
#512=EDGE_CURVE('',#604,#605,#107,.F.);
#513=EDGE_CURVE('',#605,#606,#108,.T.);
#514=EDGE_CURVE('',#606,#595,#109,.F.);
#515=EDGE_CURVE('',#607,#607,#614,.T.);
#516=EDGE_CURVE('',#557,#584,#17,.T.);
#517=EDGE_CURVE('',#585,#559,#18,.F.);
#518=EDGE_CURVE('',#586,#561,#19,.F.);
#519=EDGE_CURVE('',#555,#583,#20,.T.);
#520=EDGE_CURVE('',#587,#563,#21,.F.);
#521=EDGE_CURVE('',#553,#582,#22,.T.);
#522=EDGE_CURVE('',#588,#565,#23,.F.);
#523=EDGE_CURVE('',#551,#581,#24,.T.);
#524=EDGE_CURVE('',#589,#567,#25,.F.);
#525=EDGE_CURVE('',#548,#593,#26,.T.);
#526=EDGE_CURVE('',#590,#574,#27,.F.);
#527=EDGE_CURVE('',#549,#592,#28,.T.);
#528=EDGE_CURVE('',#591,#577,#615,.T.);
#529=EDGE_CURVE('',#578,#591,#616,.T.);
#530=EDGE_CURVE('',#578,#577,#617,.F.);
#531=EDGE_CURVE('',#604,#543,#29,.T.);
#532=EDGE_CURVE('',#571,#606,#30,.T.);
#533=EDGE_CURVE('',#598,#572,#31,.T.);
#534=EDGE_CURVE('',#544,#597,#32,.F.);
#535=EDGE_CURVE('',#605,#602,#618,.T.);
#536=EDGE_CURVE('',#599,#605,#619,.T.);
#537=EDGE_CURVE('',#596,#600,#620,.T.);
#538=EDGE_CURVE('',#601,#596,#621,.T.);
#539=EDGE_CURVE('',#599,#602,#622,.F.);
#540=EDGE_CURVE('',#601,#600,#623,.F.);
#541=VERTEX_POINT('',#1150);
#542=VERTEX_POINT('',#1152);
#543=VERTEX_POINT('',#1155);
#544=VERTEX_POINT('',#1156);
#545=VERTEX_POINT('',#1158);
#546=VERTEX_POINT('',#1160);
#547=VERTEX_POINT('',#1162);
#548=VERTEX_POINT('',#1164);
#549=VERTEX_POINT('',#1166);
#550=VERTEX_POINT('',#1168);
#551=VERTEX_POINT('',#1172);
#552=VERTEX_POINT('',#1173);
#553=VERTEX_POINT('',#1178);
#554=VERTEX_POINT('',#1179);
#555=VERTEX_POINT('',#1184);
#556=VERTEX_POINT('',#1185);
#557=VERTEX_POINT('',#1190);
#558=VERTEX_POINT('',#1191);
#559=VERTEX_POINT('',#1196);
#560=VERTEX_POINT('',#1197);
#561=VERTEX_POINT('',#1202);
#562=VERTEX_POINT('',#1203);
#563=VERTEX_POINT('',#1208);
#564=VERTEX_POINT('',#1209);
#565=VERTEX_POINT('',#1214);
#566=VERTEX_POINT('',#1215);
#567=VERTEX_POINT('',#1220);
#568=VERTEX_POINT('',#1221);
#569=VERTEX_POINT('',#1226);
#570=VERTEX_POINT('',#1227);
#571=VERTEX_POINT('',#1229);
#572=VERTEX_POINT('',#1231);
#573=VERTEX_POINT('',#1233);
#574=VERTEX_POINT('',#1235);
#575=VERTEX_POINT('',#1240);
#576=VERTEX_POINT('',#1241);
#577=VERTEX_POINT('',#1243);
#578=VERTEX_POINT('',#1248);
#579=VERTEX_POINT('',#1250);
#580=VERTEX_POINT('',#1252);
#581=VERTEX_POINT('',#1256);
#582=VERTEX_POINT('',#1257);
#583=VERTEX_POINT('',#1259);
#584=VERTEX_POINT('',#1261);
#585=VERTEX_POINT('',#1263);
#586=VERTEX_POINT('',#1265);
#587=VERTEX_POINT('',#1267);
#588=VERTEX_POINT('',#1269);
#589=VERTEX_POINT('',#1271);
#590=VERTEX_POINT('',#1273);
#591=VERTEX_POINT('',#1275);
#592=VERTEX_POINT('',#1277);
#593=VERTEX_POINT('',#1279);
#594=VERTEX_POINT('',#1285);
#595=VERTEX_POINT('',#1287);
#596=VERTEX_POINT('',#1291);
#597=VERTEX_POINT('',#1292);
#598=VERTEX_POINT('',#1296);
#599=VERTEX_POINT('',#1300);
#600=VERTEX_POINT('',#1302);
#601=VERTEX_POINT('',#1306);
#602=VERTEX_POINT('',#1307);
#603=VERTEX_POINT('',#1312);
#604=VERTEX_POINT('',#1314);
#605=VERTEX_POINT('',#1316);
#606=VERTEX_POINT('',#1318);
#607=VERTEX_POINT('',#1322);
#608=CIRCLE('',#820,0.0025);
#609=CIRCLE('',#821,0.0025);
#610=CIRCLE('',#840,0.001);
#611=CIRCLE('',#841,0.001);
#612=CIRCLE('',#843,0.001);
#613=CIRCLE('',#847,0.00425);
#614=CIRCLE('',#849,0.00425);
#615=CIRCLE('',#875,0.001);
#616=CIRCLE('',#877,0.001);
#617=CIRCLE('',#879,0.001);
#618=CIRCLE('',#890,0.001);
#619=CIRCLE('',#892,0.001);
#620=CIRCLE('',#894,0.001);
#621=CIRCLE('',#896,0.001);
#622=CIRCLE('',#898,0.001);
#623=CIRCLE('',#900,0.001);
#624=EDGE_LOOP('',(#208));
#625=EDGE_LOOP('',(#209));
#626=EDGE_LOOP('',(#210,#211,#212,#213,#214,#215,#216,#217));
#627=EDGE_LOOP('',(#218,#219,#220,#221));
#628=EDGE_LOOP('',(#222,#223,#224,#225));
#629=EDGE_LOOP('',(#226,#227,#228,#229));
#630=EDGE_LOOP('',(#230,#231,#232,#233));
#631=EDGE_LOOP('',(#234,#235,#236,#237));
#632=EDGE_LOOP('',(#238,#239,#240,#241));
#633=EDGE_LOOP('',(#242,#243,#244,#245));
#634=EDGE_LOOP('',(#246,#247,#248,#249));
#635=EDGE_LOOP('',(#250,#251,#252,#253));
#636=EDGE_LOOP('',(#254,#255,#256,#257,#258,#259,#260,#261));
#637=EDGE_LOOP('',(#262,#263,#264,#265,#266));
#638=EDGE_LOOP('',(#267,#268,#269,#270,#271));
#639=EDGE_LOOP('',(#272,#273,#274,#275,#276,#277,#278,#279,#280,#281,#282,
#283,#284));
#640=EDGE_LOOP('',(#285,#286,#287,#288,#289,#290,#291,#292,#293,#294,#295,
#296));
#641=EDGE_LOOP('',(#297,#298,#299,#300,#301,#302));
#642=EDGE_LOOP('',(#303));
#643=EDGE_LOOP('',(#304,#305,#306,#307,#308,#309,#310));
#644=EDGE_LOOP('',(#311,#312,#313,#314));
#645=EDGE_LOOP('',(#315,#316,#317,#318));
#646=EDGE_LOOP('',(#319));
#647=EDGE_LOOP('',(#320,#321,#322,#323,#324));
#648=EDGE_LOOP('',(#325));
#649=EDGE_LOOP('',(#326));
#650=EDGE_LOOP('',(#327));
#651=EDGE_LOOP('',(#328));
#652=EDGE_LOOP('',(#329,#330,#331,#332));
#653=EDGE_LOOP('',(#333,#334,#335,#336));
#654=EDGE_LOOP('',(#337,#338,#339,#340));
#655=EDGE_LOOP('',(#341,#342,#343,#344));
#656=EDGE_LOOP('',(#345,#346,#347,#348));
#657=EDGE_LOOP('',(#349,#350,#351,#352));
#658=EDGE_LOOP('',(#353,#354,#355,#356));
#659=EDGE_LOOP('',(#357,#358,#359,#360));
#660=EDGE_LOOP('',(#361,#362,#363,#364));
#661=EDGE_LOOP('',(#365,#366,#367,#368));
#662=EDGE_LOOP('',(#369,#370,#371,#372));
#663=EDGE_LOOP('',(#373,#374,#375,#376));
#664=EDGE_LOOP('',(#377,#378,#379,#380));
#665=EDGE_LOOP('',(#381,#382,#383));
#666=EDGE_LOOP('',(#384,#385,#386,#387));
#667=EDGE_LOOP('',(#388,#389,#390,#391));
#668=EDGE_LOOP('',(#392,#393,#394,#395));
#669=EDGE_LOOP('',(#396,#397,#398,#399));
#670=EDGE_LOOP('',(#400,#401,#402,#403));
#671=EDGE_LOOP('',(#404,#405,#406,#407));
#672=EDGE_LOOP('',(#408,#409,#410,#411));
#673=EDGE_LOOP('',(#412,#413,#414,#415));
#674=EDGE_LOOP('',(#416,#417,#418,#419));
#675=EDGE_LOOP('',(#420,#421,#422));
#676=EDGE_LOOP('',(#423,#424,#425));
#677=EDGE_LOOP('',(#426,#427,#428,#429));
#678=FACE_BOUND('',#624,.T.);
#679=FACE_BOUND('',#625,.T.);
#680=FACE_BOUND('',#626,.T.);
#681=FACE_BOUND('',#627,.T.);
#682=FACE_BOUND('',#628,.T.);
#683=FACE_BOUND('',#629,.T.);
#684=FACE_BOUND('',#630,.T.);
#685=FACE_BOUND('',#631,.T.);
#686=FACE_BOUND('',#632,.T.);
#687=FACE_BOUND('',#633,.T.);
#688=FACE_BOUND('',#634,.T.);
#689=FACE_BOUND('',#635,.T.);
#690=FACE_BOUND('',#636,.T.);
#691=FACE_BOUND('',#637,.T.);
#692=FACE_BOUND('',#638,.T.);
#693=FACE_BOUND('',#639,.T.);
#694=FACE_BOUND('',#640,.T.);
#695=FACE_BOUND('',#641,.T.);
#696=FACE_BOUND('',#642,.T.);
#697=FACE_BOUND('',#643,.T.);
#698=FACE_BOUND('',#644,.T.);
#699=FACE_BOUND('',#645,.T.);
#700=FACE_BOUND('',#646,.T.);
#701=FACE_BOUND('',#647,.T.);
#702=FACE_BOUND('',#648,.T.);
#703=FACE_BOUND('',#649,.T.);
#704=FACE_BOUND('',#650,.T.);
#705=FACE_BOUND('',#651,.T.);
#706=FACE_BOUND('',#652,.T.);
#707=FACE_BOUND('',#653,.T.);
#708=FACE_BOUND('',#654,.T.);
#709=FACE_BOUND('',#655,.T.);
#710=FACE_BOUND('',#656,.T.);
#711=FACE_BOUND('',#657,.T.);
#712=FACE_BOUND('',#658,.T.);
#713=FACE_BOUND('',#659,.T.);
#714=FACE_BOUND('',#660,.T.);
#715=FACE_BOUND('',#661,.T.);
#716=FACE_BOUND('',#662,.T.);
#717=FACE_BOUND('',#663,.T.);
#718=FACE_BOUND('',#664,.T.);
#719=FACE_BOUND('',#665,.T.);
#720=FACE_BOUND('',#666,.T.);
#721=FACE_BOUND('',#667,.T.);
#722=FACE_BOUND('',#668,.T.);
#723=FACE_BOUND('',#669,.T.);
#724=FACE_BOUND('',#670,.T.);
#725=FACE_BOUND('',#671,.T.);
#726=FACE_BOUND('',#672,.T.);
#727=FACE_BOUND('',#673,.T.);
#728=FACE_BOUND('',#674,.T.);
#729=FACE_BOUND('',#675,.T.);
#730=FACE_BOUND('',#676,.T.);
#731=FACE_BOUND('',#677,.T.);
#732=CYLINDRICAL_SURFACE('',#819,0.0025);
#733=CYLINDRICAL_SURFACE('',#848,0.00425);
#734=CYLINDRICAL_SURFACE('',#851,0.001);
#735=CYLINDRICAL_SURFACE('',#854,0.001);
#736=CYLINDRICAL_SURFACE('',#856,0.001);
#737=CYLINDRICAL_SURFACE('',#858,0.001);
#738=CYLINDRICAL_SURFACE('',#860,0.001);
#739=CYLINDRICAL_SURFACE('',#862,0.001);
#740=CYLINDRICAL_SURFACE('',#864,0.001);
#741=CYLINDRICAL_SURFACE('',#866,0.001);
#742=CYLINDRICAL_SURFACE('',#868,0.001);
#743=CYLINDRICAL_SURFACE('',#870,0.001);
#744=CYLINDRICAL_SURFACE('',#872,0.001);
#745=CYLINDRICAL_SURFACE('',#874,0.001);
#746=CYLINDRICAL_SURFACE('',#876,0.001);
#747=CYLINDRICAL_SURFACE('',#880,0.001);
#748=CYLINDRICAL_SURFACE('',#881,0.001);
#749=CYLINDRICAL_SURFACE('',#883,0.001);
#750=CYLINDRICAL_SURFACE('',#885,0.001);
#751=CYLINDRICAL_SURFACE('',#887,0.001);
#752=CYLINDRICAL_SURFACE('',#889,0.001);
#753=CYLINDRICAL_SURFACE('',#891,0.001);
#754=CYLINDRICAL_SURFACE('',#893,0.001);
#755=CYLINDRICAL_SURFACE('',#895,0.001);
#756=CYLINDRICAL_SURFACE('',#901,0.001);
#757=ADVANCED_FACE('',(#678,#679),#732,.F.);
#758=ADVANCED_FACE('',(#680),#187,.T.);
#759=ADVANCED_FACE('',(#681),#188,.T.);
#760=ADVANCED_FACE('',(#682),#189,.T.);
#761=ADVANCED_FACE('',(#683),#190,.T.);
#762=ADVANCED_FACE('',(#684),#191,.T.);
#763=ADVANCED_FACE('',(#685),#192,.T.);
#764=ADVANCED_FACE('',(#686),#193,.T.);
#765=ADVANCED_FACE('',(#687),#194,.T.);
#766=ADVANCED_FACE('',(#688),#195,.T.);
#767=ADVANCED_FACE('',(#689),#196,.T.);
#768=ADVANCED_FACE('',(#690),#197,.T.);
#769=ADVANCED_FACE('',(#691),#198,.T.);
#770=ADVANCED_FACE('',(#692),#199,.T.);
#771=ADVANCED_FACE('',(#693),#200,.T.);
#772=ADVANCED_FACE('',(#694),#201,.F.);
#773=ADVANCED_FACE('',(#695),#202,.T.);
#774=ADVANCED_FACE('',(#696,#697),#203,.T.);
#775=ADVANCED_FACE('',(#698),#204,.F.);
#776=ADVANCED_FACE('',(#699),#205,.T.);
#777=ADVANCED_FACE('',(#700,#701),#206,.T.);
#778=ADVANCED_FACE('',(#702,#703),#733,.F.);
#779=ADVANCED_FACE('',(#704,#705),#207,.T.);
#780=ADVANCED_FACE('',(#706),#734,.T.);
#781=ADVANCED_FACE('',(#707),#735,.T.);
#782=ADVANCED_FACE('',(#708),#736,.T.);
#783=ADVANCED_FACE('',(#709),#737,.T.);
#784=ADVANCED_FACE('',(#710),#738,.T.);
#785=ADVANCED_FACE('',(#711),#739,.T.);
#786=ADVANCED_FACE('',(#712),#740,.T.);
#787=ADVANCED_FACE('',(#713),#741,.T.);
#788=ADVANCED_FACE('',(#714),#742,.T.);
#789=ADVANCED_FACE('',(#715),#743,.T.);
#790=ADVANCED_FACE('',(#716),#744,.T.);
#791=ADVANCED_FACE('',(#717),#745,.T.);
#792=ADVANCED_FACE('',(#718),#746,.T.);
#793=ADVANCED_FACE('',(#719),#12,.T.);
#794=ADVANCED_FACE('',(#720),#747,.T.);
#795=ADVANCED_FACE('',(#721),#748,.T.);
#796=ADVANCED_FACE('',(#722),#749,.T.);
#797=ADVANCED_FACE('',(#723),#750,.T.);
#798=ADVANCED_FACE('',(#724),#751,.T.);
#799=ADVANCED_FACE('',(#725),#752,.T.);
#800=ADVANCED_FACE('',(#726),#753,.T.);
#801=ADVANCED_FACE('',(#727),#754,.T.);
#802=ADVANCED_FACE('',(#728),#755,.T.);
#803=ADVANCED_FACE('',(#729),#13,.T.);
#804=ADVANCED_FACE('',(#730),#14,.T.);
#805=ADVANCED_FACE('',(#731),#756,.T.);
#806=CLOSED_SHELL('',(#757,#758,#759,#760,#761,#762,#763,#764,#765,#766,
#767,#768,#769,#770,#771,#772,#773,#774,#775,#776,#777,#778,#779,#780,#781,
#782,#783,#784,#785,#786,#787,#788,#789,#790,#791,#792,#793,#794,#795,#796,
#797,#798,#799,#800,#801,#802,#803,#804,#805));
#807=STYLED_ITEM('',(#808),#815);
#808=PRESENTATION_STYLE_ASSIGNMENT((#809));
#809=SURFACE_STYLE_USAGE(.BOTH.,#810);
#810=SURFACE_SIDE_STYLE('',(#811));
#811=SURFACE_STYLE_FILL_AREA(#812);
#812=FILL_AREA_STYLE('',(#813));
#813=FILL_AREA_STYLE_COLOUR('',#814);
#814=COLOUR_RGB('',0.231372549019608,0.380392156862745,0.705882352941177);
#815=MANIFOLD_SOLID_BREP('Cubby Legs Slide Attach',#806);
#816=SHAPE_DEFINITION_REPRESENTATION(#1381,#817);
#817=SHAPE_REPRESENTATION('Cubby Legs Slide Attach',(#818),#1376);
#818=AXIS2_PLACEMENT_3D('',#1147,#902,#903);
#819=AXIS2_PLACEMENT_3D('',#1148,#904,#905);
#820=AXIS2_PLACEMENT_3D('',#1149,#906,#907);
#821=AXIS2_PLACEMENT_3D('',#1151,#908,#909);
#822=AXIS2_PLACEMENT_3D('',#1153,#910,#911);
#823=AXIS2_PLACEMENT_3D('',#1170,#920,#921);
#824=AXIS2_PLACEMENT_3D('',#1176,#925,#926);
#825=AXIS2_PLACEMENT_3D('',#1182,#930,#931);
#826=AXIS2_PLACEMENT_3D('',#1188,#935,#936);
#827=AXIS2_PLACEMENT_3D('',#1194,#940,#941);
#828=AXIS2_PLACEMENT_3D('',#1200,#945,#946);
#829=AXIS2_PLACEMENT_3D('',#1206,#950,#951);
#830=AXIS2_PLACEMENT_3D('',#1212,#955,#956);
#831=AXIS2_PLACEMENT_3D('',#1218,#960,#961);
#832=AXIS2_PLACEMENT_3D('',#1224,#965,#966);
#833=AXIS2_PLACEMENT_3D('',#1238,#974,#975);
#834=AXIS2_PLACEMENT_3D('',#1245,#979,#980);
#835=AXIS2_PLACEMENT_3D('',#1246,#981,#982);
#836=AXIS2_PLACEMENT_3D('',#1253,#986,#987);
#837=AXIS2_PLACEMENT_3D('',#1254,#988,#989);
#838=AXIS2_PLACEMENT_3D('',#1281,#1003,#1004);
#839=AXIS2_PLACEMENT_3D('',#1283,#1006,#1007);
#840=AXIS2_PLACEMENT_3D('',#1284,#1008,#1009);
#841=AXIS2_PLACEMENT_3D('',#1288,#1011,#1012);
#842=AXIS2_PLACEMENT_3D('',#1289,#1013,#1014);
#843=AXIS2_PLACEMENT_3D('',#1294,#1017,#1018);
#844=AXIS2_PLACEMENT_3D('',#1298,#1021,#1022);
#845=AXIS2_PLACEMENT_3D('',#1304,#1026,#1027);
#846=AXIS2_PLACEMENT_3D('',#1310,#1031,#1032);
#847=AXIS2_PLACEMENT_3D('',#1311,#1033,#1034);
#848=AXIS2_PLACEMENT_3D('',#1320,#1039,#1040);
#849=AXIS2_PLACEMENT_3D('',#1321,#1041,#1042);
#850=AXIS2_PLACEMENT_3D('',#1323,#1043,#1044);
#851=AXIS2_PLACEMENT_3D('',#1324,#1045,#1046);
#852=AXIS2_PLACEMENT_3D('',#1325,#1047,#1048);
#853=AXIS2_PLACEMENT_3D('',#1326,#1049,#1050);
#854=AXIS2_PLACEMENT_3D('',#1327,#1051,#1052);
#855=AXIS2_PLACEMENT_3D('',#1328,#1053,#1054);
#856=AXIS2_PLACEMENT_3D('',#1329,#1055,#1056);
#857=AXIS2_PLACEMENT_3D('',#1330,#1057,#1058);
#858=AXIS2_PLACEMENT_3D('',#1331,#1059,#1060);
#859=AXIS2_PLACEMENT_3D('',#1332,#1061,#1062);
#860=AXIS2_PLACEMENT_3D('',#1333,#1063,#1064);
#861=AXIS2_PLACEMENT_3D('',#1334,#1065,#1066);
#862=AXIS2_PLACEMENT_3D('',#1335,#1067,#1068);
#863=AXIS2_PLACEMENT_3D('',#1336,#1069,#1070);
#864=AXIS2_PLACEMENT_3D('',#1337,#1071,#1072);
#865=AXIS2_PLACEMENT_3D('',#1338,#1073,#1074);
#866=AXIS2_PLACEMENT_3D('',#1339,#1075,#1076);
#867=AXIS2_PLACEMENT_3D('',#1340,#1077,#1078);
#868=AXIS2_PLACEMENT_3D('',#1341,#1079,#1080);
#869=AXIS2_PLACEMENT_3D('',#1342,#1081,#1082);
#870=AXIS2_PLACEMENT_3D('',#1343,#1083,#1084);
#871=AXIS2_PLACEMENT_3D('',#1344,#1085,#1086);
#872=AXIS2_PLACEMENT_3D('',#1345,#1087,#1088);
#873=AXIS2_PLACEMENT_3D('',#1346,#1089,#1090);
#874=AXIS2_PLACEMENT_3D('',#1347,#1091,#1092);
#875=AXIS2_PLACEMENT_3D('',#1348,#1093,#1094);
#876=AXIS2_PLACEMENT_3D('',#1349,#1095,#1096);
#877=AXIS2_PLACEMENT_3D('',#1350,#1097,#1098);
#878=AXIS2_PLACEMENT_3D('',#1351,#1099,#1100);
#879=AXIS2_PLACEMENT_3D('',#1352,#1101,#1102);
#880=AXIS2_PLACEMENT_3D('',#1353,#1103,#1104);
#881=AXIS2_PLACEMENT_3D('',#1354,#1105,#1106);
#882=AXIS2_PLACEMENT_3D('',#1355,#1107,#1108);
#883=AXIS2_PLACEMENT_3D('',#1356,#1109,#1110);
#884=AXIS2_PLACEMENT_3D('',#1357,#1111,#1112);
#885=AXIS2_PLACEMENT_3D('',#1358,#1113,#1114);
#886=AXIS2_PLACEMENT_3D('',#1359,#1115,#1116);
#887=AXIS2_PLACEMENT_3D('',#1360,#1117,#1118);
#888=AXIS2_PLACEMENT_3D('',#1361,#1119,#1120);
#889=AXIS2_PLACEMENT_3D('',#1362,#1121,#1122);
#890=AXIS2_PLACEMENT_3D('',#1363,#1123,#1124);
#891=AXIS2_PLACEMENT_3D('',#1364,#1125,#1126);
#892=AXIS2_PLACEMENT_3D('',#1365,#1127,#1128);
#893=AXIS2_PLACEMENT_3D('',#1366,#1129,#1130);
#894=AXIS2_PLACEMENT_3D('',#1367,#1131,#1132);
#895=AXIS2_PLACEMENT_3D('',#1368,#1133,#1134);
#896=AXIS2_PLACEMENT_3D('',#1369,#1135,#1136);
#897=AXIS2_PLACEMENT_3D('',#1370,#1137,#1138);
#898=AXIS2_PLACEMENT_3D('',#1371,#1139,#1140);
#899=AXIS2_PLACEMENT_3D('',#1372,#1141,#1142);
#900=AXIS2_PLACEMENT_3D('',#1373,#1143,#1144);
#901=AXIS2_PLACEMENT_3D('',#1374,#1145,#1146);
#902=DIRECTION('',(0.,0.,1.));
#903=DIRECTION('',(1.,0.,0.));
#904=DIRECTION('',(0.,1.,0.));
#905=DIRECTION('',(0.,0.,1.));
#906=DIRECTION('',(0.,1.,0.));
#907=DIRECTION('',(0.707106781186543,0.,0.707106781186552));
#908=DIRECTION('',(0.,-1.,0.));
#909=DIRECTION('',(0.,0.,-1.));
#910=DIRECTION('',(1.,0.,-9.7959498098274E-17));
#911=DIRECTION('',(-9.7959498098274E-17,0.,-1.));
#912=DIRECTION('',(0.,1.,0.));
#913=DIRECTION('',(9.7959498098274E-17,0.,1.));
#914=DIRECTION('',(0.,1.,0.));
#915=DIRECTION('',(9.7959498098274E-17,0.,1.));
#916=DIRECTION('',(0.,-1.,0.));
#917=DIRECTION('',(9.7959498098274E-17,0.,1.));
#918=DIRECTION('',(0.,-1.,0.));
#919=DIRECTION('',(9.7959498098274E-17,0.,1.));
#920=DIRECTION('',(0.707106781186548,0.,-0.707106781186548));
#921=DIRECTION('',(-0.707106781186548,0.,-0.707106781186548));
#922=DIRECTION('',(0.,-1.,0.));
#923=DIRECTION('',(0.707106781186548,0.,0.707106781186548));
#924=DIRECTION('',(0.707106781186548,0.,0.707106781186548));
#925=DIRECTION('',(0.,0.,-1.));
#926=DIRECTION('',(-1.,0.,0.));
#927=DIRECTION('',(0.,-1.,0.));
#928=DIRECTION('',(1.,0.,0.));
#929=DIRECTION('',(1.,0.,0.));
#930=DIRECTION('',(-0.86602540378444,0.,0.5));
#931=DIRECTION('',(0.5,0.,0.86602540378444));
#932=DIRECTION('',(0.,-1.,0.));
#933=DIRECTION('',(-0.5,0.,-0.86602540378444));
#934=DIRECTION('',(-0.5,0.,-0.86602540378444));
#935=DIRECTION('',(-0.866025403784438,0.,-0.5));
#936=DIRECTION('',(-0.5,0.,0.866025403784438));
#937=DIRECTION('',(0.,-1.,0.));
#938=DIRECTION('',(0.5,0.,-0.866025403784438));
#939=DIRECTION('',(0.5,0.,-0.866025403784438));
#940=DIRECTION('',(1.46567277925577E-15,0.,-1.));
#941=DIRECTION('',(-1.,0.,-1.46567277925577E-15));
#942=DIRECTION('',(0.,-1.,0.));
#943=DIRECTION('',(1.,0.,1.46567277925577E-15));
#944=DIRECTION('',(1.,0.,1.46567277925577E-15));
#945=DIRECTION('',(0.86602540378444,0.,-0.5));
#946=DIRECTION('',(-0.5,0.,-0.86602540378444));
#947=DIRECTION('',(0.,-1.,0.));
#948=DIRECTION('',(0.5,0.,0.86602540378444));
#949=DIRECTION('',(0.5,0.,0.86602540378444));
#950=DIRECTION('',(0.866025403784437,0.,0.5));
#951=DIRECTION('',(0.5,0.,-0.866025403784438));
#952=DIRECTION('',(0.,-1.,0.));
#953=DIRECTION('',(-0.5,0.,0.866025403784438));
#954=DIRECTION('',(-0.5,0.,0.866025403784437));
#955=DIRECTION('',(0.,0.,-1.));
#956=DIRECTION('',(-1.,0.,0.));
#957=DIRECTION('',(0.,-1.,0.));
#958=DIRECTION('',(1.,0.,0.));
#959=DIRECTION('',(1.,0.,0.));
#960=DIRECTION('',(-0.707106781186548,0.,-0.707106781186547));
#961=DIRECTION('',(-0.707106781186547,0.,0.707106781186548));
#962=DIRECTION('',(0.,-1.,0.));
#963=DIRECTION('',(0.707106781186547,0.,-0.707106781186548));
#964=DIRECTION('',(0.707106781186547,0.,-0.707106781186548));
#965=DIRECTION('',(-1.,0.,9.7959498098274E-17));
#966=DIRECTION('',(9.7959498098274E-17,0.,1.));
#967=DIRECTION('',(0.,1.,0.));
#968=DIRECTION('',(9.7959498098274E-17,0.,1.));
#969=DIRECTION('',(0.,1.,0.));
#970=DIRECTION('',(9.7959498098274E-17,0.,1.));
#971=DIRECTION('',(0.,-1.,0.));
#972=DIRECTION('',(-9.7959498098274E-17,0.,-1.));
#973=DIRECTION('',(-9.7959498098274E-17,0.,-1.));
#974=DIRECTION('',(-0.707106781186547,0.,0.707106781186548));
#975=DIRECTION('',(0.707106781186548,0.,0.707106781186548));
#976=DIRECTION('',(-0.707106781186548,0.,-0.707106781186548));
#977=DIRECTION('',(0.,-1.,0.));
#978=DIRECTION('',(-0.707106781186548,0.,-0.707106781186548));
#979=DIRECTION('',(-0.707106781186547,0.,0.707106781186548));
#980=DIRECTION('',(0.707106781186548,0.,0.707106781186548));
#981=DIRECTION('',(0.707106781186548,0.,0.707106781186547));
#982=DIRECTION('',(0.707106781186548,0.,-0.707106781186548));
#983=DIRECTION('',(-0.707106781186548,0.,0.707106781186548));
#984=DIRECTION('',(0.,-1.,0.));
#985=DIRECTION('',(-0.707106781186548,0.,0.707106781186548));
#986=DIRECTION('',(0.707106781186548,0.,0.707106781186547));
#987=DIRECTION('',(-0.707106781186548,0.,0.707106781186548));
#988=DIRECTION('',(0.,1.,0.));
#989=DIRECTION('',(-1.,0.,0.));
#990=DIRECTION('',(1.,0.,0.));
#991=DIRECTION('',(-0.5,0.,-0.86602540378444));
#992=DIRECTION('',(0.5,0.,-0.866025403784438));
#993=DIRECTION('',(1.,0.,1.46567277925577E-15));
#994=DIRECTION('',(0.5,0.,0.86602540378444));
#995=DIRECTION('',(-0.5,0.,0.866025403784438));
#996=DIRECTION('',(1.,0.,0.));
#997=DIRECTION('',(0.707106781186547,0.,-0.707106781186548));
#998=DIRECTION('',(-9.7959498098274E-17,0.,-1.));
#999=DIRECTION('',(-0.707106781186548,0.,-0.707106781186548));
#1000=DIRECTION('',(-0.707106781186548,0.,0.707106781186548));
#1001=DIRECTION('',(9.7959498098274E-17,0.,1.));
#1002=DIRECTION('',(0.707106781186548,0.,0.707106781186548));
#1003=DIRECTION('',(0.,1.,0.));
#1004=DIRECTION('',(-1.,0.,0.));
#1005=DIRECTION('',(-1.,0.,0.));
#1006=DIRECTION('',(0.,0.,-1.));
#1007=DIRECTION('',(-1.,0.,0.));
#1008=DIRECTION('',(0.,0.,-1.));
#1009=DIRECTION('',(-1.,0.,0.));
#1010=DIRECTION('',(-1.,0.,0.));
#1011=DIRECTION('',(0.,0.,-1.));
#1012=DIRECTION('',(-1.,0.,0.));
#1013=DIRECTION('',(0.,1.,0.));
#1014=DIRECTION('',(-1.,0.,0.));
#1015=DIRECTION('',(0.715074349527379,0.,-0.699048406512737));
#1016=DIRECTION('',(9.7959498098274E-17,0.,1.));
#1017=DIRECTION('',(0.,1.,0.));
#1018=DIRECTION('',(0.,0.,1.));
#1019=DIRECTION('',(9.7959498098274E-17,0.,1.));
#1020=DIRECTION('',(-0.699048406512737,0.,-0.715074349527379));
#1021=DIRECTION('',(0.715074349527379,0.,-0.699048406512737));
#1022=DIRECTION('',(-0.699048406512737,0.,-0.715074349527379));
#1023=DIRECTION('',(-0.699048406512737,0.,-0.715074349527379));
#1024=DIRECTION('',(0.,1.,0.));
#1025=DIRECTION('',(-0.699048406512737,0.,-0.715074349527379));
#1026=DIRECTION('',(0.699048406512737,0.,0.715074349527379));
#1027=DIRECTION('',(0.715074349527379,0.,-0.699048406512737));
#1028=DIRECTION('',(0.,1.,0.));
#1029=DIRECTION('',(0.715074349527379,0.,-0.699048406512737));
#1030=DIRECTION('',(0.715074349527379,0.,-0.699048406512737));
#1031=DIRECTION('',(0.,-1.,0.));
#1032=DIRECTION('',(0.,0.,-1.));
#1033=DIRECTION('',(0.,-1.,0.));
#1034=DIRECTION('',(1.,0.,0.));
#1035=DIRECTION('',(9.79594980982741E-17,0.,1.));
#1036=DIRECTION('',(0.715074349527379,0.,-0.699048406512737));
#1037=DIRECTION('',(-0.699048406512737,0.,-0.715074349527379));
#1038=DIRECTION('',(9.79594980982741E-17,0.,1.));
#1039=DIRECTION('',(0.,-1.,0.));
#1040=DIRECTION('',(0.,0.,-1.));
#1041=DIRECTION('',(0.,-1.,0.));
#1042=DIRECTION('',(1.,0.,0.));
#1043=DIRECTION('',(0.,-1.,0.));
#1044=DIRECTION('',(1.,0.,0.));
#1045=DIRECTION('',(1.,0.,1.46567277925577E-15));
#1046=DIRECTION('',(1.46567277925577E-15,0.,-1.));
#1047=DIRECTION('',(0.86602540378444,0.,-0.5));
#1048=DIRECTION('',(-0.5,0.,-0.86602540378444));
#1049=DIRECTION('',(0.866025403784438,0.,0.5));
#1050=DIRECTION('',(-0.5,0.,0.866025403784438));
#1051=DIRECTION('',(0.5,0.,0.86602540378444));
#1052=DIRECTION('',(0.86602540378444,0.,-0.5));
#1053=DIRECTION('',(-2.40370335797946E-15,0.,1.));
#1054=DIRECTION('',(1.,0.,2.33146835171283E-15));
#1055=DIRECTION('',(0.5,0.,-0.866025403784438));
#1056=DIRECTION('',(-0.866025403784438,0.,-0.5));
#1057=DIRECTION('',(2.30755522366028E-15,0.,-1.));
#1058=DIRECTION('',(-1.,0.,-2.33146835171283E-15));
#1059=DIRECTION('',(-0.5,0.,0.866025403784438));
#1060=DIRECTION('',(0.866025403784437,0.,0.5));
#1061=DIRECTION('',(0.5,0.,0.866025403784439));
#1062=DIRECTION('',(0.866025403784439,0.,-0.5));
#1063=DIRECTION('',(-0.5,0.,-0.86602540378444));
#1064=DIRECTION('',(-0.86602540378444,0.,0.5));
#1065=DIRECTION('',(0.5,0.,-0.866025403784438));
#1066=DIRECTION('',(0.866025403784438,0.,0.5));
#1067=DIRECTION('',(1.,0.,0.));
#1068=DIRECTION('',(0.,0.,-1.));
#1069=DIRECTION('',(0.923879532511287,0.,-0.38268343236509));
#1070=DIRECTION('',(-0.38268343236509,0.,-0.923879532511287));
#1071=DIRECTION('',(1.,0.,0.));
#1072=DIRECTION('',(0.,0.,-1.));
#1073=DIRECTION('',(0.923879532511287,0.,0.38268343236509));
#1074=DIRECTION('',(0.38268343236509,0.,-0.923879532511287));
#1075=DIRECTION('',(0.707106781186547,0.,-0.707106781186548));
#1076=DIRECTION('',(-0.707106781186548,0.,-0.707106781186547));
#1077=DIRECTION('',(0.38268343236509,0.,-0.923879532511287));
#1078=DIRECTION('',(-0.923879532511287,0.,-0.38268343236509));
#1079=DIRECTION('',(0.707106781186548,0.,0.707106781186548));
#1080=DIRECTION('',(0.707106781186548,0.,-0.707106781186548));
#1081=DIRECTION('',(0.38268343236509,0.,0.923879532511287));
#1082=DIRECTION('',(-0.923879532511287,0.,0.38268343236509));
#1083=DIRECTION('',(-9.7959498098274E-17,0.,-1.));
#1084=DIRECTION('',(-1.,0.,9.7959498098274E-17));
#1085=DIRECTION('',(-0.38268343236509,0.,-0.923879532511287));
#1086=DIRECTION('',(-0.923879532511287,0.,0.38268343236509));
#1087=DIRECTION('',(9.7959498098274E-17,0.,1.));
#1088=DIRECTION('',(1.,0.,-9.7959498098274E-17));
#1089=DIRECTION('',(-0.38268343236509,0.,0.923879532511287));
#1090=DIRECTION('',(0.923879532511287,0.,0.38268343236509));
#1091=DIRECTION('',(-0.707106781186548,0.,-0.707106781186548));
#1092=DIRECTION('',(-0.707106781186548,0.,0.707106781186548));
#1093=DIRECTION('',(0.707106781186547,0.,0.707106781186549));
#1094=DIRECTION('',(0.707106781186549,0.,-0.707106781186547));
#1095=DIRECTION('',(-0.707106781186548,0.,0.707106781186548));
#1096=DIRECTION('',(0.707106781186548,0.,0.707106781186548));
#1097=DIRECTION('',(-0.707106781186546,3.96042841696683E-15,0.707106781186549));
#1098=DIRECTION('',(0.707106781186549,0.,0.707106781186546));
#1099=DIRECTION('',(2.63005971475863E-15,1.,0.));
#1100=DIRECTION('',(-1.,2.63005971475863E-15,0.));
#1101=DIRECTION('',(0.,1.,0.));
#1102=DIRECTION('',(0.,0.,1.));
#1103=DIRECTION('',(0.,-1.,0.));
#1104=DIRECTION('',(0.,0.,-1.));
#1105=DIRECTION('',(9.7959498098274E-17,0.,1.));
#1106=DIRECTION('',(1.,0.,-9.7959498098274E-17));
#1107=DIRECTION('',(-0.387912099248827,0.,0.921696372595861));
#1108=DIRECTION('',(0.921696372595861,0.,0.387912099248827));
#1109=DIRECTION('',(9.7959498098274E-17,0.,1.));
#1110=DIRECTION('',(1.,0.,-9.7959498098274E-17));
#1111=DIRECTION('',(0.377442479374421,0.,0.926033031140731));
#1112=DIRECTION('',(-0.926033031140731,0.,0.377442479374421));
#1113=DIRECTION('',(9.7959498098274E-17,0.,1.));
#1114=DIRECTION('',(1.,0.,-9.7959498098274E-17));
#1115=DIRECTION('',(0.377442479374421,0.,0.926033031140731));
#1116=DIRECTION('',(-0.926033031140731,0.,0.377442479374421));
#1117=DIRECTION('',(9.7959498098274E-17,0.,1.));
#1118=DIRECTION('',(1.,0.,-9.7959498098274E-17));
#1119=DIRECTION('',(0.387912099248827,0.,-0.921696372595861));
#1120=DIRECTION('',(0.921696372595861,0.,0.387912099248827));
#1121=DIRECTION('',(0.715074349527379,0.,-0.699048406512737));
#1122=DIRECTION('',(-0.699048406512737,0.,-0.715074349527379));
#1123=DIRECTION('',(-0.715074349527379,0.,0.699048406512736));
#1124=DIRECTION('',(0.699048406512736,0.,0.715074349527379));
#1125=DIRECTION('',(0.699048406512737,0.,0.715074349527379));
#1126=DIRECTION('',(0.715074349527379,0.,-0.699048406512737));
#1127=DIRECTION('',(0.699048406512735,1.05159984890642E-15,0.71507434952738));
#1128=DIRECTION('',(0.71507434952738,0.,-0.699048406512735));
#1129=DIRECTION('',(0.699048406512737,0.,0.715074349527379));
#1130=DIRECTION('',(0.715074349527379,0.,-0.699048406512737));
#1131=DIRECTION('',(0.699048406512734,0.,0.715074349527381));
#1132=DIRECTION('',(0.715074349527381,0.,-0.699048406512734));
#1133=DIRECTION('',(0.715074349527379,0.,-0.699048406512737));
#1134=DIRECTION('',(-0.699048406512737,0.,-0.715074349527379));
#1135=DIRECTION('',(-0.715074349527377,1.04663497038242E-15,0.699048406512738));
#1136=DIRECTION('',(0.699048406512738,0.,0.715074349527377));
#1137=DIRECTION('',(2.97816784254612E-15,-1.,0.));
#1138=DIRECTION('',(1.,2.97816784254612E-15,0.));
#1139=DIRECTION('',(0.,-1.,0.));
#1140=DIRECTION('',(0.,0.,-1.));
#1141=DIRECTION('',(8.16539761153145E-16,1.,0.));
#1142=DIRECTION('',(-1.,8.16539761153145E-16,0.));
#1143=DIRECTION('',(0.,1.,0.));
#1144=DIRECTION('',(0.,0.,1.));
#1145=DIRECTION('',(0.,-1.,0.));
#1146=DIRECTION('',(0.,0.,-1.));
#1147=CARTESIAN_POINT('',(0.,0.,0.));
#1148=CARTESIAN_POINT('',(1.63714528045311E-17,0.082498,0.07));
#1149=CARTESIAN_POINT('',(1.63714528045311E-17,0.0875,0.07));
#1150=CARTESIAN_POINT('',(0.00176776695296637,0.0875,0.0717677669529664));
#1151=CARTESIAN_POINT('',(1.63714528045311E-17,0.0835,0.07));
#1152=CARTESIAN_POINT('',(1.63714528045311E-17,0.0835,0.0675));
#1153=CARTESIAN_POINT('',(0.0119,0.091,0.03275));
#1154=CARTESIAN_POINT('',(0.0119,0.082498,0.0688252763962416));
#1155=CARTESIAN_POINT('',(0.0119,0.0835,0.0688252763962416));
#1156=CARTESIAN_POINT('',(0.0119,0.0865,0.0688252763962416));
#1157=CARTESIAN_POINT('',(0.0119,0.0835,0.03275));
#1158=CARTESIAN_POINT('',(0.0119,0.0835,0.028));
#1159=CARTESIAN_POINT('',(0.0119,0.082498,0.028));
#1160=CARTESIAN_POINT('',(0.0119,0.0875,0.028));
#1161=CARTESIAN_POINT('',(0.0119,0.0875,0.03275));
#1162=CARTESIAN_POINT('',(0.0119,0.0875,0.0150414213562373));
#1163=CARTESIAN_POINT('',(0.0119,0.091,0.0150414213562373));
#1164=CARTESIAN_POINT('',(0.0119,0.09,0.0150414213562373));
#1165=CARTESIAN_POINT('',(0.0119,0.09,0.03275));
#1166=CARTESIAN_POINT('',(0.0119,0.09,0.0504585786437627));
#1167=CARTESIAN_POINT('',(0.0119,0.091,0.0504585786437627));
#1168=CARTESIAN_POINT('',(0.0119,0.0865,0.0504585786437627));
#1169=CARTESIAN_POINT('',(0.0119,0.0865,0.03275));
#1170=CARTESIAN_POINT('',(0.00942928932188133,0.091,0.0125707106781187));
#1171=CARTESIAN_POINT('',(0.00695857864376268,0.091,0.0101));
#1172=CARTESIAN_POINT('',(0.00695857864376268,0.09,0.0101));
#1173=CARTESIAN_POINT('',(0.00695857864376268,0.0875,0.0101));
#1174=CARTESIAN_POINT('',(0.00942928932188133,0.09,0.0125707106781187));
#1175=CARTESIAN_POINT('',(0.00942928932188133,0.0875,0.0125707106781187));
#1176=CARTESIAN_POINT('',(0.00472059240063905,0.091,0.0101));
#1177=CARTESIAN_POINT('',(0.00248260615751541,0.091,0.0101));
#1178=CARTESIAN_POINT('',(0.00248260615751541,0.09,0.0101));
#1179=CARTESIAN_POINT('',(0.00248260615751541,0.0875,0.0101));
#1180=CARTESIAN_POINT('',(0.00472059240063905,0.09,0.0101));
#1181=CARTESIAN_POINT('',(0.00472059240063905,0.0875,0.0101));
#1182=CARTESIAN_POINT('',(0.00360843918243517,0.091,0.01205));
#1183=CARTESIAN_POINT('',(0.00473427220735494,0.091,0.014));
#1184=CARTESIAN_POINT('',(0.00473427220735494,0.09,0.014));
#1185=CARTESIAN_POINT('',(0.00473427220735494,0.0875,0.014));
#1186=CARTESIAN_POINT('',(0.00360843918243517,0.09,0.01205));
#1187=CARTESIAN_POINT('',(0.00360843918243517,0.0875,0.01205));
#1188=CARTESIAN_POINT('',(0.0035507041555162,0.091,0.01605));
#1189=CARTESIAN_POINT('',(0.00236713610367747,0.091,0.0181));
#1190=CARTESIAN_POINT('',(0.00236713610367747,0.09,0.0181));
#1191=CARTESIAN_POINT('',(0.00236713610367747,0.0875,0.0181));
#1192=CARTESIAN_POINT('',(0.0035507041555162,0.09,0.01605));
#1193=CARTESIAN_POINT('',(0.0035507041555162,0.0875,0.01605));
#1194=CARTESIAN_POINT('',(8.67361737988404E-19,0.091,0.0181));
#1195=CARTESIAN_POINT('',(-0.00236713610367747,0.091,0.0181));
#1196=CARTESIAN_POINT('',(-0.00236713610367747,0.09,0.0181));
#1197=CARTESIAN_POINT('',(-0.00236713610367747,0.0875,0.0181));
#1198=CARTESIAN_POINT('',(8.67361737988404E-19,0.09,0.0181));
#1199=CARTESIAN_POINT('',(8.67361737988404E-19,0.0875,0.0181));
#1200=CARTESIAN_POINT('',(-0.00355070415551619,0.091,0.01605));
#1201=CARTESIAN_POINT('',(-0.00473427220735492,0.091,0.014));
#1202=CARTESIAN_POINT('',(-0.00473427220735492,0.09,0.014));
#1203=CARTESIAN_POINT('',(-0.00473427220735492,0.0875,0.014));
#1204=CARTESIAN_POINT('',(-0.00355070415551619,0.09,0.01605));
#1205=CARTESIAN_POINT('',(-0.00355070415551619,0.0875,0.01605));
#1206=CARTESIAN_POINT('',(-0.00360843918243515,0.091,0.01205));
#1207=CARTESIAN_POINT('',(-0.00248260615751538,0.091,0.0101));
#1208=CARTESIAN_POINT('',(-0.00248260615751538,0.09,0.0101));
#1209=CARTESIAN_POINT('',(-0.00248260615751538,0.0875,0.0101));
#1210=CARTESIAN_POINT('',(-0.00360843918243515,0.09,0.01205));
#1211=CARTESIAN_POINT('',(-0.00360843918243515,0.0875,0.01205));
#1212=CARTESIAN_POINT('',(-0.00472059240063904,0.091,0.0101));
#1213=CARTESIAN_POINT('',(-0.0069585786437627,0.091,0.0101));
#1214=CARTESIAN_POINT('',(-0.0069585786437627,0.09,0.0101));
#1215=CARTESIAN_POINT('',(-0.0069585786437627,0.0875,0.0101));
#1216=CARTESIAN_POINT('',(-0.00472059240063904,0.09,0.0101));
#1217=CARTESIAN_POINT('',(-0.00472059240063904,0.0875,0.0101));
#1218=CARTESIAN_POINT('',(-0.00942928932188135,0.091,0.0125707106781187));
#1219=CARTESIAN_POINT('',(-0.0119,0.091,0.0150414213562373));
#1220=CARTESIAN_POINT('',(-0.0119,0.09,0.0150414213562373));
#1221=CARTESIAN_POINT('',(-0.0119,0.0875,0.0150414213562373));
#1222=CARTESIAN_POINT('',(-0.00942928932188135,0.09,0.0125707106781187));
#1223=CARTESIAN_POINT('',(-0.00942928932188135,0.0875,0.0125707106781187));
#1224=CARTESIAN_POINT('',(-0.0119,0.091,0.03275));
#1225=CARTESIAN_POINT('',(-0.0119,0.082498,0.028));
#1226=CARTESIAN_POINT('',(-0.0119,0.0835,0.028));
#1227=CARTESIAN_POINT('',(-0.0119,0.0875,0.028));
#1228=CARTESIAN_POINT('',(-0.0119,0.0835,0.03275));
#1229=CARTESIAN_POINT('',(-0.0119,0.0835,0.0682857667467646));
#1230=CARTESIAN_POINT('',(-0.0119,0.082498,0.0682857667467646));
#1231=CARTESIAN_POINT('',(-0.0119,0.0865,0.0682857667467646));
#1232=CARTESIAN_POINT('',(-0.0119,0.0865,0.03275));
#1233=CARTESIAN_POINT('',(-0.0119,0.0865,0.0504585786437627));
#1234=CARTESIAN_POINT('',(-0.0119,0.091,0.0504585786437627));
#1235=CARTESIAN_POINT('',(-0.0119,0.09,0.0504585786437627));
#1236=CARTESIAN_POINT('',(-0.0119,0.09,0.03275));
#1237=CARTESIAN_POINT('',(-0.0119,0.0875,0.03275));
#1238=CARTESIAN_POINT('',(-0.00595,0.091,0.0564085786437627));
#1239=CARTESIAN_POINT('',(-0.00595,0.0875,0.0564085786437627));
#1240=CARTESIAN_POINT('',(-0.000707106781186549,0.0875,0.0616514718625761));
#1241=CARTESIAN_POINT('',(-0.0109,0.0875,0.0514585786437627));
#1242=CARTESIAN_POINT('',(-0.00070710678118655,0.091,0.0616514718625761));
#1243=CARTESIAN_POINT('',(-0.00070710678118655,0.09,0.0616514718625761));
#1244=CARTESIAN_POINT('',(-0.00595,0.09,0.0564085786437627));
#1245=CARTESIAN_POINT('',(-0.0109,0.0865,0.0514585786437627));
#1246=CARTESIAN_POINT('',(0.00595,0.091,0.0564085786437627));
#1247=CARTESIAN_POINT('',(0.00595,0.09,0.0564085786437627));
#1248=CARTESIAN_POINT('',(0.000707106781186539,0.09,0.0616514718625761));
#1249=CARTESIAN_POINT('',(0.00070710678118654,0.091,0.0616514718625761));
#1250=CARTESIAN_POINT('',(0.000707106781186539,0.0875,0.0616514718625761));
#1251=CARTESIAN_POINT('',(0.00595,0.0875,0.0564085786437627));
#1252=CARTESIAN_POINT('',(0.0109,0.0875,0.0514585786437627));
#1253=CARTESIAN_POINT('',(0.0109,0.0865,0.0514585786437627));
#1254=CARTESIAN_POINT('',(-6.93889390390723E-18,0.091,0.076));
#1255=CARTESIAN_POINT('',(-6.93889390390723E-18,0.091,0.0111));
#1256=CARTESIAN_POINT('',(0.00654436508138958,0.091,0.0111));
#1257=CARTESIAN_POINT('',(0.00421465696508429,0.091,0.0111));
#1258=CARTESIAN_POINT('',(0.0312635170766182,0.091,0.05795));
#1259=CARTESIAN_POINT('',(0.00588897274573419,0.091,0.014));
#1260=CARTESIAN_POINT('',(-0.0224300579580171,0.091,0.06305));
#1261=CARTESIAN_POINT('',(0.00294448637286708,0.091,0.0191));
#1262=CARTESIAN_POINT('',(7.64578872357459E-17,0.091,0.0191));
#1263=CARTESIAN_POINT('',(-0.00294448637286709,0.091,0.0191));
#1264=CARTESIAN_POINT('',(0.0224300579580169,0.091,0.06305));
#1265=CARTESIAN_POINT('',(-0.00588897274573418,0.091,0.014));
#1266=CARTESIAN_POINT('',(-0.0312635170766183,0.091,0.05795));
#1267=CARTESIAN_POINT('',(-0.00421465696508426,0.091,0.0111));
#1268=CARTESIAN_POINT('',(-6.93889390390723E-18,0.091,0.0111));
#1269=CARTESIAN_POINT('',(-0.0065443650813896,0.091,0.0111));
#1270=CARTESIAN_POINT('',(-0.0357221825406948,0.091,0.0402778174593052));
#1271=CARTESIAN_POINT('',(-0.0109,0.091,0.0154556349186104));
#1272=CARTESIAN_POINT('',(-0.0109,0.091,0.076));
#1273=CARTESIAN_POINT('',(-0.0109,0.091,0.0500443650813896));
#1274=CARTESIAN_POINT('',(0.00752781745930519,0.091,0.0684721825406948));
#1275=CARTESIAN_POINT('',(-2.74746514805607E-18,0.091,0.0609443650813896));
#1276=CARTESIAN_POINT('',(-0.0075278174593052,0.091,0.0684721825406948));
#1277=CARTESIAN_POINT('',(0.0109,0.091,0.0500443650813896));
#1278=CARTESIAN_POINT('',(0.0109,0.091,0.076));
#1279=CARTESIAN_POINT('',(0.0109,0.091,0.0154556349186104));
#1280=CARTESIAN_POINT('',(0.0357221825406948,0.091,0.0402778174593052));
#1281=CARTESIAN_POINT('',(-6.93889390390723E-18,0.0875,0.076));
#1282=CARTESIAN_POINT('',(6.93889390390723E-18,0.0875,0.028));
#1283=CARTESIAN_POINT('',(6.93889390390723E-18,0.082498,0.028));
#1284=CARTESIAN_POINT('',(0.0109,0.0835,0.028));
#1285=CARTESIAN_POINT('',(0.0109,0.0825,0.028));
#1286=CARTESIAN_POINT('',(6.93889390390723E-18,0.0825,0.028));
#1287=CARTESIAN_POINT('',(-0.0109,0.0825,0.028));
#1288=CARTESIAN_POINT('',(-0.0109,0.0835,0.028));
#1289=CARTESIAN_POINT('',(-6.93889390390723E-18,0.0875,0.076));
#1290=CARTESIAN_POINT('',(0.00152966836509827,0.0875,0.0775647365775739));
#1291=CARTESIAN_POINT('',(1.6025943014643E-5,0.0875,0.0790444558877226));
#1292=CARTESIAN_POINT('',(0.0109,0.0875,0.0684044088407403));
#1293=CARTESIAN_POINT('',(0.0109,0.0875,0.076));
#1294=CARTESIAN_POINT('',(-5.20417042793042E-18,0.0875,0.0609443650813896));
#1295=CARTESIAN_POINT('',(-0.0109,0.0875,0.076));
#1296=CARTESIAN_POINT('',(-0.0109,0.0875,0.0678781760165403));
#1297=CARTESIAN_POINT('',(0.000715074349527377,0.0875,0.07975953023725));
#1298=CARTESIAN_POINT('',(-0.00595,0.082498,0.0743721726952636));
#1299=CARTESIAN_POINT('',(-2.12535869774802E-18,0.0835,0.0804585786437627));
#1300=CARTESIAN_POINT('',(-0.000699048406512737,0.0835,0.0797435042942353));
#1301=CARTESIAN_POINT('',(-0.000699048406512737,0.0875,0.0797435042942353));
#1302=CARTESIAN_POINT('',(-0.000699048406512737,0.0865,0.0797435042942353));
#1303=CARTESIAN_POINT('',(-0.0119,0.0865,0.0682857667467646));
#1304=CARTESIAN_POINT('',(0.00595,0.082498,0.0746419275200021));
#1305=CARTESIAN_POINT('',(0.000715074349527377,0.0825,0.07975953023725));
#1306=CARTESIAN_POINT('',(0.000715074349527377,0.0865,0.07975953023725));
#1307=CARTESIAN_POINT('',(0.000715074349527376,0.0835,0.07975953023725));
#1308=CARTESIAN_POINT('',(0.00595,0.0835,0.0746419275200021));
#1309=CARTESIAN_POINT('',(0.00595,0.0865,0.0746419275200021));
#1310=CARTESIAN_POINT('',(1.04083408558608E-17,0.0825,0.028));
#1311=CARTESIAN_POINT('',(1.64798730217796E-17,0.0825,0.07));
#1312=CARTESIAN_POINT('',(0.00425000000000002,0.0825,0.07));
#1313=CARTESIAN_POINT('',(0.0109,0.0825,0.028));
#1314=CARTESIAN_POINT('',(0.0109,0.0825,0.0684044088407403));
#1315=CARTESIAN_POINT('',(0.0255235044247101,0.0825,0.0541086401944701));
#1316=CARTESIAN_POINT('',(1.6025943014643E-5,0.0825,0.0790444558877226));
#1317=CARTESIAN_POINT('',(-0.0111849256504726,0.0825,0.0675867183402518));
#1318=CARTESIAN_POINT('',(-0.0109,0.0825,0.0678781760165403));
#1319=CARTESIAN_POINT('',(-0.0109,0.0825,0.028));
#1320=CARTESIAN_POINT('',(1.64798730217796E-17,0.0835,0.07));
#1321=CARTESIAN_POINT('',(1.64798730217796E-17,0.0835,0.07));
#1322=CARTESIAN_POINT('',(0.00425000000000002,0.0835,0.07));
#1323=CARTESIAN_POINT('',(-1.7347234759768E-18,0.0835,0.0542292893218813));
#1324=CARTESIAN_POINT('',(-5.98311041267363E-19,0.09,0.0191));
#1325=CARTESIAN_POINT('',(0.00294448637286708,0.09,0.0191));
#1326=CARTESIAN_POINT('',(-0.00294448637286709,0.09,0.0191));
#1327=CARTESIAN_POINT('',(-0.00441672955930063,0.09,0.01655));
#1328=CARTESIAN_POINT('',(-0.00588897274573418,0.09,0.014));
#1329=CARTESIAN_POINT('',(0.00441672955930063,0.09,0.01655));
#1330=CARTESIAN_POINT('',(0.00588897274573419,0.09,0.014));
#1331=CARTESIAN_POINT('',(-0.00447446458621959,0.09,0.01155));
#1332=CARTESIAN_POINT('',(-0.00421465696508426,0.09,0.0111));
#1333=CARTESIAN_POINT('',(0.00447446458621962,0.09,0.01155));
#1334=CARTESIAN_POINT('',(0.00421465696508429,0.09,0.0111));
#1335=CARTESIAN_POINT('',(-0.00472059240063904,0.09,0.0111));
#1336=CARTESIAN_POINT('',(-0.0065443650813896,0.09,0.0111));
#1337=CARTESIAN_POINT('',(0.00472059240063905,0.09,0.0111));
#1338=CARTESIAN_POINT('',(0.00654436508138958,0.09,0.0111));
#1339=CARTESIAN_POINT('',(-0.00872218254069481,0.09,0.0132778174593052));
#1340=CARTESIAN_POINT('',(-0.0109,0.09,0.0154556349186104));
#1341=CARTESIAN_POINT('',(0.00872218254069479,0.09,0.0132778174593052));
#1342=CARTESIAN_POINT('',(0.0109,0.09,0.0154556349186104));
#1343=CARTESIAN_POINT('',(-0.0109,0.09,0.03275));
#1344=CARTESIAN_POINT('',(-0.0109,0.09,0.0500443650813896));
#1345=CARTESIAN_POINT('',(0.0109,0.09,0.03275));
#1346=CARTESIAN_POINT('',(0.0109,0.09,0.0500443650813896));
#1347=CARTESIAN_POINT('',(-0.00524289321881346,0.09,0.0557014718625761));
#1348=CARTESIAN_POINT('',(-2.74746514805607E-18,0.09,0.0609443650813896));
#1349=CARTESIAN_POINT('',(0.00524289321881345,0.09,0.0557014718625761));
#1350=CARTESIAN_POINT('',(-8.34835672813838E-18,0.09,0.0609443650813896));
#1351=CARTESIAN_POINT('',(-5.3775248628147E-18,0.09,0.0609443650813896));
#1352=CARTESIAN_POINT('',(-2.27682456221956E-18,0.09,0.0609443650813896));
#1353=CARTESIAN_POINT('',(-5.20417042793042E-18,0.091,0.0609443650813896));
#1354=CARTESIAN_POINT('',(0.0109,0.0835,0.028));
#1355=CARTESIAN_POINT('',(0.0109,0.0835,0.0684044088407403));
#1356=CARTESIAN_POINT('',(-0.0109,0.0835,0.03275));
#1357=CARTESIAN_POINT('',(-0.0109,0.0835,0.0678781760165403));
#1358=CARTESIAN_POINT('',(-0.0109,0.0865,0.076));
#1359=CARTESIAN_POINT('',(-0.0109,0.0865,0.0678781760165403));
#1360=CARTESIAN_POINT('',(0.0109,0.0865,0.03275));
#1361=CARTESIAN_POINT('',(0.0109,0.0865,0.0684044088407403));
#1362=CARTESIAN_POINT('',(0.00525095159348727,0.0835,0.0739268531704748));
#1363=CARTESIAN_POINT('',(1.60259430146443E-5,0.0835,0.0790444558877226));
#1364=CARTESIAN_POINT('',(-0.0255074784816954,0.0835,0.0529358156932525));
#1365=CARTESIAN_POINT('',(1.60259430146416E-5,0.0835,0.0790444558877226));
#1366=CARTESIAN_POINT('',(-0.00523492565047262,0.0865,0.0736731242887509));
#1367=CARTESIAN_POINT('',(1.6025943014643E-5,0.0865,0.0790444558877226));
#1368=CARTESIAN_POINT('',(0.00152966836509827,0.0865,0.0775647365775739));
#1369=CARTESIAN_POINT('',(1.60259430146406E-5,0.0865,0.0790444558877226));
#1370=CARTESIAN_POINT('',(1.60259430146407E-5,0.0835,0.0790444558877226));
#1371=CARTESIAN_POINT('',(1.602594301464E-5,0.0835,0.0790444558877226));
#1372=CARTESIAN_POINT('',(1.60259430146417E-5,0.0865,0.0790444558877226));
#1373=CARTESIAN_POINT('',(1.60259430146416E-5,0.0865,0.0790444558877226));
#1374=CARTESIAN_POINT('',(1.60259430146406E-5,0.082498,0.0790444558877226));
#1375=MECHANICAL_DESIGN_GEOMETRIC_PRESENTATION_REPRESENTATION('',(#807),
#1376);
#1376=(
GEOMETRIC_REPRESENTATION_CONTEXT(3)
GLOBAL_UNCERTAINTY_ASSIGNED_CONTEXT((#1377))
GLOBAL_UNIT_ASSIGNED_CONTEXT((#1380,#1379,#1378))
REPRESENTATION_CONTEXT('Cubby Legs Slide Attach',
'TOP_LEVEL_ASSEMBLY_PART')
);
#1377=UNCERTAINTY_MEASURE_WITH_UNIT(LENGTH_MEASURE(1.E-8),#1380,
'DISTANCE_ACCURACY_VALUE','Maximum Tolerance applied to model');
#1378=(
NAMED_UNIT(*)
SI_UNIT($,.STERADIAN.)
SOLID_ANGLE_UNIT()
);
#1379=(
NAMED_UNIT(*)
PLANE_ANGLE_UNIT()
SI_UNIT($,.RADIAN.)
);
#1380=(
LENGTH_UNIT()
NAMED_UNIT(*)
SI_UNIT($,.METRE.)
);
#1381=PRODUCT_DEFINITION_SHAPE('','',#1382);
#1382=PRODUCT_DEFINITION('','',#1384,#1383);
#1383=PRODUCT_DEFINITION_CONTEXT('',#1390,'design');
#1384=PRODUCT_DEFINITION_FORMATION_WITH_SPECIFIED_SOURCE('','',#1386,
 .NOT_KNOWN.);
#1385=PRODUCT_RELATED_PRODUCT_CATEGORY('','',(#1386));
#1386=PRODUCT('Cubby Legs Slide Attach','Cubby Legs Slide Attach',
'Cubby Legs Slide Attach',(#1388));
#1387=PRODUCT_CATEGORY('','');
#1388=PRODUCT_CONTEXT('',#1390,'mechanical');
#1389=APPLICATION_PROTOCOL_DEFINITION('international standard',
'ap242_managed_model_based_3d_engineering',2020,#1390);
#1390=APPLICATION_CONTEXT('managed model based 3d engineering');
ENDSEC;
END-ISO-10303-21;
