ISO-10303-21;
HEADER;
/* Generated by software containing ST-Developer
 * from STEP Tools, Inc. (www.steptools.com) 
 */
/* OPTION: using custom renumber hook */

FILE_DESCRIPTION(
/* description */ ('STEP AP242 Edition 2',
'CAx-IF Rec.Pracs.---Representation and Presentation of Product Manufa
cturing Information (PMI)---4.0---2014-10-13',
'CAx-IF Rec.Pracs.---3D Tessellated Geometry---0.4---2014-09-14','2;1',
'CAx-IF Rec.Pracs.---User Defined Attributes---1.5---2016-08-15'),
/* implementation_level */ '2;1');

FILE_NAME(
/* name */ 'T bracket - T Bracket',
/* time_stamp */ '2026-09-29T16:12:55Z',
/* author */ (''),
/* organization */ (''),
/* preprocessor_version */ 'ST-DEVELOPER v20',
/* originating_system */ 'ONSHAPE BY PTC INC, 1.221',
/* authorisation */ '  ');

FILE_SCHEMA (('AP242_MANAGED_MODEL_BASED_3D_ENGINEERING_MIM_LF { 1 0 10303 442 3 1 4 }'));
ENDSEC;

DATA;
#10=SHAPE_REPRESENTATION_RELATIONSHIP('','',#692,#11);
#11=ADVANCED_BREP_SHAPE_REPRESENTATION('',(#690),#1207);
#12=TOROIDAL_SURFACE('',#759,0.002,0.001);
#13=TOROIDAL_SURFACE('',#773,0.002,0.001);
#14=TOROIDAL_SURFACE('',#782,0.0036,0.001);
#15=TOROIDAL_SURFACE('',#783,0.0036,0.001);
#16=TOROIDAL_SURFACE('',#784,0.0036,0.001);
#17=TOROIDAL_SURFACE('',#785,0.0036,0.001);
#18=TOROIDAL_SURFACE('',#786,0.0036,0.001);
#19=SPHERICAL_SURFACE('',#736,0.001);
#20=SPHERICAL_SURFACE('',#747,0.001);
#21=SPHERICAL_SURFACE('',#749,0.001);
#22=SPHERICAL_SURFACE('',#761,0.001);
#23=SPHERICAL_SURFACE('',#771,0.001);
#24=SPHERICAL_SURFACE('',#779,0.001);
#25=CIRCLE('',#702,0.0026);
#26=CIRCLE('',#703,0.0026);
#27=CIRCLE('',#705,0.0026);
#28=CIRCLE('',#706,0.0026);
#29=CIRCLE('',#708,0.0026);
#30=CIRCLE('',#709,0.0026);
#31=CIRCLE('',#711,0.0026);
#32=CIRCLE('',#712,0.0026);
#33=CIRCLE('',#715,0.0026);
#34=CIRCLE('',#716,0.0026);
#35=CIRCLE('',#718,0.0036);
#36=CIRCLE('',#719,0.0036);
#37=CIRCLE('',#720,0.0036);
#38=CIRCLE('',#721,0.0036);
#39=CIRCLE('',#722,0.0036);
#40=CIRCLE('',#723,0.002);
#41=CIRCLE('',#724,0.002);
#42=CIRCLE('',#726,0.001);
#43=CIRCLE('',#727,0.001);
#44=CIRCLE('',#728,0.001);
#45=CIRCLE('',#729,0.001);
#46=CIRCLE('',#730,0.001);
#47=CIRCLE('',#731,0.001);
#48=CIRCLE('',#732,0.001);
#49=CIRCLE('',#733,0.001);
#50=CIRCLE('',#735,0.001);
#51=CIRCLE('',#737,0.001);
#52=CIRCLE('',#738,0.001);
#53=CIRCLE('',#740,0.001);
#54=CIRCLE('',#742,0.001);
#55=CIRCLE('',#744,0.001);
#56=CIRCLE('',#746,0.001);
#57=CIRCLE('',#748,0.001);
#58=CIRCLE('',#750,0.001);
#59=CIRCLE('',#752,0.001);
#60=CIRCLE('',#754,0.001);
#61=CIRCLE('',#756,0.001);
#62=CIRCLE('',#758,0.001);
#63=CIRCLE('',#760,0.001);
#64=CIRCLE('',#762,0.001);
#65=CIRCLE('',#764,0.001);
#66=CIRCLE('',#766,0.001);
#67=CIRCLE('',#768,0.001);
#68=CIRCLE('',#770,0.001);
#69=CIRCLE('',#772,0.001);
#70=CIRCLE('',#774,0.001);
#71=CIRCLE('',#776,0.001);
#72=CIRCLE('',#778,0.001);
#73=CIRCLE('',#780,0.001);
#74=CYLINDRICAL_SURFACE('',#701,0.0026);
#75=CYLINDRICAL_SURFACE('',#704,0.0026);
#76=CYLINDRICAL_SURFACE('',#707,0.0026);
#77=CYLINDRICAL_SURFACE('',#710,0.0026);
#78=CYLINDRICAL_SURFACE('',#714,0.0026);
#79=CYLINDRICAL_SURFACE('',#734,0.001);
#80=CYLINDRICAL_SURFACE('',#739,0.001);
#81=CYLINDRICAL_SURFACE('',#741,0.001);
#82=CYLINDRICAL_SURFACE('',#743,0.001);
#83=CYLINDRICAL_SURFACE('',#745,0.001);
#84=CYLINDRICAL_SURFACE('',#751,0.001);
#85=CYLINDRICAL_SURFACE('',#753,0.001);
#86=CYLINDRICAL_SURFACE('',#755,0.001);
#87=CYLINDRICAL_SURFACE('',#757,0.001);
#88=CYLINDRICAL_SURFACE('',#763,0.001);
#89=CYLINDRICAL_SURFACE('',#765,0.001);
#90=CYLINDRICAL_SURFACE('',#767,0.001);
#91=CYLINDRICAL_SURFACE('',#769,0.001);
#92=CYLINDRICAL_SURFACE('',#775,0.001);
#93=CYLINDRICAL_SURFACE('',#777,0.001);
#94=CYLINDRICAL_SURFACE('',#781,0.001);
#95=ORIENTED_EDGE('',*,*,#273,.T.);
#96=ORIENTED_EDGE('',*,*,#274,.T.);
#97=ORIENTED_EDGE('',*,*,#275,.T.);
#98=ORIENTED_EDGE('',*,*,#276,.T.);
#99=ORIENTED_EDGE('',*,*,#277,.T.);
#100=ORIENTED_EDGE('',*,*,#278,.T.);
#101=ORIENTED_EDGE('',*,*,#279,.T.);
#102=ORIENTED_EDGE('',*,*,#280,.T.);
#103=ORIENTED_EDGE('',*,*,#281,.F.);
#104=ORIENTED_EDGE('',*,*,#282,.T.);
#105=ORIENTED_EDGE('',*,*,#283,.T.);
#106=ORIENTED_EDGE('',*,*,#284,.T.);
#107=ORIENTED_EDGE('',*,*,#285,.T.);
#108=ORIENTED_EDGE('',*,*,#286,.T.);
#109=ORIENTED_EDGE('',*,*,#287,.F.);
#110=ORIENTED_EDGE('',*,*,#288,.T.);
#111=ORIENTED_EDGE('',*,*,#289,.T.);
#112=ORIENTED_EDGE('',*,*,#290,.T.);
#113=ORIENTED_EDGE('',*,*,#291,.T.);
#114=ORIENTED_EDGE('',*,*,#292,.T.);
#115=ORIENTED_EDGE('',*,*,#293,.T.);
#116=ORIENTED_EDGE('',*,*,#294,.T.);
#117=ORIENTED_EDGE('',*,*,#295,.F.);
#118=ORIENTED_EDGE('',*,*,#296,.T.);
#119=ORIENTED_EDGE('',*,*,#297,.T.);
#120=ORIENTED_EDGE('',*,*,#298,.T.);
#121=ORIENTED_EDGE('',*,*,#299,.F.);
#122=ORIENTED_EDGE('',*,*,#300,.T.);
#123=ORIENTED_EDGE('',*,*,#301,.T.);
#124=ORIENTED_EDGE('',*,*,#302,.F.);
#125=ORIENTED_EDGE('',*,*,#303,.T.);
#126=ORIENTED_EDGE('',*,*,#304,.F.);
#127=ORIENTED_EDGE('',*,*,#305,.T.);
#128=ORIENTED_EDGE('',*,*,#306,.F.);
#129=ORIENTED_EDGE('',*,*,#307,.T.);
#130=ORIENTED_EDGE('',*,*,#308,.F.);
#131=ORIENTED_EDGE('',*,*,#309,.T.);
#132=ORIENTED_EDGE('',*,*,#310,.T.);
#133=ORIENTED_EDGE('',*,*,#311,.T.);
#134=ORIENTED_EDGE('',*,*,#312,.T.);
#135=ORIENTED_EDGE('',*,*,#313,.T.);
#136=ORIENTED_EDGE('',*,*,#314,.F.);
#137=ORIENTED_EDGE('',*,*,#315,.T.);
#138=ORIENTED_EDGE('',*,*,#316,.T.);
#139=ORIENTED_EDGE('',*,*,#317,.T.);
#140=ORIENTED_EDGE('',*,*,#318,.T.);
#141=ORIENTED_EDGE('',*,*,#319,.T.);
#142=ORIENTED_EDGE('',*,*,#320,.F.);
#143=ORIENTED_EDGE('',*,*,#321,.T.);
#144=ORIENTED_EDGE('',*,*,#322,.T.);
#145=ORIENTED_EDGE('',*,*,#323,.T.);
#146=ORIENTED_EDGE('',*,*,#324,.F.);
#147=ORIENTED_EDGE('',*,*,#325,.T.);
#148=ORIENTED_EDGE('',*,*,#326,.T.);
#149=ORIENTED_EDGE('',*,*,#327,.T.);
#150=ORIENTED_EDGE('',*,*,#328,.T.);
#151=ORIENTED_EDGE('',*,*,#329,.T.);
#152=ORIENTED_EDGE('',*,*,#287,.T.);
#153=ORIENTED_EDGE('',*,*,#330,.T.);
#154=ORIENTED_EDGE('',*,*,#281,.T.);
#155=ORIENTED_EDGE('',*,*,#331,.T.);
#156=ORIENTED_EDGE('',*,*,#277,.F.);
#157=ORIENTED_EDGE('',*,*,#332,.T.);
#158=ORIENTED_EDGE('',*,*,#273,.F.);
#159=ORIENTED_EDGE('',*,*,#333,.T.);
#160=ORIENTED_EDGE('',*,*,#311,.F.);
#161=ORIENTED_EDGE('',*,*,#334,.T.);
#162=ORIENTED_EDGE('',*,*,#299,.T.);
#163=ORIENTED_EDGE('',*,*,#335,.T.);
#164=ORIENTED_EDGE('',*,*,#295,.T.);
#165=ORIENTED_EDGE('',*,*,#336,.T.);
#166=ORIENTED_EDGE('',*,*,#291,.F.);
#167=ORIENTED_EDGE('',*,*,#337,.T.);
#168=ORIENTED_EDGE('',*,*,#308,.T.);
#169=ORIENTED_EDGE('',*,*,#306,.T.);
#170=ORIENTED_EDGE('',*,*,#304,.T.);
#171=ORIENTED_EDGE('',*,*,#302,.T.);
#172=ORIENTED_EDGE('',*,*,#314,.T.);
#173=ORIENTED_EDGE('',*,*,#338,.F.);
#174=ORIENTED_EDGE('',*,*,#300,.F.);
#175=ORIENTED_EDGE('',*,*,#334,.F.);
#176=ORIENTED_EDGE('',*,*,#310,.F.);
#177=ORIENTED_EDGE('',*,*,#339,.F.);
#178=ORIENTED_EDGE('',*,*,#338,.T.);
#179=ORIENTED_EDGE('',*,*,#340,.F.);
#180=ORIENTED_EDGE('',*,*,#333,.F.);
#181=ORIENTED_EDGE('',*,*,#276,.F.);
#182=ORIENTED_EDGE('',*,*,#341,.F.);
#183=ORIENTED_EDGE('',*,*,#312,.F.);
#184=ORIENTED_EDGE('',*,*,#340,.T.);
#185=ORIENTED_EDGE('',*,*,#309,.F.);
#186=ORIENTED_EDGE('',*,*,#342,.F.);
#187=ORIENTED_EDGE('',*,*,#328,.F.);
#188=ORIENTED_EDGE('',*,*,#339,.T.);
#189=ORIENTED_EDGE('',*,*,#327,.F.);
#190=ORIENTED_EDGE('',*,*,#343,.F.);
#191=ORIENTED_EDGE('',*,*,#297,.F.);
#192=ORIENTED_EDGE('',*,*,#335,.F.);
#193=ORIENTED_EDGE('',*,*,#298,.F.);
#194=ORIENTED_EDGE('',*,*,#344,.F.);
#195=ORIENTED_EDGE('',*,*,#296,.F.);
#196=ORIENTED_EDGE('',*,*,#342,.T.);
#197=ORIENTED_EDGE('',*,*,#341,.T.);
#198=ORIENTED_EDGE('',*,*,#345,.F.);
#199=ORIENTED_EDGE('',*,*,#344,.T.);
#200=ORIENTED_EDGE('',*,*,#343,.T.);
#201=ORIENTED_EDGE('',*,*,#346,.F.);
#202=ORIENTED_EDGE('',*,*,#332,.F.);
#203=ORIENTED_EDGE('',*,*,#280,.F.);
#204=ORIENTED_EDGE('',*,*,#347,.F.);
#205=ORIENTED_EDGE('',*,*,#274,.F.);
#206=ORIENTED_EDGE('',*,*,#345,.T.);
#207=ORIENTED_EDGE('',*,*,#275,.F.);
#208=ORIENTED_EDGE('',*,*,#348,.F.);
#209=ORIENTED_EDGE('',*,*,#329,.F.);
#210=ORIENTED_EDGE('',*,*,#346,.T.);
#211=ORIENTED_EDGE('',*,*,#326,.F.);
#212=ORIENTED_EDGE('',*,*,#349,.F.);
#213=ORIENTED_EDGE('',*,*,#293,.F.);
#214=ORIENTED_EDGE('',*,*,#336,.F.);
#215=ORIENTED_EDGE('',*,*,#294,.F.);
#216=ORIENTED_EDGE('',*,*,#350,.F.);
#217=ORIENTED_EDGE('',*,*,#292,.F.);
#218=ORIENTED_EDGE('',*,*,#348,.T.);
#219=ORIENTED_EDGE('',*,*,#347,.T.);
#220=ORIENTED_EDGE('',*,*,#351,.F.);
#221=ORIENTED_EDGE('',*,*,#320,.T.);
#222=ORIENTED_EDGE('',*,*,#350,.T.);
#223=ORIENTED_EDGE('',*,*,#349,.T.);
#224=ORIENTED_EDGE('',*,*,#352,.F.);
#225=ORIENTED_EDGE('',*,*,#331,.F.);
#226=ORIENTED_EDGE('',*,*,#284,.F.);
#227=ORIENTED_EDGE('',*,*,#353,.F.);
#228=ORIENTED_EDGE('',*,*,#278,.F.);
#229=ORIENTED_EDGE('',*,*,#351,.T.);
#230=ORIENTED_EDGE('',*,*,#279,.F.);
#231=ORIENTED_EDGE('',*,*,#354,.F.);
#232=ORIENTED_EDGE('',*,*,#321,.F.);
#233=ORIENTED_EDGE('',*,*,#352,.T.);
#234=ORIENTED_EDGE('',*,*,#325,.F.);
#235=ORIENTED_EDGE('',*,*,#355,.F.);
#236=ORIENTED_EDGE('',*,*,#289,.F.);
#237=ORIENTED_EDGE('',*,*,#337,.F.);
#238=ORIENTED_EDGE('',*,*,#290,.F.);
#239=ORIENTED_EDGE('',*,*,#356,.F.);
#240=ORIENTED_EDGE('',*,*,#288,.F.);
#241=ORIENTED_EDGE('',*,*,#354,.T.);
#242=ORIENTED_EDGE('',*,*,#353,.T.);
#243=ORIENTED_EDGE('',*,*,#357,.F.);
#244=ORIENTED_EDGE('',*,*,#355,.T.);
#245=ORIENTED_EDGE('',*,*,#324,.T.);
#246=ORIENTED_EDGE('',*,*,#358,.F.);
#247=ORIENTED_EDGE('',*,*,#356,.T.);
#248=ORIENTED_EDGE('',*,*,#357,.T.);
#249=ORIENTED_EDGE('',*,*,#283,.F.);
#250=ORIENTED_EDGE('',*,*,#359,.F.);
#251=ORIENTED_EDGE('',*,*,#322,.F.);
#252=ORIENTED_EDGE('',*,*,#358,.T.);
#253=ORIENTED_EDGE('',*,*,#323,.F.);
#254=ORIENTED_EDGE('',*,*,#360,.F.);
#255=ORIENTED_EDGE('',*,*,#285,.F.);
#256=ORIENTED_EDGE('',*,*,#360,.T.);
#257=ORIENTED_EDGE('',*,*,#359,.T.);
#258=ORIENTED_EDGE('',*,*,#361,.F.);
#259=ORIENTED_EDGE('',*,*,#361,.T.);
#260=ORIENTED_EDGE('',*,*,#282,.F.);
#261=ORIENTED_EDGE('',*,*,#330,.F.);
#262=ORIENTED_EDGE('',*,*,#286,.F.);
#263=ORIENTED_EDGE('',*,*,#315,.F.);
#264=ORIENTED_EDGE('',*,*,#301,.F.);
#265=ORIENTED_EDGE('',*,*,#316,.F.);
#266=ORIENTED_EDGE('',*,*,#313,.F.);
#267=ORIENTED_EDGE('',*,*,#317,.F.);
#268=ORIENTED_EDGE('',*,*,#303,.F.);
#269=ORIENTED_EDGE('',*,*,#318,.F.);
#270=ORIENTED_EDGE('',*,*,#307,.F.);
#271=ORIENTED_EDGE('',*,*,#319,.F.);
#272=ORIENTED_EDGE('',*,*,#305,.F.);
#273=EDGE_CURVE('',#362,#363,#419,.T.);
#274=EDGE_CURVE('',#363,#364,#420,.F.);
#275=EDGE_CURVE('',#364,#365,#421,.F.);
#276=EDGE_CURVE('',#365,#362,#422,.T.);
#277=EDGE_CURVE('',#366,#367,#423,.T.);
#278=EDGE_CURVE('',#367,#368,#424,.F.);
#279=EDGE_CURVE('',#368,#369,#425,.F.);
#280=EDGE_CURVE('',#369,#366,#426,.T.);
#281=EDGE_CURVE('',#370,#371,#427,.T.);
#282=EDGE_CURVE('',#370,#372,#428,.F.);
#283=EDGE_CURVE('',#372,#373,#429,.T.);
#284=EDGE_CURVE('',#373,#371,#430,.T.);
#285=EDGE_CURVE('',#374,#375,#431,.T.);
#286=EDGE_CURVE('',#375,#376,#432,.T.);
#287=EDGE_CURVE('',#377,#376,#433,.T.);
#288=EDGE_CURVE('',#377,#374,#434,.F.);
#289=EDGE_CURVE('',#378,#379,#435,.F.);
#290=EDGE_CURVE('',#379,#380,#436,.T.);
#291=EDGE_CURVE('',#380,#381,#437,.T.);
#292=EDGE_CURVE('',#381,#378,#438,.F.);
#293=EDGE_CURVE('',#382,#383,#439,.T.);
#294=EDGE_CURVE('',#383,#384,#440,.T.);
#295=EDGE_CURVE('',#385,#384,#441,.T.);
#296=EDGE_CURVE('',#385,#382,#442,.F.);
#297=EDGE_CURVE('',#386,#387,#443,.T.);
#298=EDGE_CURVE('',#387,#388,#444,.T.);
#299=EDGE_CURVE('',#389,#388,#445,.T.);
#300=EDGE_CURVE('',#389,#386,#446,.F.);
#301=EDGE_CURVE('',#390,#390,#25,.T.);
#302=EDGE_CURVE('',#391,#391,#26,.T.);
#303=EDGE_CURVE('',#392,#392,#27,.T.);
#304=EDGE_CURVE('',#393,#393,#28,.T.);
#305=EDGE_CURVE('',#394,#394,#29,.T.);
#306=EDGE_CURVE('',#395,#395,#30,.T.);
#307=EDGE_CURVE('',#396,#396,#31,.T.);
#308=EDGE_CURVE('',#397,#397,#32,.T.);
#309=EDGE_CURVE('',#398,#399,#447,.F.);
#310=EDGE_CURVE('',#399,#400,#448,.T.);
#311=EDGE_CURVE('',#400,#401,#449,.T.);
#312=EDGE_CURVE('',#401,#398,#450,.F.);
#313=EDGE_CURVE('',#402,#402,#33,.T.);
#314=EDGE_CURVE('',#403,#403,#34,.T.);
#315=EDGE_CURVE('',#404,#404,#35,.F.);
#316=EDGE_CURVE('',#405,#405,#36,.F.);
#317=EDGE_CURVE('',#406,#406,#37,.F.);
#318=EDGE_CURVE('',#407,#407,#38,.F.);
#319=EDGE_CURVE('',#408,#408,#39,.F.);
#320=EDGE_CURVE('',#409,#410,#40,.T.);
#321=EDGE_CURVE('',#409,#411,#451,.T.);
#322=EDGE_CURVE('',#411,#412,#452,.F.);
#323=EDGE_CURVE('',#412,#413,#453,.F.);
#324=EDGE_CURVE('',#414,#413,#41,.T.);
#325=EDGE_CURVE('',#414,#415,#454,.T.);
#326=EDGE_CURVE('',#415,#416,#455,.F.);
#327=EDGE_CURVE('',#416,#417,#456,.F.);
#328=EDGE_CURVE('',#417,#418,#457,.T.);
#329=EDGE_CURVE('',#418,#410,#458,.T.);
#330=EDGE_CURVE('',#376,#370,#42,.F.);
#331=EDGE_CURVE('',#371,#367,#43,.F.);
#332=EDGE_CURVE('',#366,#363,#44,.T.);
#333=EDGE_CURVE('',#362,#401,#45,.F.);
#334=EDGE_CURVE('',#400,#389,#46,.F.);
#335=EDGE_CURVE('',#388,#385,#47,.F.);
#336=EDGE_CURVE('',#384,#381,#48,.F.);
#337=EDGE_CURVE('',#380,#377,#49,.T.);
#338=EDGE_CURVE('',#386,#399,#50,.T.);
#339=EDGE_CURVE('',#386,#417,#51,.F.);
#340=EDGE_CURVE('',#417,#399,#52,.F.);
#341=EDGE_CURVE('',#398,#365,#53,.T.);
#342=EDGE_CURVE('',#418,#398,#54,.T.);
#343=EDGE_CURVE('',#387,#416,#55,.T.);
#344=EDGE_CURVE('',#382,#387,#56,.T.);
#345=EDGE_CURVE('',#418,#365,#57,.F.);
#346=EDGE_CURVE('',#382,#416,#58,.F.);
#347=EDGE_CURVE('',#364,#369,#59,.F.);
#348=EDGE_CURVE('',#410,#364,#60,.T.);
#349=EDGE_CURVE('',#383,#415,#61,.T.);
#350=EDGE_CURVE('',#378,#383,#62,.T.);
#351=EDGE_CURVE('',#409,#369,#63,.F.);
#352=EDGE_CURVE('',#378,#415,#64,.F.);
#353=EDGE_CURVE('',#368,#373,#65,.T.);
#354=EDGE_CURVE('',#411,#368,#66,.T.);
#355=EDGE_CURVE('',#379,#414,#67,.T.);
#356=EDGE_CURVE('',#374,#379,#68,.F.);
#357=EDGE_CURVE('',#411,#373,#69,.F.);
#358=EDGE_CURVE('',#374,#413,#70,.F.);
#359=EDGE_CURVE('',#412,#372,#71,.T.);
#360=EDGE_CURVE('',#375,#412,#72,.T.);
#361=EDGE_CURVE('',#375,#372,#73,.F.);
#362=VERTEX_POINT('',#1018);
#363=VERTEX_POINT('',#1019);
#364=VERTEX_POINT('',#1021);
#365=VERTEX_POINT('',#1023);
#366=VERTEX_POINT('',#1027);
#367=VERTEX_POINT('',#1028);
#368=VERTEX_POINT('',#1030);
#369=VERTEX_POINT('',#1032);
#370=VERTEX_POINT('',#1036);
#371=VERTEX_POINT('',#1037);
#372=VERTEX_POINT('',#1039);
#373=VERTEX_POINT('',#1041);
#374=VERTEX_POINT('',#1045);
#375=VERTEX_POINT('',#1046);
#376=VERTEX_POINT('',#1048);
#377=VERTEX_POINT('',#1050);
#378=VERTEX_POINT('',#1054);
#379=VERTEX_POINT('',#1055);
#380=VERTEX_POINT('',#1057);
#381=VERTEX_POINT('',#1059);
#382=VERTEX_POINT('',#1063);
#383=VERTEX_POINT('',#1064);
#384=VERTEX_POINT('',#1066);
#385=VERTEX_POINT('',#1068);
#386=VERTEX_POINT('',#1072);
#387=VERTEX_POINT('',#1073);
#388=VERTEX_POINT('',#1075);
#389=VERTEX_POINT('',#1077);
#390=VERTEX_POINT('',#1081);
#391=VERTEX_POINT('',#1083);
#392=VERTEX_POINT('',#1086);
#393=VERTEX_POINT('',#1088);
#394=VERTEX_POINT('',#1091);
#395=VERTEX_POINT('',#1093);
#396=VERTEX_POINT('',#1096);
#397=VERTEX_POINT('',#1098);
#398=VERTEX_POINT('',#1101);
#399=VERTEX_POINT('',#1102);
#400=VERTEX_POINT('',#1104);
#401=VERTEX_POINT('',#1106);
#402=VERTEX_POINT('',#1110);
#403=VERTEX_POINT('',#1112);
#404=VERTEX_POINT('',#1115);
#405=VERTEX_POINT('',#1117);
#406=VERTEX_POINT('',#1119);
#407=VERTEX_POINT('',#1121);
#408=VERTEX_POINT('',#1123);
#409=VERTEX_POINT('',#1125);
#410=VERTEX_POINT('',#1126);
#411=VERTEX_POINT('',#1128);
#412=VERTEX_POINT('',#1130);
#413=VERTEX_POINT('',#1132);
#414=VERTEX_POINT('',#1134);
#415=VERTEX_POINT('',#1136);
#416=VERTEX_POINT('',#1138);
#417=VERTEX_POINT('',#1140);
#418=VERTEX_POINT('',#1142);
#419=LINE('',#1017,#459);
#420=LINE('',#1020,#460);
#421=LINE('',#1022,#461);
#422=LINE('',#1024,#462);
#423=LINE('',#1026,#463);
#424=LINE('',#1029,#464);
#425=LINE('',#1031,#465);
#426=LINE('',#1033,#466);
#427=LINE('',#1035,#467);
#428=LINE('',#1038,#468);
#429=LINE('',#1040,#469);
#430=LINE('',#1042,#470);
#431=LINE('',#1044,#471);
#432=LINE('',#1047,#472);
#433=LINE('',#1049,#473);
#434=LINE('',#1051,#474);
#435=LINE('',#1053,#475);
#436=LINE('',#1056,#476);
#437=LINE('',#1058,#477);
#438=LINE('',#1060,#478);
#439=LINE('',#1062,#479);
#440=LINE('',#1065,#480);
#441=LINE('',#1067,#481);
#442=LINE('',#1069,#482);
#443=LINE('',#1071,#483);
#444=LINE('',#1074,#484);
#445=LINE('',#1076,#485);
#446=LINE('',#1078,#486);
#447=LINE('',#1100,#487);
#448=LINE('',#1103,#488);
#449=LINE('',#1105,#489);
#450=LINE('',#1107,#490);
#451=LINE('',#1127,#491);
#452=LINE('',#1129,#492);
#453=LINE('',#1131,#493);
#454=LINE('',#1135,#494);
#455=LINE('',#1137,#495);
#456=LINE('',#1139,#496);
#457=LINE('',#1141,#497);
#458=LINE('',#1143,#498);
#459=VECTOR('',#791,1.);
#460=VECTOR('',#792,1.);
#461=VECTOR('',#793,1.);
#462=VECTOR('',#794,1.);
#463=VECTOR('',#797,1.);
#464=VECTOR('',#798,1.);
#465=VECTOR('',#799,1.);
#466=VECTOR('',#800,1.);
#467=VECTOR('',#803,1.);
#468=VECTOR('',#804,1.);
#469=VECTOR('',#805,1.);
#470=VECTOR('',#806,1.);
#471=VECTOR('',#809,1.);
#472=VECTOR('',#810,1.);
#473=VECTOR('',#811,1.);
#474=VECTOR('',#812,1.);
#475=VECTOR('',#815,1.);
#476=VECTOR('',#816,1.);
#477=VECTOR('',#817,1.);
#478=VECTOR('',#818,1.);
#479=VECTOR('',#821,1.);
#480=VECTOR('',#822,1.);
#481=VECTOR('',#823,1.);
#482=VECTOR('',#824,1.);
#483=VECTOR('',#827,1.);
#484=VECTOR('',#828,1.);
#485=VECTOR('',#829,1.);
#486=VECTOR('',#830,1.);
#487=VECTOR('',#857,1.);
#488=VECTOR('',#858,1.);
#489=VECTOR('',#859,1.);
#490=VECTOR('',#860,1.);
#491=VECTOR('',#881,1.);
#492=VECTOR('',#882,1.);
#493=VECTOR('',#883,1.);
#494=VECTOR('',#886,1.);
#495=VECTOR('',#887,1.);
#496=VECTOR('',#888,1.);
#497=VECTOR('',#889,1.);
#498=VECTOR('',#890,1.);
#499=EDGE_LOOP('',(#95,#96,#97,#98));
#500=EDGE_LOOP('',(#99,#100,#101,#102));
#501=EDGE_LOOP('',(#103,#104,#105,#106));
#502=EDGE_LOOP('',(#107,#108,#109,#110));
#503=EDGE_LOOP('',(#111,#112,#113,#114));
#504=EDGE_LOOP('',(#115,#116,#117,#118));
#505=EDGE_LOOP('',(#119,#120,#121,#122));
#506=EDGE_LOOP('',(#123));
#507=EDGE_LOOP('',(#124));
#508=EDGE_LOOP('',(#125));
#509=EDGE_LOOP('',(#126));
#510=EDGE_LOOP('',(#127));
#511=EDGE_LOOP('',(#128));
#512=EDGE_LOOP('',(#129));
#513=EDGE_LOOP('',(#130));
#514=EDGE_LOOP('',(#131,#132,#133,#134));
#515=EDGE_LOOP('',(#135));
#516=EDGE_LOOP('',(#136));
#517=EDGE_LOOP('',(#137));
#518=EDGE_LOOP('',(#138));
#519=EDGE_LOOP('',(#139));
#520=EDGE_LOOP('',(#140));
#521=EDGE_LOOP('',(#141));
#522=EDGE_LOOP('',(#142,#143,#144,#145,#146,#147,#148,#149,#150,#151));
#523=EDGE_LOOP('',(#152,#153,#154,#155,#156,#157,#158,#159,#160,#161,#162,
#163,#164,#165,#166,#167));
#524=EDGE_LOOP('',(#168));
#525=EDGE_LOOP('',(#169));
#526=EDGE_LOOP('',(#170));
#527=EDGE_LOOP('',(#171));
#528=EDGE_LOOP('',(#172));
#529=EDGE_LOOP('',(#173,#174,#175,#176));
#530=EDGE_LOOP('',(#177,#178,#179));
#531=EDGE_LOOP('',(#180,#181,#182,#183));
#532=EDGE_LOOP('',(#184,#185,#186,#187));
#533=EDGE_LOOP('',(#188,#189,#190,#191));
#534=EDGE_LOOP('',(#192,#193,#194,#195));
#535=EDGE_LOOP('',(#196,#197,#198));
#536=EDGE_LOOP('',(#199,#200,#201));
#537=EDGE_LOOP('',(#202,#203,#204,#205));
#538=EDGE_LOOP('',(#206,#207,#208,#209));
#539=EDGE_LOOP('',(#210,#211,#212,#213));
#540=EDGE_LOOP('',(#214,#215,#216,#217));
#541=EDGE_LOOP('',(#218,#219,#220,#221));
#542=EDGE_LOOP('',(#222,#223,#224));
#543=EDGE_LOOP('',(#225,#226,#227,#228));
#544=EDGE_LOOP('',(#229,#230,#231,#232));
#545=EDGE_LOOP('',(#233,#234,#235,#236));
#546=EDGE_LOOP('',(#237,#238,#239,#240));
#547=EDGE_LOOP('',(#241,#242,#243));
#548=EDGE_LOOP('',(#244,#245,#246,#247));
#549=EDGE_LOOP('',(#248,#249,#250,#251));
#550=EDGE_LOOP('',(#252,#253,#254,#255));
#551=EDGE_LOOP('',(#256,#257,#258));
#552=EDGE_LOOP('',(#259,#260,#261,#262));
#553=EDGE_LOOP('',(#263));
#554=EDGE_LOOP('',(#264));
#555=EDGE_LOOP('',(#265));
#556=EDGE_LOOP('',(#266));
#557=EDGE_LOOP('',(#267));
#558=EDGE_LOOP('',(#268));
#559=EDGE_LOOP('',(#269));
#560=EDGE_LOOP('',(#270));
#561=EDGE_LOOP('',(#271));
#562=EDGE_LOOP('',(#272));
#563=FACE_BOUND('',#499,.T.);
#564=FACE_BOUND('',#500,.T.);
#565=FACE_BOUND('',#501,.T.);
#566=FACE_BOUND('',#502,.T.);
#567=FACE_BOUND('',#503,.T.);
#568=FACE_BOUND('',#504,.T.);
#569=FACE_BOUND('',#505,.T.);
#570=FACE_BOUND('',#506,.T.);
#571=FACE_BOUND('',#507,.T.);
#572=FACE_BOUND('',#508,.T.);
#573=FACE_BOUND('',#509,.T.);
#574=FACE_BOUND('',#510,.T.);
#575=FACE_BOUND('',#511,.T.);
#576=FACE_BOUND('',#512,.T.);
#577=FACE_BOUND('',#513,.T.);
#578=FACE_BOUND('',#514,.T.);
#579=FACE_BOUND('',#515,.T.);
#580=FACE_BOUND('',#516,.T.);
#581=FACE_BOUND('',#517,.T.);
#582=FACE_BOUND('',#518,.T.);
#583=FACE_BOUND('',#519,.T.);
#584=FACE_BOUND('',#520,.T.);
#585=FACE_BOUND('',#521,.T.);
#586=FACE_BOUND('',#522,.T.);
#587=FACE_BOUND('',#523,.T.);
#588=FACE_BOUND('',#524,.T.);
#589=FACE_BOUND('',#525,.T.);
#590=FACE_BOUND('',#526,.T.);
#591=FACE_BOUND('',#527,.T.);
#592=FACE_BOUND('',#528,.T.);
#593=FACE_BOUND('',#529,.T.);
#594=FACE_BOUND('',#530,.T.);
#595=FACE_BOUND('',#531,.T.);
#596=FACE_BOUND('',#532,.T.);
#597=FACE_BOUND('',#533,.T.);
#598=FACE_BOUND('',#534,.T.);
#599=FACE_BOUND('',#535,.T.);
#600=FACE_BOUND('',#536,.T.);
#601=FACE_BOUND('',#537,.T.);
#602=FACE_BOUND('',#538,.T.);
#603=FACE_BOUND('',#539,.T.);
#604=FACE_BOUND('',#540,.T.);
#605=FACE_BOUND('',#541,.T.);
#606=FACE_BOUND('',#542,.T.);
#607=FACE_BOUND('',#543,.T.);
#608=FACE_BOUND('',#544,.T.);
#609=FACE_BOUND('',#545,.T.);
#610=FACE_BOUND('',#546,.T.);
#611=FACE_BOUND('',#547,.T.);
#612=FACE_BOUND('',#548,.T.);
#613=FACE_BOUND('',#549,.T.);
#614=FACE_BOUND('',#550,.T.);
#615=FACE_BOUND('',#551,.T.);
#616=FACE_BOUND('',#552,.T.);
#617=FACE_BOUND('',#553,.T.);
#618=FACE_BOUND('',#554,.T.);
#619=FACE_BOUND('',#555,.T.);
#620=FACE_BOUND('',#556,.T.);
#621=FACE_BOUND('',#557,.T.);
#622=FACE_BOUND('',#558,.T.);
#623=FACE_BOUND('',#559,.T.);
#624=FACE_BOUND('',#560,.T.);
#625=FACE_BOUND('',#561,.T.);
#626=FACE_BOUND('',#562,.T.);
#627=PLANE('',#694);
#628=PLANE('',#695);
#629=PLANE('',#696);
#630=PLANE('',#697);
#631=PLANE('',#698);
#632=PLANE('',#699);
#633=PLANE('',#700);
#634=PLANE('',#713);
#635=PLANE('',#717);
#636=PLANE('',#725);
#637=ADVANCED_FACE('',(#563),#627,.F.);
#638=ADVANCED_FACE('',(#564),#628,.F.);
#639=ADVANCED_FACE('',(#565),#629,.T.);
#640=ADVANCED_FACE('',(#566),#630,.T.);
#641=ADVANCED_FACE('',(#567),#631,.F.);
#642=ADVANCED_FACE('',(#568),#632,.T.);
#643=ADVANCED_FACE('',(#569),#633,.T.);
#644=ADVANCED_FACE('',(#570,#571),#74,.F.);
#645=ADVANCED_FACE('',(#572,#573),#75,.F.);
#646=ADVANCED_FACE('',(#574,#575),#76,.F.);
#647=ADVANCED_FACE('',(#576,#577),#77,.F.);
#648=ADVANCED_FACE('',(#578),#634,.F.);
#649=ADVANCED_FACE('',(#579,#580),#78,.F.);
#650=ADVANCED_FACE('',(#581,#582,#583,#584,#585,#586),#635,.T.);
#651=ADVANCED_FACE('',(#587,#588,#589,#590,#591,#592),#636,.F.);
#652=ADVANCED_FACE('',(#593),#79,.T.);
#653=ADVANCED_FACE('',(#594),#19,.T.);
#654=ADVANCED_FACE('',(#595),#80,.T.);
#655=ADVANCED_FACE('',(#596),#81,.T.);
#656=ADVANCED_FACE('',(#597),#82,.T.);
#657=ADVANCED_FACE('',(#598),#83,.T.);
#658=ADVANCED_FACE('',(#599),#20,.T.);
#659=ADVANCED_FACE('',(#600),#21,.T.);
#660=ADVANCED_FACE('',(#601),#84,.F.);
#661=ADVANCED_FACE('',(#602),#85,.T.);
#662=ADVANCED_FACE('',(#603),#86,.T.);
#663=ADVANCED_FACE('',(#604),#87,.T.);
#664=ADVANCED_FACE('',(#605),#12,.T.);
#665=ADVANCED_FACE('',(#606),#22,.T.);
#666=ADVANCED_FACE('',(#607),#88,.T.);
#667=ADVANCED_FACE('',(#608),#89,.T.);
#668=ADVANCED_FACE('',(#609),#90,.T.);
#669=ADVANCED_FACE('',(#610),#91,.F.);
#670=ADVANCED_FACE('',(#611),#23,.T.);
#671=ADVANCED_FACE('',(#612),#13,.T.);
#672=ADVANCED_FACE('',(#613),#92,.T.);
#673=ADVANCED_FACE('',(#614),#93,.T.);
#674=ADVANCED_FACE('',(#615),#24,.T.);
#675=ADVANCED_FACE('',(#616),#94,.T.);
#676=ADVANCED_FACE('',(#617,#618),#14,.T.);
#677=ADVANCED_FACE('',(#619,#620),#15,.T.);
#678=ADVANCED_FACE('',(#621,#622),#16,.T.);
#679=ADVANCED_FACE('',(#623,#624),#17,.T.);
#680=ADVANCED_FACE('',(#625,#626),#18,.T.);
#681=CLOSED_SHELL('',(#637,#638,#639,#640,#641,#642,#643,#644,#645,#646,
#647,#648,#649,#650,#651,#652,#653,#654,#655,#656,#657,#658,#659,#660,#661,
#662,#663,#664,#665,#666,#667,#668,#669,#670,#671,#672,#673,#674,#675,#676,
#677,#678,#679,#680));
#682=STYLED_ITEM('',(#683),#690);
#683=PRESENTATION_STYLE_ASSIGNMENT((#684));
#684=SURFACE_STYLE_USAGE(.BOTH.,#685);
#685=SURFACE_SIDE_STYLE('',(#686));
#686=SURFACE_STYLE_FILL_AREA(#687);
#687=FILL_AREA_STYLE('',(#688));
#688=FILL_AREA_STYLE_COLOUR('',#689);
#689=COLOUR_RGB('',0.615686274509804,0.811764705882353,0.929411764705882);
#690=MANIFOLD_SOLID_BREP('T Bracket',#681);
#691=SHAPE_DEFINITION_REPRESENTATION(#1212,#692);
#692=SHAPE_REPRESENTATION('T Bracket',(#693),#1207);
#693=AXIS2_PLACEMENT_3D('',#1015,#787,#788);
#694=AXIS2_PLACEMENT_3D('',#1016,#789,#790);
#695=AXIS2_PLACEMENT_3D('',#1025,#795,#796);
#696=AXIS2_PLACEMENT_3D('',#1034,#801,#802);
#697=AXIS2_PLACEMENT_3D('',#1043,#807,#808);
#698=AXIS2_PLACEMENT_3D('',#1052,#813,#814);
#699=AXIS2_PLACEMENT_3D('',#1061,#819,#820);
#700=AXIS2_PLACEMENT_3D('',#1070,#825,#826);
#701=AXIS2_PLACEMENT_3D('',#1079,#831,#832);
#702=AXIS2_PLACEMENT_3D('',#1080,#833,#834);
#703=AXIS2_PLACEMENT_3D('',#1082,#835,#836);
#704=AXIS2_PLACEMENT_3D('',#1084,#837,#838);
#705=AXIS2_PLACEMENT_3D('',#1085,#839,#840);
#706=AXIS2_PLACEMENT_3D('',#1087,#841,#842);
#707=AXIS2_PLACEMENT_3D('',#1089,#843,#844);
#708=AXIS2_PLACEMENT_3D('',#1090,#845,#846);
#709=AXIS2_PLACEMENT_3D('',#1092,#847,#848);
#710=AXIS2_PLACEMENT_3D('',#1094,#849,#850);
#711=AXIS2_PLACEMENT_3D('',#1095,#851,#852);
#712=AXIS2_PLACEMENT_3D('',#1097,#853,#854);
#713=AXIS2_PLACEMENT_3D('',#1099,#855,#856);
#714=AXIS2_PLACEMENT_3D('',#1108,#861,#862);
#715=AXIS2_PLACEMENT_3D('',#1109,#863,#864);
#716=AXIS2_PLACEMENT_3D('',#1111,#865,#866);
#717=AXIS2_PLACEMENT_3D('',#1113,#867,#868);
#718=AXIS2_PLACEMENT_3D('',#1114,#869,#870);
#719=AXIS2_PLACEMENT_3D('',#1116,#871,#872);
#720=AXIS2_PLACEMENT_3D('',#1118,#873,#874);
#721=AXIS2_PLACEMENT_3D('',#1120,#875,#876);
#722=AXIS2_PLACEMENT_3D('',#1122,#877,#878);
#723=AXIS2_PLACEMENT_3D('',#1124,#879,#880);
#724=AXIS2_PLACEMENT_3D('',#1133,#884,#885);
#725=AXIS2_PLACEMENT_3D('',#1144,#891,#892);
#726=AXIS2_PLACEMENT_3D('',#1145,#893,#894);
#727=AXIS2_PLACEMENT_3D('',#1146,#895,#896);
#728=AXIS2_PLACEMENT_3D('',#1147,#897,#898);
#729=AXIS2_PLACEMENT_3D('',#1148,#899,#900);
#730=AXIS2_PLACEMENT_3D('',#1149,#901,#902);
#731=AXIS2_PLACEMENT_3D('',#1150,#903,#904);
#732=AXIS2_PLACEMENT_3D('',#1151,#905,#906);
#733=AXIS2_PLACEMENT_3D('',#1152,#907,#908);
#734=AXIS2_PLACEMENT_3D('',#1153,#909,#910);
#735=AXIS2_PLACEMENT_3D('',#1154,#911,#912);
#736=AXIS2_PLACEMENT_3D('',#1155,#913,#914);
#737=AXIS2_PLACEMENT_3D('',#1156,#915,#916);
#738=AXIS2_PLACEMENT_3D('',#1157,#917,#918);
#739=AXIS2_PLACEMENT_3D('',#1158,#919,#920);
#740=AXIS2_PLACEMENT_3D('',#1159,#921,#922);
#741=AXIS2_PLACEMENT_3D('',#1160,#923,#924);
#742=AXIS2_PLACEMENT_3D('',#1161,#925,#926);
#743=AXIS2_PLACEMENT_3D('',#1162,#927,#928);
#744=AXIS2_PLACEMENT_3D('',#1163,#929,#930);
#745=AXIS2_PLACEMENT_3D('',#1164,#931,#932);
#746=AXIS2_PLACEMENT_3D('',#1165,#933,#934);
#747=AXIS2_PLACEMENT_3D('',#1166,#935,#936);
#748=AXIS2_PLACEMENT_3D('',#1167,#937,#938);
#749=AXIS2_PLACEMENT_3D('',#1168,#939,#940);
#750=AXIS2_PLACEMENT_3D('',#1169,#941,#942);
#751=AXIS2_PLACEMENT_3D('',#1170,#943,#944);
#752=AXIS2_PLACEMENT_3D('',#1171,#945,#946);
#753=AXIS2_PLACEMENT_3D('',#1172,#947,#948);
#754=AXIS2_PLACEMENT_3D('',#1173,#949,#950);
#755=AXIS2_PLACEMENT_3D('',#1174,#951,#952);
#756=AXIS2_PLACEMENT_3D('',#1175,#953,#954);
#757=AXIS2_PLACEMENT_3D('',#1176,#955,#956);
#758=AXIS2_PLACEMENT_3D('',#1177,#957,#958);
#759=AXIS2_PLACEMENT_3D('',#1178,#959,#960);
#760=AXIS2_PLACEMENT_3D('',#1179,#961,#962);
#761=AXIS2_PLACEMENT_3D('',#1180,#963,#964);
#762=AXIS2_PLACEMENT_3D('',#1181,#965,#966);
#763=AXIS2_PLACEMENT_3D('',#1182,#967,#968);
#764=AXIS2_PLACEMENT_3D('',#1183,#969,#970);
#765=AXIS2_PLACEMENT_3D('',#1184,#971,#972);
#766=AXIS2_PLACEMENT_3D('',#1185,#973,#974);
#767=AXIS2_PLACEMENT_3D('',#1186,#975,#976);
#768=AXIS2_PLACEMENT_3D('',#1187,#977,#978);
#769=AXIS2_PLACEMENT_3D('',#1188,#979,#980);
#770=AXIS2_PLACEMENT_3D('',#1189,#981,#982);
#771=AXIS2_PLACEMENT_3D('',#1190,#983,#984);
#772=AXIS2_PLACEMENT_3D('',#1191,#985,#986);
#773=AXIS2_PLACEMENT_3D('',#1192,#987,#988);
#774=AXIS2_PLACEMENT_3D('',#1193,#989,#990);
#775=AXIS2_PLACEMENT_3D('',#1194,#991,#992);
#776=AXIS2_PLACEMENT_3D('',#1195,#993,#994);
#777=AXIS2_PLACEMENT_3D('',#1196,#995,#996);
#778=AXIS2_PLACEMENT_3D('',#1197,#997,#998);
#779=AXIS2_PLACEMENT_3D('',#1198,#999,#1000);
#780=AXIS2_PLACEMENT_3D('',#1199,#1001,#1002);
#781=AXIS2_PLACEMENT_3D('',#1200,#1003,#1004);
#782=AXIS2_PLACEMENT_3D('',#1201,#1005,#1006);
#783=AXIS2_PLACEMENT_3D('',#1202,#1007,#1008);
#784=AXIS2_PLACEMENT_3D('',#1203,#1009,#1010);
#785=AXIS2_PLACEMENT_3D('',#1204,#1011,#1012);
#786=AXIS2_PLACEMENT_3D('',#1205,#1013,#1014);
#787=DIRECTION('',(0.,0.,1.));
#788=DIRECTION('',(1.,0.,0.));
#789=DIRECTION('',(0.,1.,0.));
#790=DIRECTION('',(0.,0.,1.));
#791=DIRECTION('',(1.,0.,0.));
#792=DIRECTION('',(0.,0.,-1.));
#793=DIRECTION('',(1.,0.,0.));
#794=DIRECTION('',(0.,0.,-1.));
#795=DIRECTION('',(1.,-7.88510670898549E-17,0.));
#796=DIRECTION('',(7.88510670898549E-17,1.,0.));
#797=DIRECTION('',(-7.88510670898549E-17,-1.,0.));
#798=DIRECTION('',(0.,0.,-1.));
#799=DIRECTION('',(-7.88510670898549E-17,-1.,0.));
#800=DIRECTION('',(0.,0.,-1.));
#801=DIRECTION('',(0.,-1.,0.));
#802=DIRECTION('',(0.,0.,-1.));
#803=DIRECTION('',(-1.,0.,0.));
#804=DIRECTION('',(0.,0.,-1.));
#805=DIRECTION('',(-1.,0.,0.));
#806=DIRECTION('',(0.,0.,-1.));
#807=DIRECTION('',(1.,-7.88510670898549E-17,0.));
#808=DIRECTION('',(7.88510670898549E-17,1.,0.));
#809=DIRECTION('',(-7.88510670898549E-17,-1.,0.));
#810=DIRECTION('',(0.,0.,-1.));
#811=DIRECTION('',(-7.88510670898549E-17,-1.,0.));
#812=DIRECTION('',(0.,0.,-1.));
#813=DIRECTION('',(0.,1.,0.));
#814=DIRECTION('',(0.,0.,1.));
#815=DIRECTION('',(1.,0.,0.));
#816=DIRECTION('',(0.,0.,-1.));
#817=DIRECTION('',(1.,0.,0.));
#818=DIRECTION('',(0.,0.,-1.));
#819=DIRECTION('',(1.,0.,0.));
#820=DIRECTION('',(0.,0.,-1.));
#821=DIRECTION('',(0.,-1.,0.));
#822=DIRECTION('',(0.,0.,-1.));
#823=DIRECTION('',(0.,-1.,0.));
#824=DIRECTION('',(0.,0.,-1.));
#825=DIRECTION('',(0.,1.,0.));
#826=DIRECTION('',(0.,0.,1.));
#827=DIRECTION('',(1.,0.,0.));
#828=DIRECTION('',(0.,0.,-1.));
#829=DIRECTION('',(1.,0.,0.));
#830=DIRECTION('',(0.,0.,-1.));
#831=DIRECTION('',(0.,0.,-1.));
#832=DIRECTION('',(-1.,0.,0.));
#833=DIRECTION('',(0.,0.,1.));
#834=DIRECTION('',(1.,0.,0.));
#835=DIRECTION('',(0.,0.,1.));
#836=DIRECTION('',(1.,0.,0.));
#837=DIRECTION('',(0.,0.,-1.));
#838=DIRECTION('',(-1.,0.,0.));
#839=DIRECTION('',(0.,0.,1.));
#840=DIRECTION('',(1.,0.,0.));
#841=DIRECTION('',(0.,0.,1.));
#842=DIRECTION('',(1.,0.,0.));
#843=DIRECTION('',(0.,0.,-1.));
#844=DIRECTION('',(-1.,0.,0.));
#845=DIRECTION('',(0.,0.,1.));
#846=DIRECTION('',(1.,0.,0.));
#847=DIRECTION('',(0.,0.,1.));
#848=DIRECTION('',(1.,0.,0.));
#849=DIRECTION('',(0.,0.,-1.));
#850=DIRECTION('',(-1.,0.,0.));
#851=DIRECTION('',(0.,0.,1.));
#852=DIRECTION('',(1.,0.,0.));
#853=DIRECTION('',(0.,0.,1.));
#854=DIRECTION('',(1.,0.,0.));
#855=DIRECTION('',(1.,0.,0.));
#856=DIRECTION('',(0.,0.,-1.));
#857=DIRECTION('',(0.,-1.,0.));
#858=DIRECTION('',(0.,0.,-1.));
#859=DIRECTION('',(0.,-1.,0.));
#860=DIRECTION('',(0.,0.,-1.));
#861=DIRECTION('',(0.,0.,-1.));
#862=DIRECTION('',(-1.,0.,0.));
#863=DIRECTION('',(0.,0.,1.));
#864=DIRECTION('',(1.,0.,0.));
#865=DIRECTION('',(0.,0.,1.));
#866=DIRECTION('',(1.,0.,0.));
#867=DIRECTION('',(0.,0.,1.));
#868=DIRECTION('',(1.,0.,0.));
#869=DIRECTION('',(0.,0.,1.));
#870=DIRECTION('',(1.,0.,0.));
#871=DIRECTION('',(0.,0.,1.));
#872=DIRECTION('',(1.,0.,0.));
#873=DIRECTION('',(0.,0.,1.));
#874=DIRECTION('',(1.,0.,0.));
#875=DIRECTION('',(0.,0.,1.));
#876=DIRECTION('',(1.,0.,0.));
#877=DIRECTION('',(0.,0.,1.));
#878=DIRECTION('',(1.,0.,0.));
#879=DIRECTION('',(0.,0.,1.));
#880=DIRECTION('',(1.,0.,0.));
#881=DIRECTION('',(-7.88510670898549E-17,-1.,0.));
#882=DIRECTION('',(-1.,0.,0.));
#883=DIRECTION('',(-7.88510670898549E-17,-1.,0.));
#884=DIRECTION('',(0.,0.,1.));
#885=DIRECTION('',(1.,0.,0.));
#886=DIRECTION('',(1.,0.,0.));
#887=DIRECTION('',(0.,-1.,0.));
#888=DIRECTION('',(1.,0.,0.));
#889=DIRECTION('',(0.,-1.,0.));
#890=DIRECTION('',(1.,0.,0.));
#891=DIRECTION('',(0.,0.,1.));
#892=DIRECTION('',(1.,0.,0.));
#893=DIRECTION('',(0.,0.,1.));
#894=DIRECTION('',(1.,0.,0.));
#895=DIRECTION('',(0.,0.,1.));
#896=DIRECTION('',(1.,0.,0.));
#897=DIRECTION('',(0.,0.,1.));
#898=DIRECTION('',(1.,0.,0.));
#899=DIRECTION('',(0.,0.,1.));
#900=DIRECTION('',(1.,0.,0.));
#901=DIRECTION('',(0.,0.,1.));
#902=DIRECTION('',(1.,0.,0.));
#903=DIRECTION('',(0.,0.,1.));
#904=DIRECTION('',(1.,0.,0.));
#905=DIRECTION('',(0.,0.,1.));
#906=DIRECTION('',(1.,0.,0.));
#907=DIRECTION('',(0.,0.,1.));
#908=DIRECTION('',(1.,0.,0.));
#909=DIRECTION('',(0.,0.,1.));
#910=DIRECTION('',(1.,0.,0.));
#911=DIRECTION('',(0.,0.,1.));
#912=DIRECTION('',(1.,0.,0.));
#913=DIRECTION('',(-1.,0.,0.));
#914=DIRECTION('',(0.,0.,1.));
#915=DIRECTION('',(-1.,0.,0.));
#916=DIRECTION('',(0.,0.,1.));
#917=DIRECTION('',(0.,1.,0.));
#918=DIRECTION('',(0.,0.,1.));
#919=DIRECTION('',(0.,0.,-1.));
#920=DIRECTION('',(-1.,0.,0.));
#921=DIRECTION('',(0.,0.,1.));
#922=DIRECTION('',(1.,0.,0.));
#923=DIRECTION('',(0.,1.,0.));
#924=DIRECTION('',(0.,0.,1.));
#925=DIRECTION('',(0.,-1.,0.));
#926=DIRECTION('',(0.,0.,-1.));
#927=DIRECTION('',(1.,0.,0.));
#928=DIRECTION('',(0.,0.,-1.));
#929=DIRECTION('',(1.,0.,3.46944695195361E-15));
#930=DIRECTION('',(3.46944695195361E-15,0.,-1.));
#931=DIRECTION('',(0.,0.,-1.));
#932=DIRECTION('',(-1.,0.,0.));
#933=DIRECTION('',(0.,0.,1.));
#934=DIRECTION('',(1.,0.,0.));
#935=DIRECTION('',(-1.,0.,0.));
#936=DIRECTION('',(0.,0.,1.));
#937=DIRECTION('',(-1.,0.,0.));
#938=DIRECTION('',(0.,0.,1.));
#939=DIRECTION('',(3.46944695195361E-15,1.,0.));
#940=DIRECTION('',(-1.,3.46944695195361E-15,0.));
#941=DIRECTION('',(0.,1.,0.));
#942=DIRECTION('',(0.,0.,1.));
#943=DIRECTION('',(0.,0.,1.));
#944=DIRECTION('',(1.,0.,0.));
#945=DIRECTION('',(0.,0.,1.));
#946=DIRECTION('',(1.,0.,0.));
#947=DIRECTION('',(-1.,0.,0.));
#948=DIRECTION('',(0.,0.,1.));
#949=DIRECTION('',(1.,0.,0.));
#950=DIRECTION('',(0.,0.,-1.));
#951=DIRECTION('',(0.,-1.,0.));
#952=DIRECTION('',(0.,0.,-1.));
#953=DIRECTION('',(0.,-1.,0.));
#954=DIRECTION('',(0.,0.,-1.));
#955=DIRECTION('',(0.,0.,1.));
#956=DIRECTION('',(1.,0.,0.));
#957=DIRECTION('',(0.,0.,1.));
#958=DIRECTION('',(1.,0.,0.));
#959=DIRECTION('',(0.,0.,1.));
#960=DIRECTION('',(1.,0.,0.));
#961=DIRECTION('',(0.,1.,0.));
#962=DIRECTION('',(0.,0.,1.));
#963=DIRECTION('',(1.,0.,0.));
#964=DIRECTION('',(0.,0.,-1.));
#965=DIRECTION('',(1.,0.,0.));
#966=DIRECTION('',(0.,0.,-1.));
#967=DIRECTION('',(0.,0.,1.));
#968=DIRECTION('',(1.,0.,0.));
#969=DIRECTION('',(0.,0.,1.));
#970=DIRECTION('',(1.,0.,0.));
#971=DIRECTION('',(7.88510670898549E-17,1.,0.));
#972=DIRECTION('',(-1.,7.88510670898549E-17,0.));
#973=DIRECTION('',(0.,-1.,0.));
#974=DIRECTION('',(0.,0.,-1.));
#975=DIRECTION('',(-1.,0.,0.));
#976=DIRECTION('',(0.,0.,1.));
#977=DIRECTION('',(-1.,0.,0.));
#978=DIRECTION('',(0.,0.,1.));
#979=DIRECTION('',(0.,0.,-1.));
#980=DIRECTION('',(-1.,0.,0.));
#981=DIRECTION('',(0.,0.,1.));
#982=DIRECTION('',(1.,0.,0.));
#983=DIRECTION('',(-1.,0.,0.));
#984=DIRECTION('',(0.,0.,1.));
#985=DIRECTION('',(-1.,0.,0.));
#986=DIRECTION('',(0.,0.,1.));
#987=DIRECTION('',(0.,0.,1.));
#988=DIRECTION('',(1.,0.,0.));
#989=DIRECTION('',(0.,1.,0.));
#990=DIRECTION('',(0.,0.,1.));
#991=DIRECTION('',(-1.,0.,0.));
#992=DIRECTION('',(0.,0.,1.));
#993=DIRECTION('',(1.,0.,0.));
#994=DIRECTION('',(0.,0.,-1.));
#995=DIRECTION('',(-7.88510670898549E-17,-1.,0.));
#996=DIRECTION('',(1.,-7.88510670898549E-17,0.));
#997=DIRECTION('',(0.,-1.,0.));
#998=DIRECTION('',(0.,0.,-1.));
#999=DIRECTION('',(0.,0.,1.));
#1000=DIRECTION('',(1.,0.,0.));
#1001=DIRECTION('',(0.,0.,1.));
#1002=DIRECTION('',(1.,0.,0.));
#1003=DIRECTION('',(0.,0.,-1.));
#1004=DIRECTION('',(-1.,0.,0.));
#1005=DIRECTION('',(0.,0.,1.));
#1006=DIRECTION('',(1.,0.,0.));
#1007=DIRECTION('',(0.,0.,1.));
#1008=DIRECTION('',(1.,0.,0.));
#1009=DIRECTION('',(0.,0.,1.));
#1010=DIRECTION('',(1.,0.,0.));
#1011=DIRECTION('',(0.,0.,1.));
#1012=DIRECTION('',(1.,0.,0.));
#1013=DIRECTION('',(0.,0.,1.));
#1014=DIRECTION('',(1.,0.,0.));
#1015=CARTESIAN_POINT('',(0.,0.,0.));
#1016=CARTESIAN_POINT('',(-0.019,0.014,0.003));
#1017=CARTESIAN_POINT('',(-0.019,0.014,0.));
#1018=CARTESIAN_POINT('',(-0.029,0.014,0.));
#1019=CARTESIAN_POINT('',(-0.009,0.014,0.));
#1020=CARTESIAN_POINT('',(-0.009,0.014,0.003));
#1021=CARTESIAN_POINT('',(-0.009,0.014,0.002));
#1022=CARTESIAN_POINT('',(-0.03,0.014,0.002));
#1023=CARTESIAN_POINT('',(-0.029,0.014,0.002));
#1024=CARTESIAN_POINT('',(-0.029,0.014,0.003));
#1025=CARTESIAN_POINT('',(-0.008,-0.008,0.003));
#1026=CARTESIAN_POINT('',(-0.008,-0.008,0.));
#1027=CARTESIAN_POINT('',(-0.008,0.013,0.));
#1028=CARTESIAN_POINT('',(-0.008,-0.029,0.));
#1029=CARTESIAN_POINT('',(-0.008,-0.029,0.003));
#1030=CARTESIAN_POINT('',(-0.008,-0.029,0.002));
#1031=CARTESIAN_POINT('',(-0.008,0.014,0.002));
#1032=CARTESIAN_POINT('',(-0.008,0.013,0.002));
#1033=CARTESIAN_POINT('',(-0.008,0.013,0.));
#1034=CARTESIAN_POINT('',(-1.7347234759768E-18,-0.03,0.003));
#1035=CARTESIAN_POINT('',(-1.7347234759768E-18,-0.03,0.));
#1036=CARTESIAN_POINT('',(0.007,-0.03,0.));
#1037=CARTESIAN_POINT('',(-0.007,-0.03,0.));
#1038=CARTESIAN_POINT('',(0.007,-0.03,0.003));
#1039=CARTESIAN_POINT('',(0.007,-0.03,0.002));
#1040=CARTESIAN_POINT('',(-1.7347234759768E-18,-0.03,0.002));
#1041=CARTESIAN_POINT('',(-0.007,-0.03,0.002));
#1042=CARTESIAN_POINT('',(-0.007,-0.03,0.));
#1043=CARTESIAN_POINT('',(0.008,-0.008,0.003));
#1044=CARTESIAN_POINT('',(0.008,-0.008,0.002));
#1045=CARTESIAN_POINT('',(0.008,0.013,0.002));
#1046=CARTESIAN_POINT('',(0.008,-0.029,0.002));
#1047=CARTESIAN_POINT('',(0.008,-0.029,0.003));
#1048=CARTESIAN_POINT('',(0.008,-0.029,0.));
#1049=CARTESIAN_POINT('',(0.008,-0.008,0.));
#1050=CARTESIAN_POINT('',(0.008,0.013,0.));
#1051=CARTESIAN_POINT('',(0.008,0.013,0.003));
#1052=CARTESIAN_POINT('',(0.019,0.014,0.003));
#1053=CARTESIAN_POINT('',(0.008,0.014,0.002));
#1054=CARTESIAN_POINT('',(0.029,0.014,0.002));
#1055=CARTESIAN_POINT('',(0.009,0.014,0.002));
#1056=CARTESIAN_POINT('',(0.009,0.014,0.003));
#1057=CARTESIAN_POINT('',(0.009,0.014,0.));
#1058=CARTESIAN_POINT('',(0.019,0.014,0.));
#1059=CARTESIAN_POINT('',(0.029,0.014,0.));
#1060=CARTESIAN_POINT('',(0.029,0.014,0.003));
#1061=CARTESIAN_POINT('',(0.03,0.022,0.003));
#1062=CARTESIAN_POINT('',(0.03,0.022,0.002));
#1063=CARTESIAN_POINT('',(0.03,0.029,0.002));
#1064=CARTESIAN_POINT('',(0.03,0.015,0.002));
#1065=CARTESIAN_POINT('',(0.03,0.015,0.));
#1066=CARTESIAN_POINT('',(0.03,0.015,0.));
#1067=CARTESIAN_POINT('',(0.03,0.022,0.));
#1068=CARTESIAN_POINT('',(0.03,0.029,0.));
#1069=CARTESIAN_POINT('',(0.03,0.029,0.003));
#1070=CARTESIAN_POINT('',(-0.019,0.03,0.003));
#1071=CARTESIAN_POINT('',(-0.019,0.03,0.002));
#1072=CARTESIAN_POINT('',(-0.029,0.03,0.002));
#1073=CARTESIAN_POINT('',(0.029,0.03,0.002));
#1074=CARTESIAN_POINT('',(0.029,0.03,0.003));
#1075=CARTESIAN_POINT('',(0.029,0.03,0.));
#1076=CARTESIAN_POINT('',(-0.019,0.03,0.));
#1077=CARTESIAN_POINT('',(-0.029,0.03,0.));
#1078=CARTESIAN_POINT('',(-0.029,0.03,0.003));
#1079=CARTESIAN_POINT('',(2.60208521396521E-18,0.003,0.003));
#1080=CARTESIAN_POINT('',(2.60208521396521E-18,0.003,0.002));
#1081=CARTESIAN_POINT('',(0.0026,0.003,0.002));
#1082=CARTESIAN_POINT('',(2.60208521396521E-18,0.003,0.));
#1083=CARTESIAN_POINT('',(0.0026,0.003,0.));
#1084=CARTESIAN_POINT('',(0.019,0.022,0.003));
#1085=CARTESIAN_POINT('',(0.019,0.022,0.002));
#1086=CARTESIAN_POINT('',(0.0216,0.022,0.002));
#1087=CARTESIAN_POINT('',(0.019,0.022,0.));
#1088=CARTESIAN_POINT('',(0.0216,0.022,0.));
#1089=CARTESIAN_POINT('',(0.,0.022,0.003));
#1090=CARTESIAN_POINT('',(0.,0.022,0.002));
#1091=CARTESIAN_POINT('',(0.0026,0.022,0.002));
#1092=CARTESIAN_POINT('',(0.,0.022,0.));
#1093=CARTESIAN_POINT('',(0.0026,0.022,0.));
#1094=CARTESIAN_POINT('',(-0.019,0.022,0.003));
#1095=CARTESIAN_POINT('',(-0.019,0.022,0.002));
#1096=CARTESIAN_POINT('',(-0.0164,0.022,0.002));
#1097=CARTESIAN_POINT('',(-0.019,0.022,0.));
#1098=CARTESIAN_POINT('',(-0.0164,0.022,0.));
#1099=CARTESIAN_POINT('',(-0.03,0.022,0.003));
#1100=CARTESIAN_POINT('',(-0.03,0.03,0.002));
#1101=CARTESIAN_POINT('',(-0.03,0.015,0.002));
#1102=CARTESIAN_POINT('',(-0.03,0.029,0.002));
#1103=CARTESIAN_POINT('',(-0.03,0.029,0.));
#1104=CARTESIAN_POINT('',(-0.03,0.029,0.));
#1105=CARTESIAN_POINT('',(-0.03,0.022,0.));
#1106=CARTESIAN_POINT('',(-0.03,0.015,0.));
#1107=CARTESIAN_POINT('',(-0.03,0.015,0.003));
#1108=CARTESIAN_POINT('',(5.20417042793042E-18,-0.019,0.003));
#1109=CARTESIAN_POINT('',(5.20417042793042E-18,-0.019,0.002));
#1110=CARTESIAN_POINT('',(0.00260000000000001,-0.019,0.002));
#1111=CARTESIAN_POINT('',(5.20417042793042E-18,-0.019,0.));
#1112=CARTESIAN_POINT('',(0.00260000000000001,-0.019,0.));
#1113=CARTESIAN_POINT('',(0.,0.,0.003));
#1114=CARTESIAN_POINT('',(2.60208521396521E-18,0.003,0.003));
#1115=CARTESIAN_POINT('',(0.0036,0.003,0.003));
#1116=CARTESIAN_POINT('',(5.20417042793042E-18,-0.019,0.003));
#1117=CARTESIAN_POINT('',(0.00360000000000001,-0.019,0.003));
#1118=CARTESIAN_POINT('',(0.019,0.022,0.003));
#1119=CARTESIAN_POINT('',(0.0226,0.022,0.003));
#1120=CARTESIAN_POINT('',(-0.019,0.022,0.003));
#1121=CARTESIAN_POINT('',(-0.0154,0.022,0.003));
#1122=CARTESIAN_POINT('',(0.,0.022,0.003));
#1123=CARTESIAN_POINT('',(0.0036,0.022,0.003));
#1124=CARTESIAN_POINT('',(-0.009,0.013,0.003));
#1125=CARTESIAN_POINT('',(-0.007,0.013,0.003));
#1126=CARTESIAN_POINT('',(-0.009,0.015,0.003));
#1127=CARTESIAN_POINT('',(-0.007,-0.03,0.003));
#1128=CARTESIAN_POINT('',(-0.007,-0.029,0.003));
#1129=CARTESIAN_POINT('',(0.,-0.029,0.003));
#1130=CARTESIAN_POINT('',(0.007,-0.029,0.003));
#1131=CARTESIAN_POINT('',(0.007,-5.51957469628984E-19,0.003));
#1132=CARTESIAN_POINT('',(0.007,0.013,0.003));
#1133=CARTESIAN_POINT('',(0.009,0.013,0.003));
#1134=CARTESIAN_POINT('',(0.009,0.015,0.003));
#1135=CARTESIAN_POINT('',(0.03,0.015,0.003));
#1136=CARTESIAN_POINT('',(0.029,0.015,0.003));
#1137=CARTESIAN_POINT('',(0.029,0.,0.003));
#1138=CARTESIAN_POINT('',(0.029,0.029,0.003));
#1139=CARTESIAN_POINT('',(0.,0.029,0.003));
#1140=CARTESIAN_POINT('',(-0.029,0.029,0.003));
#1141=CARTESIAN_POINT('',(-0.029,0.014,0.003));
#1142=CARTESIAN_POINT('',(-0.029,0.015,0.003));
#1143=CARTESIAN_POINT('',(-0.008,0.015,0.003));
#1144=CARTESIAN_POINT('',(0.,0.,0.));
#1145=CARTESIAN_POINT('',(0.007,-0.029,0.));
#1146=CARTESIAN_POINT('',(-0.007,-0.029,0.));
#1147=CARTESIAN_POINT('',(-0.009,0.013,0.));
#1148=CARTESIAN_POINT('',(-0.029,0.015,0.));
#1149=CARTESIAN_POINT('',(-0.029,0.029,0.));
#1150=CARTESIAN_POINT('',(0.029,0.029,0.));
#1151=CARTESIAN_POINT('',(0.029,0.015,0.));
#1152=CARTESIAN_POINT('',(0.009,0.013,0.));
#1153=CARTESIAN_POINT('',(-0.029,0.029,0.003));
#1154=CARTESIAN_POINT('',(-0.029,0.029,0.002));
#1155=CARTESIAN_POINT('',(-0.029,0.029,0.002));
#1156=CARTESIAN_POINT('',(-0.029,0.029,0.002));
#1157=CARTESIAN_POINT('',(-0.029,0.029,0.002));
#1158=CARTESIAN_POINT('',(-0.029,0.015,0.003));
#1159=CARTESIAN_POINT('',(-0.029,0.015,0.002));
#1160=CARTESIAN_POINT('',(-0.029,0.,0.002));
#1161=CARTESIAN_POINT('',(-0.029,0.015,0.002));
#1162=CARTESIAN_POINT('',(-0.019,0.029,0.002));
#1163=CARTESIAN_POINT('',(0.029,0.029,0.002));
#1164=CARTESIAN_POINT('',(0.029,0.029,0.003));
#1165=CARTESIAN_POINT('',(0.029,0.029,0.002));
#1166=CARTESIAN_POINT('',(-0.029,0.015,0.002));
#1167=CARTESIAN_POINT('',(-0.029,0.015,0.002));
#1168=CARTESIAN_POINT('',(0.029,0.029,0.002));
#1169=CARTESIAN_POINT('',(0.029,0.029,0.002));
#1170=CARTESIAN_POINT('',(-0.009,0.013,0.003));
#1171=CARTESIAN_POINT('',(-0.009,0.013,0.002));
#1172=CARTESIAN_POINT('',(0.,0.015,0.002));
#1173=CARTESIAN_POINT('',(-0.009,0.015,0.002));
#1174=CARTESIAN_POINT('',(0.029,0.022,0.002));
#1175=CARTESIAN_POINT('',(0.029,0.015,0.002));
#1176=CARTESIAN_POINT('',(0.029,0.015,0.003));
#1177=CARTESIAN_POINT('',(0.029,0.015,0.002));
#1178=CARTESIAN_POINT('',(-0.009,0.013,0.002));
#1179=CARTESIAN_POINT('',(-0.007,0.013,0.002));
#1180=CARTESIAN_POINT('',(0.029,0.015,0.002));
#1181=CARTESIAN_POINT('',(0.029,0.015,0.002));
#1182=CARTESIAN_POINT('',(-0.007,-0.029,0.003));
#1183=CARTESIAN_POINT('',(-0.007,-0.029,0.002));
#1184=CARTESIAN_POINT('',(-0.007,5.51957469628984E-19,0.002));
#1185=CARTESIAN_POINT('',(-0.007,-0.029,0.002));
#1186=CARTESIAN_POINT('',(0.,0.015,0.002));
#1187=CARTESIAN_POINT('',(0.009,0.015,0.002));
#1188=CARTESIAN_POINT('',(0.009,0.013,0.003));
#1189=CARTESIAN_POINT('',(0.009,0.013,0.002));
#1190=CARTESIAN_POINT('',(-0.007,-0.029,0.002));
#1191=CARTESIAN_POINT('',(-0.007,-0.029,0.002));
#1192=CARTESIAN_POINT('',(0.009,0.013,0.002));
#1193=CARTESIAN_POINT('',(0.007,0.013,0.002));
#1194=CARTESIAN_POINT('',(-1.7347234759768E-18,-0.029,0.002));
#1195=CARTESIAN_POINT('',(0.007,-0.029,0.002));
#1196=CARTESIAN_POINT('',(0.007,-0.008,0.002));
#1197=CARTESIAN_POINT('',(0.007,-0.029,0.002));
#1198=CARTESIAN_POINT('',(0.007,-0.029,0.002));
#1199=CARTESIAN_POINT('',(0.007,-0.029,0.002));
#1200=CARTESIAN_POINT('',(0.007,-0.029,0.003));
#1201=CARTESIAN_POINT('',(2.60208521396521E-18,0.003,0.002));
#1202=CARTESIAN_POINT('',(5.20417042793042E-18,-0.019,0.002));
#1203=CARTESIAN_POINT('',(0.019,0.022,0.002));
#1204=CARTESIAN_POINT('',(-0.019,0.022,0.002));
#1205=CARTESIAN_POINT('',(0.,0.022,0.002));
#1206=MECHANICAL_DESIGN_GEOMETRIC_PRESENTATION_REPRESENTATION('',(#682),
#1207);
#1207=(
GEOMETRIC_REPRESENTATION_CONTEXT(3)
GLOBAL_UNCERTAINTY_ASSIGNED_CONTEXT((#1208))
GLOBAL_UNIT_ASSIGNED_CONTEXT((#1211,#1210,#1209))
REPRESENTATION_CONTEXT('T Bracket','TOP_LEVEL_ASSEMBLY_PART')
);
#1208=UNCERTAINTY_MEASURE_WITH_UNIT(LENGTH_MEASURE(1.E-8),#1211,
'DISTANCE_ACCURACY_VALUE','Maximum Tolerance applied to model');
#1209=(
NAMED_UNIT(*)
SI_UNIT($,.STERADIAN.)
SOLID_ANGLE_UNIT()
);
#1210=(
NAMED_UNIT(*)
PLANE_ANGLE_UNIT()
SI_UNIT($,.RADIAN.)
);
#1211=(
LENGTH_UNIT()
NAMED_UNIT(*)
SI_UNIT($,.METRE.)
);
#1212=PRODUCT_DEFINITION_SHAPE('','',#1213);
#1213=PRODUCT_DEFINITION('','',#1215,#1214);
#1214=PRODUCT_DEFINITION_CONTEXT('',#1221,'design');
#1215=PRODUCT_DEFINITION_FORMATION_WITH_SPECIFIED_SOURCE('','',#1217,
 .NOT_KNOWN.);
#1216=PRODUCT_RELATED_PRODUCT_CATEGORY('','',(#1217));
#1217=PRODUCT('T Bracket','T Bracket','T Bracket',(#1219));
#1218=PRODUCT_CATEGORY('','');
#1219=PRODUCT_CONTEXT('',#1221,'mechanical');
#1220=APPLICATION_PROTOCOL_DEFINITION('international standard',
'ap242_managed_model_based_3d_engineering',2020,#1221);
#1221=APPLICATION_CONTEXT('managed model based 3d engineering');
ENDSEC;
END-ISO-10303-21;
