ISO-10303-21;
HEADER;
/* Generated by software containing ST-Developer
 * from STEP Tools, Inc. (www.steptools.com) 
 */
/* OPTION: using custom renumber hook */

FILE_DESCRIPTION(
/* description */ ('STEP AP242 Edition 2',
'CAx-IF Rec.Pracs.---Representation and Presentation of Product Manufa
cturing Information (PMI)---4.0---2014-10-13',
'CAx-IF Rec.Pracs.---3D Tessellated Geometry---0.4---2014-09-14','2;1',
'CAx-IF Rec.Pracs.---User Defined Attributes---1.5---2016-08-15'),
/* implementation_level */ '2;1');

FILE_NAME(
/* name */ 'y axis bearing bracket - y axis bearing bracket',
/* time_stamp */ '2026-09-11T14:30:03Z',
/* author */ (''),
/* organization */ (''),
/* preprocessor_version */ 'ST-DEVELOPER v20',
/* originating_system */ 'ONSHAPE BY PTC INC, 1.220',
/* authorisation */ '  ');

FILE_SCHEMA (('AP242_MANAGED_MODEL_BASED_3D_ENGINEERING_MIM_LF { 1 0 10303 442 3 1 4 }'));
ENDSEC;

DATA;
#10=SHAPE_REPRESENTATION_RELATIONSHIP('','',#1200,#11);
#11=ADVANCED_BREP_SHAPE_REPRESENTATION('',(#1198),#2050);
#12=SPHERICAL_SURFACE('',#1266,0.002);
#13=SPHERICAL_SURFACE('',#1283,0.002);
#14=SPHERICAL_SURFACE('',#1285,0.002);
#15=SPHERICAL_SURFACE('',#1287,0.002);
#16=SPHERICAL_SURFACE('',#1300,0.002);
#17=SPHERICAL_SURFACE('',#1302,0.002);
#18=SPHERICAL_SURFACE('',#1319,0.002);
#19=SPHERICAL_SURFACE('',#1325,0.002);
#20=TOROIDAL_SURFACE('',#1263,0.01,0.002);
#21=TOROIDAL_SURFACE('',#1304,0.004,0.002);
#22=TOROIDAL_SURFACE('',#1317,0.004,0.002);
#23=TOROIDAL_SURFACE('',#1330,0.006,0.002);
#24=ELLIPSE('',#1249,0.00282842712474621,0.002);
#25=ELLIPSE('',#1261,0.00282842712474619,0.002);
#26=ELLIPSE('',#1308,0.00282842712474619,0.002);
#27=ELLIPSE('',#1334,0.00282842712474619,0.002);
#28=CYLINDRICAL_SURFACE('',#1212,0.0025);
#29=CYLINDRICAL_SURFACE('',#1215,0.0025);
#30=CYLINDRICAL_SURFACE('',#1223,0.004);
#31=CYLINDRICAL_SURFACE('',#1238,0.008);
#32=CYLINDRICAL_SURFACE('',#1252,0.005);
#33=CYLINDRICAL_SURFACE('',#1255,0.005);
#34=CYLINDRICAL_SURFACE('',#1260,0.002);
#35=CYLINDRICAL_SURFACE('',#1265,0.002);
#36=CYLINDRICAL_SURFACE('',#1270,0.002);
#37=CYLINDRICAL_SURFACE('',#1273,0.002);
#38=CYLINDRICAL_SURFACE('',#1275,0.002);
#39=CYLINDRICAL_SURFACE('',#1277,0.002);
#40=CYLINDRICAL_SURFACE('',#1279,0.002);
#41=CYLINDRICAL_SURFACE('',#1281,0.002);
#42=CYLINDRICAL_SURFACE('',#1290,0.002);
#43=CYLINDRICAL_SURFACE('',#1292,0.002);
#44=CYLINDRICAL_SURFACE('',#1294,0.002);
#45=CYLINDRICAL_SURFACE('',#1296,0.002);
#46=CYLINDRICAL_SURFACE('',#1298,0.002);
#47=CYLINDRICAL_SURFACE('',#1307,0.002);
#48=CYLINDRICAL_SURFACE('',#1309,0.002);
#49=CYLINDRICAL_SURFACE('',#1311,0.002);
#50=CYLINDRICAL_SURFACE('',#1313,0.002);
#51=CYLINDRICAL_SURFACE('',#1315,0.002);
#52=CYLINDRICAL_SURFACE('',#1321,0.002);
#53=CYLINDRICAL_SURFACE('',#1323,0.002);
#54=CYLINDRICAL_SURFACE('',#1327,0.002);
#55=CYLINDRICAL_SURFACE('',#1328,0.002);
#56=CYLINDRICAL_SURFACE('',#1329,0.002);
#57=CYLINDRICAL_SURFACE('',#1333,0.002);
#58=CYLINDRICAL_SURFACE('',#1335,0.002);
#59=LINE('',#1716,#164);
#60=LINE('',#1718,#165);
#61=LINE('',#1722,#166);
#62=LINE('',#1724,#167);
#63=LINE('',#1726,#168);
#64=LINE('',#1728,#169);
#65=LINE('',#1730,#170);
#66=LINE('',#1732,#171);
#67=LINE('',#1734,#172);
#68=LINE('',#1736,#173);
#69=LINE('',#1741,#174);
#70=LINE('',#1743,#175);
#71=LINE('',#1745,#176);
#72=LINE('',#1747,#177);
#73=LINE('',#1753,#178);
#74=LINE('',#1755,#179);
#75=LINE('',#1756,#180);
#76=LINE('',#1759,#181);
#77=LINE('',#1763,#182);
#78=LINE('',#1766,#183);
#79=LINE('',#1768,#184);
#80=LINE('',#1770,#185);
#81=LINE('',#1772,#186);
#82=LINE('',#1774,#187);
#83=LINE('',#1776,#188);
#84=LINE('',#1784,#189);
#85=LINE('',#1788,#190);
#86=LINE('',#1790,#191);
#87=LINE('',#1792,#192);
#88=LINE('',#1794,#193);
#89=LINE('',#1796,#194);
#90=LINE('',#1797,#195);
#91=LINE('',#1799,#196);
#92=LINE('',#1804,#197);
#93=LINE('',#1808,#198);
#94=LINE('',#1810,#199);
#95=LINE('',#1812,#200);
#96=LINE('',#1817,#201);
#97=LINE('',#1821,#202);
#98=LINE('',#1824,#203);
#99=LINE('',#1825,#204);
#100=LINE('',#1827,#205);
#101=LINE('',#1828,#206);
#102=LINE('',#1830,#207);
#103=LINE('',#1833,#208);
#104=LINE('',#1835,#209);
#105=LINE('',#1837,#210);
#106=LINE('',#1839,#211);
#107=LINE('',#1842,#212);
#108=LINE('',#1844,#213);
#109=LINE('',#1846,#214);
#110=LINE('',#1848,#215);
#111=LINE('',#1851,#216);
#112=LINE('',#1853,#217);
#113=LINE('',#1855,#218);
#114=LINE('',#1857,#219);
#115=LINE('',#1860,#220);
#116=LINE('',#1862,#221);
#117=LINE('',#1864,#222);
#118=LINE('',#1866,#223);
#119=LINE('',#1869,#224);
#120=LINE('',#1870,#225);
#121=LINE('',#1872,#226);
#122=LINE('',#1874,#227);
#123=LINE('',#1876,#228);
#124=LINE('',#1878,#229);
#125=LINE('',#1880,#230);
#126=LINE('',#1882,#231);
#127=LINE('',#1885,#232);
#128=LINE('',#1886,#233);
#129=LINE('',#1887,#234);
#130=LINE('',#1889,#235);
#131=LINE('',#1894,#236);
#132=LINE('',#1896,#237);
#133=LINE('',#1897,#238);
#134=LINE('',#1900,#239);
#135=LINE('',#1902,#240);
#136=LINE('',#1906,#241);
#137=LINE('',#1908,#242);
#138=LINE('',#1910,#243);
#139=LINE('',#1912,#244);
#140=LINE('',#1914,#245);
#141=LINE('',#1916,#246);
#142=LINE('',#1918,#247);
#143=LINE('',#1923,#248);
#144=LINE('',#1927,#249);
#145=LINE('',#1929,#250);
#146=LINE('',#1931,#251);
#147=LINE('',#1933,#252);
#148=LINE('',#1934,#253);
#149=LINE('',#1937,#254);
#150=LINE('',#1939,#255);
#151=LINE('',#1940,#256);
#152=LINE('',#1943,#257);
#153=LINE('',#1944,#258);
#154=LINE('',#1948,#259);
#155=LINE('',#1950,#260);
#156=LINE('',#1952,#261);
#157=LINE('',#1954,#262);
#158=LINE('',#1956,#263);
#159=LINE('',#1961,#264);
#160=LINE('',#1965,#265);
#161=LINE('',#1967,#266);
#162=LINE('',#1969,#267);
#163=LINE('',#1971,#268);
#164=VECTOR('',#1342,1.);
#165=VECTOR('',#1343,1.);
#166=VECTOR('',#1346,1.);
#167=VECTOR('',#1347,1.);
#168=VECTOR('',#1348,1.);
#169=VECTOR('',#1349,1.);
#170=VECTOR('',#1350,1.);
#171=VECTOR('',#1351,1.);
#172=VECTOR('',#1352,1.);
#173=VECTOR('',#1355,1.);
#174=VECTOR('',#1358,1.);
#175=VECTOR('',#1359,1.);
#176=VECTOR('',#1360,1.);
#177=VECTOR('',#1361,1.);
#178=VECTOR('',#1366,1.);
#179=VECTOR('',#1367,1.);
#180=VECTOR('',#1368,1.);
#181=VECTOR('',#1369,1.);
#182=VECTOR('',#1374,1.);
#183=VECTOR('',#1375,1.);
#184=VECTOR('',#1376,1.);
#185=VECTOR('',#1377,1.);
#186=VECTOR('',#1380,1.);
#187=VECTOR('',#1381,1.);
#188=VECTOR('',#1382,1.);
#189=VECTOR('',#1393,1.);
#190=VECTOR('',#1396,1.);
#191=VECTOR('',#1399,1.);
#192=VECTOR('',#1400,1.);
#193=VECTOR('',#1401,1.);
#194=VECTOR('',#1404,1.);
#195=VECTOR('',#1405,1.);
#196=VECTOR('',#1408,1.);
#197=VECTOR('',#1411,1.);
#198=VECTOR('',#1414,1.);
#199=VECTOR('',#1415,1.);
#200=VECTOR('',#1418,1.);
#201=VECTOR('',#1421,1.);
#202=VECTOR('',#1426,1.);
#203=VECTOR('',#1427,1.);
#204=VECTOR('',#1428,1.);
#205=VECTOR('',#1431,1.);
#206=VECTOR('',#1432,1.);
#207=VECTOR('',#1435,1.);
#208=VECTOR('',#1436,1.);
#209=VECTOR('',#1437,1.);
#210=VECTOR('',#1438,1.);
#211=VECTOR('',#1441,1.);
#212=VECTOR('',#1442,1.);
#213=VECTOR('',#1443,1.);
#214=VECTOR('',#1444,1.);
#215=VECTOR('',#1447,1.);
#216=VECTOR('',#1448,1.);
#217=VECTOR('',#1449,1.);
#218=VECTOR('',#1450,1.);
#219=VECTOR('',#1453,1.);
#220=VECTOR('',#1454,1.);
#221=VECTOR('',#1455,1.);
#222=VECTOR('',#1456,1.);
#223=VECTOR('',#1459,1.);
#224=VECTOR('',#1460,1.);
#225=VECTOR('',#1461,1.);
#226=VECTOR('',#1464,1.);
#227=VECTOR('',#1465,1.);
#228=VECTOR('',#1466,1.);
#229=VECTOR('',#1467,1.);
#230=VECTOR('',#1468,1.);
#231=VECTOR('',#1471,1.);
#232=VECTOR('',#1472,1.);
#233=VECTOR('',#1473,1.);
#234=VECTOR('',#1474,1.);
#235=VECTOR('',#1475,1.);
#236=VECTOR('',#1480,1.);
#237=VECTOR('',#1481,1.);
#238=VECTOR('',#1482,1.);
#239=VECTOR('',#1483,1.);
#240=VECTOR('',#1484,1.);
#241=VECTOR('',#1487,1.);
#242=VECTOR('',#1488,1.);
#243=VECTOR('',#1489,1.);
#244=VECTOR('',#1490,1.);
#245=VECTOR('',#1491,1.);
#246=VECTOR('',#1492,1.);
#247=VECTOR('',#1495,1.);
#248=VECTOR('',#1498,1.);
#249=VECTOR('',#1503,1.);
#250=VECTOR('',#1504,1.);
#251=VECTOR('',#1505,1.);
#252=VECTOR('',#1508,1.);
#253=VECTOR('',#1509,1.);
#254=VECTOR('',#1514,1.);
#255=VECTOR('',#1517,1.);
#256=VECTOR('',#1518,1.);
#257=VECTOR('',#1523,1.);
#258=VECTOR('',#1524,1.);
#259=VECTOR('',#1531,1.);
#260=VECTOR('',#1532,1.);
#261=VECTOR('',#1533,1.);
#262=VECTOR('',#1536,1.);
#263=VECTOR('',#1537,1.);
#264=VECTOR('',#1546,1.);
#265=VECTOR('',#1549,1.);
#266=VECTOR('',#1552,1.);
#267=VECTOR('',#1553,1.);
#268=VECTOR('',#1556,1.);
#269=ORIENTED_EDGE('',*,*,#601,.T.);
#270=ORIENTED_EDGE('',*,*,#602,.T.);
#271=ORIENTED_EDGE('',*,*,#603,.T.);
#272=ORIENTED_EDGE('',*,*,#604,.F.);
#273=ORIENTED_EDGE('',*,*,#605,.T.);
#274=ORIENTED_EDGE('',*,*,#606,.T.);
#275=ORIENTED_EDGE('',*,*,#607,.T.);
#276=ORIENTED_EDGE('',*,*,#608,.T.);
#277=ORIENTED_EDGE('',*,*,#609,.T.);
#278=ORIENTED_EDGE('',*,*,#610,.T.);
#279=ORIENTED_EDGE('',*,*,#611,.T.);
#280=ORIENTED_EDGE('',*,*,#612,.T.);
#281=ORIENTED_EDGE('',*,*,#613,.T.);
#282=ORIENTED_EDGE('',*,*,#614,.F.);
#283=ORIENTED_EDGE('',*,*,#615,.T.);
#284=ORIENTED_EDGE('',*,*,#616,.T.);
#285=ORIENTED_EDGE('',*,*,#617,.T.);
#286=ORIENTED_EDGE('',*,*,#618,.T.);
#287=ORIENTED_EDGE('',*,*,#619,.F.);
#288=ORIENTED_EDGE('',*,*,#620,.F.);
#289=ORIENTED_EDGE('',*,*,#621,.T.);
#290=ORIENTED_EDGE('',*,*,#622,.F.);
#291=ORIENTED_EDGE('',*,*,#623,.T.);
#292=ORIENTED_EDGE('',*,*,#624,.F.);
#293=ORIENTED_EDGE('',*,*,#625,.T.);
#294=ORIENTED_EDGE('',*,*,#626,.F.);
#295=ORIENTED_EDGE('',*,*,#627,.F.);
#296=ORIENTED_EDGE('',*,*,#628,.F.);
#297=ORIENTED_EDGE('',*,*,#629,.T.);
#298=ORIENTED_EDGE('',*,*,#630,.F.);
#299=ORIENTED_EDGE('',*,*,#631,.T.);
#300=ORIENTED_EDGE('',*,*,#627,.T.);
#301=ORIENTED_EDGE('',*,*,#632,.T.);
#302=ORIENTED_EDGE('',*,*,#625,.F.);
#303=ORIENTED_EDGE('',*,*,#633,.T.);
#304=ORIENTED_EDGE('',*,*,#630,.T.);
#305=ORIENTED_EDGE('',*,*,#634,.T.);
#306=ORIENTED_EDGE('',*,*,#635,.F.);
#307=ORIENTED_EDGE('',*,*,#636,.T.);
#308=ORIENTED_EDGE('',*,*,#637,.T.);
#309=ORIENTED_EDGE('',*,*,#635,.T.);
#310=ORIENTED_EDGE('',*,*,#638,.F.);
#311=ORIENTED_EDGE('',*,*,#639,.F.);
#312=ORIENTED_EDGE('',*,*,#640,.F.);
#313=ORIENTED_EDGE('',*,*,#641,.T.);
#314=ORIENTED_EDGE('',*,*,#637,.F.);
#315=ORIENTED_EDGE('',*,*,#642,.T.);
#316=ORIENTED_EDGE('',*,*,#639,.T.);
#317=ORIENTED_EDGE('',*,*,#642,.F.);
#318=ORIENTED_EDGE('',*,*,#636,.F.);
#319=ORIENTED_EDGE('',*,*,#640,.T.);
#320=ORIENTED_EDGE('',*,*,#643,.T.);
#321=ORIENTED_EDGE('',*,*,#644,.T.);
#322=ORIENTED_EDGE('',*,*,#645,.F.);
#323=ORIENTED_EDGE('',*,*,#646,.T.);
#324=ORIENTED_EDGE('',*,*,#647,.F.);
#325=ORIENTED_EDGE('',*,*,#648,.T.);
#326=ORIENTED_EDGE('',*,*,#628,.T.);
#327=ORIENTED_EDGE('',*,*,#631,.F.);
#328=ORIENTED_EDGE('',*,*,#633,.F.);
#329=ORIENTED_EDGE('',*,*,#649,.F.);
#330=ORIENTED_EDGE('',*,*,#650,.T.);
#331=ORIENTED_EDGE('',*,*,#651,.T.);
#332=ORIENTED_EDGE('',*,*,#652,.T.);
#333=ORIENTED_EDGE('',*,*,#653,.F.);
#334=ORIENTED_EDGE('',*,*,#654,.T.);
#335=ORIENTED_EDGE('',*,*,#649,.T.);
#336=ORIENTED_EDGE('',*,*,#655,.F.);
#337=ORIENTED_EDGE('',*,*,#651,.F.);
#338=ORIENTED_EDGE('',*,*,#656,.T.);
#339=ORIENTED_EDGE('',*,*,#653,.T.);
#340=ORIENTED_EDGE('',*,*,#657,.T.);
#341=ORIENTED_EDGE('',*,*,#658,.T.);
#342=ORIENTED_EDGE('',*,*,#659,.T.);
#343=ORIENTED_EDGE('',*,*,#660,.T.);
#344=ORIENTED_EDGE('',*,*,#661,.T.);
#345=ORIENTED_EDGE('',*,*,#662,.T.);
#346=ORIENTED_EDGE('',*,*,#663,.T.);
#347=ORIENTED_EDGE('',*,*,#664,.T.);
#348=ORIENTED_EDGE('',*,*,#665,.T.);
#349=ORIENTED_EDGE('',*,*,#666,.T.);
#350=ORIENTED_EDGE('',*,*,#667,.T.);
#351=ORIENTED_EDGE('',*,*,#668,.T.);
#352=ORIENTED_EDGE('',*,*,#669,.T.);
#353=ORIENTED_EDGE('',*,*,#670,.T.);
#354=ORIENTED_EDGE('',*,*,#671,.T.);
#355=ORIENTED_EDGE('',*,*,#672,.T.);
#356=ORIENTED_EDGE('',*,*,#673,.T.);
#357=ORIENTED_EDGE('',*,*,#674,.T.);
#358=ORIENTED_EDGE('',*,*,#675,.T.);
#359=ORIENTED_EDGE('',*,*,#670,.F.);
#360=ORIENTED_EDGE('',*,*,#676,.T.);
#361=ORIENTED_EDGE('',*,*,#677,.T.);
#362=ORIENTED_EDGE('',*,*,#678,.T.);
#363=ORIENTED_EDGE('',*,*,#679,.T.);
#364=ORIENTED_EDGE('',*,*,#680,.T.);
#365=ORIENTED_EDGE('',*,*,#681,.T.);
#366=ORIENTED_EDGE('',*,*,#648,.F.);
#367=ORIENTED_EDGE('',*,*,#682,.T.);
#368=ORIENTED_EDGE('',*,*,#683,.T.);
#369=ORIENTED_EDGE('',*,*,#615,.F.);
#370=ORIENTED_EDGE('',*,*,#684,.T.);
#371=ORIENTED_EDGE('',*,*,#681,.F.);
#372=ORIENTED_EDGE('',*,*,#685,.T.);
#373=ORIENTED_EDGE('',*,*,#686,.T.);
#374=ORIENTED_EDGE('',*,*,#687,.T.);
#375=ORIENTED_EDGE('',*,*,#688,.T.);
#376=ORIENTED_EDGE('',*,*,#689,.T.);
#377=ORIENTED_EDGE('',*,*,#690,.T.);
#378=ORIENTED_EDGE('',*,*,#691,.T.);
#379=ORIENTED_EDGE('',*,*,#692,.T.);
#380=ORIENTED_EDGE('',*,*,#693,.F.);
#381=ORIENTED_EDGE('',*,*,#694,.T.);
#382=ORIENTED_EDGE('',*,*,#695,.T.);
#383=ORIENTED_EDGE('',*,*,#696,.T.);
#384=ORIENTED_EDGE('',*,*,#697,.T.);
#385=ORIENTED_EDGE('',*,*,#698,.T.);
#386=ORIENTED_EDGE('',*,*,#699,.F.);
#387=ORIENTED_EDGE('',*,*,#700,.T.);
#388=ORIENTED_EDGE('',*,*,#701,.T.);
#389=ORIENTED_EDGE('',*,*,#702,.F.);
#390=ORIENTED_EDGE('',*,*,#703,.F.);
#391=ORIENTED_EDGE('',*,*,#702,.T.);
#392=ORIENTED_EDGE('',*,*,#704,.T.);
#393=ORIENTED_EDGE('',*,*,#705,.F.);
#394=ORIENTED_EDGE('',*,*,#706,.T.);
#395=ORIENTED_EDGE('',*,*,#705,.T.);
#396=ORIENTED_EDGE('',*,*,#707,.T.);
#397=ORIENTED_EDGE('',*,*,#700,.F.);
#398=ORIENTED_EDGE('',*,*,#708,.F.);
#399=ORIENTED_EDGE('',*,*,#657,.F.);
#400=ORIENTED_EDGE('',*,*,#655,.T.);
#401=ORIENTED_EDGE('',*,*,#652,.F.);
#402=ORIENTED_EDGE('',*,*,#703,.T.);
#403=ORIENTED_EDGE('',*,*,#706,.F.);
#404=ORIENTED_EDGE('',*,*,#708,.T.);
#405=ORIENTED_EDGE('',*,*,#614,.T.);
#406=ORIENTED_EDGE('',*,*,#709,.T.);
#407=ORIENTED_EDGE('',*,*,#643,.F.);
#408=ORIENTED_EDGE('',*,*,#684,.F.);
#409=ORIENTED_EDGE('',*,*,#647,.T.);
#410=ORIENTED_EDGE('',*,*,#710,.T.);
#411=ORIENTED_EDGE('',*,*,#617,.F.);
#412=ORIENTED_EDGE('',*,*,#711,.T.);
#413=ORIENTED_EDGE('',*,*,#699,.T.);
#414=ORIENTED_EDGE('',*,*,#712,.T.);
#415=ORIENTED_EDGE('',*,*,#677,.F.);
#416=ORIENTED_EDGE('',*,*,#645,.T.);
#417=ORIENTED_EDGE('',*,*,#713,.T.);
#418=ORIENTED_EDGE('',*,*,#612,.F.);
#419=ORIENTED_EDGE('',*,*,#714,.T.);
#420=ORIENTED_EDGE('',*,*,#711,.F.);
#421=ORIENTED_EDGE('',*,*,#616,.F.);
#422=ORIENTED_EDGE('',*,*,#683,.F.);
#423=ORIENTED_EDGE('',*,*,#715,.T.);
#424=ORIENTED_EDGE('',*,*,#690,.F.);
#425=ORIENTED_EDGE('',*,*,#623,.F.);
#426=ORIENTED_EDGE('',*,*,#716,.F.);
#427=ORIENTED_EDGE('',*,*,#717,.T.);
#428=ORIENTED_EDGE('',*,*,#718,.T.);
#429=ORIENTED_EDGE('',*,*,#622,.T.);
#430=ORIENTED_EDGE('',*,*,#719,.F.);
#431=ORIENTED_EDGE('',*,*,#720,.F.);
#432=ORIENTED_EDGE('',*,*,#716,.T.);
#433=ORIENTED_EDGE('',*,*,#624,.T.);
#434=ORIENTED_EDGE('',*,*,#718,.F.);
#435=ORIENTED_EDGE('',*,*,#721,.F.);
#436=ORIENTED_EDGE('',*,*,#719,.T.);
#437=ORIENTED_EDGE('',*,*,#717,.F.);
#438=ORIENTED_EDGE('',*,*,#720,.T.);
#439=ORIENTED_EDGE('',*,*,#721,.T.);
#440=ORIENTED_EDGE('',*,*,#641,.F.);
#441=ORIENTED_EDGE('',*,*,#638,.T.);
#442=ORIENTED_EDGE('',*,*,#634,.F.);
#443=ORIENTED_EDGE('',*,*,#619,.T.);
#444=ORIENTED_EDGE('',*,*,#722,.F.);
#445=ORIENTED_EDGE('',*,*,#723,.F.);
#446=ORIENTED_EDGE('',*,*,#724,.T.);
#447=ORIENTED_EDGE('',*,*,#621,.F.);
#448=ORIENTED_EDGE('',*,*,#725,.F.);
#449=ORIENTED_EDGE('',*,*,#726,.T.);
#450=ORIENTED_EDGE('',*,*,#722,.T.);
#451=ORIENTED_EDGE('',*,*,#620,.T.);
#452=ORIENTED_EDGE('',*,*,#724,.F.);
#453=ORIENTED_EDGE('',*,*,#727,.F.);
#454=ORIENTED_EDGE('',*,*,#725,.T.);
#455=ORIENTED_EDGE('',*,*,#629,.F.);
#456=ORIENTED_EDGE('',*,*,#626,.T.);
#457=ORIENTED_EDGE('',*,*,#632,.F.);
#458=ORIENTED_EDGE('',*,*,#723,.T.);
#459=ORIENTED_EDGE('',*,*,#726,.F.);
#460=ORIENTED_EDGE('',*,*,#727,.T.);
#461=ORIENTED_EDGE('',*,*,#728,.F.);
#462=ORIENTED_EDGE('',*,*,#704,.F.);
#463=ORIENTED_EDGE('',*,*,#729,.F.);
#464=ORIENTED_EDGE('',*,*,#689,.F.);
#465=ORIENTED_EDGE('',*,*,#729,.T.);
#466=ORIENTED_EDGE('',*,*,#701,.F.);
#467=ORIENTED_EDGE('',*,*,#730,.F.);
#468=ORIENTED_EDGE('',*,*,#687,.F.);
#469=ORIENTED_EDGE('',*,*,#728,.T.);
#470=ORIENTED_EDGE('',*,*,#688,.F.);
#471=ORIENTED_EDGE('',*,*,#730,.T.);
#472=ORIENTED_EDGE('',*,*,#707,.F.);
#473=ORIENTED_EDGE('',*,*,#731,.F.);
#474=ORIENTED_EDGE('',*,*,#732,.F.);
#475=ORIENTED_EDGE('',*,*,#733,.F.);
#476=ORIENTED_EDGE('',*,*,#734,.F.);
#477=ORIENTED_EDGE('',*,*,#697,.F.);
#478=ORIENTED_EDGE('',*,*,#735,.F.);
#479=ORIENTED_EDGE('',*,*,#675,.F.);
#480=ORIENTED_EDGE('',*,*,#712,.F.);
#481=ORIENTED_EDGE('',*,*,#698,.F.);
#482=ORIENTED_EDGE('',*,*,#736,.F.);
#483=ORIENTED_EDGE('',*,*,#678,.F.);
#484=ORIENTED_EDGE('',*,*,#735,.T.);
#485=ORIENTED_EDGE('',*,*,#696,.F.);
#486=ORIENTED_EDGE('',*,*,#737,.F.);
#487=ORIENTED_EDGE('',*,*,#671,.F.);
#488=ORIENTED_EDGE('',*,*,#732,.T.);
#489=ORIENTED_EDGE('',*,*,#672,.F.);
#490=ORIENTED_EDGE('',*,*,#738,.F.);
#491=ORIENTED_EDGE('',*,*,#666,.F.);
#492=ORIENTED_EDGE('',*,*,#733,.T.);
#493=ORIENTED_EDGE('',*,*,#669,.F.);
#494=ORIENTED_EDGE('',*,*,#739,.F.);
#495=ORIENTED_EDGE('',*,*,#610,.F.);
#496=ORIENTED_EDGE('',*,*,#731,.T.);
#497=ORIENTED_EDGE('',*,*,#609,.F.);
#498=ORIENTED_EDGE('',*,*,#740,.F.);
#499=ORIENTED_EDGE('',*,*,#673,.F.);
#500=ORIENTED_EDGE('',*,*,#736,.T.);
#501=ORIENTED_EDGE('',*,*,#734,.T.);
#502=ORIENTED_EDGE('',*,*,#741,.F.);
#503=ORIENTED_EDGE('',*,*,#738,.T.);
#504=ORIENTED_EDGE('',*,*,#737,.T.);
#505=ORIENTED_EDGE('',*,*,#742,.F.);
#506=ORIENTED_EDGE('',*,*,#743,.F.);
#507=ORIENTED_EDGE('',*,*,#739,.T.);
#508=ORIENTED_EDGE('',*,*,#744,.F.);
#509=ORIENTED_EDGE('',*,*,#740,.T.);
#510=ORIENTED_EDGE('',*,*,#608,.F.);
#511=ORIENTED_EDGE('',*,*,#745,.F.);
#512=ORIENTED_EDGE('',*,*,#676,.F.);
#513=ORIENTED_EDGE('',*,*,#741,.T.);
#514=ORIENTED_EDGE('',*,*,#674,.F.);
#515=ORIENTED_EDGE('',*,*,#746,.F.);
#516=ORIENTED_EDGE('',*,*,#679,.F.);
#517=ORIENTED_EDGE('',*,*,#742,.T.);
#518=ORIENTED_EDGE('',*,*,#695,.F.);
#519=ORIENTED_EDGE('',*,*,#747,.F.);
#520=ORIENTED_EDGE('',*,*,#667,.F.);
#521=ORIENTED_EDGE('',*,*,#744,.T.);
#522=ORIENTED_EDGE('',*,*,#668,.F.);
#523=ORIENTED_EDGE('',*,*,#748,.F.);
#524=ORIENTED_EDGE('',*,*,#662,.F.);
#525=ORIENTED_EDGE('',*,*,#743,.T.);
#526=ORIENTED_EDGE('',*,*,#665,.F.);
#527=ORIENTED_EDGE('',*,*,#749,.F.);
#528=ORIENTED_EDGE('',*,*,#611,.F.);
#529=ORIENTED_EDGE('',*,*,#746,.T.);
#530=ORIENTED_EDGE('',*,*,#745,.T.);
#531=ORIENTED_EDGE('',*,*,#750,.F.);
#532=ORIENTED_EDGE('',*,*,#748,.T.);
#533=ORIENTED_EDGE('',*,*,#747,.T.);
#534=ORIENTED_EDGE('',*,*,#751,.F.);
#535=ORIENTED_EDGE('',*,*,#604,.T.);
#536=ORIENTED_EDGE('',*,*,#749,.T.);
#537=ORIENTED_EDGE('',*,*,#752,.F.);
#538=ORIENTED_EDGE('',*,*,#753,.F.);
#539=ORIENTED_EDGE('',*,*,#750,.T.);
#540=ORIENTED_EDGE('',*,*,#607,.F.);
#541=ORIENTED_EDGE('',*,*,#754,.F.);
#542=ORIENTED_EDGE('',*,*,#680,.F.);
#543=ORIENTED_EDGE('',*,*,#751,.T.);
#544=ORIENTED_EDGE('',*,*,#694,.F.);
#545=ORIENTED_EDGE('',*,*,#755,.F.);
#546=ORIENTED_EDGE('',*,*,#663,.F.);
#547=ORIENTED_EDGE('',*,*,#752,.T.);
#548=ORIENTED_EDGE('',*,*,#664,.F.);
#549=ORIENTED_EDGE('',*,*,#756,.F.);
#550=ORIENTED_EDGE('',*,*,#658,.F.);
#551=ORIENTED_EDGE('',*,*,#753,.T.);
#552=ORIENTED_EDGE('',*,*,#661,.F.);
#553=ORIENTED_EDGE('',*,*,#757,.F.);
#554=ORIENTED_EDGE('',*,*,#605,.F.);
#555=ORIENTED_EDGE('',*,*,#754,.T.);
#556=ORIENTED_EDGE('',*,*,#606,.F.);
#557=ORIENTED_EDGE('',*,*,#758,.F.);
#558=ORIENTED_EDGE('',*,*,#685,.F.);
#559=ORIENTED_EDGE('',*,*,#755,.T.);
#560=ORIENTED_EDGE('',*,*,#693,.T.);
#561=ORIENTED_EDGE('',*,*,#759,.F.);
#562=ORIENTED_EDGE('',*,*,#756,.T.);
#563=ORIENTED_EDGE('',*,*,#758,.T.);
#564=ORIENTED_EDGE('',*,*,#757,.T.);
#565=ORIENTED_EDGE('',*,*,#760,.F.);
#566=ORIENTED_EDGE('',*,*,#759,.T.);
#567=ORIENTED_EDGE('',*,*,#692,.F.);
#568=ORIENTED_EDGE('',*,*,#761,.F.);
#569=ORIENTED_EDGE('',*,*,#659,.F.);
#570=ORIENTED_EDGE('',*,*,#760,.T.);
#571=ORIENTED_EDGE('',*,*,#660,.F.);
#572=ORIENTED_EDGE('',*,*,#762,.F.);
#573=ORIENTED_EDGE('',*,*,#686,.F.);
#574=ORIENTED_EDGE('',*,*,#762,.T.);
#575=ORIENTED_EDGE('',*,*,#761,.T.);
#576=ORIENTED_EDGE('',*,*,#763,.F.);
#577=ORIENTED_EDGE('',*,*,#715,.F.);
#578=ORIENTED_EDGE('',*,*,#682,.F.);
#579=ORIENTED_EDGE('',*,*,#763,.T.);
#580=ORIENTED_EDGE('',*,*,#691,.F.);
#581=ORIENTED_EDGE('',*,*,#613,.F.);
#582=ORIENTED_EDGE('',*,*,#713,.F.);
#583=ORIENTED_EDGE('',*,*,#644,.F.);
#584=ORIENTED_EDGE('',*,*,#709,.F.);
#585=ORIENTED_EDGE('',*,*,#618,.F.);
#586=ORIENTED_EDGE('',*,*,#710,.F.);
#587=ORIENTED_EDGE('',*,*,#646,.F.);
#588=ORIENTED_EDGE('',*,*,#714,.F.);
#589=ORIENTED_EDGE('',*,*,#764,.F.);
#590=ORIENTED_EDGE('',*,*,#601,.F.);
#591=ORIENTED_EDGE('',*,*,#765,.F.);
#592=ORIENTED_EDGE('',*,*,#650,.F.);
#593=ORIENTED_EDGE('',*,*,#765,.T.);
#594=ORIENTED_EDGE('',*,*,#603,.F.);
#595=ORIENTED_EDGE('',*,*,#766,.F.);
#596=ORIENTED_EDGE('',*,*,#656,.F.);
#597=ORIENTED_EDGE('',*,*,#764,.T.);
#598=ORIENTED_EDGE('',*,*,#654,.F.);
#599=ORIENTED_EDGE('',*,*,#766,.T.);
#600=ORIENTED_EDGE('',*,*,#602,.F.);
#601=EDGE_CURVE('',#767,#768,#865,.T.);
#602=EDGE_CURVE('',#768,#769,#59,.T.);
#603=EDGE_CURVE('',#769,#767,#60,.F.);
#604=EDGE_CURVE('',#770,#771,#866,.F.);
#605=EDGE_CURVE('',#770,#772,#61,.F.);
#606=EDGE_CURVE('',#772,#773,#62,.F.);
#607=EDGE_CURVE('',#773,#774,#63,.F.);
#608=EDGE_CURVE('',#774,#775,#64,.F.);
#609=EDGE_CURVE('',#775,#776,#65,.T.);
#610=EDGE_CURVE('',#776,#777,#66,.T.);
#611=EDGE_CURVE('',#777,#771,#67,.T.);
#612=EDGE_CURVE('',#778,#779,#68,.T.);
#613=EDGE_CURVE('',#779,#780,#867,.T.);
#614=EDGE_CURVE('',#781,#780,#69,.T.);
#615=EDGE_CURVE('',#781,#782,#70,.T.);
#616=EDGE_CURVE('',#782,#783,#71,.T.);
#617=EDGE_CURVE('',#783,#784,#72,.T.);
#618=EDGE_CURVE('',#784,#778,#868,.T.);
#619=EDGE_CURVE('',#785,#786,#869,.T.);
#620=EDGE_CURVE('',#787,#785,#73,.T.);
#621=EDGE_CURVE('',#787,#786,#74,.T.);
#622=EDGE_CURVE('',#788,#789,#75,.T.);
#623=EDGE_CURVE('',#788,#790,#76,.T.);
#624=EDGE_CURVE('',#789,#790,#870,.T.);
#625=EDGE_CURVE('',#791,#792,#77,.T.);
#626=EDGE_CURVE('',#793,#792,#78,.T.);
#627=EDGE_CURVE('',#794,#793,#79,.T.);
#628=EDGE_CURVE('',#791,#794,#80,.T.);
#629=EDGE_CURVE('',#793,#795,#81,.T.);
#630=EDGE_CURVE('',#796,#795,#82,.T.);
#631=EDGE_CURVE('',#796,#794,#83,.T.);
#632=EDGE_CURVE('',#795,#792,#871,.T.);
#633=EDGE_CURVE('',#791,#796,#872,.F.);
#634=EDGE_CURVE('',#797,#798,#873,.T.);
#635=EDGE_CURVE('',#799,#798,#84,.T.);
#636=EDGE_CURVE('',#799,#800,#874,.F.);
#637=EDGE_CURVE('',#800,#797,#85,.T.);
#638=EDGE_CURVE('',#801,#798,#86,.T.);
#639=EDGE_CURVE('',#802,#801,#87,.T.);
#640=EDGE_CURVE('',#799,#802,#88,.T.);
#641=EDGE_CURVE('',#801,#797,#89,.T.);
#642=EDGE_CURVE('',#800,#802,#90,.T.);
#643=EDGE_CURVE('',#803,#804,#91,.T.);
#644=EDGE_CURVE('',#804,#805,#875,.F.);
#645=EDGE_CURVE('',#806,#805,#92,.T.);
#646=EDGE_CURVE('',#806,#807,#876,.F.);
#647=EDGE_CURVE('',#808,#807,#93,.T.);
#648=EDGE_CURVE('',#808,#803,#94,.T.);
#649=EDGE_CURVE('',#809,#810,#95,.T.);
#650=EDGE_CURVE('',#809,#811,#877,.F.);
#651=EDGE_CURVE('',#811,#812,#96,.T.);
#652=EDGE_CURVE('',#812,#810,#878,.T.);
#653=EDGE_CURVE('',#813,#814,#97,.T.);
#654=EDGE_CURVE('',#813,#809,#98,.F.);
#655=EDGE_CURVE('',#814,#810,#99,.T.);
#656=EDGE_CURVE('',#811,#813,#100,.T.);
#657=EDGE_CURVE('',#814,#812,#101,.T.);
#658=EDGE_CURVE('',#815,#816,#102,.T.);
#659=EDGE_CURVE('',#816,#817,#103,.F.);
#660=EDGE_CURVE('',#817,#818,#104,.F.);
#661=EDGE_CURVE('',#818,#815,#105,.T.);
#662=EDGE_CURVE('',#819,#820,#106,.T.);
#663=EDGE_CURVE('',#820,#821,#107,.T.);
#664=EDGE_CURVE('',#821,#822,#108,.F.);
#665=EDGE_CURVE('',#822,#819,#109,.F.);
#666=EDGE_CURVE('',#823,#824,#110,.T.);
#667=EDGE_CURVE('',#824,#825,#111,.T.);
#668=EDGE_CURVE('',#825,#826,#112,.F.);
#669=EDGE_CURVE('',#826,#823,#113,.F.);
#670=EDGE_CURVE('',#827,#828,#114,.T.);
#671=EDGE_CURVE('',#828,#829,#115,.T.);
#672=EDGE_CURVE('',#829,#830,#116,.F.);
#673=EDGE_CURVE('',#830,#827,#117,.F.);
#674=EDGE_CURVE('',#831,#832,#118,.T.);
#675=EDGE_CURVE('',#832,#828,#119,.F.);
#676=EDGE_CURVE('',#827,#831,#120,.T.);
#677=EDGE_CURVE('',#808,#833,#121,.T.);
#678=EDGE_CURVE('',#833,#834,#122,.F.);
#679=EDGE_CURVE('',#834,#835,#123,.F.);
#680=EDGE_CURVE('',#835,#836,#124,.T.);
#681=EDGE_CURVE('',#836,#803,#125,.T.);
#682=EDGE_CURVE('',#837,#838,#126,.F.);
#683=EDGE_CURVE('',#838,#782,#127,.F.);
#684=EDGE_CURVE('',#781,#803,#128,.T.);
#685=EDGE_CURVE('',#836,#839,#129,.T.);
#686=EDGE_CURVE('',#839,#837,#130,.T.);
#687=EDGE_CURVE('',#840,#841,#879,.F.);
#688=EDGE_CURVE('',#841,#842,#131,.F.);
#689=EDGE_CURVE('',#842,#840,#132,.T.);
#690=EDGE_CURVE('',#843,#844,#133,.T.);
#691=EDGE_CURVE('',#844,#845,#134,.T.);
#692=EDGE_CURVE('',#845,#846,#135,.T.);
#693=EDGE_CURVE('',#847,#846,#880,.T.);
#694=EDGE_CURVE('',#847,#848,#136,.F.);
#695=EDGE_CURVE('',#848,#849,#137,.F.);
#696=EDGE_CURVE('',#849,#850,#138,.F.);
#697=EDGE_CURVE('',#850,#851,#139,.T.);
#698=EDGE_CURVE('',#851,#852,#140,.T.);
#699=EDGE_CURVE('',#843,#852,#141,.T.);
#700=EDGE_CURVE('',#853,#854,#142,.T.);
#701=EDGE_CURVE('',#854,#855,#881,.T.);
#702=EDGE_CURVE('',#856,#855,#143,.T.);
#703=EDGE_CURVE('',#853,#856,#882,.T.);
#704=EDGE_CURVE('',#855,#857,#144,.F.);
#705=EDGE_CURVE('',#858,#857,#145,.T.);
#706=EDGE_CURVE('',#858,#856,#146,.T.);
#707=EDGE_CURVE('',#857,#854,#147,.T.);
#708=EDGE_CURVE('',#858,#853,#148,.T.);
#709=EDGE_CURVE('',#780,#804,#149,.T.);
#710=EDGE_CURVE('',#807,#784,#150,.F.);
#711=EDGE_CURVE('',#783,#843,#151,.F.);
#712=EDGE_CURVE('',#852,#833,#883,.T.);
#713=EDGE_CURVE('',#805,#779,#152,.F.);
#714=EDGE_CURVE('',#778,#806,#153,.T.);
#715=EDGE_CURVE('',#838,#844,#24,.T.);
#716=EDGE_CURVE('',#859,#788,#154,.T.);
#717=EDGE_CURVE('',#859,#860,#155,.T.);
#718=EDGE_CURVE('',#860,#790,#156,.T.);
#719=EDGE_CURVE('',#861,#789,#157,.T.);
#720=EDGE_CURVE('',#859,#861,#158,.T.);
#721=EDGE_CURVE('',#861,#860,#884,.T.);
#722=EDGE_CURVE('',#862,#786,#159,.T.);
#723=EDGE_CURVE('',#863,#862,#885,.T.);
#724=EDGE_CURVE('',#863,#785,#160,.T.);
#725=EDGE_CURVE('',#864,#787,#161,.T.);
#726=EDGE_CURVE('',#864,#862,#162,.T.);
#727=EDGE_CURVE('',#864,#863,#163,.T.);
#728=EDGE_CURVE('',#857,#842,#25,.F.);
#729=EDGE_CURVE('',#840,#855,#886,.T.);
#730=EDGE_CURVE('',#841,#854,#887,.T.);
#731=EDGE_CURVE('',#830,#776,#888,.F.);
#732=EDGE_CURVE('',#823,#830,#889,.F.);
#733=EDGE_CURVE('',#776,#823,#890,.F.);
#734=EDGE_CURVE('',#851,#832,#891,.T.);
#735=EDGE_CURVE('',#828,#850,#892,.T.);
#736=EDGE_CURVE('',#834,#851,#893,.T.);
#737=EDGE_CURVE('',#829,#849,#894,.T.);
#738=EDGE_CURVE('',#824,#829,#895,.T.);
#739=EDGE_CURVE('',#777,#826,#896,.T.);
#740=EDGE_CURVE('',#827,#775,#897,.T.);
#741=EDGE_CURVE('',#834,#832,#898,.F.);
#742=EDGE_CURVE('',#824,#849,#899,.F.);
#743=EDGE_CURVE('',#777,#819,#900,.F.);
#744=EDGE_CURVE('',#819,#826,#901,.F.);
#745=EDGE_CURVE('',#831,#774,#902,.T.);
#746=EDGE_CURVE('',#835,#831,#903,.T.);
#747=EDGE_CURVE('',#825,#848,#904,.T.);
#748=EDGE_CURVE('',#820,#825,#905,.T.);
#749=EDGE_CURVE('',#771,#822,#906,.T.);
#750=EDGE_CURVE('',#835,#774,#907,.F.);
#751=EDGE_CURVE('',#820,#848,#908,.F.);
#752=EDGE_CURVE('',#815,#822,#909,.F.);
#753=EDGE_CURVE('',#770,#815,#910,.F.);
#754=EDGE_CURVE('',#836,#773,#26,.F.);
#755=EDGE_CURVE('',#821,#847,#911,.T.);
#756=EDGE_CURVE('',#816,#821,#912,.F.);
#757=EDGE_CURVE('',#772,#818,#913,.T.);
#758=EDGE_CURVE('',#839,#772,#914,.T.);
#759=EDGE_CURVE('',#816,#846,#915,.F.);
#760=EDGE_CURVE('',#839,#818,#916,.F.);
#761=EDGE_CURVE('',#817,#845,#917,.T.);
#762=EDGE_CURVE('',#837,#817,#918,.T.);
#763=EDGE_CURVE('',#837,#845,#919,.F.);
#764=EDGE_CURVE('',#768,#809,#920,.T.);
#765=EDGE_CURVE('',#811,#767,#921,.T.);
#766=EDGE_CURVE('',#813,#769,#27,.T.);
#767=VERTEX_POINT('',#1714);
#768=VERTEX_POINT('',#1715);
#769=VERTEX_POINT('',#1717);
#770=VERTEX_POINT('',#1720);
#771=VERTEX_POINT('',#1721);
#772=VERTEX_POINT('',#1723);
#773=VERTEX_POINT('',#1725);
#774=VERTEX_POINT('',#1727);
#775=VERTEX_POINT('',#1729);
#776=VERTEX_POINT('',#1731);
#777=VERTEX_POINT('',#1733);
#778=VERTEX_POINT('',#1737);
#779=VERTEX_POINT('',#1738);
#780=VERTEX_POINT('',#1740);
#781=VERTEX_POINT('',#1742);
#782=VERTEX_POINT('',#1744);
#783=VERTEX_POINT('',#1746);
#784=VERTEX_POINT('',#1748);
#785=VERTEX_POINT('',#1751);
#786=VERTEX_POINT('',#1752);
#787=VERTEX_POINT('',#1754);
#788=VERTEX_POINT('',#1757);
#789=VERTEX_POINT('',#1758);
#790=VERTEX_POINT('',#1760);
#791=VERTEX_POINT('',#1764);
#792=VERTEX_POINT('',#1765);
#793=VERTEX_POINT('',#1767);
#794=VERTEX_POINT('',#1769);
#795=VERTEX_POINT('',#1773);
#796=VERTEX_POINT('',#1775);
#797=VERTEX_POINT('',#1782);
#798=VERTEX_POINT('',#1783);
#799=VERTEX_POINT('',#1785);
#800=VERTEX_POINT('',#1787);
#801=VERTEX_POINT('',#1791);
#802=VERTEX_POINT('',#1793);
#803=VERTEX_POINT('',#1800);
#804=VERTEX_POINT('',#1801);
#805=VERTEX_POINT('',#1803);
#806=VERTEX_POINT('',#1805);
#807=VERTEX_POINT('',#1807);
#808=VERTEX_POINT('',#1809);
#809=VERTEX_POINT('',#1813);
#810=VERTEX_POINT('',#1814);
#811=VERTEX_POINT('',#1816);
#812=VERTEX_POINT('',#1818);
#813=VERTEX_POINT('',#1822);
#814=VERTEX_POINT('',#1823);
#815=VERTEX_POINT('',#1831);
#816=VERTEX_POINT('',#1832);
#817=VERTEX_POINT('',#1834);
#818=VERTEX_POINT('',#1836);
#819=VERTEX_POINT('',#1840);
#820=VERTEX_POINT('',#1841);
#821=VERTEX_POINT('',#1843);
#822=VERTEX_POINT('',#1845);
#823=VERTEX_POINT('',#1849);
#824=VERTEX_POINT('',#1850);
#825=VERTEX_POINT('',#1852);
#826=VERTEX_POINT('',#1854);
#827=VERTEX_POINT('',#1858);
#828=VERTEX_POINT('',#1859);
#829=VERTEX_POINT('',#1861);
#830=VERTEX_POINT('',#1863);
#831=VERTEX_POINT('',#1867);
#832=VERTEX_POINT('',#1868);
#833=VERTEX_POINT('',#1873);
#834=VERTEX_POINT('',#1875);
#835=VERTEX_POINT('',#1877);
#836=VERTEX_POINT('',#1879);
#837=VERTEX_POINT('',#1883);
#838=VERTEX_POINT('',#1884);
#839=VERTEX_POINT('',#1888);
#840=VERTEX_POINT('',#1892);
#841=VERTEX_POINT('',#1893);
#842=VERTEX_POINT('',#1895);
#843=VERTEX_POINT('',#1898);
#844=VERTEX_POINT('',#1899);
#845=VERTEX_POINT('',#1901);
#846=VERTEX_POINT('',#1903);
#847=VERTEX_POINT('',#1905);
#848=VERTEX_POINT('',#1907);
#849=VERTEX_POINT('',#1909);
#850=VERTEX_POINT('',#1911);
#851=VERTEX_POINT('',#1913);
#852=VERTEX_POINT('',#1915);
#853=VERTEX_POINT('',#1919);
#854=VERTEX_POINT('',#1920);
#855=VERTEX_POINT('',#1922);
#856=VERTEX_POINT('',#1924);
#857=VERTEX_POINT('',#1928);
#858=VERTEX_POINT('',#1930);
#859=VERTEX_POINT('',#1949);
#860=VERTEX_POINT('',#1951);
#861=VERTEX_POINT('',#1955);
#862=VERTEX_POINT('',#1962);
#863=VERTEX_POINT('',#1964);
#864=VERTEX_POINT('',#1968);
#865=CIRCLE('',#1203,0.006);
#866=CIRCLE('',#1204,0.004);
#867=CIRCLE('',#1206,0.002);
#868=CIRCLE('',#1207,0.002);
#869=CIRCLE('',#1208,0.005);
#870=CIRCLE('',#1209,0.005);
#871=CIRCLE('',#1213,0.0025);
#872=CIRCLE('',#1214,0.0025);
#873=CIRCLE('',#1216,0.0025);
#874=CIRCLE('',#1217,0.0025);
#875=CIRCLE('',#1221,0.002);
#876=CIRCLE('',#1222,0.002);
#877=CIRCLE('',#1224,0.004);
#878=CIRCLE('',#1225,0.004);
#879=CIRCLE('',#1236,0.01);
#880=CIRCLE('',#1237,0.004);
#881=CIRCLE('',#1239,0.008);
#882=CIRCLE('',#1240,0.008);
#883=CIRCLE('',#1246,0.002);
#884=CIRCLE('',#1253,0.005);
#885=CIRCLE('',#1256,0.005);
#886=CIRCLE('',#1262,0.002);
#887=CIRCLE('',#1264,0.002);
#888=CIRCLE('',#1267,0.002);
#889=CIRCLE('',#1268,0.002);
#890=CIRCLE('',#1269,0.002);
#891=CIRCLE('',#1271,0.002);
#892=CIRCLE('',#1272,0.002);
#893=CIRCLE('',#1274,0.002);
#894=CIRCLE('',#1276,0.002);
#895=CIRCLE('',#1278,0.002);
#896=CIRCLE('',#1280,0.002);
#897=CIRCLE('',#1282,0.002);
#898=CIRCLE('',#1284,0.002);
#899=CIRCLE('',#1286,0.002);
#900=CIRCLE('',#1288,0.002);
#901=CIRCLE('',#1289,0.002);
#902=CIRCLE('',#1291,0.002);
#903=CIRCLE('',#1293,0.002);
#904=CIRCLE('',#1295,0.002);
#905=CIRCLE('',#1297,0.002);
#906=CIRCLE('',#1299,0.002);
#907=CIRCLE('',#1301,0.002);
#908=CIRCLE('',#1303,0.002);
#909=CIRCLE('',#1305,0.002);
#910=CIRCLE('',#1306,0.002);
#911=CIRCLE('',#1310,0.002);
#912=CIRCLE('',#1312,0.002);
#913=CIRCLE('',#1314,0.002);
#914=CIRCLE('',#1316,0.002);
#915=CIRCLE('',#1318,0.002);
#916=CIRCLE('',#1320,0.002);
#917=CIRCLE('',#1322,0.002);
#918=CIRCLE('',#1324,0.002);
#919=CIRCLE('',#1326,0.002);
#920=CIRCLE('',#1331,0.002);
#921=CIRCLE('',#1332,0.002);
#922=EDGE_LOOP('',(#269,#270,#271));
#923=EDGE_LOOP('',(#272,#273,#274,#275,#276,#277,#278,#279));
#924=EDGE_LOOP('',(#280,#281,#282,#283,#284,#285,#286));
#925=EDGE_LOOP('',(#287,#288,#289));
#926=EDGE_LOOP('',(#290,#291,#292));
#927=EDGE_LOOP('',(#293,#294,#295,#296));
#928=EDGE_LOOP('',(#297,#298,#299,#300));
#929=EDGE_LOOP('',(#301,#302,#303,#304));
#930=EDGE_LOOP('',(#305,#306,#307,#308));
#931=EDGE_LOOP('',(#309,#310,#311,#312));
#932=EDGE_LOOP('',(#313,#314,#315,#316));
#933=EDGE_LOOP('',(#317,#318,#319));
#934=EDGE_LOOP('',(#320,#321,#322,#323,#324,#325));
#935=EDGE_LOOP('',(#326,#327,#328));
#936=EDGE_LOOP('',(#329,#330,#331,#332));
#937=EDGE_LOOP('',(#333,#334,#335,#336));
#938=EDGE_LOOP('',(#337,#338,#339,#340));
#939=EDGE_LOOP('',(#341,#342,#343,#344));
#940=EDGE_LOOP('',(#345,#346,#347,#348));
#941=EDGE_LOOP('',(#349,#350,#351,#352));
#942=EDGE_LOOP('',(#353,#354,#355,#356));
#943=EDGE_LOOP('',(#357,#358,#359,#360));
#944=EDGE_LOOP('',(#361,#362,#363,#364,#365,#366));
#945=EDGE_LOOP('',(#367,#368,#369,#370,#371,#372,#373));
#946=EDGE_LOOP('',(#374,#375,#376));
#947=EDGE_LOOP('',(#377,#378,#379,#380,#381,#382,#383,#384,#385,#386));
#948=EDGE_LOOP('',(#387,#388,#389,#390));
#949=EDGE_LOOP('',(#391,#392,#393,#394));
#950=EDGE_LOOP('',(#395,#396,#397,#398));
#951=EDGE_LOOP('',(#399,#400,#401));
#952=EDGE_LOOP('',(#402,#403,#404));
#953=EDGE_LOOP('',(#405,#406,#407,#408));
#954=EDGE_LOOP('',(#409,#410,#411,#412,#413,#414,#415));
#955=EDGE_LOOP('',(#416,#417,#418,#419));
#956=EDGE_LOOP('',(#420,#421,#422,#423,#424));
#957=EDGE_LOOP('',(#425,#426,#427,#428));
#958=EDGE_LOOP('',(#429,#430,#431,#432));
#959=EDGE_LOOP('',(#433,#434,#435,#436));
#960=EDGE_LOOP('',(#437,#438,#439));
#961=EDGE_LOOP('',(#440,#441,#442));
#962=EDGE_LOOP('',(#443,#444,#445,#446));
#963=EDGE_LOOP('',(#447,#448,#449,#450));
#964=EDGE_LOOP('',(#451,#452,#453,#454));
#965=EDGE_LOOP('',(#455,#456,#457));
#966=EDGE_LOOP('',(#458,#459,#460));
#967=EDGE_LOOP('',(#461,#462,#463,#464));
#968=EDGE_LOOP('',(#465,#466,#467,#468));
#969=EDGE_LOOP('',(#469,#470,#471,#472));
#970=EDGE_LOOP('',(#473,#474,#475));
#971=EDGE_LOOP('',(#476,#477,#478,#479));
#972=EDGE_LOOP('',(#480,#481,#482,#483));
#973=EDGE_LOOP('',(#484,#485,#486,#487));
#974=EDGE_LOOP('',(#488,#489,#490,#491));
#975=EDGE_LOOP('',(#492,#493,#494,#495));
#976=EDGE_LOOP('',(#496,#497,#498,#499));
#977=EDGE_LOOP('',(#500,#501,#502));
#978=EDGE_LOOP('',(#503,#504,#505));
#979=EDGE_LOOP('',(#506,#507,#508));
#980=EDGE_LOOP('',(#509,#510,#511,#512));
#981=EDGE_LOOP('',(#513,#514,#515,#516));
#982=EDGE_LOOP('',(#517,#518,#519,#520));
#983=EDGE_LOOP('',(#521,#522,#523,#524));
#984=EDGE_LOOP('',(#525,#526,#527,#528));
#985=EDGE_LOOP('',(#529,#530,#531));
#986=EDGE_LOOP('',(#532,#533,#534));
#987=EDGE_LOOP('',(#535,#536,#537,#538));
#988=EDGE_LOOP('',(#539,#540,#541,#542));
#989=EDGE_LOOP('',(#543,#544,#545,#546));
#990=EDGE_LOOP('',(#547,#548,#549,#550));
#991=EDGE_LOOP('',(#551,#552,#553,#554));
#992=EDGE_LOOP('',(#555,#556,#557,#558));
#993=EDGE_LOOP('',(#559,#560,#561,#562));
#994=EDGE_LOOP('',(#563,#564,#565));
#995=EDGE_LOOP('',(#566,#567,#568,#569));
#996=EDGE_LOOP('',(#570,#571,#572,#573));
#997=EDGE_LOOP('',(#574,#575,#576));
#998=EDGE_LOOP('',(#577,#578,#579,#580));
#999=EDGE_LOOP('',(#581,#582,#583,#584));
#1000=EDGE_LOOP('',(#585,#586,#587,#588));
#1001=EDGE_LOOP('',(#589,#590,#591,#592));
#1002=EDGE_LOOP('',(#593,#594,#595,#596));
#1003=EDGE_LOOP('',(#597,#598,#599,#600));
#1004=FACE_BOUND('',#922,.T.);
#1005=FACE_BOUND('',#923,.T.);
#1006=FACE_BOUND('',#924,.T.);
#1007=FACE_BOUND('',#925,.T.);
#1008=FACE_BOUND('',#926,.T.);
#1009=FACE_BOUND('',#927,.T.);
#1010=FACE_BOUND('',#928,.T.);
#1011=FACE_BOUND('',#929,.T.);
#1012=FACE_BOUND('',#930,.T.);
#1013=FACE_BOUND('',#931,.T.);
#1014=FACE_BOUND('',#932,.T.);
#1015=FACE_BOUND('',#933,.T.);
#1016=FACE_BOUND('',#934,.T.);
#1017=FACE_BOUND('',#935,.T.);
#1018=FACE_BOUND('',#936,.T.);
#1019=FACE_BOUND('',#937,.T.);
#1020=FACE_BOUND('',#938,.T.);
#1021=FACE_BOUND('',#939,.T.);
#1022=FACE_BOUND('',#940,.T.);
#1023=FACE_BOUND('',#941,.T.);
#1024=FACE_BOUND('',#942,.T.);
#1025=FACE_BOUND('',#943,.T.);
#1026=FACE_BOUND('',#944,.T.);
#1027=FACE_BOUND('',#945,.T.);
#1028=FACE_BOUND('',#946,.T.);
#1029=FACE_BOUND('',#947,.T.);
#1030=FACE_BOUND('',#948,.T.);
#1031=FACE_BOUND('',#949,.T.);
#1032=FACE_BOUND('',#950,.T.);
#1033=FACE_BOUND('',#951,.T.);
#1034=FACE_BOUND('',#952,.T.);
#1035=FACE_BOUND('',#953,.T.);
#1036=FACE_BOUND('',#954,.T.);
#1037=FACE_BOUND('',#955,.T.);
#1038=FACE_BOUND('',#956,.T.);
#1039=FACE_BOUND('',#957,.T.);
#1040=FACE_BOUND('',#958,.T.);
#1041=FACE_BOUND('',#959,.T.);
#1042=FACE_BOUND('',#960,.T.);
#1043=FACE_BOUND('',#961,.T.);
#1044=FACE_BOUND('',#962,.T.);
#1045=FACE_BOUND('',#963,.T.);
#1046=FACE_BOUND('',#964,.T.);
#1047=FACE_BOUND('',#965,.T.);
#1048=FACE_BOUND('',#966,.T.);
#1049=FACE_BOUND('',#967,.T.);
#1050=FACE_BOUND('',#968,.T.);
#1051=FACE_BOUND('',#969,.T.);
#1052=FACE_BOUND('',#970,.T.);
#1053=FACE_BOUND('',#971,.T.);
#1054=FACE_BOUND('',#972,.T.);
#1055=FACE_BOUND('',#973,.T.);
#1056=FACE_BOUND('',#974,.T.);
#1057=FACE_BOUND('',#975,.T.);
#1058=FACE_BOUND('',#976,.T.);
#1059=FACE_BOUND('',#977,.T.);
#1060=FACE_BOUND('',#978,.T.);
#1061=FACE_BOUND('',#979,.T.);
#1062=FACE_BOUND('',#980,.T.);
#1063=FACE_BOUND('',#981,.T.);
#1064=FACE_BOUND('',#982,.T.);
#1065=FACE_BOUND('',#983,.T.);
#1066=FACE_BOUND('',#984,.T.);
#1067=FACE_BOUND('',#985,.T.);
#1068=FACE_BOUND('',#986,.T.);
#1069=FACE_BOUND('',#987,.T.);
#1070=FACE_BOUND('',#988,.T.);
#1071=FACE_BOUND('',#989,.T.);
#1072=FACE_BOUND('',#990,.T.);
#1073=FACE_BOUND('',#991,.T.);
#1074=FACE_BOUND('',#992,.T.);
#1075=FACE_BOUND('',#993,.T.);
#1076=FACE_BOUND('',#994,.T.);
#1077=FACE_BOUND('',#995,.T.);
#1078=FACE_BOUND('',#996,.T.);
#1079=FACE_BOUND('',#997,.T.);
#1080=FACE_BOUND('',#998,.T.);
#1081=FACE_BOUND('',#999,.T.);
#1082=FACE_BOUND('',#1000,.T.);
#1083=FACE_BOUND('',#1001,.T.);
#1084=FACE_BOUND('',#1002,.T.);
#1085=FACE_BOUND('',#1003,.T.);
#1086=PLANE('',#1202);
#1087=PLANE('',#1205);
#1088=PLANE('',#1210);
#1089=PLANE('',#1211);
#1090=PLANE('',#1218);
#1091=PLANE('',#1219);
#1092=PLANE('',#1220);
#1093=PLANE('',#1226);
#1094=PLANE('',#1227);
#1095=PLANE('',#1228);
#1096=PLANE('',#1229);
#1097=PLANE('',#1230);
#1098=PLANE('',#1231);
#1099=PLANE('',#1232);
#1100=PLANE('',#1233);
#1101=PLANE('',#1234);
#1102=PLANE('',#1235);
#1103=PLANE('',#1241);
#1104=PLANE('',#1242);
#1105=PLANE('',#1243);
#1106=PLANE('',#1244);
#1107=PLANE('',#1245);
#1108=PLANE('',#1247);
#1109=PLANE('',#1248);
#1110=PLANE('',#1250);
#1111=PLANE('',#1251);
#1112=PLANE('',#1254);
#1113=PLANE('',#1257);
#1114=PLANE('',#1258);
#1115=PLANE('',#1259);
#1116=ADVANCED_FACE('',(#1004,#1005),#1086,.F.);
#1117=ADVANCED_FACE('',(#1006,#1007,#1008),#1087,.T.);
#1118=ADVANCED_FACE('',(#1009),#1088,.T.);
#1119=ADVANCED_FACE('',(#1010),#1089,.F.);
#1120=ADVANCED_FACE('',(#1011),#28,.F.);
#1121=ADVANCED_FACE('',(#1012),#29,.F.);
#1122=ADVANCED_FACE('',(#1013),#1090,.T.);
#1123=ADVANCED_FACE('',(#1014),#1091,.F.);
#1124=ADVANCED_FACE('',(#1015,#1016,#1017),#1092,.F.);
#1125=ADVANCED_FACE('',(#1018),#30,.F.);
#1126=ADVANCED_FACE('',(#1019),#1093,.T.);
#1127=ADVANCED_FACE('',(#1020),#1094,.F.);
#1128=ADVANCED_FACE('',(#1021),#1095,.T.);
#1129=ADVANCED_FACE('',(#1022),#1096,.F.);
#1130=ADVANCED_FACE('',(#1023),#1097,.F.);
#1131=ADVANCED_FACE('',(#1024),#1098,.F.);
#1132=ADVANCED_FACE('',(#1025),#1099,.T.);
#1133=ADVANCED_FACE('',(#1026),#1100,.T.);
#1134=ADVANCED_FACE('',(#1027),#1101,.T.);
#1135=ADVANCED_FACE('',(#1028,#1029),#1102,.T.);
#1136=ADVANCED_FACE('',(#1030),#31,.F.);
#1137=ADVANCED_FACE('',(#1031),#1103,.T.);
#1138=ADVANCED_FACE('',(#1032),#1104,.F.);
#1139=ADVANCED_FACE('',(#1033,#1034),#1105,.T.);
#1140=ADVANCED_FACE('',(#1035),#1106,.T.);
#1141=ADVANCED_FACE('',(#1036),#1107,.F.);
#1142=ADVANCED_FACE('',(#1037),#1108,.F.);
#1143=ADVANCED_FACE('',(#1038),#1109,.F.);
#1144=ADVANCED_FACE('',(#1039),#1110,.T.);
#1145=ADVANCED_FACE('',(#1040),#1111,.F.);
#1146=ADVANCED_FACE('',(#1041),#32,.F.);
#1147=ADVANCED_FACE('',(#1042,#1043),#1112,.T.);
#1148=ADVANCED_FACE('',(#1044),#33,.F.);
#1149=ADVANCED_FACE('',(#1045),#1113,.T.);
#1150=ADVANCED_FACE('',(#1046),#1114,.F.);
#1151=ADVANCED_FACE('',(#1047,#1048),#1115,.T.);
#1152=ADVANCED_FACE('',(#1049),#34,.T.);
#1153=ADVANCED_FACE('',(#1050),#20,.T.);
#1154=ADVANCED_FACE('',(#1051),#35,.T.);
#1155=ADVANCED_FACE('',(#1052),#12,.T.);
#1156=ADVANCED_FACE('',(#1053),#36,.T.);
#1157=ADVANCED_FACE('',(#1054),#37,.T.);
#1158=ADVANCED_FACE('',(#1055),#38,.T.);
#1159=ADVANCED_FACE('',(#1056),#39,.T.);
#1160=ADVANCED_FACE('',(#1057),#40,.T.);
#1161=ADVANCED_FACE('',(#1058),#41,.T.);
#1162=ADVANCED_FACE('',(#1059),#13,.T.);
#1163=ADVANCED_FACE('',(#1060),#14,.T.);
#1164=ADVANCED_FACE('',(#1061),#15,.T.);
#1165=ADVANCED_FACE('',(#1062),#42,.T.);
#1166=ADVANCED_FACE('',(#1063),#43,.T.);
#1167=ADVANCED_FACE('',(#1064),#44,.T.);
#1168=ADVANCED_FACE('',(#1065),#45,.T.);
#1169=ADVANCED_FACE('',(#1066),#46,.T.);
#1170=ADVANCED_FACE('',(#1067),#16,.T.);
#1171=ADVANCED_FACE('',(#1068),#17,.T.);
#1172=ADVANCED_FACE('',(#1069),#21,.T.);
#1173=ADVANCED_FACE('',(#1070),#47,.T.);
#1174=ADVANCED_FACE('',(#1071),#48,.T.);
#1175=ADVANCED_FACE('',(#1072),#49,.F.);
#1176=ADVANCED_FACE('',(#1073),#50,.T.);
#1177=ADVANCED_FACE('',(#1074),#51,.T.);
#1178=ADVANCED_FACE('',(#1075),#22,.T.);
#1179=ADVANCED_FACE('',(#1076),#18,.T.);
#1180=ADVANCED_FACE('',(#1077),#52,.T.);
#1181=ADVANCED_FACE('',(#1078),#53,.T.);
#1182=ADVANCED_FACE('',(#1079),#19,.T.);
#1183=ADVANCED_FACE('',(#1080),#54,.T.);
#1184=ADVANCED_FACE('',(#1081),#55,.T.);
#1185=ADVANCED_FACE('',(#1082),#56,.T.);
#1186=ADVANCED_FACE('',(#1083),#23,.T.);
#1187=ADVANCED_FACE('',(#1084),#57,.T.);
#1188=ADVANCED_FACE('',(#1085),#58,.T.);
#1189=CLOSED_SHELL('',(#1116,#1117,#1118,#1119,#1120,#1121,#1122,#1123,
#1124,#1125,#1126,#1127,#1128,#1129,#1130,#1131,#1132,#1133,#1134,#1135,
#1136,#1137,#1138,#1139,#1140,#1141,#1142,#1143,#1144,#1145,#1146,#1147,
#1148,#1149,#1150,#1151,#1152,#1153,#1154,#1155,#1156,#1157,#1158,#1159,
#1160,#1161,#1162,#1163,#1164,#1165,#1166,#1167,#1168,#1169,#1170,#1171,
#1172,#1173,#1174,#1175,#1176,#1177,#1178,#1179,#1180,#1181,#1182,#1183,
#1184,#1185,#1186,#1187,#1188));
#1190=STYLED_ITEM('',(#1191),#1198);
#1191=PRESENTATION_STYLE_ASSIGNMENT((#1192));
#1192=SURFACE_STYLE_USAGE(.BOTH.,#1193);
#1193=SURFACE_SIDE_STYLE('',(#1194));
#1194=SURFACE_STYLE_FILL_AREA(#1195);
#1195=FILL_AREA_STYLE('',(#1196));
#1196=FILL_AREA_STYLE_COLOUR('',#1197);
#1197=COLOUR_RGB('',0.615686274509804,0.811764705882353,0.929411764705882);
#1198=MANIFOLD_SOLID_BREP('y axis bearing bracket',#1189);
#1199=SHAPE_DEFINITION_REPRESENTATION(#2055,#1200);
#1200=SHAPE_REPRESENTATION('y axis bearing bracket',(#1201),#2050);
#1201=AXIS2_PLACEMENT_3D('',#1711,#1336,#1337);
#1202=AXIS2_PLACEMENT_3D('',#1712,#1338,#1339);
#1203=AXIS2_PLACEMENT_3D('',#1713,#1340,#1341);
#1204=AXIS2_PLACEMENT_3D('',#1719,#1344,#1345);
#1205=AXIS2_PLACEMENT_3D('',#1735,#1353,#1354);
#1206=AXIS2_PLACEMENT_3D('',#1739,#1356,#1357);
#1207=AXIS2_PLACEMENT_3D('',#1749,#1362,#1363);
#1208=AXIS2_PLACEMENT_3D('',#1750,#1364,#1365);
#1209=AXIS2_PLACEMENT_3D('',#1761,#1370,#1371);
#1210=AXIS2_PLACEMENT_3D('',#1762,#1372,#1373);
#1211=AXIS2_PLACEMENT_3D('',#1771,#1378,#1379);
#1212=AXIS2_PLACEMENT_3D('',#1777,#1383,#1384);
#1213=AXIS2_PLACEMENT_3D('',#1778,#1385,#1386);
#1214=AXIS2_PLACEMENT_3D('',#1779,#1387,#1388);
#1215=AXIS2_PLACEMENT_3D('',#1780,#1389,#1390);
#1216=AXIS2_PLACEMENT_3D('',#1781,#1391,#1392);
#1217=AXIS2_PLACEMENT_3D('',#1786,#1394,#1395);
#1218=AXIS2_PLACEMENT_3D('',#1789,#1397,#1398);
#1219=AXIS2_PLACEMENT_3D('',#1795,#1402,#1403);
#1220=AXIS2_PLACEMENT_3D('',#1798,#1406,#1407);
#1221=AXIS2_PLACEMENT_3D('',#1802,#1409,#1410);
#1222=AXIS2_PLACEMENT_3D('',#1806,#1412,#1413);
#1223=AXIS2_PLACEMENT_3D('',#1811,#1416,#1417);
#1224=AXIS2_PLACEMENT_3D('',#1815,#1419,#1420);
#1225=AXIS2_PLACEMENT_3D('',#1819,#1422,#1423);
#1226=AXIS2_PLACEMENT_3D('',#1820,#1424,#1425);
#1227=AXIS2_PLACEMENT_3D('',#1826,#1429,#1430);
#1228=AXIS2_PLACEMENT_3D('',#1829,#1433,#1434);
#1229=AXIS2_PLACEMENT_3D('',#1838,#1439,#1440);
#1230=AXIS2_PLACEMENT_3D('',#1847,#1445,#1446);
#1231=AXIS2_PLACEMENT_3D('',#1856,#1451,#1452);
#1232=AXIS2_PLACEMENT_3D('',#1865,#1457,#1458);
#1233=AXIS2_PLACEMENT_3D('',#1871,#1462,#1463);
#1234=AXIS2_PLACEMENT_3D('',#1881,#1469,#1470);
#1235=AXIS2_PLACEMENT_3D('',#1890,#1476,#1477);
#1236=AXIS2_PLACEMENT_3D('',#1891,#1478,#1479);
#1237=AXIS2_PLACEMENT_3D('',#1904,#1485,#1486);
#1238=AXIS2_PLACEMENT_3D('',#1917,#1493,#1494);
#1239=AXIS2_PLACEMENT_3D('',#1921,#1496,#1497);
#1240=AXIS2_PLACEMENT_3D('',#1925,#1499,#1500);
#1241=AXIS2_PLACEMENT_3D('',#1926,#1501,#1502);
#1242=AXIS2_PLACEMENT_3D('',#1932,#1506,#1507);
#1243=AXIS2_PLACEMENT_3D('',#1935,#1510,#1511);
#1244=AXIS2_PLACEMENT_3D('',#1936,#1512,#1513);
#1245=AXIS2_PLACEMENT_3D('',#1938,#1515,#1516);
#1246=AXIS2_PLACEMENT_3D('',#1941,#1519,#1520);
#1247=AXIS2_PLACEMENT_3D('',#1942,#1521,#1522);
#1248=AXIS2_PLACEMENT_3D('',#1945,#1525,#1526);
#1249=AXIS2_PLACEMENT_3D('',#1946,#1527,#1528);
#1250=AXIS2_PLACEMENT_3D('',#1947,#1529,#1530);
#1251=AXIS2_PLACEMENT_3D('',#1953,#1534,#1535);
#1252=AXIS2_PLACEMENT_3D('',#1957,#1538,#1539);
#1253=AXIS2_PLACEMENT_3D('',#1958,#1540,#1541);
#1254=AXIS2_PLACEMENT_3D('',#1959,#1542,#1543);
#1255=AXIS2_PLACEMENT_3D('',#1960,#1544,#1545);
#1256=AXIS2_PLACEMENT_3D('',#1963,#1547,#1548);
#1257=AXIS2_PLACEMENT_3D('',#1966,#1550,#1551);
#1258=AXIS2_PLACEMENT_3D('',#1970,#1554,#1555);
#1259=AXIS2_PLACEMENT_3D('',#1972,#1557,#1558);
#1260=AXIS2_PLACEMENT_3D('',#1973,#1559,#1560);
#1261=AXIS2_PLACEMENT_3D('',#1974,#1561,#1562);
#1262=AXIS2_PLACEMENT_3D('',#1975,#1563,#1564);
#1263=AXIS2_PLACEMENT_3D('',#1976,#1565,#1566);
#1264=AXIS2_PLACEMENT_3D('',#1977,#1567,#1568);
#1265=AXIS2_PLACEMENT_3D('',#1978,#1569,#1570);
#1266=AXIS2_PLACEMENT_3D('',#1979,#1571,#1572);
#1267=AXIS2_PLACEMENT_3D('',#1980,#1573,#1574);
#1268=AXIS2_PLACEMENT_3D('',#1981,#1575,#1576);
#1269=AXIS2_PLACEMENT_3D('',#1982,#1577,#1578);
#1270=AXIS2_PLACEMENT_3D('',#1983,#1579,#1580);
#1271=AXIS2_PLACEMENT_3D('',#1984,#1581,#1582);
#1272=AXIS2_PLACEMENT_3D('',#1985,#1583,#1584);
#1273=AXIS2_PLACEMENT_3D('',#1986,#1585,#1586);
#1274=AXIS2_PLACEMENT_3D('',#1987,#1587,#1588);
#1275=AXIS2_PLACEMENT_3D('',#1988,#1589,#1590);
#1276=AXIS2_PLACEMENT_3D('',#1989,#1591,#1592);
#1277=AXIS2_PLACEMENT_3D('',#1990,#1593,#1594);
#1278=AXIS2_PLACEMENT_3D('',#1991,#1595,#1596);
#1279=AXIS2_PLACEMENT_3D('',#1992,#1597,#1598);
#1280=AXIS2_PLACEMENT_3D('',#1993,#1599,#1600);
#1281=AXIS2_PLACEMENT_3D('',#1994,#1601,#1602);
#1282=AXIS2_PLACEMENT_3D('',#1995,#1603,#1604);
#1283=AXIS2_PLACEMENT_3D('',#1996,#1605,#1606);
#1284=AXIS2_PLACEMENT_3D('',#1997,#1607,#1608);
#1285=AXIS2_PLACEMENT_3D('',#1998,#1609,#1610);
#1286=AXIS2_PLACEMENT_3D('',#1999,#1611,#1612);
#1287=AXIS2_PLACEMENT_3D('',#2000,#1613,#1614);
#1288=AXIS2_PLACEMENT_3D('',#2001,#1615,#1616);
#1289=AXIS2_PLACEMENT_3D('',#2002,#1617,#1618);
#1290=AXIS2_PLACEMENT_3D('',#2003,#1619,#1620);
#1291=AXIS2_PLACEMENT_3D('',#2004,#1621,#1622);
#1292=AXIS2_PLACEMENT_3D('',#2005,#1623,#1624);
#1293=AXIS2_PLACEMENT_3D('',#2006,#1625,#1626);
#1294=AXIS2_PLACEMENT_3D('',#2007,#1627,#1628);
#1295=AXIS2_PLACEMENT_3D('',#2008,#1629,#1630);
#1296=AXIS2_PLACEMENT_3D('',#2009,#1631,#1632);
#1297=AXIS2_PLACEMENT_3D('',#2010,#1633,#1634);
#1298=AXIS2_PLACEMENT_3D('',#2011,#1635,#1636);
#1299=AXIS2_PLACEMENT_3D('',#2012,#1637,#1638);
#1300=AXIS2_PLACEMENT_3D('',#2013,#1639,#1640);
#1301=AXIS2_PLACEMENT_3D('',#2014,#1641,#1642);
#1302=AXIS2_PLACEMENT_3D('',#2015,#1643,#1644);
#1303=AXIS2_PLACEMENT_3D('',#2016,#1645,#1646);
#1304=AXIS2_PLACEMENT_3D('',#2017,#1647,#1648);
#1305=AXIS2_PLACEMENT_3D('',#2018,#1649,#1650);
#1306=AXIS2_PLACEMENT_3D('',#2019,#1651,#1652);
#1307=AXIS2_PLACEMENT_3D('',#2020,#1653,#1654);
#1308=AXIS2_PLACEMENT_3D('',#2021,#1655,#1656);
#1309=AXIS2_PLACEMENT_3D('',#2022,#1657,#1658);
#1310=AXIS2_PLACEMENT_3D('',#2023,#1659,#1660);
#1311=AXIS2_PLACEMENT_3D('',#2024,#1661,#1662);
#1312=AXIS2_PLACEMENT_3D('',#2025,#1663,#1664);
#1313=AXIS2_PLACEMENT_3D('',#2026,#1665,#1666);
#1314=AXIS2_PLACEMENT_3D('',#2027,#1667,#1668);
#1315=AXIS2_PLACEMENT_3D('',#2028,#1669,#1670);
#1316=AXIS2_PLACEMENT_3D('',#2029,#1671,#1672);
#1317=AXIS2_PLACEMENT_3D('',#2030,#1673,#1674);
#1318=AXIS2_PLACEMENT_3D('',#2031,#1675,#1676);
#1319=AXIS2_PLACEMENT_3D('',#2032,#1677,#1678);
#1320=AXIS2_PLACEMENT_3D('',#2033,#1679,#1680);
#1321=AXIS2_PLACEMENT_3D('',#2034,#1681,#1682);
#1322=AXIS2_PLACEMENT_3D('',#2035,#1683,#1684);
#1323=AXIS2_PLACEMENT_3D('',#2036,#1685,#1686);
#1324=AXIS2_PLACEMENT_3D('',#2037,#1687,#1688);
#1325=AXIS2_PLACEMENT_3D('',#2038,#1689,#1690);
#1326=AXIS2_PLACEMENT_3D('',#2039,#1691,#1692);
#1327=AXIS2_PLACEMENT_3D('',#2040,#1693,#1694);
#1328=AXIS2_PLACEMENT_3D('',#2041,#1695,#1696);
#1329=AXIS2_PLACEMENT_3D('',#2042,#1697,#1698);
#1330=AXIS2_PLACEMENT_3D('',#2043,#1699,#1700);
#1331=AXIS2_PLACEMENT_3D('',#2044,#1701,#1702);
#1332=AXIS2_PLACEMENT_3D('',#2045,#1703,#1704);
#1333=AXIS2_PLACEMENT_3D('',#2046,#1705,#1706);
#1334=AXIS2_PLACEMENT_3D('',#2047,#1707,#1708);
#1335=AXIS2_PLACEMENT_3D('',#2048,#1709,#1710);
#1336=DIRECTION('',(0.,0.,1.));
#1337=DIRECTION('',(1.,0.,0.));
#1338=DIRECTION('',(0.,0.,1.));
#1339=DIRECTION('',(1.,0.,0.));
#1340=DIRECTION('',(0.,0.,1.));
#1341=DIRECTION('',(1.,0.,0.));
#1342=DIRECTION('',(-0.707106781186547,0.707106781186548,0.));
#1343=DIRECTION('',(0.707106781186548,0.707106781186547,0.));
#1344=DIRECTION('',(0.,0.,1.));
#1345=DIRECTION('',(1.,0.,0.));
#1346=DIRECTION('',(-1.16379446895566E-7,1.,0.));
#1347=DIRECTION('',(1.,1.16379447138298E-7,0.));
#1348=DIRECTION('',(1.16379446992167E-7,-1.,0.));
#1349=DIRECTION('',(-0.999999999999945,3.31872864779669E-7,0.));
#1350=DIRECTION('',(1.,0.,0.));
#1351=DIRECTION('',(0.,-1.,0.));
#1352=DIRECTION('',(-0.707106781186548,-0.707106781186548,0.));
#1353=DIRECTION('',(0.,0.,1.));
#1354=DIRECTION('',(1.,0.,0.));
#1355=DIRECTION('',(4.08170122016149E-16,-1.,0.));
#1356=DIRECTION('',(0.,0.,1.));
#1357=DIRECTION('',(1.,0.,0.));
#1358=DIRECTION('',(-1.,0.,0.));
#1359=DIRECTION('',(1.,1.16379447138298E-7,0.));
#1360=DIRECTION('',(-1.02042532949023E-16,1.,0.));
#1361=DIRECTION('',(-1.,-1.7347234759768E-16,0.));
#1362=DIRECTION('',(0.,0.,1.));
#1363=DIRECTION('',(1.,0.,0.));
#1364=DIRECTION('',(0.,0.,1.));
#1365=DIRECTION('',(1.,0.,0.));
#1366=DIRECTION('',(-0.707106781186547,-0.707106781186548,0.));
#1367=DIRECTION('',(0.707106781186548,-0.707106781186548,0.));
#1368=DIRECTION('',(-0.707106781186548,-0.707106781186548,0.));
#1369=DIRECTION('',(0.707106781186548,-0.707106781186548,0.));
#1370=DIRECTION('',(0.,0.,1.));
#1371=DIRECTION('',(1.,0.,0.));
#1372=DIRECTION('',(-0.707106781186548,-0.707106781186548,0.));
#1373=DIRECTION('',(0.707106781186548,-0.707106781186548,0.));
#1374=DIRECTION('',(0.,0.,1.));
#1375=DIRECTION('',(0.707106781186548,-0.707106781186548,0.));
#1376=DIRECTION('',(0.,0.,1.));
#1377=DIRECTION('',(-0.707106781186548,0.707106781186548,0.));
#1378=DIRECTION('',(-0.707106781186547,0.707106781186548,0.));
#1379=DIRECTION('',(-0.707106781186548,-0.707106781186547,0.));
#1380=DIRECTION('',(-0.707106781186548,-0.707106781186548,0.));
#1381=DIRECTION('',(0.,0.,1.));
#1382=DIRECTION('',(0.707106781186548,0.707106781186547,0.));
#1383=DIRECTION('',(0.,0.,1.));
#1384=DIRECTION('',(1.,0.,0.));
#1385=DIRECTION('',(0.,0.,1.));
#1386=DIRECTION('',(1.,0.,0.));
#1387=DIRECTION('',(0.,0.,1.));
#1388=DIRECTION('',(1.,0.,0.));
#1389=DIRECTION('',(0.,0.,1.));
#1390=DIRECTION('',(1.,0.,0.));
#1391=DIRECTION('',(0.,0.,1.));
#1392=DIRECTION('',(1.,0.,0.));
#1393=DIRECTION('',(0.,0.,1.));
#1394=DIRECTION('',(0.,0.,1.));
#1395=DIRECTION('',(1.,0.,0.));
#1396=DIRECTION('',(0.,0.,1.));
#1397=DIRECTION('',(-0.707106781186549,-0.707106781186547,0.));
#1398=DIRECTION('',(0.707106781186547,-0.707106781186549,0.));
#1399=DIRECTION('',(0.707106781186547,-0.707106781186549,0.));
#1400=DIRECTION('',(0.,0.,1.));
#1401=DIRECTION('',(-0.707106781186547,0.707106781186549,0.));
#1402=DIRECTION('',(-0.707106781186547,0.707106781186548,0.));
#1403=DIRECTION('',(-0.707106781186548,-0.707106781186547,0.));
#1404=DIRECTION('',(-0.707106781186548,-0.707106781186547,0.));
#1405=DIRECTION('',(0.707106781186548,0.707106781186547,0.));
#1406=DIRECTION('',(0.,0.,1.));
#1407=DIRECTION('',(1.,0.,0.));
#1408=DIRECTION('',(-1.,0.,0.));
#1409=DIRECTION('',(0.,0.,1.));
#1410=DIRECTION('',(1.,0.,0.));
#1411=DIRECTION('',(4.08170122016149E-16,-1.,0.));
#1412=DIRECTION('',(0.,0.,1.));
#1413=DIRECTION('',(1.,0.,0.));
#1414=DIRECTION('',(-1.,-1.7347234759768E-16,0.));
#1415=DIRECTION('',(1.16379446992167E-7,-1.,0.));
#1416=DIRECTION('',(0.,0.,1.));
#1417=DIRECTION('',(1.,0.,0.));
#1418=DIRECTION('',(0.,0.,1.));
#1419=DIRECTION('',(0.,0.,1.));
#1420=DIRECTION('',(1.,0.,0.));
#1421=DIRECTION('',(0.,0.,1.));
#1422=DIRECTION('',(0.,0.,1.));
#1423=DIRECTION('',(1.,0.,0.));
#1424=DIRECTION('',(-0.707106781186548,-0.707106781186547,0.));
#1425=DIRECTION('',(0.707106781186547,-0.707106781186548,0.));
#1426=DIRECTION('',(0.,0.,1.));
#1427=DIRECTION('',(-0.707106781186547,0.707106781186548,0.));
#1428=DIRECTION('',(0.707106781186547,-0.707106781186548,0.));
#1429=DIRECTION('',(-0.707106781186547,0.707106781186548,0.));
#1430=DIRECTION('',(-0.707106781186548,-0.707106781186547,0.));
#1431=DIRECTION('',(0.707106781186548,0.707106781186547,0.));
#1432=DIRECTION('',(-0.707106781186548,-0.707106781186547,0.));
#1433=DIRECTION('',(1.,1.16379446895566E-7,0.));
#1434=DIRECTION('',(-1.16379446895566E-7,1.,0.));
#1435=DIRECTION('',(0.,0.,1.));
#1436=DIRECTION('',(-1.16379446895566E-7,1.,0.));
#1437=DIRECTION('',(0.,0.,1.));
#1438=DIRECTION('',(-1.16379446895566E-7,1.,0.));
#1439=DIRECTION('',(-0.707106781186548,0.707106781186548,0.));
#1440=DIRECTION('',(-0.707106781186548,-0.707106781186548,0.));
#1441=DIRECTION('',(0.,0.,1.));
#1442=DIRECTION('',(-0.707106781186548,-0.707106781186548,0.));
#1443=DIRECTION('',(0.,0.,1.));
#1444=DIRECTION('',(-0.707106781186548,-0.707106781186548,0.));
#1445=DIRECTION('',(-1.,0.,0.));
#1446=DIRECTION('',(0.,0.,1.));
#1447=DIRECTION('',(0.,0.,1.));
#1448=DIRECTION('',(0.,-1.,0.));
#1449=DIRECTION('',(0.,0.,1.));
#1450=DIRECTION('',(0.,-1.,0.));
#1451=DIRECTION('',(0.,-1.,0.));
#1452=DIRECTION('',(0.,0.,-1.));
#1453=DIRECTION('',(0.,0.,1.));
#1454=DIRECTION('',(1.,0.,0.));
#1455=DIRECTION('',(0.,0.,1.));
#1456=DIRECTION('',(1.,0.,0.));
#1457=DIRECTION('',(3.31872864779669E-7,0.999999999999945,0.));
#1458=DIRECTION('',(-0.999999999999945,3.31872864779669E-7,0.));
#1459=DIRECTION('',(0.,0.,1.));
#1460=DIRECTION('',(-0.999999999999945,3.31872864779669E-7,0.));
#1461=DIRECTION('',(-0.999999999999945,3.31872864779669E-7,0.));
#1462=DIRECTION('',(-1.,-1.16379446992167E-7,0.));
#1463=DIRECTION('',(1.16379446992167E-7,-1.,0.));
#1464=DIRECTION('',(0.,0.,-1.));
#1465=DIRECTION('',(1.16379446992167E-7,-1.,0.));
#1466=DIRECTION('',(0.,0.,1.));
#1467=DIRECTION('',(1.16379446992167E-7,-1.,0.));
#1468=DIRECTION('',(0.,0.,1.));
#1469=DIRECTION('',(1.16379447138298E-7,-1.,0.));
#1470=DIRECTION('',(1.,1.16379447138298E-7,0.));
#1471=DIRECTION('',(1.,1.16379447138298E-7,0.));
#1472=DIRECTION('',(0.707106781186545,8.22926962622323E-8,-0.707106781186545));
#1473=DIRECTION('',(0.,0.,-1.));
#1474=DIRECTION('',(1.,1.16379447138298E-7,0.));
#1475=DIRECTION('',(0.,0.,1.));
#1476=DIRECTION('',(0.,0.,1.));
#1477=DIRECTION('',(1.,0.,0.));
#1478=DIRECTION('',(0.,0.,1.));
#1479=DIRECTION('',(1.,0.,0.));
#1480=DIRECTION('',(-0.707106781186548,-0.707106781186548,0.));
#1481=DIRECTION('',(0.707106781186548,-0.707106781186548,0.));
#1482=DIRECTION('',(1.02042532949023E-16,-1.,0.));
#1483=DIRECTION('',(1.,1.16379447138298E-7,0.));
#1484=DIRECTION('',(-1.16379446895566E-7,1.,0.));
#1485=DIRECTION('',(0.,0.,1.));
#1486=DIRECTION('',(1.,0.,0.));
#1487=DIRECTION('',(-0.707106781186548,-0.707106781186548,0.));
#1488=DIRECTION('',(0.,-1.,0.));
#1489=DIRECTION('',(1.,0.,0.));
#1490=DIRECTION('',(-0.999999999999945,3.31872864779669E-7,0.));
#1491=DIRECTION('',(1.16379446992167E-7,-1.,0.));
#1492=DIRECTION('',(-1.,-1.7347234759768E-16,0.));
#1493=DIRECTION('',(0.,0.,1.));
#1494=DIRECTION('',(1.,0.,0.));
#1495=DIRECTION('',(0.,0.,1.));
#1496=DIRECTION('',(0.,0.,1.));
#1497=DIRECTION('',(1.,0.,0.));
#1498=DIRECTION('',(0.,0.,1.));
#1499=DIRECTION('',(0.,0.,1.));
#1500=DIRECTION('',(1.,0.,0.));
#1501=DIRECTION('',(-0.707106781186548,-0.707106781186548,0.));
#1502=DIRECTION('',(0.707106781186548,-0.707106781186548,0.));
#1503=DIRECTION('',(0.707106781186548,-0.707106781186548,0.));
#1504=DIRECTION('',(0.,0.,1.));
#1505=DIRECTION('',(0.707106781186548,-0.707106781186548,0.));
#1506=DIRECTION('',(-0.707106781186548,0.707106781186548,0.));
#1507=DIRECTION('',(-0.707106781186548,-0.707106781186548,0.));
#1508=DIRECTION('',(-0.707106781186548,-0.707106781186548,0.));
#1509=DIRECTION('',(-0.707106781186548,-0.707106781186548,0.));
#1510=DIRECTION('',(0.,0.,1.));
#1511=DIRECTION('',(1.,0.,0.));
#1512=DIRECTION('',(0.,-1.,0.));
#1513=DIRECTION('',(0.,0.,-1.));
#1514=DIRECTION('',(0.,0.,-1.));
#1515=DIRECTION('',(1.7347234759768E-16,-1.,0.));
#1516=DIRECTION('',(1.,1.7347234759768E-16,0.));
#1517=DIRECTION('',(0.,0.,-1.));
#1518=DIRECTION('',(-0.707106781186548,-1.2266347333467E-16,0.707106781186548));
#1519=DIRECTION('',(1.7347234759768E-16,-1.,0.));
#1520=DIRECTION('',(1.,1.7347234759768E-16,0.));
#1521=DIRECTION('',(1.,4.08170122016149E-16,0.));
#1522=DIRECTION('',(-4.08170122016149E-16,1.,0.));
#1523=DIRECTION('',(0.,0.,-1.));
#1524=DIRECTION('',(0.,0.,-1.));
#1525=DIRECTION('',(-0.707106781186548,-7.21549670177061E-17,-0.707106781186548));
#1526=DIRECTION('',(1.02042532949023E-16,-1.,0.));
#1527=DIRECTION('',(-0.707106781186548,-7.21549670177061E-17,-0.707106781186548));
#1528=DIRECTION('',(0.707106781186538,1.64585392452308E-7,-0.707106781186538));
#1529=DIRECTION('',(-0.707106781186548,-0.707106781186548,0.));
#1530=DIRECTION('',(0.707106781186548,-0.707106781186548,0.));
#1531=DIRECTION('',(0.,0.,1.));
#1532=DIRECTION('',(0.707106781186548,-0.707106781186548,0.));
#1533=DIRECTION('',(0.,0.,1.));
#1534=DIRECTION('',(-0.707106781186548,0.707106781186548,0.));
#1535=DIRECTION('',(-0.707106781186548,-0.707106781186548,0.));
#1536=DIRECTION('',(0.,0.,1.));
#1537=DIRECTION('',(-0.707106781186548,-0.707106781186548,0.));
#1538=DIRECTION('',(0.,0.,1.));
#1539=DIRECTION('',(1.,0.,0.));
#1540=DIRECTION('',(0.,0.,1.));
#1541=DIRECTION('',(1.,0.,0.));
#1542=DIRECTION('',(0.,0.,1.));
#1543=DIRECTION('',(1.,0.,0.));
#1544=DIRECTION('',(0.,0.,1.));
#1545=DIRECTION('',(1.,0.,0.));
#1546=DIRECTION('',(0.,0.,1.));
#1547=DIRECTION('',(0.,0.,1.));
#1548=DIRECTION('',(1.,0.,0.));
#1549=DIRECTION('',(0.,0.,1.));
#1550=DIRECTION('',(-0.707106781186548,-0.707106781186548,0.));
#1551=DIRECTION('',(0.707106781186548,-0.707106781186548,0.));
#1552=DIRECTION('',(0.,0.,1.));
#1553=DIRECTION('',(0.707106781186548,-0.707106781186548,0.));
#1554=DIRECTION('',(-0.707106781186548,0.707106781186547,0.));
#1555=DIRECTION('',(-0.707106781186547,-0.707106781186548,0.));
#1556=DIRECTION('',(-0.707106781186547,-0.707106781186548,0.));
#1557=DIRECTION('',(0.,0.,1.));
#1558=DIRECTION('',(1.,0.,0.));
#1559=DIRECTION('',(0.707106781186548,-0.707106781186548,0.));
#1560=DIRECTION('',(0.707106781186548,0.707106781186548,0.));
#1561=DIRECTION('',(1.,0.,0.));
#1562=DIRECTION('',(-7.85046229341888E-17,1.,0.));
#1563=DIRECTION('',(0.707106781186548,-0.707106781186548,0.));
#1564=DIRECTION('',(0.707106781186548,0.707106781186548,0.));
#1565=DIRECTION('',(0.,0.,1.));
#1566=DIRECTION('',(1.,0.,0.));
#1567=DIRECTION('',(0.707106781186548,0.707106781186548,0.));
#1568=DIRECTION('',(-0.707106781186548,0.707106781186548,0.));
#1569=DIRECTION('',(0.707106781186548,0.707106781186548,0.));
#1570=DIRECTION('',(-0.707106781186548,0.707106781186548,0.));
#1571=DIRECTION('',(1.,0.,0.));
#1572=DIRECTION('',(0.,0.,-1.));
#1573=DIRECTION('',(1.,0.,0.));
#1574=DIRECTION('',(0.,0.,-1.));
#1575=DIRECTION('',(0.,0.,-1.));
#1576=DIRECTION('',(-1.,0.,0.));
#1577=DIRECTION('',(0.,1.,0.));
#1578=DIRECTION('',(0.,0.,1.));
#1579=DIRECTION('',(-0.999999999999945,3.31872864779669E-7,0.));
#1580=DIRECTION('',(-3.31872864779669E-7,-0.999999999999945,0.));
#1581=DIRECTION('',(-0.999999999999945,3.31872862524562E-7,0.));
#1582=DIRECTION('',(-3.31872862524562E-7,-0.999999999999945,0.));
#1583=DIRECTION('',(0.999999999999945,-3.31872864259286E-7,-1.15141529734049E-21));
#1584=DIRECTION('',(3.31872864259286E-7,0.999999999999945,0.));
#1585=DIRECTION('',(1.16379446992167E-7,-1.,0.));
#1586=DIRECTION('',(1.,1.16379446992167E-7,0.));
#1587=DIRECTION('',(-1.16379447745451E-7,1.,3.46944715383975E-15));
#1588=DIRECTION('',(-1.,-1.16379447745451E-7,0.));
#1589=DIRECTION('',(-1.,0.,0.));
#1590=DIRECTION('',(0.,0.,1.));
#1591=DIRECTION('',(1.,0.,0.));
#1592=DIRECTION('',(0.,0.,-1.));
#1593=DIRECTION('',(0.,0.,1.));
#1594=DIRECTION('',(1.,0.,0.));
#1595=DIRECTION('',(0.,0.,1.));
#1596=DIRECTION('',(1.,0.,0.));
#1597=DIRECTION('',(0.,-1.,0.));
#1598=DIRECTION('',(0.,0.,-1.));
#1599=DIRECTION('',(-8.67361737988403E-16,-1.,0.));
#1600=DIRECTION('',(1.,-8.67361737988403E-16,0.));
#1601=DIRECTION('',(1.,0.,0.));
#1602=DIRECTION('',(0.,0.,-1.));
#1603=DIRECTION('',(-1.,0.,0.));
#1604=DIRECTION('',(0.,0.,1.));
#1605=DIRECTION('',(1.73472347597681E-15,-3.46944695195361E-15,1.));
#1606=DIRECTION('',(0.,-1.,-3.46944695195361E-15));
#1607=DIRECTION('',(0.,0.,1.));
#1608=DIRECTION('',(1.,0.,0.));
#1609=DIRECTION('',(0.,1.,8.67361737988403E-16));
#1610=DIRECTION('',(0.,-8.67361737988403E-16,1.));
#1611=DIRECTION('',(0.,1.,0.));
#1612=DIRECTION('',(0.,0.,1.));
#1613=DIRECTION('',(0.,8.67361737988404E-16,-1.));
#1614=DIRECTION('',(0.,1.,8.67361737988404E-16));
#1615=DIRECTION('',(0.707106781186547,0.707106781186548,6.1331736667335E-16));
#1616=DIRECTION('',(-0.707106781186548,0.707106781186547,0.));
#1617=DIRECTION('',(0.,0.,-1.));
#1618=DIRECTION('',(-1.,0.,0.));
#1619=DIRECTION('',(0.999999999999945,-3.31872864779669E-7,0.));
#1620=DIRECTION('',(3.31872864779669E-7,0.999999999999945,0.));
#1621=DIRECTION('',(-0.999999999999945,3.31872864259286E-7,0.));
#1622=DIRECTION('',(-3.31872864259286E-7,-0.999999999999945,0.));
#1623=DIRECTION('',(0.,0.,1.));
#1624=DIRECTION('',(1.,0.,0.));
#1625=DIRECTION('',(0.,0.,-1.));
#1626=DIRECTION('',(-1.,0.,0.));
#1627=DIRECTION('',(0.,1.,0.));
#1628=DIRECTION('',(0.,0.,1.));
#1629=DIRECTION('',(0.,-1.,-8.67361737988404E-16));
#1630=DIRECTION('',(0.,8.67361737988404E-16,-1.));
#1631=DIRECTION('',(0.,0.,1.));
#1632=DIRECTION('',(1.,0.,0.));
#1633=DIRECTION('',(0.,0.,1.));
#1634=DIRECTION('',(1.,0.,0.));
#1635=DIRECTION('',(-0.707106781186548,-0.707106781186548,0.));
#1636=DIRECTION('',(0.707106781186548,-0.707106781186548,0.));
#1637=DIRECTION('',(-0.707106781186548,-0.707106781186547,0.));
#1638=DIRECTION('',(0.707106781186547,-0.707106781186548,0.));
#1639=DIRECTION('',(3.31872864259286E-7,0.999999999999945,0.));
#1640=DIRECTION('',(-0.999999999999945,3.31872864259286E-7,0.));
#1641=DIRECTION('',(-1.16379447745451E-7,1.,0.));
#1642=DIRECTION('',(-1.,-1.16379447745451E-7,0.));
#1643=DIRECTION('',(0.,-8.67361737988404E-16,1.));
#1644=DIRECTION('',(0.,-1.,-8.67361737988404E-16));
#1645=DIRECTION('',(0.707106781186547,0.707106781186549,0.));
#1646=DIRECTION('',(-0.707106781186549,0.707106781186547,0.));
#1647=DIRECTION('',(0.,0.,1.));
#1648=DIRECTION('',(1.,0.,0.));
#1649=DIRECTION('',(0.,0.,1.));
#1650=DIRECTION('',(1.,0.,0.));
#1651=DIRECTION('',(-1.1637944687809E-7,1.,0.));
#1652=DIRECTION('',(-1.,-1.1637944687809E-7,0.));
#1653=DIRECTION('',(-1.16379446992167E-7,1.,0.));
#1654=DIRECTION('',(-1.,-1.16379446992167E-7,0.));
#1655=DIRECTION('',(-0.707106863479239,0.707106698893847,0.));
#1656=DIRECTION('',(-0.707106698893847,-0.707106863479239,0.));
#1657=DIRECTION('',(0.707106781186548,0.707106781186548,0.));
#1658=DIRECTION('',(-0.707106781186548,0.707106781186548,0.));
#1659=DIRECTION('',(-0.707106781186548,-0.707106781186547,4.59988025005012E-16));
#1660=DIRECTION('',(0.707106781186547,-0.707106781186548,0.));
#1661=DIRECTION('',(0.,0.,1.));
#1662=DIRECTION('',(1.,0.,0.));
#1663=DIRECTION('',(0.,0.,1.));
#1664=DIRECTION('',(1.,0.,0.));
#1665=DIRECTION('',(1.16379446895566E-7,-1.,0.));
#1666=DIRECTION('',(1.,1.16379446895566E-7,0.));
#1667=DIRECTION('',(1.16379447745451E-7,-1.,0.));
#1668=DIRECTION('',(1.,1.16379447745451E-7,0.));
#1669=DIRECTION('',(-1.,-1.16379447138298E-7,0.));
#1670=DIRECTION('',(1.16379447138298E-7,-1.,0.));
#1671=DIRECTION('',(1.,1.16379447745451E-7,-1.7347234759768E-15));
#1672=DIRECTION('',(-1.16379447745451E-7,1.,0.));
#1673=DIRECTION('',(0.,0.,1.));
#1674=DIRECTION('',(1.,0.,0.));
#1675=DIRECTION('',(-1.1637944687809E-7,1.,0.));
#1676=DIRECTION('',(-1.,-1.1637944687809E-7,0.));
#1677=DIRECTION('',(0.,0.,-1.));
#1678=DIRECTION('',(-1.,0.,0.));
#1679=DIRECTION('',(0.,0.,-1.));
#1680=DIRECTION('',(-1.,0.,0.));
#1681=DIRECTION('',(-1.16379446895566E-7,1.,0.));
#1682=DIRECTION('',(-1.,-1.16379446895566E-7,0.));
#1683=DIRECTION('',(1.16379447745451E-7,-1.,-1.73472367786296E-15));
#1684=DIRECTION('',(1.,1.16379447745451E-7,0.));
#1685=DIRECTION('',(0.,0.,1.));
#1686=DIRECTION('',(1.,0.,0.));
#1687=DIRECTION('',(0.,0.,1.));
#1688=DIRECTION('',(1.,0.,0.));
#1689=DIRECTION('',(1.,1.16379447745451E-7,0.));
#1690=DIRECTION('',(-1.16379447745451E-7,1.,0.));
#1691=DIRECTION('',(1.,1.16379447745452E-7,0.));
#1692=DIRECTION('',(-1.16379447745452E-7,1.,0.));
#1693=DIRECTION('',(1.,1.16379447138298E-7,0.));
#1694=DIRECTION('',(-1.16379447138298E-7,1.,0.));
#1695=DIRECTION('',(0.,0.,1.));
#1696=DIRECTION('',(1.,0.,0.));
#1697=DIRECTION('',(0.,0.,-1.));
#1698=DIRECTION('',(-1.,0.,0.));
#1699=DIRECTION('',(0.,0.,1.));
#1700=DIRECTION('',(1.,0.,0.));
#1701=DIRECTION('',(-0.707106781186547,0.707106781186548,0.));
#1702=DIRECTION('',(-0.707106781186548,-0.707106781186547,0.));
#1703=DIRECTION('',(0.707106781186548,0.707106781186547,0.));
#1704=DIRECTION('',(-0.707106781186547,0.707106781186548,0.));
#1705=DIRECTION('',(0.707106781186548,0.707106781186547,0.));
#1706=DIRECTION('',(-0.707106781186547,0.707106781186548,0.));
#1707=DIRECTION('',(1.,-9.42055475210265E-16,0.));
#1708=DIRECTION('',(-7.85046229341887E-16,-1.,0.));
#1709=DIRECTION('',(0.707106781186547,-0.707106781186548,0.));
#1710=DIRECTION('',(0.707106781186548,0.707106781186547,0.));
#1711=CARTESIAN_POINT('',(0.,0.,0.));
#1712=CARTESIAN_POINT('',(0.00999999599480886,0.,-0.02));
#1713=CARTESIAN_POINT('',(7.75987312820757E-19,-0.00558506486722061,-0.02));
#1714=CARTESIAN_POINT('',(-0.00424264068711928,-0.00134242418010132,-0.02));
#1715=CARTESIAN_POINT('',(0.00424264068711929,-0.00134242418010133,-0.02));
#1716=CARTESIAN_POINT('',(0.0014142135623731,0.00148600294464483,-0.02));
#1717=CARTESIAN_POINT('',(2.80883741197566E-18,0.00290021650701793,-0.02));
#1718=CARTESIAN_POINT('',(0.00354988974389548,0.0064501062509134,-0.02));
#1719=CARTESIAN_POINT('',(0.0220000007463991,-0.00641349387783134,-0.02));
#1720=CARTESIAN_POINT('',(0.0180000007463991,-0.00641349434334912,-0.02));
#1721=CARTESIAN_POINT('',(0.0191715736216529,-0.00358506675308515,-0.02));
#1722=CARTESIAN_POINT('',(0.0180000022792989,-0.0195850627723905,-0.02));
#1723=CARTESIAN_POINT('',(0.01800000204654,-0.0175850627723904,-0.02));
#1724=CARTESIAN_POINT('',(-0.0199999979534598,-0.0175850671948094,-0.02));
#1725=CARTESIAN_POINT('',(-0.0179999979534597,-0.0175850669620505,-0.02));
#1726=CARTESIAN_POINT('',(-0.0180000040051921,0.0344149420029991,-0.02));
#1727=CARTESIAN_POINT('',(-0.018000003772433,0.0324149411064943,-0.02));
#1728=CARTESIAN_POINT('',(0.0199999953310641,0.0324149284953257,-0.02));
#1729=CARTESIAN_POINT('',(0.0199999959948098,0.0324149284953255,-0.02));
#1730=CARTESIAN_POINT('',(0.00999999599480886,0.0324149284953257,-0.02));
#1731=CARTESIAN_POINT('',(0.0379999959948098,0.0324149284953257,-0.02));
#1732=CARTESIAN_POINT('',(0.0379999959948098,0.,-0.02));
#1733=CARTESIAN_POINT('',(0.0379999959948098,0.0152433556200718,-0.02));
#1734=CARTESIAN_POINT('',(0.0163783181847734,-0.00637832218996456,-0.02));
#1735=CARTESIAN_POINT('',(-0.0100000008629466,0.0074149372877154,0.005));
#1736=CARTESIAN_POINT('',(-0.040000004005192,-0.00258506271228459,0.005));
#1737=CARTESIAN_POINT('',(-0.040000004005192,0.0124149417702402,0.005));
#1738=CARTESIAN_POINT('',(-0.040000004005192,-0.0175850671948094,0.005));
#1739=CARTESIAN_POINT('',(-0.038000004005192,-0.0175850671948094,0.005));
#1740=CARTESIAN_POINT('',(-0.038000004005192,-0.0195850671948094,0.005));
#1741=CARTESIAN_POINT('',(-0.030000004005192,-0.0195850671948094,0.005));
#1742=CARTESIAN_POINT('',(-0.0199999977207009,-0.0195850671948094,0.005));
#1743=CARTESIAN_POINT('',(2.27929901688851E-9,-0.0195850648672205,0.005));
#1744=CARTESIAN_POINT('',(-0.018,-0.0195850669620508,0.005));
#1745=CARTESIAN_POINT('',(-0.018,0.0074149372877154,0.005));
#1746=CARTESIAN_POINT('',(-0.018,0.0144149417702402,0.005));
#1747=CARTESIAN_POINT('',(-0.0300000040051921,0.0144149417702402,0.005));
#1748=CARTESIAN_POINT('',(-0.038000004005192,0.0144149417702402,0.005));
#1749=CARTESIAN_POINT('',(-0.038000004005192,0.0124149417702402,0.005));
#1750=CARTESIAN_POINT('',(-0.0300000040051921,-0.0110850627122846,0.005));
#1751=CARTESIAN_POINT('',(-0.0335355379111247,-0.00754952880635186,0.005));
#1752=CARTESIAN_POINT('',(-0.0264644700992593,-0.00754952880635186,0.005));
#1753=CARTESIAN_POINT('',(-0.0317677709581584,-0.00578176185338549,0.005));
#1754=CARTESIAN_POINT('',(-0.0300000040051921,-0.00401399490041912,0.005));
#1755=CARTESIAN_POINT('',(-0.0282322370522257,-0.00578176185338549,0.005));
#1756=CARTESIAN_POINT('',(-0.0317677709581584,0.0102182381466145,0.005));
#1757=CARTESIAN_POINT('',(-0.0300000040051921,0.0119860050995809,0.005));
#1758=CARTESIAN_POINT('',(-0.0335355379111247,0.00845047119364814,0.005));
#1759=CARTESIAN_POINT('',(-0.0282322370522257,0.0102182381466145,0.005));
#1760=CARTESIAN_POINT('',(-0.0264644700992593,0.00845047119364815,0.005));
#1761=CARTESIAN_POINT('',(-0.0300000040051921,0.0049149372877154,0.005));
#1762=CARTESIAN_POINT('',(-0.0291161205287088,-0.00843341228283504,0.000198));
#1763=CARTESIAN_POINT('',(-0.0282322370522257,-0.00931729575931823,0.000198));
#1764=CARTESIAN_POINT('',(-0.0282322370522257,-0.00931729575931822,0.0002));
#1765=CARTESIAN_POINT('',(-0.0282322370522257,-0.00931729575931823,0.004));
#1766=CARTESIAN_POINT('',(-0.0291161205287088,-0.00843341228283504,0.004));
#1767=CARTESIAN_POINT('',(-0.0300000040051921,-0.00754952880635186,0.004));
#1768=CARTESIAN_POINT('',(-0.0300000040051921,-0.00754952880635186,0.000198));
#1769=CARTESIAN_POINT('',(-0.0300000040051921,-0.00754952880635186,0.0002));
#1770=CARTESIAN_POINT('',(-0.0291161205287088,-0.00843341228283504,0.0002));
#1771=CARTESIAN_POINT('',(-0.0308838874816752,-0.00843341228283504,0.000198));
#1772=CARTESIAN_POINT('',(-0.0308838874816752,-0.00843341228283504,0.004));
#1773=CARTESIAN_POINT('',(-0.0317677709581584,-0.00931729575931823,0.004));
#1774=CARTESIAN_POINT('',(-0.0317677709581584,-0.00931729575931823,0.000198));
#1775=CARTESIAN_POINT('',(-0.0317677709581584,-0.00931729575931823,0.0002));
#1776=CARTESIAN_POINT('',(-0.0308838874816752,-0.00843341228283504,0.0002));
#1777=CARTESIAN_POINT('',(-0.0300000040051921,-0.0110850627122846,0.000198));
#1778=CARTESIAN_POINT('',(-0.0300000040051921,-0.0110850627122846,0.004));
#1779=CARTESIAN_POINT('',(-0.0300000040051921,-0.0110850627122846,0.0002));
#1780=CARTESIAN_POINT('',(-0.0300000040051921,0.0049149372877154,0.000198));
#1781=CARTESIAN_POINT('',(-0.0300000040051921,0.0049149372877154,0.004));
#1782=CARTESIAN_POINT('',(-0.0317677709581584,0.00668270424068178,0.004));
#1783=CARTESIAN_POINT('',(-0.0282322370522257,0.00668270424068177,0.004));
#1784=CARTESIAN_POINT('',(-0.0282322370522257,0.00668270424068177,0.000198));
#1785=CARTESIAN_POINT('',(-0.0282322370522257,0.00668270424068177,0.0002));
#1786=CARTESIAN_POINT('',(-0.0300000040051921,0.0049149372877154,0.0002));
#1787=CARTESIAN_POINT('',(-0.0317677709581584,0.00668270424068178,0.0002));
#1788=CARTESIAN_POINT('',(-0.0317677709581584,0.00668270424068178,0.000198));
#1789=CARTESIAN_POINT('',(-0.0291161205287088,0.00756658771716496,0.000198));
#1790=CARTESIAN_POINT('',(-0.0291161205287088,0.00756658771716496,0.004));
#1791=CARTESIAN_POINT('',(-0.0300000040051921,0.00845047119364814,0.004));
#1792=CARTESIAN_POINT('',(-0.0300000040051921,0.00845047119364814,0.000198));
#1793=CARTESIAN_POINT('',(-0.0300000040051921,0.00845047119364814,0.0002));
#1794=CARTESIAN_POINT('',(-0.0291161205287088,0.00756658771716496,0.0002));
#1795=CARTESIAN_POINT('',(-0.0308838874816752,0.00756658771716496,0.000198));
#1796=CARTESIAN_POINT('',(-0.0308838874816752,0.00756658771716496,0.004));
#1797=CARTESIAN_POINT('',(-0.0308838874816752,0.00756658771716496,0.0002));
#1798=CARTESIAN_POINT('',(-0.0100000008629466,0.0074149372877154,0.0002));
#1799=CARTESIAN_POINT('',(-0.030000004005192,-0.0195850671948094,0.0002));
#1800=CARTESIAN_POINT('',(-0.0199999977207009,-0.0195850671948094,0.0002));
#1801=CARTESIAN_POINT('',(-0.038000004005192,-0.0195850671948094,0.0002));
#1802=CARTESIAN_POINT('',(-0.038000004005192,-0.0175850671948094,0.0002));
#1803=CARTESIAN_POINT('',(-0.040000004005192,-0.0175850671948094,0.0002));
#1804=CARTESIAN_POINT('',(-0.040000004005192,-0.00258506271228459,0.0002));
#1805=CARTESIAN_POINT('',(-0.040000004005192,0.0124149417702402,0.0002));
#1806=CARTESIAN_POINT('',(-0.038000004005192,0.0124149417702402,0.0002));
#1807=CARTESIAN_POINT('',(-0.038000004005192,0.0144149417702402,0.0002));
#1808=CARTESIAN_POINT('',(-0.0300000040051921,0.0144149417702402,0.0002));
#1809=CARTESIAN_POINT('',(-0.0200000008629464,0.0144149417702402,0.0002));
#1810=CARTESIAN_POINT('',(-0.0200000008629464,0.0074149372877154,0.0002));
#1811=CARTESIAN_POINT('',(7.75987312820757E-19,-0.00558506486722061,-0.020002));
#1812=CARTESIAN_POINT('',(0.0028284271247462,-0.00275663774247442,-0.020002));
#1813=CARTESIAN_POINT('',(0.0028284271247462,-0.00275663774247442,-0.018));
#1814=CARTESIAN_POINT('',(0.0028284271247462,-0.00275663774247442,-0.008));
#1815=CARTESIAN_POINT('',(7.75987312820757E-19,-0.00558506486722061,-0.018));
#1816=CARTESIAN_POINT('',(-0.00282842712474619,-0.00275663774247442,-0.018));
#1817=CARTESIAN_POINT('',(-0.00282842712474619,-0.00275663774247442,-0.020002));
#1818=CARTESIAN_POINT('',(-0.00282842712474619,-0.00275663774247442,-0.008));
#1819=CARTESIAN_POINT('',(7.75987312820757E-19,-0.00558506486722061,-0.008));
#1820=CARTESIAN_POINT('',(0.0014142135623731,-0.00134242418010136,-0.020002));
#1821=CARTESIAN_POINT('',(5.20417042793042E-18,7.17893822717365E-5,-0.020002));
#1822=CARTESIAN_POINT('',(5.20417042793042E-18,7.17893822717365E-5,-0.018));
#1823=CARTESIAN_POINT('',(5.20417042793042E-18,7.17893822717365E-5,-0.008));
#1824=CARTESIAN_POINT('',(0.00282842712474617,-0.00275663774247444,-0.018));
#1825=CARTESIAN_POINT('',(0.0014142135623731,-0.00134242418010136,-0.008));
#1826=CARTESIAN_POINT('',(-0.00141421356237308,-0.00134242418010134,-0.020002));
#1827=CARTESIAN_POINT('',(-0.00141421356237308,-0.00134242418010134,-0.018));
#1828=CARTESIAN_POINT('',(-0.00141421356237308,-0.00134242418010134,-0.008));
#1829=CARTESIAN_POINT('',(0.020000001464643,-0.0125850646945643,-0.02));
#1830=CARTESIAN_POINT('',(0.0200000007463991,-0.00641349411059023,-0.02));
#1831=CARTESIAN_POINT('',(0.0200000007463991,-0.00641349411059023,-0.018));
#1832=CARTESIAN_POINT('',(0.0200000007463991,-0.00641349411059023,-0.002));
#1833=CARTESIAN_POINT('',(0.020000001464643,-0.0125850646945643,-0.002));
#1834=CARTESIAN_POINT('',(0.02000000204654,-0.0175850625396315,-0.002));
#1835=CARTESIAN_POINT('',(0.02000000204654,-0.0175850625396315,-0.02));
#1836=CARTESIAN_POINT('',(0.02000000204654,-0.0175850625396315,-0.018));
#1837=CARTESIAN_POINT('',(0.0200000006499872,-0.00558506684949705,-0.018));
#1838=CARTESIAN_POINT('',(0.0299999983223985,0.00441493082291428,-0.02));
#1839=CARTESIAN_POINT('',(0.0394142095571828,0.0138291420576987,-0.02));
#1840=CARTESIAN_POINT('',(0.0394142095571828,0.0138291420576987,-0.018));
#1841=CARTESIAN_POINT('',(0.0394142095571828,0.0138291420576987,-0.002));
#1842=CARTESIAN_POINT('',(0.0200000006499871,-0.00558506684949705,-0.002));
#1843=CARTESIAN_POINT('',(0.0205857871840259,-0.00499928031545824,-0.002));
#1844=CARTESIAN_POINT('',(0.0205857871840259,-0.00499928031545824,-0.02));
#1845=CARTESIAN_POINT('',(0.0205857871840259,-0.00499928031545824,-0.018));
#1846=CARTESIAN_POINT('',(0.0299999983223985,0.00441493082291428,-0.018));
#1847=CARTESIAN_POINT('',(0.0399999959948098,0.0244149284953256,-0.02));
#1848=CARTESIAN_POINT('',(0.0399999959948098,0.0324149284953257,-0.02));
#1849=CARTESIAN_POINT('',(0.0399999959948098,0.0324149284953257,-0.018));
#1850=CARTESIAN_POINT('',(0.0399999959948098,0.0324149284953257,-0.002));
#1851=CARTESIAN_POINT('',(0.0399999959948098,0.0144149284953256,-0.002));
#1852=CARTESIAN_POINT('',(0.0399999959948098,0.0152433556200718,-0.002));
#1853=CARTESIAN_POINT('',(0.0399999959948098,0.0152433556200718,-0.02));
#1854=CARTESIAN_POINT('',(0.0399999959948098,0.0152433556200718,-0.018));
#1855=CARTESIAN_POINT('',(0.0399999959948098,0.0244149284953256,-0.018));
#1856=CARTESIAN_POINT('',(0.0299999959948098,0.0344149284953257,-0.02));
#1857=CARTESIAN_POINT('',(0.0199999959948098,0.0344149284953257,-0.02));
#1858=CARTESIAN_POINT('',(0.0199999959948098,0.0344149284953257,-0.018));
#1859=CARTESIAN_POINT('',(0.0199999959948098,0.0344149284953257,-0.002));
#1860=CARTESIAN_POINT('',(0.0399999959948098,0.0344149284953257,-0.002));
#1861=CARTESIAN_POINT('',(0.0379999959948098,0.0344149284953257,-0.002));
#1862=CARTESIAN_POINT('',(0.0379999959948098,0.0344149284953257,-0.02));
#1863=CARTESIAN_POINT('',(0.0379999959948098,0.0344149284953257,-0.018));
#1864=CARTESIAN_POINT('',(0.0299999959948098,0.0344149284953257,-0.018));
#1865=CARTESIAN_POINT('',(-4.00519112320197E-9,0.0344149351327829,-0.02));
#1866=CARTESIAN_POINT('',(-0.0180000031086873,0.0344149411064942,-0.02));
#1867=CARTESIAN_POINT('',(-0.0180000031086873,0.0344149411064942,-0.018));
#1868=CARTESIAN_POINT('',(-0.0180000031086873,0.0344149411064942,-0.002));
#1869=CARTESIAN_POINT('',(-4.00519112320197E-9,0.0344149351327829,-0.002));
#1870=CARTESIAN_POINT('',(-0.020000004005192,0.0344149417702402,-0.018));
#1871=CARTESIAN_POINT('',(-0.0200000008629464,0.0074149372877154,-0.02));
#1872=CARTESIAN_POINT('',(-0.0200000008629464,0.0144149417702402,0.0002));
#1873=CARTESIAN_POINT('',(-0.0200000016776031,0.0144149417702401,-0.002));
#1874=CARTESIAN_POINT('',(-0.0200000008629464,0.0074149372877154,-0.002));
#1875=CARTESIAN_POINT('',(-0.0200000037724331,0.0324149408737354,-0.002));
#1876=CARTESIAN_POINT('',(-0.0200000037724331,0.0324149408737354,-0.02));
#1877=CARTESIAN_POINT('',(-0.0200000037724331,0.0324149408737354,-0.018));
#1878=CARTESIAN_POINT('',(-0.0199999977207008,-0.0195850671948094,-0.018));
#1879=CARTESIAN_POINT('',(-0.0199999977207009,-0.0195850671948094,-0.018));
#1880=CARTESIAN_POINT('',(-0.0199999977207009,-0.0195850671948094,-0.02));
#1881=CARTESIAN_POINT('',(2.27929901688851E-9,-0.0195850648672205,-0.02));
#1882=CARTESIAN_POINT('',(2.27929901688851E-9,-0.0195850648672205,-0.002));
#1883=CARTESIAN_POINT('',(0.0180000022792989,-0.0195850627723904,-0.002));
#1884=CARTESIAN_POINT('',(-0.011,-0.0195850661473947,-0.002));
#1885=CARTESIAN_POINT('',(0.00350000113964949,-0.0195850644598925,-0.0165000011396495));
#1886=CARTESIAN_POINT('',(-0.0199999977207009,-0.0195850671948094,0.005));
#1887=CARTESIAN_POINT('',(0.0200000022792989,-0.0195850625396315,-0.018));
#1888=CARTESIAN_POINT('',(0.0180000022792989,-0.0195850627723904,-0.018));
#1889=CARTESIAN_POINT('',(0.0180000022792989,-0.0195850627723904,-0.02));
#1890=CARTESIAN_POINT('',(0.00999999599480886,0.,0.));
#1891=CARTESIAN_POINT('',(1.1417527734761E-18,-0.00558506486722062,0.));
#1892=CARTESIAN_POINT('',(0.00707106781186548,0.00148600294464486,0.));
#1893=CARTESIAN_POINT('',(-0.00707106781186548,0.00148600294464486,0.));
#1894=CARTESIAN_POINT('',(-0.0014142135623731,0.00714285719413724,0.));
#1895=CARTESIAN_POINT('',(-8.41054581977593E-19,0.00855707075651034,0.));
#1896=CARTESIAN_POINT('',(0.0092785333756596,-0.000721462619149265,0.));
#1897=CARTESIAN_POINT('',(-0.013,-0.00258506230495666,0.));
#1898=CARTESIAN_POINT('',(-0.013,0.0144149417702402,0.));
#1899=CARTESIAN_POINT('',(-0.013,-0.0175850663801536,0.));
#1900=CARTESIAN_POINT('',(0.00999999804134886,-0.0175850637034265,0.));
#1901=CARTESIAN_POINT('',(0.01800000204654,-0.0175850627723904,0.));
#1902=CARTESIAN_POINT('',(0.018,9.31036041286467E-10,0.));
#1903=CARTESIAN_POINT('',(0.0180000007463991,-0.00641349434334912,0.));
#1904=CARTESIAN_POINT('',(0.0220000007463991,-0.00641349387783134,0.));
#1905=CARTESIAN_POINT('',(0.0191715736216529,-0.00358506675308515,0.));
#1906=CARTESIAN_POINT('',(0.0385857824324367,0.0158291420576987,0.));
#1907=CARTESIAN_POINT('',(0.0379999959948098,0.0152433556200718,0.));
#1908=CARTESIAN_POINT('',(0.0379999959948098,0.0344149284953256,0.));
#1909=CARTESIAN_POINT('',(0.0379999959948098,0.0324149284953257,0.));
#1910=CARTESIAN_POINT('',(0.0199999959948098,0.0324149284953257,0.));
#1911=CARTESIAN_POINT('',(0.0199999953310641,0.0324149284953257,0.));
#1912=CARTESIAN_POINT('',(0.0100000067524451,0.0324149318140506,0.));
#1913=CARTESIAN_POINT('',(-0.018000003772433,0.0324149411064943,0.));
#1914=CARTESIAN_POINT('',(-0.0179999999999998,-3.25862404965873E-9,0.));
#1915=CARTESIAN_POINT('',(-0.0180000016776031,0.0144149417702402,0.));
#1916=CARTESIAN_POINT('',(-0.0300000040051921,0.0144149417702402,0.));
#1917=CARTESIAN_POINT('',(1.1417527734761E-18,-0.00558506486722062,-0.008));
#1918=CARTESIAN_POINT('',(-0.00565685424949238,7.17893822717646E-5,-0.008));
#1919=CARTESIAN_POINT('',(-0.00565685424949238,7.17893822717646E-5,-0.008));
#1920=CARTESIAN_POINT('',(-0.00565685424949238,7.17893822717646E-5,-0.002));
#1921=CARTESIAN_POINT('',(1.1417527734761E-18,-0.00558506486722062,-0.002));
#1922=CARTESIAN_POINT('',(0.00565685424949238,7.17893822717638E-5,-0.002));
#1923=CARTESIAN_POINT('',(0.00565685424949238,7.17893822717638E-5,-0.008));
#1924=CARTESIAN_POINT('',(0.00565685424949238,7.17893822717638E-5,-0.008));
#1925=CARTESIAN_POINT('',(1.1417527734761E-18,-0.00558506486722062,-0.008));
#1926=CARTESIAN_POINT('',(0.00282842712474619,0.00290021650701795,-0.008));
#1927=CARTESIAN_POINT('',(0.00282842712474619,0.00290021650701795,-0.002));
#1928=CARTESIAN_POINT('',(-1.3010426069826E-18,0.00572864363176415,-0.002));
#1929=CARTESIAN_POINT('',(-1.3010426069826E-18,0.00572864363176415,-0.008));
#1930=CARTESIAN_POINT('',(-1.3010426069826E-18,0.00572864363176415,-0.008));
#1931=CARTESIAN_POINT('',(0.00282842712474619,0.00290021650701795,-0.008));
#1932=CARTESIAN_POINT('',(-0.00282842712474619,0.00290021650701795,-0.008));
#1933=CARTESIAN_POINT('',(-0.00565685424949238,7.17893822717656E-5,-0.002));
#1934=CARTESIAN_POINT('',(-0.00282842712474619,0.00290021650701795,-0.008));
#1935=CARTESIAN_POINT('',(0.00999999599480886,0.,-0.008));
#1936=CARTESIAN_POINT('',(-0.030000004005192,-0.0195850671948094,0.005));
#1937=CARTESIAN_POINT('',(-0.038000004005192,-0.0195850671948094,0.0002));
#1938=CARTESIAN_POINT('',(-0.0300000040051921,0.0144149417702402,0.005));
#1939=CARTESIAN_POINT('',(-0.038000004005192,0.0144149417702402,0.005));
#1940=CARTESIAN_POINT('',(-0.013,0.0144149417702402,6.07153570058867E-19));
#1941=CARTESIAN_POINT('',(-0.0180000016776031,0.0144149417702402,-0.002));
#1942=CARTESIAN_POINT('',(-0.040000004005192,-0.00258506271228459,0.005));
#1943=CARTESIAN_POINT('',(-0.040000004005192,-0.0175850671948094,0.005));
#1944=CARTESIAN_POINT('',(-0.040000004005192,0.0124149417702402,0.005));
#1945=CARTESIAN_POINT('',(-0.013,-0.00258506230495666,0.));
#1946=CARTESIAN_POINT('',(-0.011,-0.0175850661473947,-0.002));
#1947=CARTESIAN_POINT('',(-0.0282322370522257,0.0102182381466145,0.004));
#1948=CARTESIAN_POINT('',(-0.0300000040051921,0.0119860050995809,0.004));
#1949=CARTESIAN_POINT('',(-0.0300000040051921,0.0119860050995809,0.004));
#1950=CARTESIAN_POINT('',(-0.0282322370522257,0.0102182381466145,0.004));
#1951=CARTESIAN_POINT('',(-0.0264644700992593,0.00845047119364815,0.004));
#1952=CARTESIAN_POINT('',(-0.0264644700992593,0.00845047119364815,0.004));
#1953=CARTESIAN_POINT('',(-0.0317677709581584,0.0102182381466145,0.004));
#1954=CARTESIAN_POINT('',(-0.0335355379111247,0.00845047119364814,0.004));
#1955=CARTESIAN_POINT('',(-0.0335355379111247,0.00845047119364814,0.004));
#1956=CARTESIAN_POINT('',(-0.0317677709581584,0.0102182381466145,0.004));
#1957=CARTESIAN_POINT('',(-0.0300000040051921,0.0049149372877154,0.004));
#1958=CARTESIAN_POINT('',(-0.0300000040051921,0.0049149372877154,0.004));
#1959=CARTESIAN_POINT('',(-0.029000002002596,-0.0025850627122846,0.004));
#1960=CARTESIAN_POINT('',(-0.0300000040051921,-0.0110850627122846,0.004));
#1961=CARTESIAN_POINT('',(-0.0264644700992593,-0.00754952880635186,0.004));
#1962=CARTESIAN_POINT('',(-0.0264644700992593,-0.00754952880635186,0.004));
#1963=CARTESIAN_POINT('',(-0.0300000040051921,-0.0110850627122846,0.004));
#1964=CARTESIAN_POINT('',(-0.0335355379111247,-0.00754952880635186,0.004));
#1965=CARTESIAN_POINT('',(-0.0335355379111247,-0.00754952880635186,0.004));
#1966=CARTESIAN_POINT('',(-0.0282322370522257,-0.00578176185338549,0.004));
#1967=CARTESIAN_POINT('',(-0.0300000040051921,-0.00401399490041912,0.004));
#1968=CARTESIAN_POINT('',(-0.0300000040051921,-0.00401399490041912,0.004));
#1969=CARTESIAN_POINT('',(-0.0282322370522257,-0.00578176185338549,0.004));
#1970=CARTESIAN_POINT('',(-0.0317677709581584,-0.00578176185338549,0.004));
#1971=CARTESIAN_POINT('',(-0.0317677709581584,-0.00578176185338549,0.004));
#1972=CARTESIAN_POINT('',(-0.029000002002596,-0.0025850627122846,0.004));
#1973=CARTESIAN_POINT('',(0.0092785333756596,-0.000721462619149264,-0.002));
#1974=CARTESIAN_POINT('',(-1.3010426069826E-18,0.00855707075651034,-0.002));
#1975=CARTESIAN_POINT('',(0.00707106781186548,0.00148600294464486,-0.002));
#1976=CARTESIAN_POINT('',(1.1417527734761E-18,-0.00558506486722062,-0.002));
#1977=CARTESIAN_POINT('',(-0.00707106781186548,0.00148600294464486,-0.002));
#1978=CARTESIAN_POINT('',(-0.00424264068711928,0.00431443006939105,-0.002));
#1979=CARTESIAN_POINT('',(0.0379999959948098,0.0324149284953257,-0.018));
#1980=CARTESIAN_POINT('',(0.0379999959948098,0.0324149284953257,-0.018));
#1981=CARTESIAN_POINT('',(0.0379999959948098,0.0324149284953257,-0.018));
#1982=CARTESIAN_POINT('',(0.0379999959948098,0.0324149284953257,-0.018));
#1983=CARTESIAN_POINT('',(0.0100000067524451,0.0324149318140506,-0.002));
#1984=CARTESIAN_POINT('',(-0.018000003772433,0.0324149411064943,-0.002));
#1985=CARTESIAN_POINT('',(0.0199999953310641,0.0324149284953257,-0.002));
#1986=CARTESIAN_POINT('',(-0.0179999999999998,-3.25862404965873E-9,-0.002));
#1987=CARTESIAN_POINT('',(-0.018000003772433,0.0324149411064943,-0.002));
#1988=CARTESIAN_POINT('',(0.0299999959948098,0.0324149284953257,-0.002));
#1989=CARTESIAN_POINT('',(0.0379999959948098,0.0324149284953257,-0.002));
#1990=CARTESIAN_POINT('',(0.0379999959948098,0.0324149284953257,-0.02));
#1991=CARTESIAN_POINT('',(0.0379999959948098,0.0324149284953257,-0.002));
#1992=CARTESIAN_POINT('',(0.0379999959948098,0.,-0.018));
#1993=CARTESIAN_POINT('',(0.0379999959948098,0.0152433556200718,-0.018));
#1994=CARTESIAN_POINT('',(0.00999999599480886,0.0324149284953257,-0.018));
#1995=CARTESIAN_POINT('',(0.0199999959948098,0.0324149284953257,-0.018));
#1996=CARTESIAN_POINT('',(-0.018000003772433,0.0324149411064943,-0.002));
#1997=CARTESIAN_POINT('',(-0.018000003772433,0.0324149411064943,-0.002));
#1998=CARTESIAN_POINT('',(0.0379999959948098,0.0324149284953257,-0.002));
#1999=CARTESIAN_POINT('',(0.0379999959948098,0.0324149284953257,-0.002));
#2000=CARTESIAN_POINT('',(0.0379999959948098,0.0152433556200718,-0.018));
#2001=CARTESIAN_POINT('',(0.0379999959948098,0.0152433556200718,-0.018));
#2002=CARTESIAN_POINT('',(0.0379999959948098,0.0152433556200718,-0.018));
#2003=CARTESIAN_POINT('',(-4.66893685276131E-9,0.032414935132783,-0.018));
#2004=CARTESIAN_POINT('',(-0.018000003772433,0.0324149411064943,-0.018));
#2005=CARTESIAN_POINT('',(-0.018000003772433,0.0324149411064943,-0.02));
#2006=CARTESIAN_POINT('',(-0.018000003772433,0.0324149411064943,-0.018));
#2007=CARTESIAN_POINT('',(0.0379999959948098,0.0244149284953256,-0.002));
#2008=CARTESIAN_POINT('',(0.0379999959948098,0.0152433556200718,-0.002));
#2009=CARTESIAN_POINT('',(0.0379999959948098,0.0152433556200718,-0.02));
#2010=CARTESIAN_POINT('',(0.0379999959948098,0.0152433556200718,-0.002));
#2011=CARTESIAN_POINT('',(0.0163783181847734,-0.00637832218996456,-0.018));
#2012=CARTESIAN_POINT('',(0.0191715736216529,-0.00358506675308515,-0.018));
#2013=CARTESIAN_POINT('',(-0.018000003772433,0.0324149411064943,-0.018));
#2014=CARTESIAN_POINT('',(-0.018000003772433,0.0324149411064943,-0.018));
#2015=CARTESIAN_POINT('',(0.0379999959948098,0.0152433556200718,-0.002));
#2016=CARTESIAN_POINT('',(0.0379999959948098,0.0152433556200718,-0.002));
#2017=CARTESIAN_POINT('',(0.0220000007463991,-0.00641349387783134,-0.018));
#2018=CARTESIAN_POINT('',(0.0220000007463991,-0.00641349387783134,-0.018));
#2019=CARTESIAN_POINT('',(0.0180000007463991,-0.00641349434334912,-0.018));
#2020=CARTESIAN_POINT('',(-0.0180000008629464,0.00741493752047429,-0.018));
#2021=CARTESIAN_POINT('',(-0.0179999979534597,-0.0175850669620505,-0.018));
#2022=CARTESIAN_POINT('',(0.0285857847600253,0.00582914438528737,-0.002));
#2023=CARTESIAN_POINT('',(0.0191715736216529,-0.00358506675308515,-0.002));
#2024=CARTESIAN_POINT('',(0.0220000007463991,-0.00641349387783134,-0.02));
#2025=CARTESIAN_POINT('',(0.0220000007463991,-0.00641349387783134,-0.002));
#2026=CARTESIAN_POINT('',(0.018000001464643,-0.0125850649273232,-0.018));
#2027=CARTESIAN_POINT('',(0.01800000204654,-0.0175850627723904,-0.018));
#2028=CARTESIAN_POINT('',(2.04654012261191E-9,-0.0175850648672204,-0.018));
#2029=CARTESIAN_POINT('',(0.01800000204654,-0.0175850627723904,-0.018));
#2030=CARTESIAN_POINT('',(0.0220000007463991,-0.00641349387783134,-0.002));
#2031=CARTESIAN_POINT('',(0.0180000007463991,-0.00641349434334912,-0.002));
#2032=CARTESIAN_POINT('',(0.01800000204654,-0.0175850627723904,-0.018));
#2033=CARTESIAN_POINT('',(0.01800000204654,-0.0175850627723904,-0.018));
#2034=CARTESIAN_POINT('',(0.018,9.31036041286467E-10,-0.002));
#2035=CARTESIAN_POINT('',(0.01800000204654,-0.0175850627723904,-0.002));
#2036=CARTESIAN_POINT('',(0.01800000204654,-0.0175850627723904,-0.02));
#2037=CARTESIAN_POINT('',(0.01800000204654,-0.0175850627723904,-0.002));
#2038=CARTESIAN_POINT('',(0.01800000204654,-0.0175850627723904,-0.002));
#2039=CARTESIAN_POINT('',(0.01800000204654,-0.0175850627723904,-0.002));
#2040=CARTESIAN_POINT('',(0.00999999804134886,-0.0175850637034265,-0.002));
#2041=CARTESIAN_POINT('',(-0.038000004005192,-0.0175850671948094,0.005));
#2042=CARTESIAN_POINT('',(-0.038000004005192,0.0124149417702402,0.005));
#2043=CARTESIAN_POINT('',(7.75987312820757E-19,-0.00558506486722061,-0.018));
#2044=CARTESIAN_POINT('',(0.00424264068711929,-0.00134242418010133,-0.018));
#2045=CARTESIAN_POINT('',(-0.00424264068711928,-0.00134242418010132,-0.018));
#2046=CARTESIAN_POINT('',(-0.00282842712474618,7.17893822717555E-5,-0.018));
#2047=CARTESIAN_POINT('',(1.95156391047391E-18,0.00290021650701793,-0.018));
#2048=CARTESIAN_POINT('',(0.00645010625091339,-0.00354988974389547,-0.018));
#2049=MECHANICAL_DESIGN_GEOMETRIC_PRESENTATION_REPRESENTATION('',(#1190),
#2050);
#2050=(
GEOMETRIC_REPRESENTATION_CONTEXT(3)
GLOBAL_UNCERTAINTY_ASSIGNED_CONTEXT((#2051))
GLOBAL_UNIT_ASSIGNED_CONTEXT((#2054,#2053,#2052))
REPRESENTATION_CONTEXT('y axis bearing bracket',
'TOP_LEVEL_ASSEMBLY_PART')
);
#2051=UNCERTAINTY_MEASURE_WITH_UNIT(LENGTH_MEASURE(1.E-8),#2054,
'DISTANCE_ACCURACY_VALUE','Maximum Tolerance applied to model');
#2052=(
NAMED_UNIT(*)
SI_UNIT($,.STERADIAN.)
SOLID_ANGLE_UNIT()
);
#2053=(
NAMED_UNIT(*)
PLANE_ANGLE_UNIT()
SI_UNIT($,.RADIAN.)
);
#2054=(
LENGTH_UNIT()
NAMED_UNIT(*)
SI_UNIT($,.METRE.)
);
#2055=PRODUCT_DEFINITION_SHAPE('','',#2056);
#2056=PRODUCT_DEFINITION('','',#2058,#2057);
#2057=PRODUCT_DEFINITION_CONTEXT('',#2064,'design');
#2058=PRODUCT_DEFINITION_FORMATION_WITH_SPECIFIED_SOURCE('','',#2060,
 .NOT_KNOWN.);
#2059=PRODUCT_RELATED_PRODUCT_CATEGORY('','',(#2060));
#2060=PRODUCT('y axis bearing bracket','y axis bearing bracket',
'y axis bearing bracket',(#2062));
#2061=PRODUCT_CATEGORY('','');
#2062=PRODUCT_CONTEXT('',#2064,'mechanical');
#2063=APPLICATION_PROTOCOL_DEFINITION('international standard',
'ap242_managed_model_based_3d_engineering',2020,#2064);
#2064=APPLICATION_CONTEXT('managed model based 3d engineering');
ENDSEC;
END-ISO-10303-21;
