ISO-10303-21;
HEADER;
/* Generated by software containing ST-Developer
 * from STEP Tools, Inc. (www.steptools.com) 
 */
/* OPTION: using custom renumber hook */

FILE_DESCRIPTION(
/* description */ ('STEP AP242 Edition 2',
'CAx-IF Rec.Pracs.---Representation and Presentation of Product Manufa
cturing Information (PMI)---4.0---2014-10-13',
'CAx-IF Rec.Pracs.---3D Tessellated Geometry---0.4---2014-09-14','2;1',
'CAx-IF Rec.Pracs.---User Defined Attributes---1.5---2016-08-15'),
/* implementation_level */ '2;1');

FILE_NAME(
/* name */ 'y axis rail spacer - y axis rail spacer',
/* time_stamp */ '2026-09-08T16:39:01Z',
/* author */ (''),
/* organization */ (''),
/* preprocessor_version */ 'ST-DEVELOPER v20',
/* originating_system */ 'ONSHAPE BY PTC INC, 1.220',
/* authorisation */ '  ');

FILE_SCHEMA (('AP242_MANAGED_MODEL_BASED_3D_ENGINEERING_MIM_LF { 1 0 10303 442 3 1 4 }'));
ENDSEC;

DATA;
#10=SHAPE_REPRESENTATION_RELATIONSHIP('','',#1075,#11);
#11=ADVANCED_BREP_SHAPE_REPRESENTATION('',(#1073),#1960);
#12=TOROIDAL_SURFACE('',#1165,0.002,0.001);
#13=TOROIDAL_SURFACE('',#1194,0.002,0.001);
#14=TOROIDAL_SURFACE('',#1200,0.002,0.001);
#15=TOROIDAL_SURFACE('',#1216,0.002,0.001);
#16=TOROIDAL_SURFACE('',#1222,0.006,0.001);
#17=TOROIDAL_SURFACE('',#1228,0.0035,0.001);
#18=(
BOUNDED_SURFACE()
B_SPLINE_SURFACE(3,2,((#1841,#1842,#1843),(#1844,#1845,#1846),(#1847,#1848,
#1849),(#1850,#1851,#1852)),.UNSPECIFIED.,.F.,.F.,.F.)
B_SPLINE_SURFACE_WITH_KNOTS((4,4),(3,3),(4.71238898038469,5.49778714378214),
(0.,1.),.PIECEWISE_BEZIER_KNOTS.)
GEOMETRIC_REPRESENTATION_ITEM()
RATIONAL_B_SPLINE_SURFACE(((1.,0.707106781186548,1.),(1.,0.772556629839065,
1.),(1.,0.828237916154555,1.),(1.,0.866025403784438,1.)))
REPRESENTATION_ITEM('')
SURFACE()
);
#19=(
BOUNDED_SURFACE()
B_SPLINE_SURFACE(3,2,((#1865,#1866,#1867),(#1868,#1869,#1870),(#1871,#1872,
#1873),(#1874,#1875,#1876)),.UNSPECIFIED.,.F.,.F.,.F.)
B_SPLINE_SURFACE_WITH_KNOTS((4,4),(3,3),(0.785398163397449,1.5707963267949),
(0.,1.),.PIECEWISE_BEZIER_KNOTS.)
GEOMETRIC_REPRESENTATION_ITEM()
RATIONAL_B_SPLINE_SURFACE(((1.,0.866025403784439,1.),(1.,0.828237916154617,
1.),(1.,0.772556629839517,1.),(1.,0.707106781186548,1.)))
REPRESENTATION_ITEM('')
SURFACE()
);
#20=(
BOUNDED_SURFACE()
B_SPLINE_SURFACE(3,2,((#1899,#1900,#1901),(#1902,#1903,#1904),(#1905,#1906,
#1907),(#1908,#1909,#1910)),.UNSPECIFIED.,.F.,.F.,.F.)
B_SPLINE_SURFACE_WITH_KNOTS((4,4),(3,3),(4.71238898038469,5.49778714378214),
(0.,1.),.PIECEWISE_BEZIER_KNOTS.)
GEOMETRIC_REPRESENTATION_ITEM()
RATIONAL_B_SPLINE_SURFACE(((1.,0.707106781186548,1.),(1.,0.772556629838408,
1.),(1.,0.828237916154484,1.),(1.,0.866025403784439,1.)))
REPRESENTATION_ITEM('')
SURFACE()
);
#21=(
BOUNDED_SURFACE()
B_SPLINE_SURFACE(3,2,((#1931,#1932,#1933),(#1934,#1935,#1936),(#1937,#1938,
#1939),(#1940,#1941,#1942)),.UNSPECIFIED.,.F.,.F.,.F.)
B_SPLINE_SURFACE_WITH_KNOTS((4,4),(3,3),(0.78539816339745,1.5707963267949),
(0.,1.),.PIECEWISE_BEZIER_KNOTS.)
GEOMETRIC_REPRESENTATION_ITEM()
RATIONAL_B_SPLINE_SURFACE(((1.,0.866025403784438,1.),(1.,0.828237916154581,
1.),(1.,0.772556629839928,1.),(1.,0.707106781186548,1.)))
REPRESENTATION_ITEM('')
SURFACE()
);
#22=SPHERICAL_SURFACE('',#1112,0.001);
#23=SPHERICAL_SURFACE('',#1115,0.001);
#24=SPHERICAL_SURFACE('',#1129,0.001);
#25=SPHERICAL_SURFACE('',#1131,0.001);
#26=SPHERICAL_SURFACE('',#1133,0.001);
#27=SPHERICAL_SURFACE('',#1136,0.001);
#28=SPHERICAL_SURFACE('',#1151,0.001);
#29=SPHERICAL_SURFACE('',#1154,0.001);
#30=SPHERICAL_SURFACE('',#1157,0.001);
#31=SPHERICAL_SURFACE('',#1159,0.001);
#32=SPHERICAL_SURFACE('',#1182,0.001);
#33=SPHERICAL_SURFACE('',#1185,0.001);
#34=SPHERICAL_SURFACE('',#1187,0.001);
#35=SPHERICAL_SURFACE('',#1192,0.001);
#36=SPHERICAL_SURFACE('',#1208,0.001);
#37=SPHERICAL_SURFACE('',#1213,0.001);
#38=ELLIPSE('',#1102,0.00282842712474619,0.002);
#39=ELLIPSE('',#1103,0.00282842712474619,0.002);
#40=ELLIPSE('',#1106,0.00282842712474619,0.002);
#41=ELLIPSE('',#1107,0.00282842712474619,0.002);
#42=ELLIPSE('',#1164,0.00223606797749979,0.001);
#43=ELLIPSE('',#1177,0.00223606797749979,0.001);
#44=ELLIPSE('',#1196,0.00223606797749979,0.001);
#45=ELLIPSE('',#1215,0.00223606797749979,0.001);
#46=ELLIPSE('',#1220,0.00141421356237309,0.001);
#47=ELLIPSE('',#1226,0.00141421356237309,0.001);
#48=CYLINDRICAL_SURFACE('',#1083,0.0025);
#49=CYLINDRICAL_SURFACE('',#1109,0.001);
#50=CYLINDRICAL_SURFACE('',#1118,0.001);
#51=CYLINDRICAL_SURFACE('',#1120,0.001);
#52=CYLINDRICAL_SURFACE('',#1123,0.001);
#53=CYLINDRICAL_SURFACE('',#1125,0.001);
#54=CYLINDRICAL_SURFACE('',#1127,0.001);
#55=CYLINDRICAL_SURFACE('',#1139,0.001);
#56=CYLINDRICAL_SURFACE('',#1141,0.001);
#57=CYLINDRICAL_SURFACE('',#1143,0.001);
#58=CYLINDRICAL_SURFACE('',#1145,0.001);
#59=CYLINDRICAL_SURFACE('',#1147,0.001);
#60=CYLINDRICAL_SURFACE('',#1149,0.001);
#61=CYLINDRICAL_SURFACE('',#1161,0.001);
#62=CYLINDRICAL_SURFACE('',#1168,0.001);
#63=CYLINDRICAL_SURFACE('',#1170,0.001);
#64=CYLINDRICAL_SURFACE('',#1172,0.001);
#65=CYLINDRICAL_SURFACE('',#1174,0.001);
#66=CYLINDRICAL_SURFACE('',#1178,0.001);
#67=CYLINDRICAL_SURFACE('',#1180,0.001);
#68=CYLINDRICAL_SURFACE('',#1189,0.001);
#69=CYLINDRICAL_SURFACE('',#1198,0.001);
#70=CYLINDRICAL_SURFACE('',#1202,0.001);
#71=CYLINDRICAL_SURFACE('',#1204,0.001);
#72=CYLINDRICAL_SURFACE('',#1206,0.001);
#73=CYLINDRICAL_SURFACE('',#1211,0.001);
#74=CYLINDRICAL_SURFACE('',#1218,0.001);
#75=CYLINDRICAL_SURFACE('',#1219,0.001);
#76=CYLINDRICAL_SURFACE('',#1224,0.001);
#77=CYLINDRICAL_SURFACE('',#1225,0.001);
#78=CYLINDRICAL_SURFACE('',#1230,0.001);
#79=CIRCLE('',#1078,0.006);
#80=CIRCLE('',#1079,0.006);
#81=CIRCLE('',#1081,0.006);
#82=CIRCLE('',#1084,0.0025);
#83=CIRCLE('',#1085,0.0025);
#84=CIRCLE('',#1090,0.0035);
#85=CIRCLE('',#1093,0.002);
#86=CIRCLE('',#1094,0.002);
#87=CIRCLE('',#1097,0.002);
#88=CIRCLE('',#1098,0.002);
#89=CIRCLE('',#1100,0.005);
#90=CIRCLE('',#1110,0.001);
#91=CIRCLE('',#1111,0.001);
#92=CIRCLE('',#1113,0.001);
#93=CIRCLE('',#1114,0.001);
#94=CIRCLE('',#1116,0.001);
#95=CIRCLE('',#1117,0.001);
#96=CIRCLE('',#1119,0.001);
#97=CIRCLE('',#1121,0.001);
#98=CIRCLE('',#1122,0.001);
#99=CIRCLE('',#1124,0.001);
#100=CIRCLE('',#1126,0.001);
#101=CIRCLE('',#1128,0.001);
#102=CIRCLE('',#1130,0.001);
#103=CIRCLE('',#1132,0.001);
#104=CIRCLE('',#1134,0.001);
#105=CIRCLE('',#1135,0.001);
#106=CIRCLE('',#1137,0.001);
#107=CIRCLE('',#1138,0.001);
#108=CIRCLE('',#1140,0.001);
#109=CIRCLE('',#1142,0.001);
#110=CIRCLE('',#1144,0.001);
#111=CIRCLE('',#1146,0.001);
#112=CIRCLE('',#1148,0.001);
#113=CIRCLE('',#1150,0.001);
#114=CIRCLE('',#1152,0.001);
#115=CIRCLE('',#1153,0.001);
#116=CIRCLE('',#1155,0.001);
#117=CIRCLE('',#1156,0.001);
#118=CIRCLE('',#1158,0.001);
#119=CIRCLE('',#1160,0.001);
#120=CIRCLE('',#1162,0.001);
#121=CIRCLE('',#1163,0.001);
#122=CIRCLE('',#1166,0.001);
#123=CIRCLE('',#1167,0.001);
#124=CIRCLE('',#1169,0.001);
#125=CIRCLE('',#1171,0.001);
#126=CIRCLE('',#1173,0.001);
#127=CIRCLE('',#1175,0.001);
#128=CIRCLE('',#1176,0.001);
#129=CIRCLE('',#1179,0.001);
#130=CIRCLE('',#1181,0.001);
#131=CIRCLE('',#1183,0.001);
#132=CIRCLE('',#1184,0.001);
#133=CIRCLE('',#1186,0.001);
#134=CIRCLE('',#1188,0.001);
#135=CIRCLE('',#1190,0.001);
#136=CIRCLE('',#1191,0.001);
#137=CIRCLE('',#1193,0.001);
#138=CIRCLE('',#1195,0.001);
#139=CIRCLE('',#1197,0.001);
#140=CIRCLE('',#1199,0.001);
#141=CIRCLE('',#1201,0.001);
#142=CIRCLE('',#1203,0.001);
#143=CIRCLE('',#1205,0.001);
#144=CIRCLE('',#1207,0.001);
#145=CIRCLE('',#1209,0.001);
#146=CIRCLE('',#1210,0.001);
#147=CIRCLE('',#1212,0.001);
#148=CIRCLE('',#1214,0.001);
#149=CIRCLE('',#1217,0.001);
#150=CIRCLE('',#1221,0.001);
#151=CIRCLE('',#1223,0.001);
#152=CIRCLE('',#1227,0.001);
#153=CIRCLE('',#1229,0.001);
#154=ORIENTED_EDGE('',*,*,#458,.T.);
#155=ORIENTED_EDGE('',*,*,#459,.T.);
#156=ORIENTED_EDGE('',*,*,#460,.T.);
#157=ORIENTED_EDGE('',*,*,#461,.T.);
#158=ORIENTED_EDGE('',*,*,#462,.T.);
#159=ORIENTED_EDGE('',*,*,#463,.T.);
#160=ORIENTED_EDGE('',*,*,#464,.T.);
#161=ORIENTED_EDGE('',*,*,#465,.T.);
#162=ORIENTED_EDGE('',*,*,#466,.T.);
#163=ORIENTED_EDGE('',*,*,#467,.T.);
#164=ORIENTED_EDGE('',*,*,#468,.T.);
#165=ORIENTED_EDGE('',*,*,#469,.T.);
#166=ORIENTED_EDGE('',*,*,#470,.T.);
#167=ORIENTED_EDGE('',*,*,#471,.T.);
#168=ORIENTED_EDGE('',*,*,#472,.T.);
#169=ORIENTED_EDGE('',*,*,#473,.F.);
#170=ORIENTED_EDGE('',*,*,#474,.T.);
#171=ORIENTED_EDGE('',*,*,#475,.T.);
#172=ORIENTED_EDGE('',*,*,#476,.T.);
#173=ORIENTED_EDGE('',*,*,#477,.F.);
#174=ORIENTED_EDGE('',*,*,#478,.T.);
#175=ORIENTED_EDGE('',*,*,#473,.T.);
#176=ORIENTED_EDGE('',*,*,#479,.F.);
#177=ORIENTED_EDGE('',*,*,#475,.F.);
#178=ORIENTED_EDGE('',*,*,#480,.T.);
#179=ORIENTED_EDGE('',*,*,#477,.T.);
#180=ORIENTED_EDGE('',*,*,#481,.T.);
#181=ORIENTED_EDGE('',*,*,#482,.T.);
#182=ORIENTED_EDGE('',*,*,#483,.T.);
#183=ORIENTED_EDGE('',*,*,#484,.T.);
#184=ORIENTED_EDGE('',*,*,#485,.T.);
#185=ORIENTED_EDGE('',*,*,#486,.T.);
#186=ORIENTED_EDGE('',*,*,#487,.T.);
#187=ORIENTED_EDGE('',*,*,#488,.T.);
#188=ORIENTED_EDGE('',*,*,#489,.T.);
#189=ORIENTED_EDGE('',*,*,#490,.T.);
#190=ORIENTED_EDGE('',*,*,#491,.T.);
#191=ORIENTED_EDGE('',*,*,#492,.T.);
#192=ORIENTED_EDGE('',*,*,#493,.T.);
#193=ORIENTED_EDGE('',*,*,#494,.T.);
#194=ORIENTED_EDGE('',*,*,#495,.T.);
#195=ORIENTED_EDGE('',*,*,#496,.T.);
#196=ORIENTED_EDGE('',*,*,#497,.T.);
#197=ORIENTED_EDGE('',*,*,#498,.T.);
#198=ORIENTED_EDGE('',*,*,#499,.T.);
#199=ORIENTED_EDGE('',*,*,#500,.T.);
#200=ORIENTED_EDGE('',*,*,#501,.T.);
#201=ORIENTED_EDGE('',*,*,#502,.T.);
#202=ORIENTED_EDGE('',*,*,#503,.T.);
#203=ORIENTED_EDGE('',*,*,#504,.T.);
#204=ORIENTED_EDGE('',*,*,#505,.T.);
#205=ORIENTED_EDGE('',*,*,#506,.T.);
#206=ORIENTED_EDGE('',*,*,#507,.T.);
#207=ORIENTED_EDGE('',*,*,#508,.T.);
#208=ORIENTED_EDGE('',*,*,#509,.T.);
#209=ORIENTED_EDGE('',*,*,#510,.T.);
#210=ORIENTED_EDGE('',*,*,#511,.T.);
#211=ORIENTED_EDGE('',*,*,#512,.T.);
#212=ORIENTED_EDGE('',*,*,#513,.T.);
#213=ORIENTED_EDGE('',*,*,#514,.T.);
#214=ORIENTED_EDGE('',*,*,#515,.T.);
#215=ORIENTED_EDGE('',*,*,#516,.T.);
#216=ORIENTED_EDGE('',*,*,#517,.T.);
#217=ORIENTED_EDGE('',*,*,#518,.T.);
#218=ORIENTED_EDGE('',*,*,#481,.F.);
#219=ORIENTED_EDGE('',*,*,#479,.T.);
#220=ORIENTED_EDGE('',*,*,#476,.F.);
#221=ORIENTED_EDGE('',*,*,#519,.T.);
#222=ORIENTED_EDGE('',*,*,#520,.F.);
#223=ORIENTED_EDGE('',*,*,#521,.T.);
#224=ORIENTED_EDGE('',*,*,#522,.T.);
#225=ORIENTED_EDGE('',*,*,#523,.T.);
#226=ORIENTED_EDGE('',*,*,#524,.T.);
#227=ORIENTED_EDGE('',*,*,#525,.T.);
#228=ORIENTED_EDGE('',*,*,#526,.T.);
#229=ORIENTED_EDGE('',*,*,#527,.T.);
#230=ORIENTED_EDGE('',*,*,#528,.T.);
#231=ORIENTED_EDGE('',*,*,#529,.T.);
#232=ORIENTED_EDGE('',*,*,#530,.T.);
#233=ORIENTED_EDGE('',*,*,#531,.T.);
#234=ORIENTED_EDGE('',*,*,#532,.T.);
#235=ORIENTED_EDGE('',*,*,#533,.T.);
#236=ORIENTED_EDGE('',*,*,#534,.T.);
#237=ORIENTED_EDGE('',*,*,#535,.T.);
#238=ORIENTED_EDGE('',*,*,#536,.T.);
#239=ORIENTED_EDGE('',*,*,#537,.T.);
#240=ORIENTED_EDGE('',*,*,#538,.T.);
#241=ORIENTED_EDGE('',*,*,#539,.T.);
#242=ORIENTED_EDGE('',*,*,#540,.F.);
#243=ORIENTED_EDGE('',*,*,#496,.F.);
#244=ORIENTED_EDGE('',*,*,#541,.F.);
#245=ORIENTED_EDGE('',*,*,#490,.F.);
#246=ORIENTED_EDGE('',*,*,#542,.F.);
#247=ORIENTED_EDGE('',*,*,#540,.T.);
#248=ORIENTED_EDGE('',*,*,#543,.F.);
#249=ORIENTED_EDGE('',*,*,#544,.F.);
#250=ORIENTED_EDGE('',*,*,#545,.F.);
#251=ORIENTED_EDGE('',*,*,#541,.T.);
#252=ORIENTED_EDGE('',*,*,#545,.T.);
#253=ORIENTED_EDGE('',*,*,#515,.F.);
#254=ORIENTED_EDGE('',*,*,#546,.F.);
#255=ORIENTED_EDGE('',*,*,#491,.F.);
#256=ORIENTED_EDGE('',*,*,#547,.F.);
#257=ORIENTED_EDGE('',*,*,#492,.F.);
#258=ORIENTED_EDGE('',*,*,#548,.F.);
#259=ORIENTED_EDGE('',*,*,#482,.F.);
#260=ORIENTED_EDGE('',*,*,#543,.T.);
#261=ORIENTED_EDGE('',*,*,#493,.F.);
#262=ORIENTED_EDGE('',*,*,#549,.F.);
#263=ORIENTED_EDGE('',*,*,#510,.F.);
#264=ORIENTED_EDGE('',*,*,#542,.T.);
#265=ORIENTED_EDGE('',*,*,#509,.F.);
#266=ORIENTED_EDGE('',*,*,#550,.F.);
#267=ORIENTED_EDGE('',*,*,#497,.F.);
#268=ORIENTED_EDGE('',*,*,#544,.T.);
#269=ORIENTED_EDGE('',*,*,#495,.F.);
#270=ORIENTED_EDGE('',*,*,#551,.F.);
#271=ORIENTED_EDGE('',*,*,#516,.F.);
#272=ORIENTED_EDGE('',*,*,#548,.T.);
#273=ORIENTED_EDGE('',*,*,#546,.T.);
#274=ORIENTED_EDGE('',*,*,#552,.F.);
#275=ORIENTED_EDGE('',*,*,#549,.T.);
#276=ORIENTED_EDGE('',*,*,#547,.T.);
#277=ORIENTED_EDGE('',*,*,#553,.F.);
#278=ORIENTED_EDGE('',*,*,#554,.F.);
#279=ORIENTED_EDGE('',*,*,#550,.T.);
#280=ORIENTED_EDGE('',*,*,#555,.F.);
#281=ORIENTED_EDGE('',*,*,#556,.F.);
#282=ORIENTED_EDGE('',*,*,#557,.F.);
#283=ORIENTED_EDGE('',*,*,#551,.T.);
#284=ORIENTED_EDGE('',*,*,#557,.T.);
#285=ORIENTED_EDGE('',*,*,#525,.F.);
#286=ORIENTED_EDGE('',*,*,#558,.F.);
#287=ORIENTED_EDGE('',*,*,#517,.F.);
#288=ORIENTED_EDGE('',*,*,#552,.T.);
#289=ORIENTED_EDGE('',*,*,#514,.F.);
#290=ORIENTED_EDGE('',*,*,#559,.F.);
#291=ORIENTED_EDGE('',*,*,#483,.F.);
#292=ORIENTED_EDGE('',*,*,#553,.T.);
#293=ORIENTED_EDGE('',*,*,#486,.F.);
#294=ORIENTED_EDGE('',*,*,#560,.F.);
#295=ORIENTED_EDGE('',*,*,#507,.F.);
#296=ORIENTED_EDGE('',*,*,#555,.T.);
#297=ORIENTED_EDGE('',*,*,#508,.F.);
#298=ORIENTED_EDGE('',*,*,#561,.F.);
#299=ORIENTED_EDGE('',*,*,#506,.F.);
#300=ORIENTED_EDGE('',*,*,#554,.T.);
#301=ORIENTED_EDGE('',*,*,#505,.F.);
#302=ORIENTED_EDGE('',*,*,#562,.F.);
#303=ORIENTED_EDGE('',*,*,#498,.F.);
#304=ORIENTED_EDGE('',*,*,#556,.T.);
#305=ORIENTED_EDGE('',*,*,#494,.F.);
#306=ORIENTED_EDGE('',*,*,#563,.F.);
#307=ORIENTED_EDGE('',*,*,#526,.F.);
#308=ORIENTED_EDGE('',*,*,#564,.F.);
#309=ORIENTED_EDGE('',*,*,#558,.T.);
#310=ORIENTED_EDGE('',*,*,#565,.F.);
#311=ORIENTED_EDGE('',*,*,#566,.F.);
#312=ORIENTED_EDGE('',*,*,#559,.T.);
#313=ORIENTED_EDGE('',*,*,#567,.F.);
#314=ORIENTED_EDGE('',*,*,#561,.T.);
#315=ORIENTED_EDGE('',*,*,#560,.T.);
#316=ORIENTED_EDGE('',*,*,#568,.F.);
#317=ORIENTED_EDGE('',*,*,#563,.T.);
#318=ORIENTED_EDGE('',*,*,#562,.T.);
#319=ORIENTED_EDGE('',*,*,#569,.F.);
#320=ORIENTED_EDGE('',*,*,#570,.F.);
#321=ORIENTED_EDGE('',*,*,#523,.F.);
#322=ORIENTED_EDGE('',*,*,#571,.F.);
#323=ORIENTED_EDGE('',*,*,#528,.F.);
#324=ORIENTED_EDGE('',*,*,#524,.F.);
#325=ORIENTED_EDGE('',*,*,#570,.T.);
#326=ORIENTED_EDGE('',*,*,#572,.F.);
#327=ORIENTED_EDGE('',*,*,#565,.T.);
#328=ORIENTED_EDGE('',*,*,#518,.F.);
#329=ORIENTED_EDGE('',*,*,#564,.T.);
#330=ORIENTED_EDGE('',*,*,#573,.F.);
#331=ORIENTED_EDGE('',*,*,#574,.F.);
#332=ORIENTED_EDGE('',*,*,#567,.T.);
#333=ORIENTED_EDGE('',*,*,#513,.F.);
#334=ORIENTED_EDGE('',*,*,#575,.F.);
#335=ORIENTED_EDGE('',*,*,#531,.F.);
#336=ORIENTED_EDGE('',*,*,#566,.T.);
#337=ORIENTED_EDGE('',*,*,#536,.F.);
#338=ORIENTED_EDGE('',*,*,#576,.F.);
#339=ORIENTED_EDGE('',*,*,#484,.F.);
#340=ORIENTED_EDGE('',*,*,#568,.T.);
#341=ORIENTED_EDGE('',*,*,#485,.F.);
#342=ORIENTED_EDGE('',*,*,#577,.F.);
#343=ORIENTED_EDGE('',*,*,#499,.F.);
#344=ORIENTED_EDGE('',*,*,#569,.T.);
#345=ORIENTED_EDGE('',*,*,#504,.F.);
#346=ORIENTED_EDGE('',*,*,#578,.F.);
#347=ORIENTED_EDGE('',*,*,#527,.F.);
#348=ORIENTED_EDGE('',*,*,#571,.T.);
#349=ORIENTED_EDGE('',*,*,#522,.F.);
#350=ORIENTED_EDGE('',*,*,#579,.F.);
#351=ORIENTED_EDGE('',*,*,#580,.F.);
#352=ORIENTED_EDGE('',*,*,#572,.T.);
#353=ORIENTED_EDGE('',*,*,#530,.F.);
#354=ORIENTED_EDGE('',*,*,#581,.F.);
#355=ORIENTED_EDGE('',*,*,#467,.F.);
#356=ORIENTED_EDGE('',*,*,#463,.F.);
#357=ORIENTED_EDGE('',*,*,#573,.T.);
#358=ORIENTED_EDGE('',*,*,#574,.T.);
#359=ORIENTED_EDGE('',*,*,#462,.F.);
#360=ORIENTED_EDGE('',*,*,#582,.F.);
#361=ORIENTED_EDGE('',*,*,#511,.F.);
#362=ORIENTED_EDGE('',*,*,#583,.F.);
#363=ORIENTED_EDGE('',*,*,#575,.T.);
#364=ORIENTED_EDGE('',*,*,#584,.F.);
#365=ORIENTED_EDGE('',*,*,#577,.T.);
#366=ORIENTED_EDGE('',*,*,#576,.T.);
#367=ORIENTED_EDGE('',*,*,#585,.F.);
#368=ORIENTED_EDGE('',*,*,#579,.T.);
#369=ORIENTED_EDGE('',*,*,#578,.T.);
#370=ORIENTED_EDGE('',*,*,#586,.F.);
#371=ORIENTED_EDGE('',*,*,#587,.F.);
#372=ORIENTED_EDGE('',*,*,#529,.F.);
#373=ORIENTED_EDGE('',*,*,#580,.T.);
#374=ORIENTED_EDGE('',*,*,#588,.F.);
#375=ORIENTED_EDGE('',*,*,#471,.F.);
#376=ORIENTED_EDGE('',*,*,#581,.T.);
#377=ORIENTED_EDGE('',*,*,#587,.T.);
#378=ORIENTED_EDGE('',*,*,#589,.F.);
#379=ORIENTED_EDGE('',*,*,#512,.F.);
#380=ORIENTED_EDGE('',*,*,#582,.T.);
#381=ORIENTED_EDGE('',*,*,#590,.F.);
#382=ORIENTED_EDGE('',*,*,#584,.T.);
#383=ORIENTED_EDGE('',*,*,#532,.F.);
#384=ORIENTED_EDGE('',*,*,#583,.T.);
#385=ORIENTED_EDGE('',*,*,#591,.F.);
#386=ORIENTED_EDGE('',*,*,#592,.F.);
#387=ORIENTED_EDGE('',*,*,#585,.T.);
#388=ORIENTED_EDGE('',*,*,#535,.F.);
#389=ORIENTED_EDGE('',*,*,#593,.F.);
#390=ORIENTED_EDGE('',*,*,#500,.F.);
#391=ORIENTED_EDGE('',*,*,#586,.T.);
#392=ORIENTED_EDGE('',*,*,#503,.F.);
#393=ORIENTED_EDGE('',*,*,#594,.F.);
#394=ORIENTED_EDGE('',*,*,#588,.T.);
#395=ORIENTED_EDGE('',*,*,#589,.T.);
#396=ORIENTED_EDGE('',*,*,#470,.F.);
#397=ORIENTED_EDGE('',*,*,#595,.F.);
#398=ORIENTED_EDGE('',*,*,#468,.F.);
#399=ORIENTED_EDGE('',*,*,#461,.F.);
#400=ORIENTED_EDGE('',*,*,#465,.F.);
#401=ORIENTED_EDGE('',*,*,#596,.F.);
#402=ORIENTED_EDGE('',*,*,#537,.F.);
#403=ORIENTED_EDGE('',*,*,#591,.T.);
#404=ORIENTED_EDGE('',*,*,#590,.T.);
#405=ORIENTED_EDGE('',*,*,#592,.T.);
#406=ORIENTED_EDGE('',*,*,#539,.F.);
#407=ORIENTED_EDGE('',*,*,#597,.F.);
#408=ORIENTED_EDGE('',*,*,#533,.F.);
#409=ORIENTED_EDGE('',*,*,#598,.F.);
#410=ORIENTED_EDGE('',*,*,#593,.T.);
#411=ORIENTED_EDGE('',*,*,#599,.F.);
#412=ORIENTED_EDGE('',*,*,#594,.T.);
#413=ORIENTED_EDGE('',*,*,#502,.F.);
#414=ORIENTED_EDGE('',*,*,#600,.F.);
#415=ORIENTED_EDGE('',*,*,#472,.F.);
#416=ORIENTED_EDGE('',*,*,#596,.T.);
#417=ORIENTED_EDGE('',*,*,#595,.T.);
#418=ORIENTED_EDGE('',*,*,#601,.F.);
#419=ORIENTED_EDGE('',*,*,#534,.F.);
#420=ORIENTED_EDGE('',*,*,#597,.T.);
#421=ORIENTED_EDGE('',*,*,#602,.F.);
#422=ORIENTED_EDGE('',*,*,#599,.T.);
#423=ORIENTED_EDGE('',*,*,#501,.F.);
#424=ORIENTED_EDGE('',*,*,#598,.T.);
#425=ORIENTED_EDGE('',*,*,#603,.F.);
#426=ORIENTED_EDGE('',*,*,#600,.T.);
#427=ORIENTED_EDGE('',*,*,#601,.T.);
#428=ORIENTED_EDGE('',*,*,#469,.F.);
#429=ORIENTED_EDGE('',*,*,#603,.T.);
#430=ORIENTED_EDGE('',*,*,#602,.T.);
#431=ORIENTED_EDGE('',*,*,#538,.F.);
#432=ORIENTED_EDGE('',*,*,#604,.F.);
#433=ORIENTED_EDGE('',*,*,#520,.T.);
#434=ORIENTED_EDGE('',*,*,#605,.F.);
#435=ORIENTED_EDGE('',*,*,#459,.F.);
#436=ORIENTED_EDGE('',*,*,#605,.T.);
#437=ORIENTED_EDGE('',*,*,#519,.F.);
#438=ORIENTED_EDGE('',*,*,#606,.F.);
#439=ORIENTED_EDGE('',*,*,#464,.F.);
#440=ORIENTED_EDGE('',*,*,#466,.F.);
#441=ORIENTED_EDGE('',*,*,#460,.F.);
#442=ORIENTED_EDGE('',*,*,#604,.T.);
#443=ORIENTED_EDGE('',*,*,#458,.F.);
#444=ORIENTED_EDGE('',*,*,#606,.T.);
#445=ORIENTED_EDGE('',*,*,#521,.F.);
#446=ORIENTED_EDGE('',*,*,#607,.F.);
#447=ORIENTED_EDGE('',*,*,#487,.F.);
#448=ORIENTED_EDGE('',*,*,#608,.F.);
#449=ORIENTED_EDGE('',*,*,#478,.F.);
#450=ORIENTED_EDGE('',*,*,#608,.T.);
#451=ORIENTED_EDGE('',*,*,#489,.F.);
#452=ORIENTED_EDGE('',*,*,#609,.F.);
#453=ORIENTED_EDGE('',*,*,#474,.F.);
#454=ORIENTED_EDGE('',*,*,#607,.T.);
#455=ORIENTED_EDGE('',*,*,#480,.F.);
#456=ORIENTED_EDGE('',*,*,#609,.T.);
#457=ORIENTED_EDGE('',*,*,#488,.F.);
#458=EDGE_CURVE('',#610,#611,#691,.F.);
#459=EDGE_CURVE('',#611,#612,#692,.T.);
#460=EDGE_CURVE('',#612,#613,#79,.T.);
#461=EDGE_CURVE('',#613,#614,#693,.F.);
#462=EDGE_CURVE('',#614,#615,#694,.F.);
#463=EDGE_CURVE('',#615,#616,#695,.T.);
#464=EDGE_CURVE('',#616,#610,#80,.T.);
#465=EDGE_CURVE('',#617,#613,#696,.F.);
#466=EDGE_CURVE('',#613,#616,#81,.T.);
#467=EDGE_CURVE('',#616,#618,#697,.T.);
#468=EDGE_CURVE('',#618,#617,#698,.T.);
#469=EDGE_CURVE('',#619,#620,#699,.F.);
#470=EDGE_CURVE('',#620,#621,#700,.F.);
#471=EDGE_CURVE('',#621,#622,#701,.T.);
#472=EDGE_CURVE('',#622,#619,#702,.F.);
#473=EDGE_CURVE('',#623,#624,#703,.T.);
#474=EDGE_CURVE('',#623,#625,#82,.T.);
#475=EDGE_CURVE('',#625,#626,#704,.T.);
#476=EDGE_CURVE('',#626,#624,#83,.T.);
#477=EDGE_CURVE('',#627,#628,#705,.T.);
#478=EDGE_CURVE('',#627,#623,#706,.T.);
#479=EDGE_CURVE('',#628,#624,#707,.T.);
#480=EDGE_CURVE('',#625,#627,#708,.F.);
#481=EDGE_CURVE('',#628,#626,#709,.T.);
#482=EDGE_CURVE('',#629,#630,#710,.T.);
#483=EDGE_CURVE('',#630,#631,#711,.T.);
#484=EDGE_CURVE('',#631,#632,#712,.T.);
#485=EDGE_CURVE('',#632,#633,#713,.F.);
#486=EDGE_CURVE('',#633,#629,#714,.F.);
#487=EDGE_CURVE('',#634,#635,#715,.F.);
#488=EDGE_CURVE('',#635,#636,#716,.T.);
#489=EDGE_CURVE('',#636,#634,#84,.F.);
#490=EDGE_CURVE('',#637,#638,#717,.T.);
#491=EDGE_CURVE('',#638,#639,#718,.F.);
#492=EDGE_CURVE('',#639,#640,#719,.F.);
#493=EDGE_CURVE('',#640,#637,#720,.T.);
#494=EDGE_CURVE('',#641,#642,#721,.F.);
#495=EDGE_CURVE('',#642,#643,#722,.F.);
#496=EDGE_CURVE('',#643,#644,#723,.F.);
#497=EDGE_CURVE('',#644,#645,#724,.T.);
#498=EDGE_CURVE('',#645,#641,#725,.T.);
#499=EDGE_CURVE('',#646,#647,#726,.T.);
#500=EDGE_CURVE('',#647,#648,#727,.T.);
#501=EDGE_CURVE('',#648,#649,#85,.T.);
#502=EDGE_CURVE('',#649,#650,#728,.T.);
#503=EDGE_CURVE('',#650,#651,#86,.T.);
#504=EDGE_CURVE('',#651,#652,#729,.T.);
#505=EDGE_CURVE('',#652,#653,#730,.F.);
#506=EDGE_CURVE('',#653,#646,#731,.F.);
#507=EDGE_CURVE('',#654,#655,#732,.T.);
#508=EDGE_CURVE('',#655,#656,#733,.T.);
#509=EDGE_CURVE('',#656,#657,#734,.F.);
#510=EDGE_CURVE('',#657,#654,#735,.F.);
#511=EDGE_CURVE('',#658,#659,#736,.T.);
#512=EDGE_CURVE('',#659,#660,#87,.F.);
#513=EDGE_CURVE('',#660,#661,#737,.T.);
#514=EDGE_CURVE('',#661,#662,#738,.F.);
#515=EDGE_CURVE('',#662,#663,#739,.T.);
#516=EDGE_CURVE('',#663,#664,#740,.T.);
#517=EDGE_CURVE('',#664,#665,#741,.T.);
#518=EDGE_CURVE('',#665,#658,#88,.F.);
#519=EDGE_CURVE('',#666,#667,#89,.T.);
#520=EDGE_CURVE('',#668,#667,#742,.T.);
#521=EDGE_CURVE('',#668,#666,#743,.T.);
#522=EDGE_CURVE('',#669,#670,#38,.T.);
#523=EDGE_CURVE('',#670,#671,#744,.F.);
#524=EDGE_CURVE('',#671,#672,#39,.T.);
#525=EDGE_CURVE('',#672,#673,#745,.F.);
#526=EDGE_CURVE('',#673,#674,#746,.T.);
#527=EDGE_CURVE('',#674,#669,#747,.F.);
#528=EDGE_CURVE('',#675,#676,#748,.T.);
#529=EDGE_CURVE('',#676,#677,#749,.F.);
#530=EDGE_CURVE('',#677,#675,#750,.F.);
#531=EDGE_CURVE('',#678,#679,#751,.F.);
#532=EDGE_CURVE('',#679,#680,#40,.F.);
#533=EDGE_CURVE('',#680,#681,#752,.T.);
#534=EDGE_CURVE('',#681,#682,#41,.F.);
#535=EDGE_CURVE('',#682,#683,#753,.F.);
#536=EDGE_CURVE('',#683,#678,#754,.F.);
#537=EDGE_CURVE('',#684,#685,#755,.T.);
#538=EDGE_CURVE('',#685,#686,#756,.T.);
#539=EDGE_CURVE('',#686,#684,#757,.F.);
#540=EDGE_CURVE('',#644,#637,#90,.T.);
#541=EDGE_CURVE('',#638,#643,#91,.T.);
#542=EDGE_CURVE('',#644,#657,#92,.F.);
#543=EDGE_CURVE('',#657,#637,#93,.F.);
#544=EDGE_CURVE('',#663,#643,#94,.F.);
#545=EDGE_CURVE('',#638,#663,#95,.F.);
#546=EDGE_CURVE('',#639,#662,#96,.T.);
#547=EDGE_CURVE('',#640,#629,#97,.T.);
#548=EDGE_CURVE('',#630,#639,#98,.T.);
#549=EDGE_CURVE('',#654,#640,#99,.T.);
#550=EDGE_CURVE('',#645,#656,#100,.T.);
#551=EDGE_CURVE('',#664,#642,#101,.T.);
#552=EDGE_CURVE('',#630,#662,#102,.F.);
#553=EDGE_CURVE('',#654,#629,#103,.F.);
#554=EDGE_CURVE('',#645,#653,#104,.F.);
#555=EDGE_CURVE('',#653,#656,#105,.F.);
#556=EDGE_CURVE('',#673,#642,#106,.F.);
#557=EDGE_CURVE('',#664,#673,#107,.F.);
#558=EDGE_CURVE('',#665,#672,#108,.F.);
#559=EDGE_CURVE('',#631,#661,#109,.T.);
#560=EDGE_CURVE('',#655,#633,#110,.T.);
#561=EDGE_CURVE('',#646,#655,#111,.T.);
#562=EDGE_CURVE('',#641,#652,#112,.T.);
#563=EDGE_CURVE('',#674,#641,#113,.T.);
#564=EDGE_CURVE('',#665,#687,#114,.F.);
#565=EDGE_CURVE('',#687,#672,#115,.F.);
#566=EDGE_CURVE('',#631,#678,#116,.F.);
#567=EDGE_CURVE('',#678,#661,#117,.F.);
#568=EDGE_CURVE('',#646,#633,#118,.F.);
#569=EDGE_CURVE('',#674,#652,#119,.F.);
#570=EDGE_CURVE('',#671,#675,#120,.T.);
#571=EDGE_CURVE('',#676,#670,#121,.T.);
#572=EDGE_CURVE('',#687,#675,#42,.T.);
#573=EDGE_CURVE('',#615,#687,#122,.T.);
#574=EDGE_CURVE('',#658,#615,#123,.T.);
#575=EDGE_CURVE('',#679,#660,#124,.F.);
#576=EDGE_CURVE('',#632,#683,#125,.T.);
#577=EDGE_CURVE('',#647,#632,#126,.T.);
#578=EDGE_CURVE('',#669,#651,#127,.F.);
#579=EDGE_CURVE('',#688,#669,#128,.T.);
#580=EDGE_CURVE('',#676,#688,#43,.T.);
#581=EDGE_CURVE('',#618,#677,#129,.T.);
#582=EDGE_CURVE('',#659,#614,#130,.T.);
#583=EDGE_CURVE('',#679,#689,#131,.F.);
#584=EDGE_CURVE('',#689,#660,#132,.F.);
#585=EDGE_CURVE('',#647,#683,#133,.F.);
#586=EDGE_CURVE('',#688,#651,#134,.F.);
#587=EDGE_CURVE('',#677,#621,#135,.T.);
#588=EDGE_CURVE('',#622,#688,#136,.T.);
#589=EDGE_CURVE('',#618,#621,#137,.F.);
#590=EDGE_CURVE('',#689,#614,#138,.T.);
#591=EDGE_CURVE('',#684,#689,#44,.F.);
#592=EDGE_CURVE('',#680,#684,#139,.T.);
#593=EDGE_CURVE('',#648,#682,#140,.F.);
#594=EDGE_CURVE('',#622,#650,#141,.T.);
#595=EDGE_CURVE('',#617,#620,#142,.T.);
#596=EDGE_CURVE('',#685,#617,#143,.T.);
#597=EDGE_CURVE('',#681,#686,#144,.T.);
#598=EDGE_CURVE('',#648,#690,#145,.F.);
#599=EDGE_CURVE('',#690,#682,#146,.F.);
#600=EDGE_CURVE('',#619,#649,#147,.T.);
#601=EDGE_CURVE('',#685,#620,#148,.F.);
#602=EDGE_CURVE('',#690,#686,#45,.F.);
#603=EDGE_CURVE('',#619,#690,#149,.F.);
#604=EDGE_CURVE('',#668,#611,#46,.T.);
#605=EDGE_CURVE('',#612,#667,#150,.T.);
#606=EDGE_CURVE('',#610,#666,#151,.T.);
#607=EDGE_CURVE('',#635,#627,#47,.F.);
#608=EDGE_CURVE('',#623,#634,#152,.T.);
#609=EDGE_CURVE('',#625,#636,#153,.T.);
#610=VERTEX_POINT('',#1611);
#611=VERTEX_POINT('',#1612);
#612=VERTEX_POINT('',#1614);
#613=VERTEX_POINT('',#1616);
#614=VERTEX_POINT('',#1618);
#615=VERTEX_POINT('',#1620);
#616=VERTEX_POINT('',#1622);
#617=VERTEX_POINT('',#1626);
#618=VERTEX_POINT('',#1629);
#619=VERTEX_POINT('',#1633);
#620=VERTEX_POINT('',#1634);
#621=VERTEX_POINT('',#1636);
#622=VERTEX_POINT('',#1638);
#623=VERTEX_POINT('',#1642);
#624=VERTEX_POINT('',#1643);
#625=VERTEX_POINT('',#1645);
#626=VERTEX_POINT('',#1647);
#627=VERTEX_POINT('',#1651);
#628=VERTEX_POINT('',#1652);
#629=VERTEX_POINT('',#1660);
#630=VERTEX_POINT('',#1661);
#631=VERTEX_POINT('',#1663);
#632=VERTEX_POINT('',#1665);
#633=VERTEX_POINT('',#1667);
#634=VERTEX_POINT('',#1671);
#635=VERTEX_POINT('',#1672);
#636=VERTEX_POINT('',#1674);
#637=VERTEX_POINT('',#1677);
#638=VERTEX_POINT('',#1678);
#639=VERTEX_POINT('',#1680);
#640=VERTEX_POINT('',#1682);
#641=VERTEX_POINT('',#1686);
#642=VERTEX_POINT('',#1687);
#643=VERTEX_POINT('',#1689);
#644=VERTEX_POINT('',#1691);
#645=VERTEX_POINT('',#1693);
#646=VERTEX_POINT('',#1697);
#647=VERTEX_POINT('',#1698);
#648=VERTEX_POINT('',#1700);
#649=VERTEX_POINT('',#1702);
#650=VERTEX_POINT('',#1704);
#651=VERTEX_POINT('',#1706);
#652=VERTEX_POINT('',#1708);
#653=VERTEX_POINT('',#1710);
#654=VERTEX_POINT('',#1714);
#655=VERTEX_POINT('',#1715);
#656=VERTEX_POINT('',#1717);
#657=VERTEX_POINT('',#1719);
#658=VERTEX_POINT('',#1723);
#659=VERTEX_POINT('',#1724);
#660=VERTEX_POINT('',#1726);
#661=VERTEX_POINT('',#1728);
#662=VERTEX_POINT('',#1730);
#663=VERTEX_POINT('',#1732);
#664=VERTEX_POINT('',#1734);
#665=VERTEX_POINT('',#1736);
#666=VERTEX_POINT('',#1740);
#667=VERTEX_POINT('',#1741);
#668=VERTEX_POINT('',#1743);
#669=VERTEX_POINT('',#1747);
#670=VERTEX_POINT('',#1748);
#671=VERTEX_POINT('',#1750);
#672=VERTEX_POINT('',#1752);
#673=VERTEX_POINT('',#1754);
#674=VERTEX_POINT('',#1756);
#675=VERTEX_POINT('',#1760);
#676=VERTEX_POINT('',#1761);
#677=VERTEX_POINT('',#1763);
#678=VERTEX_POINT('',#1767);
#679=VERTEX_POINT('',#1768);
#680=VERTEX_POINT('',#1770);
#681=VERTEX_POINT('',#1772);
#682=VERTEX_POINT('',#1774);
#683=VERTEX_POINT('',#1776);
#684=VERTEX_POINT('',#1780);
#685=VERTEX_POINT('',#1781);
#686=VERTEX_POINT('',#1783);
#687=VERTEX_POINT('',#1829);
#688=VERTEX_POINT('',#1878);
#689=VERTEX_POINT('',#1886);
#690=VERTEX_POINT('',#1925);
#691=LINE('',#1610,#758);
#692=LINE('',#1613,#759);
#693=LINE('',#1617,#760);
#694=LINE('',#1619,#761);
#695=LINE('',#1621,#762);
#696=LINE('',#1625,#763);
#697=LINE('',#1628,#764);
#698=LINE('',#1630,#765);
#699=LINE('',#1632,#766);
#700=LINE('',#1635,#767);
#701=LINE('',#1637,#768);
#702=LINE('',#1639,#769);
#703=LINE('',#1641,#770);
#704=LINE('',#1646,#771);
#705=LINE('',#1650,#772);
#706=LINE('',#1653,#773);
#707=LINE('',#1654,#774);
#708=LINE('',#1656,#775);
#709=LINE('',#1657,#776);
#710=LINE('',#1659,#777);
#711=LINE('',#1662,#778);
#712=LINE('',#1664,#779);
#713=LINE('',#1666,#780);
#714=LINE('',#1668,#781);
#715=LINE('',#1670,#782);
#716=LINE('',#1673,#783);
#717=LINE('',#1676,#784);
#718=LINE('',#1679,#785);
#719=LINE('',#1681,#786);
#720=LINE('',#1683,#787);
#721=LINE('',#1685,#788);
#722=LINE('',#1688,#789);
#723=LINE('',#1690,#790);
#724=LINE('',#1692,#791);
#725=LINE('',#1694,#792);
#726=LINE('',#1696,#793);
#727=LINE('',#1699,#794);
#728=LINE('',#1703,#795);
#729=LINE('',#1707,#796);
#730=LINE('',#1709,#797);
#731=LINE('',#1711,#798);
#732=LINE('',#1713,#799);
#733=LINE('',#1716,#800);
#734=LINE('',#1718,#801);
#735=LINE('',#1720,#802);
#736=LINE('',#1722,#803);
#737=LINE('',#1727,#804);
#738=LINE('',#1729,#805);
#739=LINE('',#1731,#806);
#740=LINE('',#1733,#807);
#741=LINE('',#1735,#808);
#742=LINE('',#1742,#809);
#743=LINE('',#1744,#810);
#744=LINE('',#1749,#811);
#745=LINE('',#1753,#812);
#746=LINE('',#1755,#813);
#747=LINE('',#1757,#814);
#748=LINE('',#1759,#815);
#749=LINE('',#1762,#816);
#750=LINE('',#1764,#817);
#751=LINE('',#1766,#818);
#752=LINE('',#1771,#819);
#753=LINE('',#1775,#820);
#754=LINE('',#1777,#821);
#755=LINE('',#1779,#822);
#756=LINE('',#1782,#823);
#757=LINE('',#1784,#824);
#758=VECTOR('',#1235,1.);
#759=VECTOR('',#1236,1.);
#760=VECTOR('',#1239,1.);
#761=VECTOR('',#1240,1.);
#762=VECTOR('',#1241,1.);
#763=VECTOR('',#1246,1.);
#764=VECTOR('',#1249,1.);
#765=VECTOR('',#1250,1.);
#766=VECTOR('',#1253,1.);
#767=VECTOR('',#1254,1.);
#768=VECTOR('',#1255,1.);
#769=VECTOR('',#1256,1.);
#770=VECTOR('',#1259,1.);
#771=VECTOR('',#1262,1.);
#772=VECTOR('',#1267,1.);
#773=VECTOR('',#1268,1.);
#774=VECTOR('',#1269,1.);
#775=VECTOR('',#1272,1.);
#776=VECTOR('',#1273,1.);
#777=VECTOR('',#1276,1.);
#778=VECTOR('',#1277,1.);
#779=VECTOR('',#1278,1.);
#780=VECTOR('',#1279,1.);
#781=VECTOR('',#1280,1.);
#782=VECTOR('',#1283,1.);
#783=VECTOR('',#1284,1.);
#784=VECTOR('',#1287,1.);
#785=VECTOR('',#1288,1.);
#786=VECTOR('',#1289,1.);
#787=VECTOR('',#1290,1.);
#788=VECTOR('',#1293,1.);
#789=VECTOR('',#1294,1.);
#790=VECTOR('',#1295,1.);
#791=VECTOR('',#1296,1.);
#792=VECTOR('',#1297,1.);
#793=VECTOR('',#1300,1.);
#794=VECTOR('',#1301,1.);
#795=VECTOR('',#1304,1.);
#796=VECTOR('',#1307,1.);
#797=VECTOR('',#1308,1.);
#798=VECTOR('',#1309,1.);
#799=VECTOR('',#1312,1.);
#800=VECTOR('',#1313,1.);
#801=VECTOR('',#1314,1.);
#802=VECTOR('',#1315,1.);
#803=VECTOR('',#1318,1.);
#804=VECTOR('',#1321,1.);
#805=VECTOR('',#1322,1.);
#806=VECTOR('',#1323,1.);
#807=VECTOR('',#1324,1.);
#808=VECTOR('',#1325,1.);
#809=VECTOR('',#1332,1.);
#810=VECTOR('',#1333,1.);
#811=VECTOR('',#1338,1.);
#812=VECTOR('',#1341,1.);
#813=VECTOR('',#1342,1.);
#814=VECTOR('',#1343,1.);
#815=VECTOR('',#1346,1.);
#816=VECTOR('',#1347,1.);
#817=VECTOR('',#1348,1.);
#818=VECTOR('',#1351,1.);
#819=VECTOR('',#1354,1.);
#820=VECTOR('',#1357,1.);
#821=VECTOR('',#1358,1.);
#822=VECTOR('',#1361,1.);
#823=VECTOR('',#1362,1.);
#824=VECTOR('',#1363,1.);
#825=EDGE_LOOP('',(#154,#155,#156,#157,#158,#159,#160));
#826=EDGE_LOOP('',(#161,#162,#163,#164));
#827=EDGE_LOOP('',(#165,#166,#167,#168));
#828=EDGE_LOOP('',(#169,#170,#171,#172));
#829=EDGE_LOOP('',(#173,#174,#175,#176));
#830=EDGE_LOOP('',(#177,#178,#179,#180));
#831=EDGE_LOOP('',(#181,#182,#183,#184,#185));
#832=EDGE_LOOP('',(#186,#187,#188));
#833=EDGE_LOOP('',(#189,#190,#191,#192));
#834=EDGE_LOOP('',(#193,#194,#195,#196,#197));
#835=EDGE_LOOP('',(#198,#199,#200,#201,#202,#203,#204,#205));
#836=EDGE_LOOP('',(#206,#207,#208,#209));
#837=EDGE_LOOP('',(#210,#211,#212,#213,#214,#215,#216,#217));
#838=EDGE_LOOP('',(#218,#219,#220));
#839=EDGE_LOOP('',(#221,#222,#223));
#840=EDGE_LOOP('',(#224,#225,#226,#227,#228,#229));
#841=EDGE_LOOP('',(#230,#231,#232));
#842=EDGE_LOOP('',(#233,#234,#235,#236,#237,#238));
#843=EDGE_LOOP('',(#239,#240,#241));
#844=EDGE_LOOP('',(#242,#243,#244,#245));
#845=EDGE_LOOP('',(#246,#247,#248));
#846=EDGE_LOOP('',(#249,#250,#251));
#847=EDGE_LOOP('',(#252,#253,#254,#255));
#848=EDGE_LOOP('',(#256,#257,#258,#259));
#849=EDGE_LOOP('',(#260,#261,#262,#263));
#850=EDGE_LOOP('',(#264,#265,#266,#267));
#851=EDGE_LOOP('',(#268,#269,#270,#271));
#852=EDGE_LOOP('',(#272,#273,#274));
#853=EDGE_LOOP('',(#275,#276,#277));
#854=EDGE_LOOP('',(#278,#279,#280));
#855=EDGE_LOOP('',(#281,#282,#283));
#856=EDGE_LOOP('',(#284,#285,#286,#287));
#857=EDGE_LOOP('',(#288,#289,#290,#291));
#858=EDGE_LOOP('',(#292,#293,#294,#295));
#859=EDGE_LOOP('',(#296,#297,#298,#299));
#860=EDGE_LOOP('',(#300,#301,#302,#303));
#861=EDGE_LOOP('',(#304,#305,#306,#307));
#862=EDGE_LOOP('',(#308,#309,#310));
#863=EDGE_LOOP('',(#311,#312,#313));
#864=EDGE_LOOP('',(#314,#315,#316));
#865=EDGE_LOOP('',(#317,#318,#319));
#866=EDGE_LOOP('',(#320,#321,#322,#323));
#867=EDGE_LOOP('',(#324,#325,#326,#327));
#868=EDGE_LOOP('',(#328,#329,#330,#331));
#869=EDGE_LOOP('',(#332,#333,#334,#335));
#870=EDGE_LOOP('',(#336,#337,#338,#339));
#871=EDGE_LOOP('',(#340,#341,#342,#343));
#872=EDGE_LOOP('',(#344,#345,#346,#347));
#873=EDGE_LOOP('',(#348,#349,#350,#351));
#874=EDGE_LOOP('',(#352,#353,#354,#355,#356,#357));
#875=EDGE_LOOP('',(#358,#359,#360,#361));
#876=EDGE_LOOP('',(#362,#363,#364));
#877=EDGE_LOOP('',(#365,#366,#367));
#878=EDGE_LOOP('',(#368,#369,#370));
#879=EDGE_LOOP('',(#371,#372,#373,#374,#375));
#880=EDGE_LOOP('',(#376,#377,#378));
#881=EDGE_LOOP('',(#379,#380,#381,#382));
#882=EDGE_LOOP('',(#383,#384,#385,#386));
#883=EDGE_LOOP('',(#387,#388,#389,#390));
#884=EDGE_LOOP('',(#391,#392,#393,#394));
#885=EDGE_LOOP('',(#395,#396,#397,#398));
#886=EDGE_LOOP('',(#399,#400,#401,#402,#403,#404));
#887=EDGE_LOOP('',(#405,#406,#407,#408));
#888=EDGE_LOOP('',(#409,#410,#411));
#889=EDGE_LOOP('',(#412,#413,#414,#415));
#890=EDGE_LOOP('',(#416,#417,#418));
#891=EDGE_LOOP('',(#419,#420,#421,#422));
#892=EDGE_LOOP('',(#423,#424,#425,#426));
#893=EDGE_LOOP('',(#427,#428,#429,#430,#431));
#894=EDGE_LOOP('',(#432,#433,#434,#435));
#895=EDGE_LOOP('',(#436,#437,#438,#439,#440,#441));
#896=EDGE_LOOP('',(#442,#443,#444,#445));
#897=EDGE_LOOP('',(#446,#447,#448,#449));
#898=EDGE_LOOP('',(#450,#451,#452,#453));
#899=EDGE_LOOP('',(#454,#455,#456,#457));
#900=FACE_BOUND('',#825,.T.);
#901=FACE_BOUND('',#826,.T.);
#902=FACE_BOUND('',#827,.T.);
#903=FACE_BOUND('',#828,.T.);
#904=FACE_BOUND('',#829,.T.);
#905=FACE_BOUND('',#830,.T.);
#906=FACE_BOUND('',#831,.T.);
#907=FACE_BOUND('',#832,.T.);
#908=FACE_BOUND('',#833,.T.);
#909=FACE_BOUND('',#834,.T.);
#910=FACE_BOUND('',#835,.T.);
#911=FACE_BOUND('',#836,.T.);
#912=FACE_BOUND('',#837,.T.);
#913=FACE_BOUND('',#838,.T.);
#914=FACE_BOUND('',#839,.T.);
#915=FACE_BOUND('',#840,.T.);
#916=FACE_BOUND('',#841,.T.);
#917=FACE_BOUND('',#842,.T.);
#918=FACE_BOUND('',#843,.T.);
#919=FACE_BOUND('',#844,.T.);
#920=FACE_BOUND('',#845,.T.);
#921=FACE_BOUND('',#846,.T.);
#922=FACE_BOUND('',#847,.T.);
#923=FACE_BOUND('',#848,.T.);
#924=FACE_BOUND('',#849,.T.);
#925=FACE_BOUND('',#850,.T.);
#926=FACE_BOUND('',#851,.T.);
#927=FACE_BOUND('',#852,.T.);
#928=FACE_BOUND('',#853,.T.);
#929=FACE_BOUND('',#854,.T.);
#930=FACE_BOUND('',#855,.T.);
#931=FACE_BOUND('',#856,.T.);
#932=FACE_BOUND('',#857,.T.);
#933=FACE_BOUND('',#858,.T.);
#934=FACE_BOUND('',#859,.T.);
#935=FACE_BOUND('',#860,.T.);
#936=FACE_BOUND('',#861,.T.);
#937=FACE_BOUND('',#862,.T.);
#938=FACE_BOUND('',#863,.T.);
#939=FACE_BOUND('',#864,.T.);
#940=FACE_BOUND('',#865,.T.);
#941=FACE_BOUND('',#866,.T.);
#942=FACE_BOUND('',#867,.T.);
#943=FACE_BOUND('',#868,.T.);
#944=FACE_BOUND('',#869,.T.);
#945=FACE_BOUND('',#870,.T.);
#946=FACE_BOUND('',#871,.T.);
#947=FACE_BOUND('',#872,.T.);
#948=FACE_BOUND('',#873,.T.);
#949=FACE_BOUND('',#874,.T.);
#950=FACE_BOUND('',#875,.T.);
#951=FACE_BOUND('',#876,.T.);
#952=FACE_BOUND('',#877,.T.);
#953=FACE_BOUND('',#878,.T.);
#954=FACE_BOUND('',#879,.T.);
#955=FACE_BOUND('',#880,.T.);
#956=FACE_BOUND('',#881,.T.);
#957=FACE_BOUND('',#882,.T.);
#958=FACE_BOUND('',#883,.T.);
#959=FACE_BOUND('',#884,.T.);
#960=FACE_BOUND('',#885,.T.);
#961=FACE_BOUND('',#886,.T.);
#962=FACE_BOUND('',#887,.T.);
#963=FACE_BOUND('',#888,.T.);
#964=FACE_BOUND('',#889,.T.);
#965=FACE_BOUND('',#890,.T.);
#966=FACE_BOUND('',#891,.T.);
#967=FACE_BOUND('',#892,.T.);
#968=FACE_BOUND('',#893,.T.);
#969=FACE_BOUND('',#894,.T.);
#970=FACE_BOUND('',#895,.T.);
#971=FACE_BOUND('',#896,.T.);
#972=FACE_BOUND('',#897,.T.);
#973=FACE_BOUND('',#898,.T.);
#974=FACE_BOUND('',#899,.T.);
#975=PLANE('',#1077);
#976=PLANE('',#1080);
#977=PLANE('',#1082);
#978=PLANE('',#1086);
#979=PLANE('',#1087);
#980=PLANE('',#1088);
#981=PLANE('',#1089);
#982=PLANE('',#1091);
#983=PLANE('',#1092);
#984=PLANE('',#1095);
#985=PLANE('',#1096);
#986=PLANE('',#1099);
#987=PLANE('',#1101);
#988=PLANE('',#1104);
#989=PLANE('',#1105);
#990=PLANE('',#1108);
#991=ADVANCED_FACE('',(#900),#975,.F.);
#992=ADVANCED_FACE('',(#901),#976,.F.);
#993=ADVANCED_FACE('',(#902),#977,.T.);
#994=ADVANCED_FACE('',(#903),#48,.F.);
#995=ADVANCED_FACE('',(#904),#978,.T.);
#996=ADVANCED_FACE('',(#905),#979,.F.);
#997=ADVANCED_FACE('',(#906),#980,.F.);
#998=ADVANCED_FACE('',(#907,#908),#981,.T.);
#999=ADVANCED_FACE('',(#909),#982,.T.);
#1000=ADVANCED_FACE('',(#910),#983,.F.);
#1001=ADVANCED_FACE('',(#911),#984,.F.);
#1002=ADVANCED_FACE('',(#912),#985,.T.);
#1003=ADVANCED_FACE('',(#913,#914),#986,.T.);
#1004=ADVANCED_FACE('',(#915),#987,.F.);
#1005=ADVANCED_FACE('',(#916),#988,.F.);
#1006=ADVANCED_FACE('',(#917),#989,.T.);
#1007=ADVANCED_FACE('',(#918),#990,.F.);
#1008=ADVANCED_FACE('',(#919),#49,.T.);
#1009=ADVANCED_FACE('',(#920),#22,.T.);
#1010=ADVANCED_FACE('',(#921),#23,.T.);
#1011=ADVANCED_FACE('',(#922),#50,.T.);
#1012=ADVANCED_FACE('',(#923),#51,.T.);
#1013=ADVANCED_FACE('',(#924),#52,.T.);
#1014=ADVANCED_FACE('',(#925),#53,.T.);
#1015=ADVANCED_FACE('',(#926),#54,.T.);
#1016=ADVANCED_FACE('',(#927),#24,.T.);
#1017=ADVANCED_FACE('',(#928),#25,.T.);
#1018=ADVANCED_FACE('',(#929),#26,.T.);
#1019=ADVANCED_FACE('',(#930),#27,.T.);
#1020=ADVANCED_FACE('',(#931),#55,.T.);
#1021=ADVANCED_FACE('',(#932),#56,.T.);
#1022=ADVANCED_FACE('',(#933),#57,.T.);
#1023=ADVANCED_FACE('',(#934),#58,.T.);
#1024=ADVANCED_FACE('',(#935),#59,.T.);
#1025=ADVANCED_FACE('',(#936),#60,.T.);
#1026=ADVANCED_FACE('',(#937),#28,.T.);
#1027=ADVANCED_FACE('',(#938),#29,.T.);
#1028=ADVANCED_FACE('',(#939),#30,.T.);
#1029=ADVANCED_FACE('',(#940),#31,.T.);
#1030=ADVANCED_FACE('',(#941),#61,.T.);
#1031=ADVANCED_FACE('',(#942),#18,.T.);
#1032=ADVANCED_FACE('',(#943),#12,.T.);
#1033=ADVANCED_FACE('',(#944),#62,.T.);
#1034=ADVANCED_FACE('',(#945),#63,.T.);
#1035=ADVANCED_FACE('',(#946),#64,.T.);
#1036=ADVANCED_FACE('',(#947),#65,.T.);
#1037=ADVANCED_FACE('',(#948),#19,.T.);
#1038=ADVANCED_FACE('',(#949),#66,.F.);
#1039=ADVANCED_FACE('',(#950),#67,.T.);
#1040=ADVANCED_FACE('',(#951),#32,.T.);
#1041=ADVANCED_FACE('',(#952),#33,.T.);
#1042=ADVANCED_FACE('',(#953),#34,.T.);
#1043=ADVANCED_FACE('',(#954),#68,.F.);
#1044=ADVANCED_FACE('',(#955),#35,.F.);
#1045=ADVANCED_FACE('',(#956),#13,.T.);
#1046=ADVANCED_FACE('',(#957),#20,.T.);
#1047=ADVANCED_FACE('',(#958),#69,.T.);
#1048=ADVANCED_FACE('',(#959),#14,.T.);
#1049=ADVANCED_FACE('',(#960),#70,.F.);
#1050=ADVANCED_FACE('',(#961),#71,.F.);
#1051=ADVANCED_FACE('',(#962),#72,.T.);
#1052=ADVANCED_FACE('',(#963),#36,.T.);
#1053=ADVANCED_FACE('',(#964),#73,.T.);
#1054=ADVANCED_FACE('',(#965),#37,.F.);
#1055=ADVANCED_FACE('',(#966),#21,.T.);
#1056=ADVANCED_FACE('',(#967),#15,.T.);
#1057=ADVANCED_FACE('',(#968),#74,.F.);
#1058=ADVANCED_FACE('',(#969),#75,.T.);
#1059=ADVANCED_FACE('',(#970),#16,.T.);
#1060=ADVANCED_FACE('',(#971),#76,.T.);
#1061=ADVANCED_FACE('',(#972),#77,.T.);
#1062=ADVANCED_FACE('',(#973),#17,.T.);
#1063=ADVANCED_FACE('',(#974),#78,.T.);
#1064=CLOSED_SHELL('',(#991,#992,#993,#994,#995,#996,#997,#998,#999,#1000,
#1001,#1002,#1003,#1004,#1005,#1006,#1007,#1008,#1009,#1010,#1011,#1012,
#1013,#1014,#1015,#1016,#1017,#1018,#1019,#1020,#1021,#1022,#1023,#1024,
#1025,#1026,#1027,#1028,#1029,#1030,#1031,#1032,#1033,#1034,#1035,#1036,
#1037,#1038,#1039,#1040,#1041,#1042,#1043,#1044,#1045,#1046,#1047,#1048,
#1049,#1050,#1051,#1052,#1053,#1054,#1055,#1056,#1057,#1058,#1059,#1060,
#1061,#1062,#1063));
#1065=STYLED_ITEM('',(#1066),#1073);
#1066=PRESENTATION_STYLE_ASSIGNMENT((#1067));
#1067=SURFACE_STYLE_USAGE(.BOTH.,#1068);
#1068=SURFACE_SIDE_STYLE('',(#1069));
#1069=SURFACE_STYLE_FILL_AREA(#1070);
#1070=FILL_AREA_STYLE('',(#1071));
#1071=FILL_AREA_STYLE_COLOUR('',#1072);
#1072=COLOUR_RGB('',0.615686274509804,0.811764705882353,0.929411764705882);
#1073=MANIFOLD_SOLID_BREP('y axis rail spacer',#1064);
#1074=SHAPE_DEFINITION_REPRESENTATION(#1965,#1075);
#1075=SHAPE_REPRESENTATION('y axis rail spacer',(#1076),#1960);
#1076=AXIS2_PLACEMENT_3D('',#1608,#1231,#1232);
#1077=AXIS2_PLACEMENT_3D('',#1609,#1233,#1234);
#1078=AXIS2_PLACEMENT_3D('',#1615,#1237,#1238);
#1079=AXIS2_PLACEMENT_3D('',#1623,#1242,#1243);
#1080=AXIS2_PLACEMENT_3D('',#1624,#1244,#1245);
#1081=AXIS2_PLACEMENT_3D('',#1627,#1247,#1248);
#1082=AXIS2_PLACEMENT_3D('',#1631,#1251,#1252);
#1083=AXIS2_PLACEMENT_3D('',#1640,#1257,#1258);
#1084=AXIS2_PLACEMENT_3D('',#1644,#1260,#1261);
#1085=AXIS2_PLACEMENT_3D('',#1648,#1263,#1264);
#1086=AXIS2_PLACEMENT_3D('',#1649,#1265,#1266);
#1087=AXIS2_PLACEMENT_3D('',#1655,#1270,#1271);
#1088=AXIS2_PLACEMENT_3D('',#1658,#1274,#1275);
#1089=AXIS2_PLACEMENT_3D('',#1669,#1281,#1282);
#1090=AXIS2_PLACEMENT_3D('',#1675,#1285,#1286);
#1091=AXIS2_PLACEMENT_3D('',#1684,#1291,#1292);
#1092=AXIS2_PLACEMENT_3D('',#1695,#1298,#1299);
#1093=AXIS2_PLACEMENT_3D('',#1701,#1302,#1303);
#1094=AXIS2_PLACEMENT_3D('',#1705,#1305,#1306);
#1095=AXIS2_PLACEMENT_3D('',#1712,#1310,#1311);
#1096=AXIS2_PLACEMENT_3D('',#1721,#1316,#1317);
#1097=AXIS2_PLACEMENT_3D('',#1725,#1319,#1320);
#1098=AXIS2_PLACEMENT_3D('',#1737,#1326,#1327);
#1099=AXIS2_PLACEMENT_3D('',#1738,#1328,#1329);
#1100=AXIS2_PLACEMENT_3D('',#1739,#1330,#1331);
#1101=AXIS2_PLACEMENT_3D('',#1745,#1334,#1335);
#1102=AXIS2_PLACEMENT_3D('',#1746,#1336,#1337);
#1103=AXIS2_PLACEMENT_3D('',#1751,#1339,#1340);
#1104=AXIS2_PLACEMENT_3D('',#1758,#1344,#1345);
#1105=AXIS2_PLACEMENT_3D('',#1765,#1349,#1350);
#1106=AXIS2_PLACEMENT_3D('',#1769,#1352,#1353);
#1107=AXIS2_PLACEMENT_3D('',#1773,#1355,#1356);
#1108=AXIS2_PLACEMENT_3D('',#1778,#1359,#1360);
#1109=AXIS2_PLACEMENT_3D('',#1785,#1364,#1365);
#1110=AXIS2_PLACEMENT_3D('',#1786,#1366,#1367);
#1111=AXIS2_PLACEMENT_3D('',#1787,#1368,#1369);
#1112=AXIS2_PLACEMENT_3D('',#1788,#1370,#1371);
#1113=AXIS2_PLACEMENT_3D('',#1789,#1372,#1373);
#1114=AXIS2_PLACEMENT_3D('',#1790,#1374,#1375);
#1115=AXIS2_PLACEMENT_3D('',#1791,#1376,#1377);
#1116=AXIS2_PLACEMENT_3D('',#1792,#1378,#1379);
#1117=AXIS2_PLACEMENT_3D('',#1793,#1380,#1381);
#1118=AXIS2_PLACEMENT_3D('',#1794,#1382,#1383);
#1119=AXIS2_PLACEMENT_3D('',#1795,#1384,#1385);
#1120=AXIS2_PLACEMENT_3D('',#1796,#1386,#1387);
#1121=AXIS2_PLACEMENT_3D('',#1797,#1388,#1389);
#1122=AXIS2_PLACEMENT_3D('',#1798,#1390,#1391);
#1123=AXIS2_PLACEMENT_3D('',#1799,#1392,#1393);
#1124=AXIS2_PLACEMENT_3D('',#1800,#1394,#1395);
#1125=AXIS2_PLACEMENT_3D('',#1801,#1396,#1397);
#1126=AXIS2_PLACEMENT_3D('',#1802,#1398,#1399);
#1127=AXIS2_PLACEMENT_3D('',#1803,#1400,#1401);
#1128=AXIS2_PLACEMENT_3D('',#1804,#1402,#1403);
#1129=AXIS2_PLACEMENT_3D('',#1805,#1404,#1405);
#1130=AXIS2_PLACEMENT_3D('',#1806,#1406,#1407);
#1131=AXIS2_PLACEMENT_3D('',#1807,#1408,#1409);
#1132=AXIS2_PLACEMENT_3D('',#1808,#1410,#1411);
#1133=AXIS2_PLACEMENT_3D('',#1809,#1412,#1413);
#1134=AXIS2_PLACEMENT_3D('',#1810,#1414,#1415);
#1135=AXIS2_PLACEMENT_3D('',#1811,#1416,#1417);
#1136=AXIS2_PLACEMENT_3D('',#1812,#1418,#1419);
#1137=AXIS2_PLACEMENT_3D('',#1813,#1420,#1421);
#1138=AXIS2_PLACEMENT_3D('',#1814,#1422,#1423);
#1139=AXIS2_PLACEMENT_3D('',#1815,#1424,#1425);
#1140=AXIS2_PLACEMENT_3D('',#1816,#1426,#1427);
#1141=AXIS2_PLACEMENT_3D('',#1817,#1428,#1429);
#1142=AXIS2_PLACEMENT_3D('',#1818,#1430,#1431);
#1143=AXIS2_PLACEMENT_3D('',#1819,#1432,#1433);
#1144=AXIS2_PLACEMENT_3D('',#1820,#1434,#1435);
#1145=AXIS2_PLACEMENT_3D('',#1821,#1436,#1437);
#1146=AXIS2_PLACEMENT_3D('',#1822,#1438,#1439);
#1147=AXIS2_PLACEMENT_3D('',#1823,#1440,#1441);
#1148=AXIS2_PLACEMENT_3D('',#1824,#1442,#1443);
#1149=AXIS2_PLACEMENT_3D('',#1825,#1444,#1445);
#1150=AXIS2_PLACEMENT_3D('',#1826,#1446,#1447);
#1151=AXIS2_PLACEMENT_3D('',#1827,#1448,#1449);
#1152=AXIS2_PLACEMENT_3D('',#1828,#1450,#1451);
#1153=AXIS2_PLACEMENT_3D('',#1830,#1452,#1453);
#1154=AXIS2_PLACEMENT_3D('',#1831,#1454,#1455);
#1155=AXIS2_PLACEMENT_3D('',#1832,#1456,#1457);
#1156=AXIS2_PLACEMENT_3D('',#1833,#1458,#1459);
#1157=AXIS2_PLACEMENT_3D('',#1834,#1460,#1461);
#1158=AXIS2_PLACEMENT_3D('',#1835,#1462,#1463);
#1159=AXIS2_PLACEMENT_3D('',#1836,#1464,#1465);
#1160=AXIS2_PLACEMENT_3D('',#1837,#1466,#1467);
#1161=AXIS2_PLACEMENT_3D('',#1838,#1468,#1469);
#1162=AXIS2_PLACEMENT_3D('',#1839,#1470,#1471);
#1163=AXIS2_PLACEMENT_3D('',#1840,#1472,#1473);
#1164=AXIS2_PLACEMENT_3D('',#1853,#1474,#1475);
#1165=AXIS2_PLACEMENT_3D('',#1854,#1476,#1477);
#1166=AXIS2_PLACEMENT_3D('',#1855,#1478,#1479);
#1167=AXIS2_PLACEMENT_3D('',#1856,#1480,#1481);
#1168=AXIS2_PLACEMENT_3D('',#1857,#1482,#1483);
#1169=AXIS2_PLACEMENT_3D('',#1858,#1484,#1485);
#1170=AXIS2_PLACEMENT_3D('',#1859,#1486,#1487);
#1171=AXIS2_PLACEMENT_3D('',#1860,#1488,#1489);
#1172=AXIS2_PLACEMENT_3D('',#1861,#1490,#1491);
#1173=AXIS2_PLACEMENT_3D('',#1862,#1492,#1493);
#1174=AXIS2_PLACEMENT_3D('',#1863,#1494,#1495);
#1175=AXIS2_PLACEMENT_3D('',#1864,#1496,#1497);
#1176=AXIS2_PLACEMENT_3D('',#1877,#1498,#1499);
#1177=AXIS2_PLACEMENT_3D('',#1879,#1500,#1501);
#1178=AXIS2_PLACEMENT_3D('',#1880,#1502,#1503);
#1179=AXIS2_PLACEMENT_3D('',#1881,#1504,#1505);
#1180=AXIS2_PLACEMENT_3D('',#1882,#1506,#1507);
#1181=AXIS2_PLACEMENT_3D('',#1883,#1508,#1509);
#1182=AXIS2_PLACEMENT_3D('',#1884,#1510,#1511);
#1183=AXIS2_PLACEMENT_3D('',#1885,#1512,#1513);
#1184=AXIS2_PLACEMENT_3D('',#1887,#1514,#1515);
#1185=AXIS2_PLACEMENT_3D('',#1888,#1516,#1517);
#1186=AXIS2_PLACEMENT_3D('',#1889,#1518,#1519);
#1187=AXIS2_PLACEMENT_3D('',#1890,#1520,#1521);
#1188=AXIS2_PLACEMENT_3D('',#1891,#1522,#1523);
#1189=AXIS2_PLACEMENT_3D('',#1892,#1524,#1525);
#1190=AXIS2_PLACEMENT_3D('',#1893,#1526,#1527);
#1191=AXIS2_PLACEMENT_3D('',#1894,#1528,#1529);
#1192=AXIS2_PLACEMENT_3D('',#1895,#1530,#1531);
#1193=AXIS2_PLACEMENT_3D('',#1896,#1532,#1533);
#1194=AXIS2_PLACEMENT_3D('',#1897,#1534,#1535);
#1195=AXIS2_PLACEMENT_3D('',#1898,#1536,#1537);
#1196=AXIS2_PLACEMENT_3D('',#1911,#1538,#1539);
#1197=AXIS2_PLACEMENT_3D('',#1912,#1540,#1541);
#1198=AXIS2_PLACEMENT_3D('',#1913,#1542,#1543);
#1199=AXIS2_PLACEMENT_3D('',#1914,#1544,#1545);
#1200=AXIS2_PLACEMENT_3D('',#1915,#1546,#1547);
#1201=AXIS2_PLACEMENT_3D('',#1916,#1548,#1549);
#1202=AXIS2_PLACEMENT_3D('',#1917,#1550,#1551);
#1203=AXIS2_PLACEMENT_3D('',#1918,#1552,#1553);
#1204=AXIS2_PLACEMENT_3D('',#1919,#1554,#1555);
#1205=AXIS2_PLACEMENT_3D('',#1920,#1556,#1557);
#1206=AXIS2_PLACEMENT_3D('',#1921,#1558,#1559);
#1207=AXIS2_PLACEMENT_3D('',#1922,#1560,#1561);
#1208=AXIS2_PLACEMENT_3D('',#1923,#1562,#1563);
#1209=AXIS2_PLACEMENT_3D('',#1924,#1564,#1565);
#1210=AXIS2_PLACEMENT_3D('',#1926,#1566,#1567);
#1211=AXIS2_PLACEMENT_3D('',#1927,#1568,#1569);
#1212=AXIS2_PLACEMENT_3D('',#1928,#1570,#1571);
#1213=AXIS2_PLACEMENT_3D('',#1929,#1572,#1573);
#1214=AXIS2_PLACEMENT_3D('',#1930,#1574,#1575);
#1215=AXIS2_PLACEMENT_3D('',#1943,#1576,#1577);
#1216=AXIS2_PLACEMENT_3D('',#1944,#1578,#1579);
#1217=AXIS2_PLACEMENT_3D('',#1945,#1580,#1581);
#1218=AXIS2_PLACEMENT_3D('',#1946,#1582,#1583);
#1219=AXIS2_PLACEMENT_3D('',#1947,#1584,#1585);
#1220=AXIS2_PLACEMENT_3D('',#1948,#1586,#1587);
#1221=AXIS2_PLACEMENT_3D('',#1949,#1588,#1589);
#1222=AXIS2_PLACEMENT_3D('',#1950,#1590,#1591);
#1223=AXIS2_PLACEMENT_3D('',#1951,#1592,#1593);
#1224=AXIS2_PLACEMENT_3D('',#1952,#1594,#1595);
#1225=AXIS2_PLACEMENT_3D('',#1953,#1596,#1597);
#1226=AXIS2_PLACEMENT_3D('',#1954,#1598,#1599);
#1227=AXIS2_PLACEMENT_3D('',#1955,#1600,#1601);
#1228=AXIS2_PLACEMENT_3D('',#1956,#1602,#1603);
#1229=AXIS2_PLACEMENT_3D('',#1957,#1604,#1605);
#1230=AXIS2_PLACEMENT_3D('',#1958,#1606,#1607);
#1231=DIRECTION('',(0.,0.,1.));
#1232=DIRECTION('',(1.,0.,0.));
#1233=DIRECTION('',(-2.47817639425258E-16,1.,0.));
#1234=DIRECTION('',(-1.,-2.47817639425258E-16,0.));
#1235=DIRECTION('',(-0.707106781186548,-1.75233533335242E-16,-0.707106781186548));
#1236=DIRECTION('',(0.707106781186548,1.75233533335242E-16,-0.707106781186548));
#1237=DIRECTION('',(-2.47817639425258E-16,1.,0.));
#1238=DIRECTION('',(-1.,-2.47817639425258E-16,0.));
#1239=DIRECTION('',(0.,0.,-1.));
#1240=DIRECTION('',(1.,2.47817639425258E-16,0.));
#1241=DIRECTION('',(0.,0.,-1.));
#1242=DIRECTION('',(-2.47817639425258E-16,1.,0.));
#1243=DIRECTION('',(-1.,-2.47817639425258E-16,0.));
#1244=DIRECTION('',(-2.47817639425258E-16,1.,0.));
#1245=DIRECTION('',(-1.,-2.47817639425258E-16,0.));
#1246=DIRECTION('',(0.,0.,-1.));
#1247=DIRECTION('',(-2.47817639425258E-16,1.,0.));
#1248=DIRECTION('',(-1.,-2.47817639425258E-16,0.));
#1249=DIRECTION('',(0.,0.,-1.));
#1250=DIRECTION('',(1.,2.47817639425258E-16,0.));
#1251=DIRECTION('',(0.,0.,1.));
#1252=DIRECTION('',(1.,0.,0.));
#1253=DIRECTION('',(-6.93889390390723E-17,-1.,0.));
#1254=DIRECTION('',(1.,2.47817639425258E-16,0.));
#1255=DIRECTION('',(-6.93889390390723E-17,-1.,0.));
#1256=DIRECTION('',(-1.,0.,0.));
#1257=DIRECTION('',(2.47817639425258E-16,-1.,0.));
#1258=DIRECTION('',(1.,2.47817639425258E-16,0.));
#1259=DIRECTION('',(2.47817639425258E-16,-1.,0.));
#1260=DIRECTION('',(0.,1.,0.));
#1261=DIRECTION('',(0.,0.,1.));
#1262=DIRECTION('',(2.47817639425258E-16,-1.,0.));
#1263=DIRECTION('',(2.47817639425258E-16,-1.,0.));
#1264=DIRECTION('',(1.,2.47817639425258E-16,0.));
#1265=DIRECTION('',(-0.707106781186547,-1.75233533335242E-16,-0.707106781186548));
#1266=DIRECTION('',(-0.707106781186548,0.,0.707106781186547));
#1267=DIRECTION('',(2.47817639425258E-16,-1.,0.));
#1268=DIRECTION('',(0.707106781186548,0.,-0.707106781186547));
#1269=DIRECTION('',(0.707106781186548,1.75233533335243E-16,-0.707106781186547));
#1270=DIRECTION('',(-0.707106781186548,-1.75233533335243E-16,0.707106781186547));
#1271=DIRECTION('',(0.707106781186547,0.,0.707106781186548));
#1272=DIRECTION('',(-0.707106781186547,1.23259516440783E-32,-0.707106781186548));
#1273=DIRECTION('',(-0.707106781186547,-1.75233533335242E-16,-0.707106781186548));
#1274=DIRECTION('',(-1.,6.93889390390723E-17,0.));
#1275=DIRECTION('',(-6.93889390390723E-17,-1.,0.));
#1276=DIRECTION('',(0.,0.,1.));
#1277=DIRECTION('',(-6.93889390390723E-17,-1.,0.));
#1278=DIRECTION('',(-4.9065389333868E-17,-0.707106781186548,-0.707106781186548));
#1279=DIRECTION('',(0.,0.,1.));
#1280=DIRECTION('',(-6.93889390390723E-17,-1.,0.));
#1281=DIRECTION('',(0.,1.,0.));
#1282=DIRECTION('',(0.,0.,1.));
#1283=DIRECTION('',(0.707106781186548,0.,-0.707106781186547));
#1284=DIRECTION('',(-0.707106781186547,0.,-0.707106781186548));
#1285=DIRECTION('',(0.,1.,0.));
#1286=DIRECTION('',(0.,0.,1.));
#1287=DIRECTION('',(0.,0.,1.));
#1288=DIRECTION('',(-1.,0.,0.));
#1289=DIRECTION('',(0.,0.,1.));
#1290=DIRECTION('',(-1.,0.,0.));
#1291=DIRECTION('',(-1.,6.93889390390723E-17,0.));
#1292=DIRECTION('',(-6.93889390390723E-17,-1.,0.));
#1293=DIRECTION('',(-4.9065389333868E-17,-0.707106781186548,-0.707106781186548));
#1294=DIRECTION('',(-6.93889390390723E-17,-1.,0.));
#1295=DIRECTION('',(0.,0.,1.));
#1296=DIRECTION('',(-6.93889390390723E-17,-1.,0.));
#1297=DIRECTION('',(0.,0.,1.));
#1298=DIRECTION('',(0.,1.,0.));
#1299=DIRECTION('',(0.,0.,1.));
#1300=DIRECTION('',(0.,0.,1.));
#1301=DIRECTION('',(-1.,0.,-6.93889390390723E-17));
#1302=DIRECTION('',(0.,1.,0.));
#1303=DIRECTION('',(0.,0.,1.));
#1304=DIRECTION('',(-1.,0.,0.));
#1305=DIRECTION('',(0.,1.,0.));
#1306=DIRECTION('',(0.,0.,1.));
#1307=DIRECTION('',(-1.,0.,-6.93889390390723E-17));
#1308=DIRECTION('',(0.,0.,1.));
#1309=DIRECTION('',(-1.,0.,0.));
#1310=DIRECTION('',(0.,0.,1.));
#1311=DIRECTION('',(1.,0.,0.));
#1312=DIRECTION('',(-6.93889390390723E-17,-1.,0.));
#1313=DIRECTION('',(-1.,0.,0.));
#1314=DIRECTION('',(-6.93889390390723E-17,-1.,0.));
#1315=DIRECTION('',(-1.,0.,0.));
#1316=DIRECTION('',(0.,0.,1.));
#1317=DIRECTION('',(1.,0.,0.));
#1318=DIRECTION('',(1.,2.47817639425258E-16,0.));
#1319=DIRECTION('',(0.,0.,1.));
#1320=DIRECTION('',(1.,0.,0.));
#1321=DIRECTION('',(1.,-6.93889390390723E-17,0.));
#1322=DIRECTION('',(-6.93889390390723E-17,-1.,0.));
#1323=DIRECTION('',(-1.,0.,0.));
#1324=DIRECTION('',(-6.93889390390723E-17,-1.,0.));
#1325=DIRECTION('',(1.,-6.93889390390723E-17,0.));
#1326=DIRECTION('',(0.,0.,1.));
#1327=DIRECTION('',(1.,0.,0.));
#1328=DIRECTION('',(2.47817639425258E-16,-1.,0.));
#1329=DIRECTION('',(1.,2.47817639425258E-16,0.));
#1330=DIRECTION('',(2.47817639425258E-16,-1.,0.));
#1331=DIRECTION('',(1.,2.47817639425258E-16,0.));
#1332=DIRECTION('',(0.707106781186548,1.75233533335242E-16,-0.707106781186548));
#1333=DIRECTION('',(-0.707106781186548,-1.75233533335242E-16,-0.707106781186548));
#1334=DIRECTION('',(4.9065389333868E-17,0.707106781186548,-0.707106781186548));
#1335=DIRECTION('',(0.,0.707106781186548,0.707106781186548));
#1336=DIRECTION('',(4.9065389333868E-17,0.707106781186548,-0.707106781186548));
#1337=DIRECTION('',(-4.9065389333868E-17,-0.707106781186548,-0.707106781186548));
#1338=DIRECTION('',(-4.9065389333868E-17,-0.707106781186548,-0.707106781186548));
#1339=DIRECTION('',(4.9065389333868E-17,0.707106781186548,-0.707106781186548));
#1340=DIRECTION('',(4.9065389333868E-17,0.707106781186548,0.707106781186548));
#1341=DIRECTION('',(1.,-6.93889390390723E-17,4.35788199605262E-33));
#1342=DIRECTION('',(-4.9065389333868E-17,-0.707106781186548,-0.707106781186548));
#1343=DIRECTION('',(-1.,4.35788199605262E-33,-6.93889390390723E-17));
#1344=DIRECTION('',(-1.,6.93889390390723E-17,0.));
#1345=DIRECTION('',(-6.93889390390723E-17,-1.,0.));
#1346=DIRECTION('',(-4.9065389333868E-17,-0.707106781186548,-0.707106781186548));
#1347=DIRECTION('',(-6.93889390390723E-17,-1.,0.));
#1348=DIRECTION('',(0.,0.,-1.));
#1349=DIRECTION('',(-4.9065389333868E-17,-0.707106781186548,0.707106781186548));
#1350=DIRECTION('',(0.,-0.707106781186548,-0.707106781186548));
#1351=DIRECTION('',(1.,-6.93889390390723E-17,-3.7196849535361E-33));
#1352=DIRECTION('',(-4.9065389333868E-17,-0.707106781186548,0.707106781186548));
#1353=DIRECTION('',(4.9065389333868E-17,0.707106781186548,0.707106781186548));
#1354=DIRECTION('',(-4.9065389333868E-17,-0.707106781186548,-0.707106781186548));
#1355=DIRECTION('',(-4.9065389333868E-17,-0.707106781186548,0.707106781186548));
#1356=DIRECTION('',(-4.9065389333868E-17,-0.707106781186548,-0.707106781186548));
#1357=DIRECTION('',(-1.,-6.16297582203915E-33,-6.93889390390723E-17));
#1358=DIRECTION('',(-4.9065389333868E-17,-0.707106781186548,-0.707106781186548));
#1359=DIRECTION('',(1.,-6.93889390390723E-17,0.));
#1360=DIRECTION('',(6.93889390390723E-17,1.,0.));
#1361=DIRECTION('',(0.,0.,-1.));
#1362=DIRECTION('',(-6.93889390390723E-17,-1.,0.));
#1363=DIRECTION('',(-4.9065389333868E-17,-0.707106781186548,-0.707106781186548));
#1364=DIRECTION('',(0.,0.,1.));
#1365=DIRECTION('',(1.,0.,0.));
#1366=DIRECTION('',(0.,0.,-1.));
#1367=DIRECTION('',(-1.,0.,0.));
#1368=DIRECTION('',(0.,0.,1.));
#1369=DIRECTION('',(1.,0.,0.));
#1370=DIRECTION('',(0.,1.,0.));
#1371=DIRECTION('',(0.,0.,1.));
#1372=DIRECTION('',(0.,1.,0.));
#1373=DIRECTION('',(0.,0.,1.));
#1374=DIRECTION('',(-1.,0.,0.));
#1375=DIRECTION('',(0.,0.,1.));
#1376=DIRECTION('',(0.,1.,0.));
#1377=DIRECTION('',(0.,0.,1.));
#1378=DIRECTION('',(0.,1.,0.));
#1379=DIRECTION('',(0.,0.,1.));
#1380=DIRECTION('',(-1.,1.73472347597681E-15,0.));
#1381=DIRECTION('',(-1.73472347597681E-15,-1.,0.));
#1382=DIRECTION('',(-1.,0.,0.));
#1383=DIRECTION('',(0.,0.,1.));
#1384=DIRECTION('',(1.,0.,0.));
#1385=DIRECTION('',(0.,0.,-1.));
#1386=DIRECTION('',(0.,0.,-1.));
#1387=DIRECTION('',(-1.,0.,0.));
#1388=DIRECTION('',(0.,0.,-1.));
#1389=DIRECTION('',(-1.,0.,0.));
#1390=DIRECTION('',(0.,0.,1.));
#1391=DIRECTION('',(1.,0.,0.));
#1392=DIRECTION('',(1.,0.,0.));
#1393=DIRECTION('',(0.,0.,-1.));
#1394=DIRECTION('',(1.,-1.73472347597681E-15,0.));
#1395=DIRECTION('',(1.73472347597681E-15,1.,0.));
#1396=DIRECTION('',(6.93889390390723E-17,1.,0.));
#1397=DIRECTION('',(-1.,6.93889390390723E-17,0.));
#1398=DIRECTION('',(0.,-1.,0.));
#1399=DIRECTION('',(0.,0.,-1.));
#1400=DIRECTION('',(-6.93889390390723E-17,-1.,0.));
#1401=DIRECTION('',(1.,-6.93889390390723E-17,0.));
#1402=DIRECTION('',(0.,-1.,0.));
#1403=DIRECTION('',(0.,0.,-1.));
#1404=DIRECTION('',(0.,1.,0.));
#1405=DIRECTION('',(0.,0.,1.));
#1406=DIRECTION('',(0.,1.,0.));
#1407=DIRECTION('',(0.,0.,1.));
#1408=DIRECTION('',(0.,1.,0.));
#1409=DIRECTION('',(0.,0.,1.));
#1410=DIRECTION('',(0.,1.,0.));
#1411=DIRECTION('',(0.,0.,1.));
#1412=DIRECTION('',(0.,0.,-1.));
#1413=DIRECTION('',(-1.,0.,0.));
#1414=DIRECTION('',(0.,0.,-1.));
#1415=DIRECTION('',(-1.,0.,0.));
#1416=DIRECTION('',(-1.,0.,0.));
#1417=DIRECTION('',(0.,0.,1.));
#1418=DIRECTION('',(-1.,1.73472347597681E-15,0.));
#1419=DIRECTION('',(-1.73472347597681E-15,-1.,0.));
#1420=DIRECTION('',(0.,0.707106781186548,0.707106781186547));
#1421=DIRECTION('',(0.,-0.707106781186547,0.707106781186548));
#1422=DIRECTION('',(-1.,-1.73472347597681E-15,-1.73472347597681E-15));
#1423=DIRECTION('',(1.73472347597681E-15,-1.,0.));
#1424=DIRECTION('',(-1.,6.93889390390723E-17,0.));
#1425=DIRECTION('',(-6.93889390390723E-17,-1.,0.));
#1426=DIRECTION('',(-1.,6.93889390390723E-17,0.));
#1427=DIRECTION('',(-6.93889390390723E-17,-1.,0.));
#1428=DIRECTION('',(6.93889390390723E-17,1.,0.));
#1429=DIRECTION('',(-1.,6.93889390390723E-17,0.));
#1430=DIRECTION('',(0.,-1.,5.20417042793042E-15));
#1431=DIRECTION('',(0.,-5.20417042793042E-15,-1.));
#1432=DIRECTION('',(-6.93889390390723E-17,-1.,0.));
#1433=DIRECTION('',(1.,-6.93889390390723E-17,0.));
#1434=DIRECTION('',(0.,-1.,0.));
#1435=DIRECTION('',(0.,0.,-1.));
#1436=DIRECTION('',(-1.,0.,0.));
#1437=DIRECTION('',(0.,0.,1.));
#1438=DIRECTION('',(1.,0.,-1.73472347597681E-15));
#1439=DIRECTION('',(-1.73472347597681E-15,0.,-1.));
#1440=DIRECTION('',(0.,0.,-1.));
#1441=DIRECTION('',(-1.,0.,0.));
#1442=DIRECTION('',(0.,-5.90890184004599E-15,1.));
#1443=DIRECTION('',(0.,-1.,-5.90890184004599E-15));
#1444=DIRECTION('',(4.9065389333868E-17,0.707106781186548,0.707106781186548));
#1445=DIRECTION('',(0.,-0.707106781186548,0.707106781186548));
#1446=DIRECTION('',(-3.79490120629135E-15,-0.707106781186547,-0.707106781186548));
#1447=DIRECTION('',(0.,0.707106781186548,-0.707106781186547));
#1448=DIRECTION('',(-0.707106781186548,0.707106781186547,0.));
#1449=DIRECTION('',(-0.707106781186547,-0.707106781186548,0.));
#1450=DIRECTION('',(-0.707106781186547,-0.707106781186549,0.));
#1451=DIRECTION('',(0.707106781186549,-0.707106781186547,0.));
#1452=DIRECTION('',(0.577350269189625,0.577350269189627,0.577350269189625));
#1453=DIRECTION('',(0.,-0.707106781186547,0.707106781186548));
#1454=DIRECTION('',(1.,-5.20417042793042E-15,0.));
#1455=DIRECTION('',(5.20417042793042E-15,1.,0.));
#1456=DIRECTION('',(3.6799042000401E-15,0.707106781186548,0.707106781186548));
#1457=DIRECTION('',(0.,-0.707106781186548,0.707106781186548));
#1458=DIRECTION('',(1.,0.,0.));
#1459=DIRECTION('',(0.,0.,-1.));
#1460=DIRECTION('',(-1.73472347597681E-15,0.,-1.));
#1461=DIRECTION('',(-1.,0.,1.73472347597681E-15));
#1462=DIRECTION('',(0.,0.,-1.));
#1463=DIRECTION('',(-1.,0.,0.));
#1464=DIRECTION('',(-1.,0.,3.79470760369926E-15));
#1465=DIRECTION('',(3.79470760369926E-15,0.,1.));
#1466=DIRECTION('',(-1.,0.,0.));
#1467=DIRECTION('',(0.,0.,1.));
#1468=DIRECTION('',(-4.9065389333868E-17,-0.707106781186548,-0.707106781186548));
#1469=DIRECTION('',(0.,0.707106781186548,-0.707106781186548));
#1470=DIRECTION('',(0.,0.707106781186548,0.707106781186548));
#1471=DIRECTION('',(0.,-0.707106781186548,0.707106781186548));
#1472=DIRECTION('',(0.,-0.707106781186548,-0.707106781186547));
#1473=DIRECTION('',(0.,0.707106781186548,-0.707106781186548));
#1474=DIRECTION('',(-6.20633538311818E-17,-0.894427190999916,0.447213595499958));
#1475=DIRECTION('',(0.,0.447213595499958,0.894427190999916));
#1476=DIRECTION('',(0.,0.,1.));
#1477=DIRECTION('',(1.,0.,0.));
#1478=DIRECTION('',(0.,0.,1.));
#1479=DIRECTION('',(1.,0.,0.));
#1480=DIRECTION('',(1.,0.,0.));
#1481=DIRECTION('',(0.,0.,-1.));
#1482=DIRECTION('',(1.,-6.93889390390723E-17,0.));
#1483=DIRECTION('',(6.93889390390723E-17,1.,0.));
#1484=DIRECTION('',(1.,-6.93889390390723E-17,0.));
#1485=DIRECTION('',(6.93889390390723E-17,1.,0.));
#1486=DIRECTION('',(4.9065389333868E-17,0.707106781186548,0.707106781186548));
#1487=DIRECTION('',(0.,-0.707106781186548,0.707106781186548));
#1488=DIRECTION('',(0.,-0.707106781186546,-0.707106781186549));
#1489=DIRECTION('',(0.,0.707106781186549,-0.707106781186547));
#1490=DIRECTION('',(0.,0.,1.));
#1491=DIRECTION('',(1.,0.,0.));
#1492=DIRECTION('',(-1.95156391047391E-15,0.,1.));
#1493=DIRECTION('',(1.,0.,1.95156391047391E-15));
#1494=DIRECTION('',(-1.,0.,-6.93889390390723E-17));
#1495=DIRECTION('',(-6.93889390390723E-17,0.,1.));
#1496=DIRECTION('',(-1.,0.,-6.93889390390723E-17));
#1497=DIRECTION('',(-6.93889390390723E-17,0.,1.));
#1498=DIRECTION('',(0.577350269189627,-0.577350269189625,-0.577350269189626));
#1499=DIRECTION('',(-0.707106781186547,0.,-0.707106781186548));
#1500=DIRECTION('',(-3.10316769155909E-17,-0.447213595499958,0.894427190999916));
#1501=DIRECTION('',(0.,-0.894427190999916,-0.447213595499958));
#1502=DIRECTION('',(0.,0.,1.));
#1503=DIRECTION('',(1.,0.,0.));
#1504=DIRECTION('',(-8.67361737988403E-16,0.,1.));
#1505=DIRECTION('',(1.,0.,8.67361737988403E-16));
#1506=DIRECTION('',(-1.,-2.47817639425258E-16,0.));
#1507=DIRECTION('',(2.47817639425258E-16,-1.,0.));
#1508=DIRECTION('',(1.,0.,0.));
#1509=DIRECTION('',(0.,0.,-1.));
#1510=DIRECTION('',(0.707106781186548,0.707106781186547,0.));
#1511=DIRECTION('',(-0.707106781186547,0.707106781186548,0.));
#1512=DIRECTION('',(-0.577350269189624,0.577350269189627,0.577350269189627));
#1513=DIRECTION('',(0.,-0.707106781186548,0.707106781186548));
#1514=DIRECTION('',(0.707106781186547,-0.707106781186548,0.));
#1515=DIRECTION('',(0.707106781186548,0.707106781186547,0.));
#1516=DIRECTION('',(1.,0.,1.73472347597681E-15));
#1517=DIRECTION('',(1.73472347597681E-15,0.,-1.));
#1518=DIRECTION('',(1.,0.,0.));
#1519=DIRECTION('',(0.,0.,-1.));
#1520=DIRECTION('',(-0.707106781186547,0.,-0.707106781186548));
#1521=DIRECTION('',(-0.707106781186548,0.,0.707106781186547));
#1522=DIRECTION('',(-0.707106781186548,0.,0.707106781186547));
#1523=DIRECTION('',(0.707106781186547,0.,0.707106781186548));
#1524=DIRECTION('',(-6.93889390390723E-17,-1.,0.));
#1525=DIRECTION('',(1.,-6.93889390390723E-17,0.));
#1526=DIRECTION('',(0.,-1.,0.));
#1527=DIRECTION('',(0.,0.,-1.));
#1528=DIRECTION('',(0.,1.,0.));
#1529=DIRECTION('',(0.,0.,1.));
#1530=DIRECTION('',(-1.,0.,0.));
#1531=DIRECTION('',(0.,0.,1.));
#1532=DIRECTION('',(1.,0.,0.));
#1533=DIRECTION('',(0.,0.,-1.));
#1534=DIRECTION('',(0.,0.,1.));
#1535=DIRECTION('',(1.,0.,0.));
#1536=DIRECTION('',(0.,0.,1.));
#1537=DIRECTION('',(1.,0.,0.));
#1538=DIRECTION('',(6.20633538311818E-17,0.894427190999916,-0.447213595499958));
#1539=DIRECTION('',(0.,0.447213595499958,0.894427190999916));
#1540=DIRECTION('',(0.,-0.707106781186548,-0.707106781186547));
#1541=DIRECTION('',(0.,0.707106781186547,-0.707106781186548));
#1542=DIRECTION('',(1.,0.,6.93889390390723E-17));
#1543=DIRECTION('',(6.93889390390723E-17,0.,-1.));
#1544=DIRECTION('',(1.,0.,6.93889390390723E-17));
#1545=DIRECTION('',(6.93889390390723E-17,0.,-1.));
#1546=DIRECTION('',(0.,1.,0.));
#1547=DIRECTION('',(0.,0.,1.));
#1548=DIRECTION('',(1.,0.,0.));
#1549=DIRECTION('',(0.,0.,-1.));
#1550=DIRECTION('',(1.,2.47817639425258E-16,0.));
#1551=DIRECTION('',(-2.47817639425258E-16,1.,0.));
#1552=DIRECTION('',(-1.,0.,0.));
#1553=DIRECTION('',(0.,0.,1.));
#1554=DIRECTION('',(0.,0.,1.));
#1555=DIRECTION('',(1.,0.,0.));
#1556=DIRECTION('',(0.,0.,1.));
#1557=DIRECTION('',(1.,0.,0.));
#1558=DIRECTION('',(4.9065389333868E-17,0.707106781186548,0.707106781186548));
#1559=DIRECTION('',(0.,-0.707106781186548,0.707106781186548));
#1560=DIRECTION('',(-9.19976050010026E-16,-0.707106781186548,-0.707106781186547));
#1561=DIRECTION('',(0.,0.707106781186547,-0.707106781186548));
#1562=DIRECTION('',(0.707106781186549,0.,-0.707106781186547));
#1563=DIRECTION('',(-0.707106781186547,0.,-0.707106781186549));
#1564=DIRECTION('',(0.707106781186547,0.,0.707106781186549));
#1565=DIRECTION('',(0.707106781186549,0.,-0.707106781186547));
#1566=DIRECTION('',(-0.577350269189625,-0.577350269189627,-0.577350269189626));
#1567=DIRECTION('',(0.,0.707106781186547,-0.707106781186548));
#1568=DIRECTION('',(1.,0.,0.));
#1569=DIRECTION('',(0.,0.,-1.));
#1570=DIRECTION('',(1.,0.,0.));
#1571=DIRECTION('',(0.,0.,-1.));
#1572=DIRECTION('',(0.,1.,8.67361737988403E-16));
#1573=DIRECTION('',(0.,-8.67361737988403E-16,1.));
#1574=DIRECTION('',(0.,-1.,0.));
#1575=DIRECTION('',(0.,0.,-1.));
#1576=DIRECTION('',(3.10316769155909E-17,0.447213595499958,-0.894427190999916));
#1577=DIRECTION('',(0.,-0.894427190999916,-0.447213595499958));
#1578=DIRECTION('',(0.,1.,0.));
#1579=DIRECTION('',(0.,0.,1.));
#1580=DIRECTION('',(0.,1.,0.));
#1581=DIRECTION('',(0.,0.,1.));
#1582=DIRECTION('',(-6.93889390390723E-17,-1.,0.));
#1583=DIRECTION('',(1.,-6.93889390390723E-17,0.));
#1584=DIRECTION('',(-0.707106781186548,-1.75233533335242E-16,0.707106781186548));
#1585=DIRECTION('',(0.707106781186548,0.,0.707106781186548));
#1586=DIRECTION('',(-1.,-2.47817639425258E-16,0.));
#1587=DIRECTION('',(0.,0.,-1.));
#1588=DIRECTION('',(0.707106781186548,0.,-0.707106781186547));
#1589=DIRECTION('',(-0.707106781186547,0.,-0.707106781186548));
#1590=DIRECTION('',(-2.47817639425258E-16,1.,0.));
#1591=DIRECTION('',(-1.,-2.47817639425258E-16,0.));
#1592=DIRECTION('',(0.707106781186546,0.,0.707106781186549));
#1593=DIRECTION('',(0.707106781186549,0.,-0.707106781186546));
#1594=DIRECTION('',(-0.707106781186548,-1.75233533335242E-16,-0.707106781186548));
#1595=DIRECTION('',(-0.707106781186548,0.,0.707106781186548));
#1596=DIRECTION('',(0.707106781186548,0.,-0.707106781186547));
#1597=DIRECTION('',(-0.707106781186547,0.,-0.707106781186548));
#1598=DIRECTION('',(1.,0.,9.42055475210265E-16));
#1599=DIRECTION('',(-9.42055475210265E-16,0.,1.));
#1600=DIRECTION('',(0.707106781186549,3.06658683336675E-16,-0.707106781186547));
#1601=DIRECTION('',(-0.707106781186547,0.,-0.707106781186549));
#1602=DIRECTION('',(0.,1.,0.));
#1603=DIRECTION('',(0.,0.,1.));
#1604=DIRECTION('',(0.707106781186547,3.06658683336674E-16,0.707106781186548));
#1605=DIRECTION('',(0.707106781186548,0.,-0.707106781186547));
#1606=DIRECTION('',(0.707106781186547,0.,0.707106781186548));
#1607=DIRECTION('',(0.707106781186548,0.,-0.707106781186547));
#1608=CARTESIAN_POINT('',(0.,0.,0.));
#1609=CARTESIAN_POINT('',(-0.0065,0.01,0.025));
#1610=CARTESIAN_POINT('',(-0.00124264068711929,0.01,0.0197426406871193));
#1611=CARTESIAN_POINT('',(-0.00424264068711928,0.01,0.0167426406871193));
#1612=CARTESIAN_POINT('',(-3.04401886138412E-19,0.01,0.0209852813742386));
#1613=CARTESIAN_POINT('',(0.00424264068711928,0.01,0.0167426406871193));
#1614=CARTESIAN_POINT('',(0.00424264068711928,0.01,0.0167426406871193));
#1615=CARTESIAN_POINT('',(-7.27175860126589E-19,0.01,0.0125));
#1616=CARTESIAN_POINT('',(0.006,0.01,0.0125));
#1617=CARTESIAN_POINT('',(0.006,0.01,0.025));
#1618=CARTESIAN_POINT('',(0.006,0.01,0.024));
#1619=CARTESIAN_POINT('',(-0.007,0.01,0.024));
#1620=CARTESIAN_POINT('',(-0.006,0.01,0.024));
#1621=CARTESIAN_POINT('',(-0.006,0.01,0.));
#1622=CARTESIAN_POINT('',(-0.006,0.01,0.0125));
#1623=CARTESIAN_POINT('',(-7.27175860126589E-19,0.01,0.0125));
#1624=CARTESIAN_POINT('',(-0.0065,0.01,0.025));
#1625=CARTESIAN_POINT('',(0.006,0.01,0.025));
#1626=CARTESIAN_POINT('',(0.006,0.01,0.001));
#1627=CARTESIAN_POINT('',(-7.27175860126589E-19,0.01,0.0125));
#1628=CARTESIAN_POINT('',(-0.006,0.01,0.));
#1629=CARTESIAN_POINT('',(-0.006,0.01,0.001));
#1630=CARTESIAN_POINT('',(-0.0065,0.01,0.001));
#1631=CARTESIAN_POINT('',(-3.46944695195361E-18,0.,0.));
#1632=CARTESIAN_POINT('',(0.006,-4.16333634234434E-19,0.));
#1633=CARTESIAN_POINT('',(0.006,-0.014,0.));
#1634=CARTESIAN_POINT('',(0.006,0.009,0.));
#1635=CARTESIAN_POINT('',(-5.69980570678094E-18,0.009,0.));
#1636=CARTESIAN_POINT('',(-0.006,0.009,0.));
#1637=CARTESIAN_POINT('',(-0.006,4.16333634234433E-19,0.));
#1638=CARTESIAN_POINT('',(-0.006,-0.014,0.));
#1639=CARTESIAN_POINT('',(0.007,-0.014,0.));
#1640=CARTESIAN_POINT('',(-1.65310363662981E-18,0.015002,0.0125));
#1641=CARTESIAN_POINT('',(0.00176776695296636,0.015002,0.0142677669529664));
#1642=CARTESIAN_POINT('',(0.00176776695296636,0.014,0.0142677669529664));
#1643=CARTESIAN_POINT('',(0.00176776695296636,0.011,0.0142677669529664));
#1644=CARTESIAN_POINT('',(-1.4047903619257E-18,0.014,0.0125));
#1645=CARTESIAN_POINT('',(-0.00176776695296637,0.014,0.0142677669529664));
#1646=CARTESIAN_POINT('',(-0.00176776695296637,0.015002,0.0142677669529664));
#1647=CARTESIAN_POINT('',(-0.00176776695296637,0.011,0.0142677669529664));
#1648=CARTESIAN_POINT('',(-6.61337443649931E-19,0.011,0.0125));
#1649=CARTESIAN_POINT('',(0.000883883476483181,0.015002,0.0151516504294495));
#1650=CARTESIAN_POINT('',(-3.84166904637035E-18,0.015002,0.0160355339059328));
#1651=CARTESIAN_POINT('',(-3.59335577166625E-18,0.014,0.0160355339059328));
#1652=CARTESIAN_POINT('',(-2.84990285339047E-18,0.011,0.0160355339059328));
#1653=CARTESIAN_POINT('',(0.000883883476483181,0.014,0.0151516504294495));
#1654=CARTESIAN_POINT('',(0.000883883476483182,0.011,0.0151516504294495));
#1655=CARTESIAN_POINT('',(-0.000883883476483189,0.015002,0.0151516504294495));
#1656=CARTESIAN_POINT('',(-3.30841242268344E-18,0.014,0.0160355339059328));
#1657=CARTESIAN_POINT('',(-0.000883883476483188,0.011,0.0151516504294495));
#1658=CARTESIAN_POINT('',(0.01,-0.0025,-0.005));
#1659=CARTESIAN_POINT('',(0.01,0.014,0.025));
#1660=CARTESIAN_POINT('',(0.01,0.014,-0.004));
#1661=CARTESIAN_POINT('',(0.01,0.014,0.024));
#1662=CARTESIAN_POINT('',(0.01,0.01,0.024));
#1663=CARTESIAN_POINT('',(0.01,0.0104142135623731,0.024));
#1664=CARTESIAN_POINT('',(0.01,-0.0142928932188135,-0.000707106781186546));
#1665=CARTESIAN_POINT('',(0.01,-0.014,-0.00041421356237309));
#1666=CARTESIAN_POINT('',(0.01,-0.014,-0.005));
#1667=CARTESIAN_POINT('',(0.01,-0.014,-0.004));
#1668=CARTESIAN_POINT('',(0.01,-0.0025,-0.004));
#1669=CARTESIAN_POINT('',(0.,0.015,-0.005));
#1670=CARTESIAN_POINT('',(0.0112248737341529,0.015,0.00622487373415294));
#1671=CARTESIAN_POINT('',(0.00247487373415291,0.015,0.0149748737341529));
#1672=CARTESIAN_POINT('',(-8.21361964995757E-18,0.015,0.0174497474683059));
#1673=CARTESIAN_POINT('',(-0.00247487373415292,0.015,0.0149748737341529));
#1674=CARTESIAN_POINT('',(-0.00247487373415292,0.015,0.0149748737341529));
#1675=CARTESIAN_POINT('',(-1.4047903619257E-18,0.015,0.0125));
#1676=CARTESIAN_POINT('',(-0.009,0.015,-0.005));
#1677=CARTESIAN_POINT('',(-0.009,0.015,-0.004));
#1678=CARTESIAN_POINT('',(-0.009,0.015,0.024));
#1679=CARTESIAN_POINT('',(0.,0.015,0.024));
#1680=CARTESIAN_POINT('',(0.009,0.015,0.024));
#1681=CARTESIAN_POINT('',(0.009,0.015,-0.005));
#1682=CARTESIAN_POINT('',(0.009,0.015,-0.004));
#1683=CARTESIAN_POINT('',(-0.01,0.015,-0.004));
#1684=CARTESIAN_POINT('',(-0.01,-0.0025,-0.005));
#1685=CARTESIAN_POINT('',(-0.01,0.0107071067811865,0.0242928932188134));
#1686=CARTESIAN_POINT('',(-0.01,-0.014,-0.00041421356237309));
#1687=CARTESIAN_POINT('',(-0.01,0.0104142135623731,0.024));
#1688=CARTESIAN_POINT('',(-0.01,-0.0025,0.024));
#1689=CARTESIAN_POINT('',(-0.01,0.014,0.024));
#1690=CARTESIAN_POINT('',(-0.01,0.014,-0.005));
#1691=CARTESIAN_POINT('',(-0.01,0.014,-0.004));
#1692=CARTESIAN_POINT('',(-0.01,-0.015,-0.004));
#1693=CARTESIAN_POINT('',(-0.01,-0.014,-0.004));
#1694=CARTESIAN_POINT('',(-0.01,-0.014,0.));
#1695=CARTESIAN_POINT('',(-3.46944695195361E-18,-0.015,-0.005));
#1696=CARTESIAN_POINT('',(0.009,-0.015,-0.005));
#1697=CARTESIAN_POINT('',(0.009,-0.015,-0.004));
#1698=CARTESIAN_POINT('',(0.009,-0.015,-0.000414213562373092));
#1699=CARTESIAN_POINT('',(0.007,-0.015,-0.000414213562373092));
#1700=CARTESIAN_POINT('',(0.0074142135623731,-0.015,-0.000414213562373092));
#1701=CARTESIAN_POINT('',(0.006,-0.015,0.001));
#1702=CARTESIAN_POINT('',(0.006,-0.015,-0.001));
#1703=CARTESIAN_POINT('',(-0.007,-0.015,-0.001));
#1704=CARTESIAN_POINT('',(-0.006,-0.015,-0.001));
#1705=CARTESIAN_POINT('',(-0.006,-0.015,0.001));
#1706=CARTESIAN_POINT('',(-0.0074142135623731,-0.015,-0.000414213562373096));
#1707=CARTESIAN_POINT('',(-3.78764980752031E-18,-0.015,-0.000414213562373095));
#1708=CARTESIAN_POINT('',(-0.009,-0.015,-0.000414213562373096));
#1709=CARTESIAN_POINT('',(-0.009,-0.015,-0.005));
#1710=CARTESIAN_POINT('',(-0.009,-0.015,-0.004));
#1711=CARTESIAN_POINT('',(-3.46944695195361E-18,-0.015,-0.004));
#1712=CARTESIAN_POINT('',(-3.46944695195361E-18,0.,-0.005));
#1713=CARTESIAN_POINT('',(0.009,-6.24500451351651E-19,-0.005));
#1714=CARTESIAN_POINT('',(0.009,0.014,-0.005));
#1715=CARTESIAN_POINT('',(0.009,-0.014,-0.005));
#1716=CARTESIAN_POINT('',(-3.46944695195361E-18,-0.014,-0.005));
#1717=CARTESIAN_POINT('',(-0.009,-0.014,-0.005));
#1718=CARTESIAN_POINT('',(-0.009,0.015,-0.005));
#1719=CARTESIAN_POINT('',(-0.009,0.014,-0.005));
#1720=CARTESIAN_POINT('',(0.01,0.014,-0.005));
#1721=CARTESIAN_POINT('',(-3.46944695195361E-18,0.,0.025));
#1722=CARTESIAN_POINT('',(0.007,0.011,0.025));
#1723=CARTESIAN_POINT('',(-0.006,0.011,0.025));
#1724=CARTESIAN_POINT('',(0.006,0.011,0.025));
#1725=CARTESIAN_POINT('',(0.006,0.009,0.025));
#1726=CARTESIAN_POINT('',(0.0074142135623731,0.0104142135623731,0.025));
#1727=CARTESIAN_POINT('',(-2.74681572193423E-18,0.0104142135623731,0.025));
#1728=CARTESIAN_POINT('',(0.009,0.0104142135623731,0.025));
#1729=CARTESIAN_POINT('',(0.009,0.015,0.025));
#1730=CARTESIAN_POINT('',(0.009,0.014,0.025));
#1731=CARTESIAN_POINT('',(-3.46944695195361E-18,0.014,0.025));
#1732=CARTESIAN_POINT('',(-0.009,0.014,0.025));
#1733=CARTESIAN_POINT('',(-0.009,6.24500451351651E-19,0.025));
#1734=CARTESIAN_POINT('',(-0.009,0.0104142135623731,0.025));
#1735=CARTESIAN_POINT('',(-0.007,0.0104142135623731,0.025));
#1736=CARTESIAN_POINT('',(-0.0074142135623731,0.0104142135623731,0.025));
#1737=CARTESIAN_POINT('',(-0.006,0.009,0.025));
#1738=CARTESIAN_POINT('',(-2.72599403367784E-18,0.011,0.0125));
#1739=CARTESIAN_POINT('',(-9.74993499551847E-19,0.011,0.0125));
#1740=CARTESIAN_POINT('',(-0.00353553390593274,0.011,0.0160355339059328));
#1741=CARTESIAN_POINT('',(0.00353553390593274,0.011,0.0160355339059328));
#1742=CARTESIAN_POINT('',(0.00176776695296637,0.011,0.0178033008588991));
#1743=CARTESIAN_POINT('',(-1.54886024640786E-18,0.011,0.0195710678118655));
#1744=CARTESIAN_POINT('',(-0.00176776695296637,0.011,0.0178033008588991));
#1745=CARTESIAN_POINT('',(-0.007,-0.0025,0.0125));
#1746=CARTESIAN_POINT('',(-0.006,-0.0132928932188134,0.00170710678118655));
#1747=CARTESIAN_POINT('',(-0.0074142135623731,-0.0147071067811865,0.000292893218813453));
#1748=CARTESIAN_POINT('',(-0.008,-0.0132928932188134,0.00170710678118655));
#1749=CARTESIAN_POINT('',(-0.008,-0.0025,0.0125));
#1750=CARTESIAN_POINT('',(-0.008,0.00829289321881345,0.0232928932188135));
#1751=CARTESIAN_POINT('',(-0.006,0.00829289321881345,0.0232928932188135));
#1752=CARTESIAN_POINT('',(-0.0074142135623731,0.00970710678118654,0.0247071067811865));
#1753=CARTESIAN_POINT('',(-0.01,0.00970710678118654,0.0247071067811865));
#1754=CARTESIAN_POINT('',(-0.009,0.00970710678118654,0.0247071067811865));
#1755=CARTESIAN_POINT('',(-0.009,-0.015,1.33505495059525E-18));
#1756=CARTESIAN_POINT('',(-0.009,-0.0147071067811865,0.000292893218813452));
#1757=CARTESIAN_POINT('',(-0.007,-0.0147071067811865,0.000292893218813453));
#1758=CARTESIAN_POINT('',(-0.007,4.85722573273506E-19,0.01));
#1759=CARTESIAN_POINT('',(-0.007,-0.00179289321881345,0.0117928932188135));
#1760=CARTESIAN_POINT('',(-0.007,0.009,0.0225857864376269));
#1761=CARTESIAN_POINT('',(-0.007,-0.0125857864376269,0.001));
#1762=CARTESIAN_POINT('',(-0.007,4.85722573273506E-19,0.001));
#1763=CARTESIAN_POINT('',(-0.007,0.009,0.001));
#1764=CARTESIAN_POINT('',(-0.007,0.009,0.025));
#1765=CARTESIAN_POINT('',(0.007,-0.0025,0.0125));
#1766=CARTESIAN_POINT('',(0.007,0.00970710678118654,0.0247071067811865));
#1767=CARTESIAN_POINT('',(0.009,0.00970710678118655,0.0247071067811865));
#1768=CARTESIAN_POINT('',(0.0074142135623731,0.00970710678118655,0.0247071067811865));
#1769=CARTESIAN_POINT('',(0.006,0.00829289321881345,0.0232928932188135));
#1770=CARTESIAN_POINT('',(0.008,0.00829289321881345,0.0232928932188135));
#1771=CARTESIAN_POINT('',(0.008,-0.015,1.0842021724855E-19));
#1772=CARTESIAN_POINT('',(0.008,-0.0132928932188134,0.00170710678118655));
#1773=CARTESIAN_POINT('',(0.006,-0.0132928932188134,0.00170710678118655));
#1774=CARTESIAN_POINT('',(0.00741421356237309,-0.0147071067811865,0.000292893218813455));
#1775=CARTESIAN_POINT('',(0.01,-0.0147071067811865,0.000292893218813455));
#1776=CARTESIAN_POINT('',(0.009,-0.0147071067811865,0.000292893218813455));
#1777=CARTESIAN_POINT('',(0.009,0.01,0.025));
#1778=CARTESIAN_POINT('',(0.007,-3.95516952522712E-18,0.01));
#1779=CARTESIAN_POINT('',(0.007,0.009,0.));
#1780=CARTESIAN_POINT('',(0.007,0.009,0.0225857864376269));
#1781=CARTESIAN_POINT('',(0.007,0.009,0.001));
#1782=CARTESIAN_POINT('',(0.007,-3.95516952522712E-18,0.001));
#1783=CARTESIAN_POINT('',(0.007,-0.0125857864376269,0.001));
#1784=CARTESIAN_POINT('',(0.007,0.0107071067811865,0.0242928932188134));
#1785=CARTESIAN_POINT('',(-0.009,0.014,-0.005));
#1786=CARTESIAN_POINT('',(-0.009,0.014,-0.004));
#1787=CARTESIAN_POINT('',(-0.009,0.014,0.024));
#1788=CARTESIAN_POINT('',(-0.009,0.014,-0.004));
#1789=CARTESIAN_POINT('',(-0.009,0.014,-0.004));
#1790=CARTESIAN_POINT('',(-0.009,0.014,-0.004));
#1791=CARTESIAN_POINT('',(-0.009,0.014,0.024));
#1792=CARTESIAN_POINT('',(-0.009,0.014,0.024));
#1793=CARTESIAN_POINT('',(-0.009,0.014,0.024));
#1794=CARTESIAN_POINT('',(-3.46944695195361E-18,0.014,0.024));
#1795=CARTESIAN_POINT('',(0.009,0.014,0.024));
#1796=CARTESIAN_POINT('',(0.009,0.014,-0.005));
#1797=CARTESIAN_POINT('',(0.009,0.014,-0.004));
#1798=CARTESIAN_POINT('',(0.009,0.014,0.024));
#1799=CARTESIAN_POINT('',(0.,0.014,-0.004));
#1800=CARTESIAN_POINT('',(0.009,0.014,-0.004));
#1801=CARTESIAN_POINT('',(-0.009,-0.0025,-0.004));
#1802=CARTESIAN_POINT('',(-0.009,-0.014,-0.004));
#1803=CARTESIAN_POINT('',(-0.009,6.24500451351651E-19,0.024));
#1804=CARTESIAN_POINT('',(-0.009,0.0104142135623731,0.024));
#1805=CARTESIAN_POINT('',(0.009,0.014,0.024));
#1806=CARTESIAN_POINT('',(0.009,0.014,0.024));
#1807=CARTESIAN_POINT('',(0.009,0.014,-0.004));
#1808=CARTESIAN_POINT('',(0.009,0.014,-0.004));
#1809=CARTESIAN_POINT('',(-0.009,-0.014,-0.004));
#1810=CARTESIAN_POINT('',(-0.009,-0.014,-0.004));
#1811=CARTESIAN_POINT('',(-0.009,-0.014,-0.004));
#1812=CARTESIAN_POINT('',(-0.009,0.0104142135623731,0.024));
#1813=CARTESIAN_POINT('',(-0.009,0.0104142135623731,0.024));
#1814=CARTESIAN_POINT('',(-0.009,0.0104142135623731,0.024));
#1815=CARTESIAN_POINT('',(-2.74681572193423E-18,0.0104142135623731,0.024));
#1816=CARTESIAN_POINT('',(-0.0074142135623731,0.0104142135623731,0.024));
#1817=CARTESIAN_POINT('',(0.009,-0.0025,0.024));
#1818=CARTESIAN_POINT('',(0.009,0.0104142135623731,0.024));
#1819=CARTESIAN_POINT('',(0.009,-6.24500451351651E-19,-0.004));
#1820=CARTESIAN_POINT('',(0.009,-0.014,-0.004));
#1821=CARTESIAN_POINT('',(-3.46944695195361E-18,-0.014,-0.004));
#1822=CARTESIAN_POINT('',(0.009,-0.014,-0.004));
#1823=CARTESIAN_POINT('',(-0.009,-0.014,-0.005));
#1824=CARTESIAN_POINT('',(-0.009,-0.014,-0.00041421356237309));
#1825=CARTESIAN_POINT('',(-0.009,-0.00179289321881346,0.0117928932188135));
#1826=CARTESIAN_POINT('',(-0.009,-0.014,-0.000414213562373095));
#1827=CARTESIAN_POINT('',(-0.0074142135623731,0.0104142135623731,0.024));
#1828=CARTESIAN_POINT('',(-0.0074142135623731,0.0104142135623731,0.024));
#1829=CARTESIAN_POINT('',(-0.00670710678118655,0.00970710678118654,0.024));
#1830=CARTESIAN_POINT('',(-0.0074142135623731,0.0104142135623731,0.024));
#1831=CARTESIAN_POINT('',(0.009,0.0104142135623731,0.024));
#1832=CARTESIAN_POINT('',(0.009,0.0104142135623731,0.024));
#1833=CARTESIAN_POINT('',(0.009,0.0104142135623731,0.024));
#1834=CARTESIAN_POINT('',(0.009,-0.014,-0.004));
#1835=CARTESIAN_POINT('',(0.009,-0.014,-0.004));
#1836=CARTESIAN_POINT('',(-0.009,-0.014,-0.000414213562373094));
#1837=CARTESIAN_POINT('',(-0.009,-0.014,-0.000414213562373096));
#1838=CARTESIAN_POINT('',(-0.008,-0.00179289321881345,0.0117928932188135));
#1839=CARTESIAN_POINT('',(-0.008,0.009,0.0225857864376269));
#1840=CARTESIAN_POINT('',(-0.008,-0.0125857864376269,0.001));
#1841=CARTESIAN_POINT('',(-0.007,0.009,0.0225857864376269));
#1842=CARTESIAN_POINT('',(-0.007,0.00829289321881345,0.0232928932188134));
#1843=CARTESIAN_POINT('',(-0.00800000000000001,0.00829289321881345,0.0232928932188135));
#1844=CARTESIAN_POINT('',(-0.007,0.0092617993987075,0.0231093852350432));
#1845=CARTESIAN_POINT('',(-0.00716943705185094,0.00865232344646292,0.0236523234464694));
#1846=CARTESIAN_POINT('',(-0.00799999999999294,0.00881649201622942,0.0238164920162294));
#1847=CARTESIAN_POINT('',(-0.006892226913895,0.0095219866484781,0.0236297597345764));
#1848=CARTESIAN_POINT('',(-0.00715788243136868,0.00912728708131614,0.0241272870813197));
#1849=CARTESIAN_POINT('',(-0.0077844538277825,0.0093368665157638,0.0243368665157638));
#1850=CARTESIAN_POINT('',(-0.00670710678118655,0.00970710678118655,0.024));
#1851=CARTESIAN_POINT('',(-0.00694280904158207,0.00947140452079103,0.024471404520791));
#1852=CARTESIAN_POINT('',(-0.0074142135623731,0.00970710678118654,0.0247071067811865));
#1853=CARTESIAN_POINT('',(-0.006,0.009,0.0225857864376269));
#1854=CARTESIAN_POINT('',(-0.006,0.009,0.024));
#1855=CARTESIAN_POINT('',(-0.006,0.009,0.024));
#1856=CARTESIAN_POINT('',(-0.006,0.011,0.024));
#1857=CARTESIAN_POINT('',(-2.74681572193423E-18,0.0104142135623731,0.024));
#1858=CARTESIAN_POINT('',(0.0074142135623731,0.0104142135623731,0.024));
#1859=CARTESIAN_POINT('',(0.009,-0.0105428932188135,0.00304289321881346));
#1860=CARTESIAN_POINT('',(0.009,-0.014,-0.00041421356237309));
#1861=CARTESIAN_POINT('',(0.009,-0.014,-0.005));
#1862=CARTESIAN_POINT('',(0.009,-0.014,-0.000414213562373092));
#1863=CARTESIAN_POINT('',(-3.78764980752031E-18,-0.014,-0.000414213562373095));
#1864=CARTESIAN_POINT('',(-0.0074142135623731,-0.014,-0.000414213562373095));
#1865=CARTESIAN_POINT('',(-0.00670710678118655,-0.014,0.000292893218813452));
#1866=CARTESIAN_POINT('',(-0.00694280904158207,-0.014471404520791,0.000528595479208968));
#1867=CARTESIAN_POINT('',(-0.0074142135623731,-0.0147071067811865,0.000292893218813452));
#1868=CARTESIAN_POINT('',(-0.00689222691389446,-0.013629759734578,0.000478013351521363));
#1869=CARTESIAN_POINT('',(-0.00715788243137081,-0.0141272870813227,0.000872712918681818));
#1870=CARTESIAN_POINT('',(-0.00778445382778343,-0.0143368665157645,0.000663133484235497));
#1871=CARTESIAN_POINT('',(-0.007,-0.0131093852350429,0.000738200601292815));
#1872=CARTESIAN_POINT('',(-0.00716943705185138,-0.0136523234464647,0.00134767655353463));
#1873=CARTESIAN_POINT('',(-0.00799999999999294,-0.0138164920162288,0.00118350798377121));
#1874=CARTESIAN_POINT('',(-0.007,-0.0125857864376269,0.001));
#1875=CARTESIAN_POINT('',(-0.007,-0.0132928932188135,0.00170710678118655));
#1876=CARTESIAN_POINT('',(-0.008,-0.0132928932188135,0.00170710678118655));
#1877=CARTESIAN_POINT('',(-0.0074142135623731,-0.014,-0.000414213562373095));
#1878=CARTESIAN_POINT('',(-0.00670710678118655,-0.014,0.000292893218813452));
#1879=CARTESIAN_POINT('',(-0.006,-0.0125857864376269,0.001));
#1880=CARTESIAN_POINT('',(-0.006,0.009,0.025));
#1881=CARTESIAN_POINT('',(-0.006,0.009,0.001));
#1882=CARTESIAN_POINT('',(-6.19544098563145E-18,0.011,0.024));
#1883=CARTESIAN_POINT('',(0.006,0.011,0.024));
#1884=CARTESIAN_POINT('',(0.0074142135623731,0.0104142135623731,0.024));
#1885=CARTESIAN_POINT('',(0.0074142135623731,0.0104142135623731,0.024));
#1886=CARTESIAN_POINT('',(0.00670710678118655,0.00970710678118655,0.024));
#1887=CARTESIAN_POINT('',(0.0074142135623731,0.0104142135623731,0.024));
#1888=CARTESIAN_POINT('',(0.009,-0.014,-0.000414213562373092));
#1889=CARTESIAN_POINT('',(0.009,-0.014,-0.000414213562373093));
#1890=CARTESIAN_POINT('',(-0.0074142135623731,-0.014,-0.000414213562373096));
#1891=CARTESIAN_POINT('',(-0.0074142135623731,-0.014,-0.000414213562373096));
#1892=CARTESIAN_POINT('',(-0.006,4.16333634234433E-19,0.001));
#1893=CARTESIAN_POINT('',(-0.006,0.009,0.001));
#1894=CARTESIAN_POINT('',(-0.006,-0.014,0.001));
#1895=CARTESIAN_POINT('',(-0.006,0.009,0.001));
#1896=CARTESIAN_POINT('',(-0.006,0.009,0.001));
#1897=CARTESIAN_POINT('',(0.006,0.009,0.024));
#1898=CARTESIAN_POINT('',(0.006,0.009,0.024));
#1899=CARTESIAN_POINT('',(0.008,0.00829289321881345,0.0232928932188134));
#1900=CARTESIAN_POINT('',(0.007,0.00829289321881345,0.0232928932188134));
#1901=CARTESIAN_POINT('',(0.007,0.009,0.0225857864376269));
#1902=CARTESIAN_POINT('',(0.00799999999999294,0.00881649201622814,0.0238164920162281));
#1903=CARTESIAN_POINT('',(0.00716943705184873,0.00865232344646364,0.0236523234464695));
#1904=CARTESIAN_POINT('',(0.007,0.0092617993987075,0.0231093852350432));
#1905=CARTESIAN_POINT('',(0.00778445382778221,0.00933686651576548,0.0243368665157655));
#1906=CARTESIAN_POINT('',(0.00715788243136962,0.00912728708131491,0.0241272870813124));
#1907=CARTESIAN_POINT('',(0.006892226913895,0.0095219866484781,0.0236297597345798));
#1908=CARTESIAN_POINT('',(0.00741421356237309,0.00970710678118655,0.0247071067811865));
#1909=CARTESIAN_POINT('',(0.00694280904158206,0.00947140452079104,0.024471404520791));
#1910=CARTESIAN_POINT('',(0.00670710678118655,0.00970710678118655,0.024));
#1911=CARTESIAN_POINT('',(0.006,0.009,0.0225857864376269));
#1912=CARTESIAN_POINT('',(0.008,0.009,0.0225857864376269));
#1913=CARTESIAN_POINT('',(-3.78764980752031E-18,-0.014,-0.000414213562373093));
#1914=CARTESIAN_POINT('',(0.0074142135623731,-0.014,-0.000414213562373092));
#1915=CARTESIAN_POINT('',(-0.006,-0.014,0.001));
#1916=CARTESIAN_POINT('',(-0.006,-0.014,-0.001));
#1917=CARTESIAN_POINT('',(-0.0065,0.009,0.001));
#1918=CARTESIAN_POINT('',(0.006,0.009,0.001));
#1919=CARTESIAN_POINT('',(0.006,0.009,0.01));
#1920=CARTESIAN_POINT('',(0.006,0.009,0.001));
#1921=CARTESIAN_POINT('',(0.008,-0.00179289321881346,0.0117928932188135));
#1922=CARTESIAN_POINT('',(0.008,-0.0125857864376269,0.001));
#1923=CARTESIAN_POINT('',(0.0074142135623731,-0.014,-0.000414213562373092));
#1924=CARTESIAN_POINT('',(0.0074142135623731,-0.014,-0.000414213562373092));
#1925=CARTESIAN_POINT('',(0.00670710678118655,-0.014,0.000292893218813455));
#1926=CARTESIAN_POINT('',(0.00741421356237309,-0.014,-0.000414213562373093));
#1927=CARTESIAN_POINT('',(-3.46944695195361E-18,-0.014,-0.001));
#1928=CARTESIAN_POINT('',(0.006,-0.014,-0.001));
#1929=CARTESIAN_POINT('',(0.006,0.009,0.001));
#1930=CARTESIAN_POINT('',(0.006,0.009,0.001));
#1931=CARTESIAN_POINT('',(0.0074142135623731,-0.0147071067811865,0.000292893218813454));
#1932=CARTESIAN_POINT('',(0.00694280904158207,-0.014471404520791,0.000528595479208969));
#1933=CARTESIAN_POINT('',(0.00670710678118655,-0.014,0.000292893218813452));
#1934=CARTESIAN_POINT('',(0.00778445382778232,-0.0143368665157656,0.000663133484234421));
#1935=CARTESIAN_POINT('',(0.00715788243136877,-0.01412728708132,0.000872712918681961));
#1936=CARTESIAN_POINT('',(0.00689222691389401,-0.0136297597345797,0.000478013351520911));
#1937=CARTESIAN_POINT('',(0.00799999999999294,-0.0138164920162278,0.00118350798377218));
#1938=CARTESIAN_POINT('',(0.00716943705185297,-0.0136523234464657,0.00134767655353412));
#1939=CARTESIAN_POINT('',(0.007,-0.0131093852350409,0.000738200601292575));
#1940=CARTESIAN_POINT('',(0.008,-0.0132928932188135,0.00170710678118655));
#1941=CARTESIAN_POINT('',(0.007,-0.0132928932188135,0.00170710678118655));
#1942=CARTESIAN_POINT('',(0.007,-0.0125857864376269,0.001));
#1943=CARTESIAN_POINT('',(0.006,-0.0125857864376269,0.001));
#1944=CARTESIAN_POINT('',(0.006,-0.014,0.001));
#1945=CARTESIAN_POINT('',(0.006,-0.014,0.001));
#1946=CARTESIAN_POINT('',(0.006,-3.88578058618805E-18,0.001));
#1947=CARTESIAN_POINT('',(-0.00525735931288072,0.011,0.0262426406871193));
#1948=CARTESIAN_POINT('',(-1.0842021724855E-18,0.011,0.0209852813742386));
#1949=CARTESIAN_POINT('',(0.00424264068711928,0.011,0.0167426406871193));
#1950=CARTESIAN_POINT('',(-9.74993499551847E-19,0.011,0.0125));
#1951=CARTESIAN_POINT('',(-0.00424264068711928,0.011,0.0167426406871193));
#1952=CARTESIAN_POINT('',(-0.00247487373415291,0.011,0.0185104076400857));
#1953=CARTESIAN_POINT('',(0.00159099025766973,0.014,0.0158587572106361));
#1954=CARTESIAN_POINT('',(-9.75781955236954E-18,0.014,0.0174497474683059));
#1955=CARTESIAN_POINT('',(0.00247487373415291,0.014,0.0149748737341529));
#1956=CARTESIAN_POINT('',(-1.4047903619257E-18,0.014,0.0125));
#1957=CARTESIAN_POINT('',(-0.00247487373415292,0.014,0.0149748737341529));
#1958=CARTESIAN_POINT('',(-0.0112248737341529,0.014,0.0062248737341529));
#1959=MECHANICAL_DESIGN_GEOMETRIC_PRESENTATION_REPRESENTATION('',(#1065),
#1960);
#1960=(
GEOMETRIC_REPRESENTATION_CONTEXT(3)
GLOBAL_UNCERTAINTY_ASSIGNED_CONTEXT((#1961))
GLOBAL_UNIT_ASSIGNED_CONTEXT((#1964,#1963,#1962))
REPRESENTATION_CONTEXT('y axis rail spacer','TOP_LEVEL_ASSEMBLY_PART')
);
#1961=UNCERTAINTY_MEASURE_WITH_UNIT(LENGTH_MEASURE(2.E-5),#1964,
'DISTANCE_ACCURACY_VALUE','Maximum Tolerance applied to model');
#1962=(
NAMED_UNIT(*)
SI_UNIT($,.STERADIAN.)
SOLID_ANGLE_UNIT()
);
#1963=(
NAMED_UNIT(*)
PLANE_ANGLE_UNIT()
SI_UNIT($,.RADIAN.)
);
#1964=(
LENGTH_UNIT()
NAMED_UNIT(*)
SI_UNIT($,.METRE.)
);
#1965=PRODUCT_DEFINITION_SHAPE('','',#1966);
#1966=PRODUCT_DEFINITION('','',#1968,#1967);
#1967=PRODUCT_DEFINITION_CONTEXT('',#1974,'design');
#1968=PRODUCT_DEFINITION_FORMATION_WITH_SPECIFIED_SOURCE('','',#1970,
 .NOT_KNOWN.);
#1969=PRODUCT_RELATED_PRODUCT_CATEGORY('','',(#1970));
#1970=PRODUCT('y axis rail spacer','y axis rail spacer',
'y axis rail spacer',(#1972));
#1971=PRODUCT_CATEGORY('','');
#1972=PRODUCT_CONTEXT('',#1974,'mechanical');
#1973=APPLICATION_PROTOCOL_DEFINITION('international standard',
'ap242_managed_model_based_3d_engineering',2020,#1974);
#1974=APPLICATION_CONTEXT('managed model based 3d engineering');
ENDSEC;
END-ISO-10303-21;
